<svg xmlns="http://www.w3.org/2000/svg" viewBox="0 0 35.71 15.33">
  <defs>
    <style>
      .cls-1 {
        fill: #0d0b03;
      }

      .cls-2 {
        fill: #f8d116;
      }

      .cls-3 {
        fill: #e4141d;
      }

      .cls-4 {
        fill: #49ad33;
      }

      .cls-5 {
        fill: #805f15;
      }

      .cls-6 {
        fill: #138f38;
      }

      .cls-7 {
        fill: #231a03;
      }

      .cls-8 {
        fill: #261c04;
      }

      .cls-9 {
        fill: #2e2307;
      }

      .cls-10 {
        fill: #322607;
      }

      .cls-11 {
        fill: #362907;
      }

      .cls-12 {
        fill: #291f06;
      }

      .cls-13 {
        fill: #392b08;
      }

      .cls-14 {
        fill: #3d2e0a;
      }

      .cls-15 {
        fill: #fff;
      }

      .cls-16 {
        fill: #cb1718;
      }
    </style>
  </defs>
  <g id="Capa_2" data-name="Capa 2">
    <g id="Capa_1-2" data-name="Capa 1">
      <g>
        <path class="cls-1" d="M14.54,3.51a5.64,5.64,0,0,0-.31-.81c-.15-.34-.32-.69-.5-1a1.19,1.19,0,0,0-.68-.58A2.62,2.62,0,0,0,11.61,1a3.67,3.67,0,0,0-1.43.73A7.83,7.83,0,0,0,9,2.8c-.19.2-.37.41-.56.63L8.17,3A12.81,12.81,0,0,0,6.66,1.26a6,6,0,0,0-1.31-1A2.64,2.64,0,0,0,4.69,0,1,1,0,0,0,3.5.64a2.51,2.51,0,0,0-.17.55,5.1,5.1,0,0,0,0,1.56,14.73,14.73,0,0,0,1.17,4l.26.6a2.52,2.52,0,0,1-.35-.06L3.17,6.92a4.63,4.63,0,0,0-1.1-.2A1.54,1.54,0,0,0,1.1,7,3.05,3.05,0,0,0,.16,8.17a1.57,1.57,0,0,0-.13,1,2.46,2.46,0,0,0,.34.9A2,2,0,0,0,1.63,11a2.61,2.61,0,0,0,1,.07A3.65,3.65,0,0,0,3.09,11l.3-.08a5.78,5.78,0,0,0,.9-.35,9.33,9.33,0,0,0,.88-.48l.31-.19.06,0,.65-.44A6.94,6.94,0,0,0,7,8.74l.1,0a.75.75,0,0,1,.28.28l0,.06L7.91,9c.61-.1,1.22-.22,1.82-.38a11.31,11.31,0,0,0,1.7-.57A6.58,6.58,0,0,0,13.27,7,3.84,3.84,0,0,0,14.5,5.15,2.86,2.86,0,0,0,14.54,3.51ZM12.81,6l-.09.09h0c-.11.11-.24.22-.37.33s-.32.21-.49.32l-.14.09,0,0L11.3,7l-1,.41-.66.24.11-.07a6.68,6.68,0,0,0,1.37-1,1.58,1.58,0,0,0,.43-.54h0L11.63,6a.71.71,0,0,0-.44-.92A1.27,1.27,0,0,0,10.75,5l-.28,0a4.16,4.16,0,0,1,.69-.7,4,4,0,0,1,1-.61A2.32,2.32,0,0,1,13,3.54l.21,0a.9.9,0,0,1,.28.06v0a1.65,1.65,0,0,1,.12.46,2.11,2.11,0,0,1-.15.89A2.93,2.93,0,0,1,12.81,6ZM4.5,9.45l.06-.21.17.09Zm-2,.71H2.42L2.55,10l0,0,.14.15ZM1.74,7.9a1.26,1.26,0,0,1,.78-.31h.06l.44,0,.59.12.22,0,0,0a5.42,5.42,0,0,1-.72.41,1.84,1.84,0,0,1-.76.19l-.22,0a.85.85,0,0,1-.57-.32A2.09,2.09,0,0,1,1.74,7.9Zm2.93-3h0c0-.09-.07-.19-.1-.29l0-.1c0-.1-.07-.2-.09-.3l0,0V4.15h0a1.87,1.87,0,0,1-.07-.22l0-.12-.06-.23,0-.11c0-.09,0-.17-.05-.25h0s0-.06,0-.09,0-.21,0-.31,0-.07,0-.1h0l0-.26a.57.57,0,0,1,0-.13h0a2,2,0,0,1,0-.23V1.75a.41.41,0,0,1,0-.11l0-.24V1.33A.82.82,0,0,1,4.24,1,.25.25,0,0,1,4.47.9h0A1.11,1.11,0,0,1,5,1.07a4.61,4.61,0,0,1,1,.79A10.36,10.36,0,0,1,7.09,3.14c.14.2.31.43.47.67a7.9,7.9,0,0,0-1,.34,6.17,6.17,0,0,0-1,.56,5.26,5.26,0,0,0-.76.59.76.76,0,0,1,0-.11l0-.14ZM9.62,3.51v0h0ZM6.16,7.92l.3.09-.24.25Zm-1,.5-.07,0,0-.06ZM6.78,7,6.53,7l.2-.21ZM8,6.27l-.21.27-.06-.3ZM9.19,4.51h.07l0,.07Zm1.9-2.25.16-.08a.57.57,0,0,0,0,.13Zm-3,3,.14-.16,0,.19Z"/>
        <path class="cls-1" d="M9.81,9a1.16,1.16,0,0,0-.08-.32c-.6.16-1.21.28-1.82.38a2.29,2.29,0,0,0-.1.23,1.55,1.55,0,0,0-.08.23l.39-.07.72-.13c.32-.07.65-.14,1-.23C9.82,9,9.82,9,9.81,9Z"/>
        <path class="cls-1" d="M14.54,3.51a5.64,5.64,0,0,0-.31-.81c-.15-.34-.32-.69-.5-1a1.19,1.19,0,0,0-.68-.58A2.62,2.62,0,0,0,11.61,1a3.67,3.67,0,0,0-1.43.73A7.83,7.83,0,0,0,9,2.8c-.19.2-.37.41-.56.63L8.17,3A12.81,12.81,0,0,0,6.66,1.26a6,6,0,0,0-1.31-1A2.64,2.64,0,0,0,4.69,0,1,1,0,0,0,3.5.64a2.51,2.51,0,0,0-.17.55,5.1,5.1,0,0,0,0,1.56,14.73,14.73,0,0,0,1.17,4l.26.6a2.52,2.52,0,0,1-.35-.06L3.17,6.92a4.63,4.63,0,0,0-1.1-.2A1.54,1.54,0,0,0,1.1,7,3.05,3.05,0,0,0,.16,8.17a1.57,1.57,0,0,0-.13,1,2.46,2.46,0,0,0,.34.9A2,2,0,0,0,1.63,11a2.61,2.61,0,0,0,1,.07A3.65,3.65,0,0,0,3.09,11l.3-.08a5.78,5.78,0,0,0,.9-.35,9.33,9.33,0,0,0,.88-.48l.31-.19.06,0,.65-.44A6.94,6.94,0,0,0,7,8.74l.1,0a.75.75,0,0,1,.28.28l0,.06L7.91,9c.61-.1,1.22-.22,1.82-.38a11.31,11.31,0,0,0,1.7-.57A6.58,6.58,0,0,0,13.27,7,3.84,3.84,0,0,0,14.5,5.15,2.86,2.86,0,0,0,14.54,3.51Zm-2.1-2a.82.82,0,0,1,.61.25,1,1,0,0,1,.23.39,5.79,5.79,0,0,0,.25.57l0,0-1.42-1.2A.87.87,0,0,1,12.44,1.52Zm-.59.07,1.28,1.09c-.23,0-.43,0-.62,0s-.38.07-.58.11A6.26,6.26,0,0,1,11.85,1.59Zm-.23,0a1.36,1.36,0,0,1,0,.2c0,.35,0,.7.07,1h-.07l-1.33-.4-.13,0A3.37,3.37,0,0,1,11.62,1.61ZM11.5,3c-.21.14-.41.27-.6.41l-.55.44a.52.52,0,0,1-.06-.13c-.07-.37-.14-.74-.22-1.14ZM9.87,2.67c.1.47.19.9.27,1.34L8.78,3.84A11.9,11.9,0,0,1,9.87,2.67ZM10,4.2c-.34.46-.68.9-1,1.33H9c-.1-.5-.2-1-.3-1.51ZM6.66,8.41l-.09.09h0l-.06.06-.06.06-.13.12-.06,0h0l-.09.08-.05,0,0,0L6,9H6L5.94,9c-.12-.58-.21-1.13-.3-1.7l1.59.46L7.07,8,7,8.06l-.12.13-.12.13Zm-1.2-1c.1.58.19,1.13.29,1.72l-.83-.43-.13-.07-.18-.1-.13-.07-.09,0A7.78,7.78,0,0,0,5.46,7.46Zm-.36-.4c-.1-.23-.19-.41-.28-.6a.16.16,0,0,1,0-.12c.09-.09.14-.21.27-.26v0c0,.24,0,.48,0,.73A1.12,1.12,0,0,1,5.1,7.06ZM6,6.32a9.84,9.84,0,0,1-.7.78c0-.4,0-.76,0-1.15Zm-.61-.53a5,5,0,0,1,.91-.65c0,.14,0,.25,0,.37s0,.34,0,.5-.08.17-.2.11Zm.37,1.38L7,5.89c.12.59.23,1.15.34,1.73ZM6.84,5.32l-.39.47,0,0c0-.2,0-.4,0-.63ZM6.56,5a3.25,3.25,0,0,1,.74-.32,1,1,0,0,1-.36.5Zm.6.75L8.72,6c-.39.53-.78,1-1.2,1.49C7.38,6.88,7.26,6.32,7.16,5.75ZM8.21,7.29l0,0a3.76,3.76,0,0,0,.46-.2,6.17,6.17,0,0,0,1-.51,3.46,3.46,0,0,0,.73-.49,1.37,1.37,0,0,0,.16-.18.13.13,0,0,1,.2,0,1,1,0,0,1-.12.17,2.55,2.55,0,0,1-.3.26l-.56.41,0,0c-.29.16-.57.33-.86.48s-.5.24-.75.35a1.54,1.54,0,0,1-.28.09ZM8.5,4.18c.11.55.21,1.06.31,1.59l-1.53-.2ZM4.72,6l-.07.06c-.1-.26-.2-.49-.28-.72s-.23-.67-.33-1a8.92,8.92,0,0,1-.43-2.28,3.17,3.17,0,0,1,.07-.81A1.18,1.18,0,0,1,3.92.72.67.67,0,0,1,4.51.49,1.43,1.43,0,0,1,5.18.7a4.45,4.45,0,0,1,1.11.87A10.38,10.38,0,0,1,7.43,2.9L8,3.67a1.8,1.8,0,0,1,.11.2l-.24.27a.24.24,0,0,1-.11.06,8.52,8.52,0,0,0-1,.33,5.33,5.33,0,0,0-1,.53A4.54,4.54,0,0,0,4.72,6ZM1.48,7.57a1.62,1.62,0,0,1,1.13-.4,4.1,4.1,0,0,1,.49.06c.39.08.78.17,1.17.24.17,0,.35.06.58.09-.29.22-.55.44-.82.62a7.44,7.44,0,0,1-.78.44A2.09,2.09,0,0,1,2,8.82a1.22,1.22,0,0,1-1-.76A1.72,1.72,0,0,1,1.48,7.57ZM.76,8.75c.2.51.38,1,.57,1.49A1.48,1.48,0,0,1,.76,8.75Zm.79,1.52L1,8.9a2.27,2.27,0,0,0,1.21.43Zm1.78.16,0,0h0l-.05,0h0l-.06,0-.1,0H2.75l-.29,0a1.42,1.42,0,0,1-.75-.14l0,0,.78-1.08,1,1Zm.33-.23-.51-.54-.08-.09-.29-.31.42-.14.07,0L3.41,9l0,0,.28-.14,0,0,.07,0,0,0,.2-.14,0,.13a.93.93,0,0,0,0,.13c-.09.33-.17.64-.26,1C3.71,10,3.69,10.1,3.66,10.2Zm1.55-.65L4,10.2l-.11,0c.15-.55.29-1.08.44-1.62l1.28.69C5.43,9.4,5.33,9.49,5.21,9.55Zm8.61-4.39A3.74,3.74,0,0,1,12.6,6.72c-.21.16-.44.29-.66.43a5.26,5.26,0,0,1-.47.27c-.34.15-.68.28-1,.42l-.17.07-.13,0h0l-.09,0L9.91,8l-.15,0h0l-.14,0-.06,0H9.49l-.13,0-.12,0h0l-.09,0h0L9,8.3l-.64.15h0L8,8.52l-.5.1-.15,0L7,8.71v0H7l.41-.45h0a.27.27,0,0,1,.1-.06c.22-.08.45-.14.66-.24.46-.21.93-.43,1.37-.67a6.78,6.78,0,0,0,1.29-.9,1.45,1.45,0,0,0,.34-.4.69.69,0,0,0,.05-.13A.29.29,0,0,0,11,5.44a.92.92,0,0,0-.59,0,4.51,4.51,0,0,0-.86.27l-.2.06c.13-.19.24-.36.36-.52A6.58,6.58,0,0,1,10.9,4a4.36,4.36,0,0,1,1.16-.68,2.45,2.45,0,0,1,1.17-.16,1.8,1.8,0,0,1,.5.15.2.2,0,0,1,.08.08,3.7,3.7,0,0,1,.18.71A2.32,2.32,0,0,1,13.82,5.16Z"/>
        <path class="cls-2" d="M7,8.68l.41-.45a.27.27,0,0,1,.1-.06c.22-.08.45-.14.66-.24.46-.21.93-.43,1.37-.67a6.78,6.78,0,0,0,1.29-.9,1.45,1.45,0,0,0,.34-.4.69.69,0,0,0,.05-.13A.29.29,0,0,0,11,5.44a.92.92,0,0,0-.59,0,4.29,4.29,0,0,0-.86.27l-.2.06c.13-.19.24-.36.36-.52A6.58,6.58,0,0,1,10.9,4a4.36,4.36,0,0,1,1.16-.68,2.45,2.45,0,0,1,1.17-.16,1.8,1.8,0,0,1,.5.15.2.2,0,0,1,.08.08,3.7,3.7,0,0,1,.18.71,2.32,2.32,0,0,1-.17,1.08A3.74,3.74,0,0,1,12.6,6.72c-.21.16-.44.29-.66.43a5.26,5.26,0,0,1-.47.27c-.33.15-.68.28-1,.42a13.79,13.79,0,0,1-2.11.61L7,8.71Zm5.38-2.1,0,0a1.36,1.36,0,0,0,.37-.31.59.59,0,0,0,.07-.16.17.17,0,0,0-.07-.2Zm-.18-.67L12,6.44a.6.6,0,0,0,.32-.32A.17.17,0,0,0,12.21,5.91Zm-.4,0a.78.78,0,0,0-.2.37C11.83,6.21,11.88,6.13,11.81,5.94Z"/>
        <path class="cls-2" d="M4.65,6.05c-.1-.26-.2-.49-.28-.72s-.23-.67-.33-1a8.92,8.92,0,0,1-.43-2.28,3.17,3.17,0,0,1,.07-.81A1.18,1.18,0,0,1,3.92.72.67.67,0,0,1,4.51.49,1.43,1.43,0,0,1,5.18.7a4.45,4.45,0,0,1,1.11.87A10.38,10.38,0,0,1,7.43,2.9L8,3.67a1.8,1.8,0,0,1,.11.2l-.24.27a.24.24,0,0,1-.11.06,8.52,8.52,0,0,0-1,.33,5.33,5.33,0,0,0-1,.53A4.54,4.54,0,0,0,4.72,6ZM4.46,4.7A1.33,1.33,0,0,0,5,4.34a.43.43,0,0,0-.48.36v0Zm.82.38A.38.38,0,0,0,5,5.17a.6.6,0,0,0-.19.38Zm-.69.07c.17-.15.36-.27.52-.44A.48.48,0,0,0,4.59,5.15Zm.15-1.47c-.24-.09-.41,0-.52.32ZM4.83,4a.34.34,0,0,0-.47.27Zm-.2-.68a.34.34,0,0,0-.47.29ZM4,2.89l.44-.28C4.25,2.53,4.1,2.62,4,2.89Zm.08.39L4.53,3C4.36,2.9,4.2,3,4.07,3.28Zm.27-1c-.21-.08-.35,0-.42.24ZM4.24,2a.28.28,0,0,0-.38.24Zm-.42-.08.37-.22C4,1.59,3.88,1.67,3.82,1.88Zm.31-.51a.22.22,0,0,0-.32.16Z"/>
        <path class="cls-2" d="M4.85,7.56c-.29.22-.55.44-.82.62a7.44,7.44,0,0,1-.78.44A2.09,2.09,0,0,1,2,8.82a1.22,1.22,0,0,1-1-.76,1.72,1.72,0,0,1,.44-.49,1.62,1.62,0,0,1,1.13-.4,4.1,4.1,0,0,1,.49.06c.39.08.78.17,1.17.24C4.44,7.51,4.62,7.53,4.85,7.56Z"/>
        <path class="cls-3" d="M7.23,7.8A9.46,9.46,0,0,1,5.94,9c-.12-.58-.21-1.13-.3-1.7Z"/>
        <path class="cls-3" d="M7.52,7.44c-.14-.56-.26-1.12-.36-1.69L8.72,6C8.33,6.48,7.94,7,7.52,7.44Z"/>
        <path class="cls-4" d="M7,5.89l.35,1.73L5.82,7.16Z"/>
        <path class="cls-3" d="M3.85,10.24l.44-1.62,1.28.69c-.14.09-.24.18-.36.24L4,10.2Z"/>
        <path class="cls-3" d="M2.51,9.32l1,1a2.5,2.5,0,0,1-1,.21,1.42,1.42,0,0,1-.75-.14l0,0Z"/>
        <path class="cls-4" d="M8.56,4.18l.32,1.59-1.54-.2Z"/>
        <path class="cls-4" d="M10.24,2.41a3.4,3.4,0,0,1,1.45-.8,1.36,1.36,0,0,1,0,.2l.06,1H11.7l-1.33-.4Z"/>
        <path class="cls-4" d="M5.82,9.18,4.45,8.46a7.24,7.24,0,0,0,1.07-1Z"/>
        <path class="cls-3" d="M9,5.53,8.67,4,10,4.2,9,5.53Z"/>
        <path class="cls-4" d="M9.94,2.67c.1.47.19.9.26,1.34L8.85,3.84A10.8,10.8,0,0,1,9.94,2.67Z"/>
        <path class="cls-3" d="M10.07,2.6,11.5,3c-.21.14-.41.27-.6.41l-.55.44a.52.52,0,0,1-.06-.13C10.22,3.37,10.15,3,10.07,2.6Z"/>
        <path class="cls-4" d="M3.72,10.2l-.87-.94a3.88,3.88,0,0,0,1.29-.6Z"/>
        <path class="cls-3" d="M11.85,1.59l1.28,1.09c-.23,0-.43,0-.62,0s-.38.07-.58.11A6.26,6.26,0,0,1,11.85,1.59Z"/>
        <path class="cls-4" d="M1.09,8.9a2.28,2.28,0,0,0,1.22.43l-.69.94Z"/>
        <path class="cls-5" d="M7.93,7.65l.28-.36,0,0a3.76,3.76,0,0,0,.46-.2,6.17,6.17,0,0,0,1-.51,3.46,3.46,0,0,0,.73-.49,1.37,1.37,0,0,0,.16-.18.13.13,0,0,1,.2,0,1,1,0,0,1-.12.17,2.55,2.55,0,0,1-.3.26l-.56.41,0,0c-.29.16-.57.33-.86.48s-.5.24-.75.35A1.54,1.54,0,0,1,7.93,7.65Z"/>
        <path class="cls-4" d="M13.51,2.75l-1.42-1.2a.87.87,0,0,1,.35,0,.82.82,0,0,1,.61.25,1,1,0,0,1,.23.39,5.79,5.79,0,0,0,.25.57Z"/>
        <path class="cls-4" d="M5.38,5.79a5,5,0,0,1,.91-.65c0,.14,0,.25,0,.37s0,.34,0,.5-.08.17-.2.11Z"/>
        <path class="cls-3" d="M5.29,7.1V6L6,6.32A9.84,9.84,0,0,1,5.29,7.1Z"/>
        <path class="cls-3" d="M.76,8.75l.57,1.49A1.48,1.48,0,0,1,.76,8.75Z"/>
        <path class="cls-4" d="M5.1,6.08c0,.24,0,.48,0,.73a1.12,1.12,0,0,1,0,.25c-.1-.23-.19-.41-.28-.6a.16.16,0,0,1,0-.12c.09-.09.14-.21.27-.26Z"/>
        <path class="cls-4" d="M6.94,5.18,6.56,5a3.25,3.25,0,0,1,.74-.32A1,1,0,0,1,6.94,5.18Z"/>
        <path class="cls-3" d="M6.42,5.77l0-.63.37.18-.39.47Z"/>
        <path class="cls-6" d="M5.1,6.08v0Z"/>
        <path class="cls-7" d="M12.39,6.58l.4-.63a.17.17,0,0,1,.07.2.59.59,0,0,1-.07.16,1.36,1.36,0,0,1-.37.31Z"/>
        <path class="cls-8" d="M12.21,5.91a.17.17,0,0,1,.07.21.6.6,0,0,1-.32.32Z"/>
        <path class="cls-9" d="M11.81,5.94c.07.19,0,.27-.2.37A.78.78,0,0,1,11.81,5.94Z"/>
        <path class="cls-10" d="M5.28,5.08l-.52.47A.6.6,0,0,1,5,5.17.38.38,0,0,1,5.28,5.08Z"/>
        <path class="cls-11" d="M4.59,5.15a.48.48,0,0,1,.52-.44C5,4.88,4.76,5,4.59,5.15Z"/>
        <path class="cls-12" d="M4.47,4.7A.43.43,0,0,1,5,4.34a1.33,1.33,0,0,1-.49.36Z"/>
        <path class="cls-13" d="M4.74,3.68,4.22,4C4.33,3.7,4.5,3.59,4.74,3.68Z"/>
        <path class="cls-9" d="M4.83,4l-.47.27A.34.34,0,0,1,4.83,4Z"/>
        <path class="cls-10" d="M4.63,3.34l-.47.29A.34.34,0,0,1,4.63,3.34Z"/>
        <path class="cls-11" d="M4,2.89c.11-.27.26-.36.44-.28Z"/>
        <path class="cls-11" d="M4.07,3.28C4.2,3,4.36,2.9,4.53,3Z"/>
        <path class="cls-14" d="M4.34,2.29l-.42.24C4,2.3,4.13,2.21,4.34,2.29Z"/>
        <path class="cls-14" d="M4.24,2l-.38.24A.28.28,0,0,1,4.24,2Z"/>
        <path class="cls-10" d="M3.82,1.88c.06-.21.19-.29.37-.22Z"/>
        <path class="cls-14" d="M4.13,1.37l-.32.16A.22.22,0,0,1,4.13,1.37Z"/>
        <path class="cls-12" d="M4.46,4.7v0Z"/>
      </g>
      <g>
        <path class="cls-15" d="M10,15.33a1.38,1.38,0,0,1-.63-.14h0A1.57,1.57,0,0,1,8.62,14h0a8.1,8.1,0,0,1-.07-1.3c0-.38,0-.76.07-1.15s0-.63.05-.93c0-.14,0-.26,0-.38l-.06.2h0a13.33,13.33,0,0,0-.47,3.44,1,1,0,0,1,0,.24.66.66,0,0,1-.54.51h-.2a1.13,1.13,0,0,1-.32-.05,1,1,0,0,1-.76-.9,2.64,2.64,0,0,1,0-.49l.07-2.29c-.07.22-.14.45-.19.68h0a14.73,14.73,0,0,0-.39,3,.7.7,0,0,1-.4.72l0,0-.1,0H5A1.21,1.21,0,0,1,4.27,15h0A1,1,0,0,1,4,14.42,2.14,2.14,0,0,1,4,14c.06-.91.1-1.83.12-2.74V11l.27-.12a6.48,6.48,0,0,0,.83-.42l0,0,.07,0,.45-.28.52-.33h0l.27-.19.07,0h0a.47.47,0,0,1,.15-.06l.15-.09,0,.07.54-.07.19,0h0a1.33,1.33,0,0,1,.11-.24,2.77,2.77,0,0,1,.47-.7l0,0a1.56,1.56,0,0,1,.84-.47h.18l.18,0h.06A1.16,1.16,0,0,1,9.86,8a1.31,1.31,0,0,1,.57.69,2.58,2.58,0,0,1,.11.42s0,.06,0,.1h0a2.61,2.61,0,0,1,0,.4c0,.6,0,1.22-.06,1.83,0,.45-.06.91-.08,1.36a8,8,0,0,0,.08,1.3.58.58,0,0,1,.37.45.57.57,0,0,1-.05.34h0a.67.67,0,0,1-.55.39H10Z"/>
        <path class="cls-1" d="M6.18,9.29c.25-.2.49-.42.73-.65l.21-.23.29.12.15.08h0A1.36,1.36,0,0,1,8,9a.56.56,0,0,0,.05.08l.3.58-.64.09-.19,0-.6.07h0L6.72,10Z"/>
        <path class="cls-15" d="M11.73,13.87h-.07a1.59,1.59,0,0,1-.87-.34,2,2,0,0,1-.7-1.27,3.12,3.12,0,0,1,0-1,3,3,0,0,1,.39-1.09h0a1.78,1.78,0,0,1,1-.79h0l.18,0,.19,0a1.05,1.05,0,0,1,.44.1,1,1,0,0,1,.43.39,1.37,1.37,0,0,1,.18.49,1.77,1.77,0,0,1,0,.46.67.67,0,0,1,.31-.15h.09a.6.6,0,0,1,.51.28.82.82,0,0,1,.1.26c0,.19,0,.42-.3,1.08q-.12.27-.27.54a2.47,2.47,0,0,1-.85.9,1.79,1.79,0,0,1-.59.2Zm.18-1.67a.63.63,0,0,0,.07.22l.1-.08h0a1.9,1.9,0,0,0,.37-.52,1.42,1.42,0,0,0,.08-.18,2.61,2.61,0,0,1-.23.24Z"/>
        <path class="cls-15" d="M14.18,13.52a.57.57,0,0,1-.41-.16.62.62,0,0,1-.2-.38v0a.89.89,0,0,1,0-.36l.17-.56c.09-.27.13-.42.15-.5a.63.63,0,0,1-.44.3h-.1A.7.7,0,0,1,13,11.7a.67.67,0,0,1-.24-.41.87.87,0,0,1,.06-.43l0-.06c.06-.26.12-.54.17-.81h0a.39.39,0,0,0,0-.2V9.69h0a.68.68,0,0,1,.53-.75,1.77,1.77,0,0,1,.31-.08H14l.22,0h0a.92.92,0,0,1,.54.37h0A.72.72,0,0,1,14.91,9a.64.64,0,0,1,.36-.24h.14A.66.66,0,0,1,15.9,9a.87.87,0,0,1,.21.43,1,1,0,0,1,0,.45,1.69,1.69,0,0,1-.12.28l-.36.77.22.44,0,0a5.6,5.6,0,0,0,.2-.7,1.15,1.15,0,0,1,.11-.31.64.64,0,0,1,.47-.33h.09a.59.59,0,0,1,.4.15.64.64,0,0,1,.2.39v0h0a.89.89,0,0,1-.06.39l-.26.9a2.82,2.82,0,0,1-.31.77,1.2,1.2,0,0,1-.81.57h-.2a1.11,1.11,0,0,1-.43-.09,1.41,1.41,0,0,1-.42-.26,1.09,1.09,0,0,1-.09.23.63.63,0,0,1-.47.35Z"/>
        <path class="cls-15" d="M17.19,13a1.31,1.31,0,0,1-.55-.13h0a1.26,1.26,0,0,1-.54-.64,2.6,2.6,0,0,1-.1-.4l0-.26h0a6,6,0,0,1,0-.95c0-.3,0-.61.08-.91h0c0-.07,0-.13,0-.19a.57.57,0,0,0,0-.13l0-.13a.71.71,0,0,1,.08-.46l.06-.07,0-.07a.42.42,0,0,1,0-.16A.67.67,0,0,1,16.21,8a.78.78,0,0,1,.34-.28.72.72,0,0,1,.25-.08h.13a.76.76,0,0,1,.43.14.82.82,0,0,1,.29.35.57.57,0,0,1,.07.22.76.76,0,0,1,0,.39h0l-.07.11,0,0,0,0a.94.94,0,0,1,.16.4,1.48,1.48,0,0,1,0,.42l0,.37v.1A.51.51,0,0,1,17.9,10v0h0a.5.5,0,0,1,.28-.12h.09a.66.66,0,0,1,.3.07.65.65,0,0,1,.3.37v.09a.74.74,0,0,1,0,.36,10.23,10.23,0,0,1-.47,1.42,1.73,1.73,0,0,1-.39.6l0,0h0a1.26,1.26,0,0,1-.58.25h-.22Z"/>
        <path class="cls-15" d="M19.16,12.77H19a1.45,1.45,0,0,1-.82-.4,1.9,1.9,0,0,1-.58-1.14,2.79,2.79,0,0,1,0-.58,3.21,3.21,0,0,1,.07-.53,3.17,3.17,0,0,1,.34-1,1.9,1.9,0,0,1,.82-.79h0a1.14,1.14,0,0,1,.36-.1.68.68,0,0,1,.2,0,1.09,1.09,0,0,1,.61.18h0a1.26,1.26,0,0,1,.47.81,1.35,1.35,0,0,1,0,.49l0,0h0l0,0a.73.73,0,0,1,.34-.17h.08a.52.52,0,0,1,.3.08l0,0,0,0a.77.77,0,0,1,.21.41,1,1,0,0,1,0,.38v0h0a5.68,5.68,0,0,1-.54,1.14,3,3,0,0,1-.72.85h0a1.82,1.82,0,0,1-.81.35Zm.2-2.26a2.41,2.41,0,0,0,0,.38h0a1.1,1.1,0,0,0,0,.18,1.74,1.74,0,0,0,.05.22,1.23,1.23,0,0,0,.38-.4,3.59,3.59,0,0,0,.35-.64.78.78,0,0,1-.41.26H19.6a.59.59,0,0,1-.23,0Z"/>
        <path class="cls-15" d="M21.43,12.42a1.13,1.13,0,0,1-.85-.39h0a1.75,1.75,0,0,1-.34-.73L20.17,11a4,4,0,0,1,0-.6,5.49,5.49,0,0,1,0-.58,4.62,4.62,0,0,1,.11-.63,2.5,2.5,0,0,1,.25-.64,1.46,1.46,0,0,1,.6-.58h0a1.24,1.24,0,0,1,.36-.11l.23,0,.21,0,0,0,0,0,0,0a.54.54,0,0,1,.34-.16h.24l.32,0h0a.86.86,0,0,1,.65.74,3.47,3.47,0,0,1,0,.89A.69.69,0,0,1,24,9h.09a.59.59,0,0,1,.54.36v0a.85.85,0,0,1,0,.17.65.65,0,0,1,0,.24h0a8.28,8.28,0,0,1-.49,1.48,1.68,1.68,0,0,1-.37.6h0l0,0a1.18,1.18,0,0,1-.61.28l-.18,0a1.39,1.39,0,0,1-.56-.13h0l-.16-.11a1.59,1.59,0,0,1-.2.24,1,1,0,0,1-.55.26h-.11Z"/>
        <path class="cls-15" d="M24.23,12h-.05a.73.73,0,0,1-.53-.27l0,0h0a.89.89,0,0,1-.14-.35,1,1,0,0,1,0-.24c0-.63,0-1.26,0-1.87V8a.58.58,0,0,1,.18-.46A.66.66,0,0,1,24,7.35h.2a1.32,1.32,0,0,1,.53.11,1,1,0,0,1,.26.18,1.29,1.29,0,0,1,.16-.17,1,1,0,0,1,.52-.25h.15a1,1,0,0,1,.68.26h0v0a1.2,1.2,0,0,1,.35.74h0v0c0,.17,0,.34,0,.51a.69.69,0,0,1,.46-.33h.08a.62.62,0,0,1,.61.5V9h0a1,1,0,0,1,0,.39l-.18.72a4.13,4.13,0,0,1-.32.75,1.36,1.36,0,0,1-1,.8h-.16a1,1,0,0,1-.41-.08,1.06,1.06,0,0,1-.47-.33c-.06-.08-.11-.16-.16-.24a1.26,1.26,0,0,1-.05.33.87.87,0,0,1-.75.64h0Z"/>
        <path class="cls-15" d="M28.24,11.41a1.31,1.31,0,0,1-.61-.15,1.63,1.63,0,0,1-.51-.43h0a2.41,2.41,0,0,1-.4-1l0-.15h0a3.43,3.43,0,0,1,.05-1.4,1.78,1.78,0,0,1,1-1.32h0A1.68,1.68,0,0,1,28,6.8h.21a1.32,1.32,0,0,1,.64.16h0l0,0a1.93,1.93,0,0,1,.77,1.19A.81.81,0,0,1,30,8h.2l.08,0a.67.67,0,0,1,.41.53v.08a1.38,1.38,0,0,1-.09.39,2.21,2.21,0,0,1-.78,1.07l-.23.13a2.77,2.77,0,0,1-.31.59h0a1.7,1.7,0,0,1-.37.34,1.39,1.39,0,0,1-.51.2h-.18Z"/>
        <path class="cls-15" d="M32,11.15h-.38a4,4,0,0,1-1.09-.24h0a1.4,1.4,0,0,1-.55-.41,1.27,1.27,0,0,1-.26-.62.86.86,0,0,1,.1-.63l-.15-.09a.68.68,0,0,1-.23-.39,1,1,0,0,1,0-.29c.09-.34.2-.68.32-1a2.7,2.7,0,0,1,.26-.54,1.26,1.26,0,0,1,.54-.48,1.48,1.48,0,0,1,.46-.16h.22a1.44,1.44,0,0,1,.6.13h0a.73.73,0,0,1,.33.32,1.38,1.38,0,0,1,.26-.35A1.87,1.87,0,0,1,33.12,6h0a3,3,0,0,1,.47-.13l.3,0a1.63,1.63,0,0,1,.7.15,1.78,1.78,0,0,1,.73.63,2.27,2.27,0,0,1,.35.94,3.17,3.17,0,0,1,0,.87,3.23,3.23,0,0,1-.26.89h0a2.79,2.79,0,0,1-.92,1.1,3.84,3.84,0,0,1-1,.51,5.88,5.88,0,0,1-.7.16A4.17,4.17,0,0,1,32,11.15Zm-.37-3.54a1,1,0,0,0,.07.23c.05.09.12.18.19.28h0a3.52,3.52,0,0,1,.34.53,1.68,1.68,0,0,1,.22.64,1.25,1.25,0,0,1,0,.51,2,2,0,0,0,1.1-.49,2.07,2.07,0,0,0,.54-1.13,1.83,1.83,0,0,0,0-.57c0-.27-.14-.33-.17-.34h0a.13.13,0,0,0-.05.06.27.27,0,0,0,0,.12v.16a.47.47,0,0,1,.09.22.52.52,0,0,1-.37.59l-.19,0-.19,0a1.14,1.14,0,0,1-.45-.1A1.24,1.24,0,0,1,32.29,8a1.35,1.35,0,0,1-.2-.5s0,0,0-.06a.64.64,0,0,1-.33.16Z"/>
        <path class="cls-3" d="M10.15,14.43s-.05-.09-.13-.11a.31.31,0,0,1-.19-.16A1.21,1.21,0,0,1,9.78,14a8,8,0,0,1-.07-1.38c0-.47,0-.93.07-1.39s.07-1.2.06-1.8c0-.11,0-.23,0-.34s0-.06,0-.09a1.16,1.16,0,0,0-.08-.32.9.9,0,0,0-.37-.46.92.92,0,0,0-.23-.09h0a.5.5,0,0,0-.21,0,1.05,1.05,0,0,0-.58.33h0a2.56,2.56,0,0,0-.4.59,2.29,2.29,0,0,0-.1.23,1.55,1.55,0,0,0-.08.23c-.08.23-.15.47-.21.71,0-.11,0-.23,0-.35a1.73,1.73,0,0,0,0-.32h0l-.26,0-.59.07h0l-.07,0a.43.43,0,0,1,0,.05,2,2,0,0,1,0,.25l-.09,3a1.79,1.79,0,0,0,0,.4.58.58,0,0,0,.42.53.61.61,0,0,0,.3,0h0a.18.18,0,0,0,.09,0,.16.16,0,0,0,.07-.11.66.66,0,0,0,0-.14,13.83,13.83,0,0,1,.49-3.56,3.37,3.37,0,0,1,.15-.48l.06-.15a2.38,2.38,0,0,1,.18-.3A.34.34,0,0,1,8.51,9h0a.28.28,0,0,1,.15,0,.38.38,0,0,1,.17.3h0a9,9,0,0,1,0,1.07q0,.48-.06,1c0,.37-.05.75-.06,1.12a8.45,8.45,0,0,0,.06,1.23,1.12,1.12,0,0,0,.5.88,1.15,1.15,0,0,0,.55.1h.09a.25.25,0,0,0,.2-.13A.14.14,0,0,0,10.15,14.43ZM5.29,10.52c0,.18-.1.36-.14.54,0-.16,0-.31,0-.47a7.26,7.26,0,0,1-.88.45c0,.93-.07,1.85-.12,2.77a.91.91,0,0,0,0,.33.54.54,0,0,0,.15.31.71.71,0,0,0,.48.14h.13c.09,0,.14-.14.13-.3a15,15,0,0,1,.4-3.06,8.67,8.67,0,0,1,.3-1Z"/>
        <path class="cls-15" d="M7.37,9.13l-.19,0-.57.07a.57.57,0,0,0-.23.08l-.19.14A6.94,6.94,0,0,0,7,8.74l.1,0a.75.75,0,0,1,.28.28Z"/>
        <path class="cls-3" d="M11.62,13.19h-.2a1.13,1.13,0,0,1-.61-.24,1.48,1.48,0,0,1-.54-1,2.49,2.49,0,0,1,0-.86,2.59,2.59,0,0,1,.33-.93,1.46,1.46,0,0,1,.78-.6l.11,0a.63.63,0,0,1,.37,0,.56.56,0,0,1,.24.22.82.82,0,0,1,.12.32,1.14,1.14,0,0,1-.13.69,2,2,0,0,1-.39.49,4.66,4.66,0,0,1-.49.39l-.06.06a.8.8,0,0,0,0,.26,1.58,1.58,0,0,0,.22.58.42.42,0,0,0,.32.07.8.8,0,0,0,.42-.24,2.44,2.44,0,0,0,.45-.65,4.62,4.62,0,0,0,.29-.73c0-.14.11-.21.19-.23a.14.14,0,0,1,.14.08.11.11,0,0,1,0,.08,2.16,2.16,0,0,1-.27.82,4.59,4.59,0,0,1-.24.5A2,2,0,0,1,12,13,1.5,1.5,0,0,1,11.62,13.19Zm-.46-1.85a1.88,1.88,0,0,0,.6-.59.89.89,0,0,0,.14-.35.28.28,0,0,0,0-.13.55.55,0,0,0-.06-.18.12.12,0,0,0-.13-.07.23.23,0,0,0-.15.11,1.82,1.82,0,0,0-.34.81A3,3,0,0,0,11.16,11.34Z"/>
        <path class="cls-3" d="M15.51,12.61a.69.69,0,0,1-.35,0,1,1,0,0,1-.31-.21,1.37,1.37,0,0,1-.24-.29c-.07-.11-.13-.22-.19-.33a4.12,4.12,0,0,0-.3.83.64.64,0,0,1-.06.18.17.17,0,0,1-.13.1.14.14,0,0,1-.12,0,.23.23,0,0,1-.06-.12.68.68,0,0,1,0-.19l.16-.55a3.07,3.07,0,0,0,.19-.71l-.6-1.3-.21,1c0,.15-.09.23-.17.24a.15.15,0,0,1-.13,0A.19.19,0,0,1,13,11a.79.79,0,0,1,0-.22l0-.08.18-.85a1,1,0,0,0,0-.38V9.4c0-.11.06-.2.23-.25a1,1,0,0,1,.23-.06.37.37,0,0,1,.18,0,.46.46,0,0,1,.28.19,1.34,1.34,0,0,1,.17.31l.24.56.39-.93c0-.05.05-.09.07-.13A.41.41,0,0,1,15.11,9a.22.22,0,0,1,.18.07.37.37,0,0,1,.09.2.45.45,0,0,1,0,.23,1.09,1.09,0,0,1-.09.23l-.4.85a.21.21,0,0,0,0,.15.11.11,0,0,0,0,.08,5.6,5.6,0,0,0,.27.55,3.3,3.3,0,0,0,.34.49l.09.07.09,0c.07,0,.13-.08.17-.19a6.28,6.28,0,0,0,.39-1.18.6.6,0,0,1,.06-.19.17.17,0,0,1,.14-.09.11.11,0,0,1,.11,0,.23.23,0,0,1,.06.12.75.75,0,0,1,0,.2l-.27.93a2,2,0,0,1-.27.65A.74.74,0,0,1,15.51,12.61Z"/>
        <path class="cls-3" d="M17.07,12.35H17a.79.79,0,0,1-.43-.07.85.85,0,0,1-.34-.41,2.81,2.81,0,0,1-.08-.31,1.64,1.64,0,0,1,0-.23,6.61,6.61,0,0,1,0-.89c0-.3.05-.6.08-.9a1.64,1.64,0,0,0,0-.23.81.81,0,0,0,0-.22l0-.13c0-.13,0-.21.14-.22h.24A.56.56,0,0,1,17,9a.58.58,0,0,1,.08.22.71.71,0,0,1,0,.29l0,.38A12.26,12.26,0,0,0,17,11.2a1.15,1.15,0,0,0,0,.26.74.74,0,0,0,.08.24.14.14,0,0,0,.14.06.26.26,0,0,0,.18-.15,2.92,2.92,0,0,0,.23-.47c.06-.16.11-.33.16-.5s.07-.25.11-.38a.29.29,0,0,1,.09-.15.09.09,0,0,1,.06,0,.14.14,0,0,1,.11,0,.11.11,0,0,1,.07.08v0a.26.26,0,0,1,0,.15,9.39,9.39,0,0,1-.46,1.39,1.31,1.31,0,0,1-.28.45A.85.85,0,0,1,17.07,12.35Zm-.39-3.82h0a.21.21,0,0,1-.11,0,.38.38,0,0,1-.25-.24.25.25,0,0,1,0-.07.21.21,0,0,1,0-.17.33.33,0,0,1,.14-.12l.13,0h0a.23.23,0,0,1,.21,0,.43.43,0,0,1,.15.18l0,.09a.3.3,0,0,1,0,.13A.46.46,0,0,1,16.68,8.53Z"/>
        <path class="cls-3" d="M19.05,12.08a.94.94,0,0,1-.29,0,1.1,1.1,0,0,1-.58-.29,1.43,1.43,0,0,1-.44-.88,1.83,1.83,0,0,1,0-.47,3.93,3.93,0,0,1,.06-.48,2.54,2.54,0,0,1,.29-.84,1.31,1.31,0,0,1,.63-.6.61.61,0,0,1,.24-.07.65.65,0,0,1,.48.09.74.74,0,0,1,.29.51.92.92,0,0,1-.14.66.4.4,0,0,1-.21.16h-.1a.11.11,0,0,1-.09-.11.21.21,0,0,1,0-.11l.06-.11a.58.58,0,0,0,.09-.4A.73.73,0,0,0,19.26,9s-.06-.07-.09-.06a.1.1,0,0,0-.08,0,1.4,1.4,0,0,0-.34.65,3.51,3.51,0,0,0-.12,1.12,1.65,1.65,0,0,0,.15.66.4.4,0,0,0,.21.23h.14l.13,0a1.64,1.64,0,0,0,.66-.61,4.38,4.38,0,0,0,.48-1v0a.45.45,0,0,1,.11-.19.4.4,0,0,1,.12-.07.07.07,0,0,1,.06,0,.21.21,0,0,1,.07.14.41.41,0,0,1,0,.19,5.39,5.39,0,0,1-.5,1.06,2.49,2.49,0,0,1-.61.72A1.33,1.33,0,0,1,19.05,12.08Z"/>
        <path class="cls-3" d="M21.2,11.74h0a.71.71,0,0,1-.53-.24A1.48,1.48,0,0,1,20.4,11a1.87,1.87,0,0,1,0-.25,3,3,0,0,1,0-.52,4.89,4.89,0,0,1,0-.54,3.44,3.44,0,0,1,.09-.56,1.58,1.58,0,0,1,.21-.52,1.08,1.08,0,0,1,.41-.41,1.09,1.09,0,0,1,.24-.07,1.71,1.71,0,0,1,.74.09.56.56,0,0,1,0-.12.23.23,0,0,1,0-.16.18.18,0,0,1,.1,0h.13a1.26,1.26,0,0,1,.27,0,.42.42,0,0,1,.32.37,5.66,5.66,0,0,1-.05.85l-.06.73a5.35,5.35,0,0,0,0,.8.36.36,0,0,0,0,.11.19.19,0,0,0,.15.11h0a.23.23,0,0,0,.15-.11,1.1,1.1,0,0,0,.2-.35c.12-.32.22-.64.31-1a.65.65,0,0,1,0-.13.23.23,0,0,1,.07-.1l.09,0a.13.13,0,0,1,.14.09.14.14,0,0,1,0,.06v.1a8.93,8.93,0,0,1-.46,1.41,1.48,1.48,0,0,1-.28.45.71.71,0,0,1-.38.18.77.77,0,0,1-.47-.08.8.8,0,0,1-.29-.26.93.93,0,0,1-.14-.36.53.53,0,0,1,0-.13,2.58,2.58,0,0,0-.08.26c-.05.14-.1.28-.16.41a1,1,0,0,1-.22.28A.47.47,0,0,1,21.2,11.74Zm.11-.63a.1.1,0,0,0,.06,0s0,0,.05-.06l0-.05a1.6,1.6,0,0,0,.13-.31c0-.12.05-.19.05-.21h0c.11-.52.2-1,.27-1.55l0-.15a.11.11,0,0,0,0-.06A.19.19,0,0,1,22,8.54l-.09,0h-.18l0,0h0l0,0-.06,0h0a.61.61,0,0,0-.12.16s0,0,0,0l-.06.12-.06.21,0,.1a4.33,4.33,0,0,0-.11.95v.12c0,.16,0,.31,0,.46l0,.2Z"/>
        <path class="cls-3" d="M24.23,11.29l-.29,0a.27.27,0,0,1-.21-.11.3.3,0,0,1-.07-.15.38.38,0,0,1,0-.15c0-.65,0-1.27,0-1.89V7.74a.16.16,0,0,1,0-.11.18.18,0,0,1,.11,0,.89.89,0,0,1,.47.06.37.37,0,0,1,.24.32.57.57,0,0,1,0,.13c0,.05,0,.43,0,1.14,0-.25.1-.49.17-.73a2.76,2.76,0,0,1,.3-.68,1.33,1.33,0,0,1,.21-.26.52.52,0,0,1,.28-.13.62.62,0,0,1,.47.15.83.83,0,0,1,.22.48,7.28,7.28,0,0,1,0,1c0,.25,0,.5,0,.76a1.8,1.8,0,0,0,0,.22,1.6,1.6,0,0,0,.05.21.56.56,0,0,0,0,.08.12.12,0,0,0,.09,0,.14.14,0,0,0,.09-.05,1.39,1.39,0,0,0,.22-.37A4.59,4.59,0,0,0,27,9q0-.27.18-.3a.18.18,0,0,1,.18.15.44.44,0,0,1,0,.2c-.05.24-.11.47-.18.7a3,3,0,0,1-.27.67.93.93,0,0,1-.67.56.58.58,0,0,1-.34,0,.77.77,0,0,1-.28-.19.91.91,0,0,1-.15-.27,2.84,2.84,0,0,1-.06-.31,3.31,3.31,0,0,1,0-.55c0-.18,0-.36,0-.55a5.43,5.43,0,0,0,0-.7V8.28s0,0,0-.07a.43.43,0,0,0,0-.05l0,0,0,0h0q-.11,0-.15.21a9.59,9.59,0,0,0-.48,2.37,1.35,1.35,0,0,1,0,.29A.42.42,0,0,1,24.23,11.29Z"/>
        <path class="cls-3" d="M28.08,10.73H28a.87.87,0,0,1-.45-.1,1.14,1.14,0,0,1-.35-.3,1.89,1.89,0,0,1-.33-.85l0-.15a3.15,3.15,0,0,1,0-1.23,1.35,1.35,0,0,1,.72-1L27.84,7a1,1,0,0,1,.57.1A1.65,1.65,0,0,1,29,8.33a3.54,3.54,0,0,1,0,1,1.25,1.25,0,0,0,.56-.77v0c0-.14.1-.22.19-.24h.05a.2.2,0,0,1,.13.17.66.66,0,0,1-.06.22,1.75,1.75,0,0,1-.61.87.78.78,0,0,1-.34.13,1.82,1.82,0,0,1-.32.69,1,1,0,0,1-.26.25A1,1,0,0,1,28.08,10.73Zm.12-.44a.2.2,0,0,0,.09-.09,1.49,1.49,0,0,0,.22-.56v0l0,0A1.18,1.18,0,0,1,28,8.79a2.07,2.07,0,0,1,0-.22,4,4,0,0,1,0-1,2.56,2.56,0,0,0-.22,1,4.8,4.8,0,0,0,.05.86,2,2,0,0,0,.12.47,1,1,0,0,0,.16.29.18.18,0,0,0,.17.07Zm.36-1.06V9c0-.08,0-.15,0-.19a.61.61,0,0,0,0-.14s0-.1,0-.18l-.06-.29c0-.14-.08-.24-.1-.3a1.33,1.33,0,0,0-.12-.24,1.91,1.91,0,0,0,0,.2.62.62,0,0,0,0,.13.53.53,0,0,0,0,.12s0,.12,0,.19a1.09,1.09,0,0,0,0,.26,1.91,1.91,0,0,0,0,.21,1.12,1.12,0,0,0,.08.27,2,2,0,0,0,.12.17h0l0,0h0Z"/>
        <path class="cls-3" d="M32.41,10.43a4.64,4.64,0,0,1-1,0,3.92,3.92,0,0,1-1-.21A1,1,0,0,1,30.1,10a.84.84,0,0,1-.17-.4c0-.17,0-.28,0-.32a.14.14,0,0,1,.09,0,.15.15,0,0,1,.13,0,.24.24,0,0,1,.06.11v.08a.57.57,0,0,0,0,.12.61.61,0,0,0,0,.18c0,.06.06.1.11.11h0a.35.35,0,0,0,.24.07.27.27,0,0,0,.22-.18.51.51,0,0,0,.06-.32A1.26,1.26,0,0,0,30.78,9l-.26-.4A2.88,2.88,0,0,1,30.13,8L30,8.51a.13.13,0,0,1-.12.1.14.14,0,0,1-.13,0,.17.17,0,0,1-.07-.1.38.38,0,0,1,0-.1c.09-.33.19-.65.31-1A2.35,2.35,0,0,1,30.19,7a.93.93,0,0,1,.36-.32,1.21,1.21,0,0,1,.32-.11,1.08,1.08,0,0,1,.56.08.22.22,0,0,1,.12.15.14.14,0,0,1,0,.12.16.16,0,0,1-.11.07.22.22,0,0,1-.11,0h-.17a.27.27,0,0,0-.18.22,1.17,1.17,0,0,0,0,.32,1.42,1.42,0,0,0,.13.38,3.77,3.77,0,0,0,.22.33,5.34,5.34,0,0,1,.31.49,1.38,1.38,0,0,1,.17.48,1.1,1.1,0,0,1-.05.51,1.12,1.12,0,0,1-.3.43,3.49,3.49,0,0,0,.85,0,2.42,2.42,0,0,0,1.35-.61,2.37,2.37,0,0,0,.67-1.37,2,2,0,0,0,0-.73.88.88,0,0,0-.4-.68.49.49,0,0,0-.33-.06.46.46,0,0,0-.23.1.69.69,0,0,0-.18.24,1.31,1.31,0,0,0-.06.27,1.48,1.48,0,0,0,0,.22c0,.11,0,.19.08.22s0,0,0,0,0,.06-.06.08l-.12,0a.6.6,0,0,1-.38,0,.56.56,0,0,1-.26-.22.71.71,0,0,1-.13-.31.8.8,0,0,1,0-.37.92.92,0,0,1,.23-.37A1.57,1.57,0,0,1,33,6.19a1.78,1.78,0,0,1,.38-.1,1.3,1.3,0,0,1,.74.09,1.24,1.24,0,0,1,.54.48,1.92,1.92,0,0,1,.28.75,3.05,3.05,0,0,1,0,.74,3,3,0,0,1-.23.76,2.38,2.38,0,0,1-.77.93,3.54,3.54,0,0,1-.92.45A4.75,4.75,0,0,1,32.41,10.43Z"/>
      </g>
      <g>
        <path class="cls-15" d="M11.39,9.62l-.27,0h0a1.41,1.41,0,0,1-.63-.35,1.66,1.66,0,0,1-.48-1,1.93,1.93,0,0,1,0-.48,2.88,2.88,0,0,1,.35-1.21A1.81,1.81,0,0,1,10.9,6a1.22,1.22,0,0,1,.55-.24h.16a1,1,0,0,1,.29,0,.82.82,0,0,1,.39.25.7.7,0,0,1,.14.35s0,.08,0,.13v0a2.74,2.74,0,0,1-.08.87,1.05,1.05,0,0,1,0,.19.58.58,0,0,1-.46.37h-.11l-.18,0a.64.64,0,0,1-.19-.08.37.37,0,0,1-.19-.28v0a.51.51,0,0,1,.09-.28,1.67,1.67,0,0,0,.21-.5.86.86,0,0,0-.15.22,2.07,2.07,0,0,0-.25,1.17.28.28,0,0,1,0,.09.94.94,0,0,0,0,.16.49.49,0,0,0,.27.35h.18l.16,0a1,1,0,0,0,.32-.31h0a1.92,1.92,0,0,0,.27-.66.4.4,0,0,1,.3-.37h.08a.35.35,0,0,1,.26.12.36.36,0,0,1,.11.22.57.57,0,0,1,0,.22,2.39,2.39,0,0,1-.59,1.2,1.57,1.57,0,0,1-.4.32,1.48,1.48,0,0,1-.49.16Z"/>
        <path class="cls-15" d="M13,9.05a.62.62,0,0,1-.47-.22h0a1,1,0,0,1-.19-.39l0-.15c0-.1,0-.21,0-.31s0-.2,0-.3,0-.22.05-.33A1.43,1.43,0,0,1,12.45,7a.85.85,0,0,1,.33-.32h0a.66.66,0,0,1,.2-.06h.21v0a.4.4,0,0,1,.21-.09h.14l.17,0h0a.52.52,0,0,1,.37.43,1.2,1.2,0,0,1,0,.29.28.28,0,0,1,.17-.07h.05a.37.37,0,0,1,.33.22h0l0,.1v.16a4.22,4.22,0,0,1-.25.76.83.83,0,0,1-.2.32l0,0a.71.71,0,0,1-.34.16h-.1a.7.7,0,0,1-.31-.07h0l0,0-.08.08A.57.57,0,0,1,13,9H13Z"/>
        <path class="cls-15" d="M14.8,8.79a.75.75,0,0,1-.53-.22h0a.77.77,0,0,1-.18-.39.51.51,0,0,1,0-.31l-.06-.05h0A.46.46,0,0,1,14,7.64s0,0,0,0a.5.5,0,0,1,0-.17,5.25,5.25,0,0,1,.17-.52,1.11,1.11,0,0,1,.13-.27.78.78,0,0,1,.29-.28h0a1.09,1.09,0,0,1,.24-.07h.12a.55.55,0,0,1,.18,0,.17.17,0,0,1,.1,0h0l0,0a.19.19,0,0,1,.09,0,.35.35,0,0,1,.14.24v.09a.44.44,0,0,1-.11.24.39.39,0,0,1-.19.1.08.08,0,0,0,0,0l.1.16,0,0,0-.09,0,0A.37.37,0,0,1,15.67,7h.06l.12,0,0,0a.35.35,0,0,1,.22.28.37.37,0,0,1,0,.18,3,3,0,0,1-.27.64,1.55,1.55,0,0,1-.59.6,1.31,1.31,0,0,1-.28.09H14.8Z"/>
        <path class="cls-15" d="M16,8.59a.66.66,0,0,1-.37-.13l0,0a1,1,0,0,1-.29-.62,1.64,1.64,0,0,1,0-.39,2.13,2.13,0,0,1,0-.37,1,1,0,0,1,.58-.87h0l.13,0h.21A.3.3,0,0,1,16.44,6h.22a.62.62,0,0,1,.31.13.48.48,0,0,1,.17.32.71.71,0,0,1,0,.14l.18-.06h.07a.49.49,0,0,1,.37.16.63.63,0,0,1,.15.32.9.9,0,0,1,0,.43,1.35,1.35,0,0,1-.15.32,2,2,0,0,1-.26.33,1.31,1.31,0,0,1-.37.26l-.21.06h-.11a.63.63,0,0,1-.33-.09h0a.63.63,0,0,1-.38.22Z"/>
        <path class="cls-15" d="M21.05,7.82a.64.64,0,0,1-.48-.22v0a.88.88,0,0,1-.18-.39l0-.14a1.67,1.67,0,0,1,0-.32,2.71,2.71,0,0,1,0-.29,1.91,1.91,0,0,1,.06-.33,1.4,1.4,0,0,1,.13-.34.78.78,0,0,1,.33-.32h0a.7.7,0,0,1,.19-.06h.21l0,0a.54.54,0,0,1,.2-.1h.14l.17,0h0a.52.52,0,0,1,.37.43,2.25,2.25,0,0,1,0,.28.46.46,0,0,1,.16-.07h.06a.34.34,0,0,1,.32.22h0a.17.17,0,0,1,0,.1.33.33,0,0,1,0,.14h0a4.08,4.08,0,0,1-.25.77,1,1,0,0,1-.2.32l0,0a.71.71,0,0,1-.34.16h-.1a.67.67,0,0,1-.31-.07h0l0,0-.08.08a.6.6,0,0,1-.31.15h-.06Z"/>
        <path class="cls-15" d="M22.45,7.59h0a.43.43,0,0,1-.31-.16h0A.54.54,0,0,1,22,7.21a.53.53,0,0,1,0-.13c0-.32,0-.64,0-1V5.49a.31.31,0,0,1,.11-.27.35.35,0,0,1,.2-.1h.11a.94.94,0,0,1,.3.06l.1.06.05,0a.53.53,0,0,1,.29-.14h.09a.57.57,0,0,1,.38.15h0a.79.79,0,0,1,.2.41v0a.49.49,0,0,0,0,.12.42.42,0,0,1,.17-.08h.05a.36.36,0,0,1,.36.3V6a.54.54,0,0,1,0,.22c0,.12-.06.25-.1.37a1.88,1.88,0,0,1-.16.39.74.74,0,0,1-.55.44h-.09a.59.59,0,0,1-.23,0,.58.58,0,0,1-.27-.19v0a.51.51,0,0,1-.43.37h-.2Z"/>
        <path class="cls-15" d="M24.39,7.31a.55.55,0,0,1-.18,0h0a.73.73,0,0,1-.48-.63c0-.05,0-.1,0-.15,0-.23,0-.64,0-1.26h0a.38.38,0,0,1-.17-.08.36.36,0,0,1-.14-.23h0a.39.39,0,0,1,.07-.29.4.4,0,0,1,.24-.14h0v0h0v0a0,0,0,0,1,0,0,.39.39,0,0,1,.07-.29A.35.35,0,0,1,24,4h.27a.54.54,0,0,1,.39.3h0l0,0a.51.51,0,0,1,.17.07.39.39,0,0,1,.15.23v0A.38.38,0,0,1,25,5a.42.42,0,0,1-.24.14h0c0,.06,0,.13,0,.19l0,.57,0-.07,0,0A.37.37,0,0,1,25,5.54h.18l0,0a.37.37,0,0,1,.21.29.39.39,0,0,1,0,.21,2.83,2.83,0,0,1-.11.31c0,.1-.09.2-.14.3a2.39,2.39,0,0,1-.13.21.84.84,0,0,1-.55.42Z"/>
        <path class="cls-15" d="M25.45,7.16a.81.81,0,0,1-.34-.08.92.92,0,0,1-.28-.24h0a1.33,1.33,0,0,1-.22-.55V6.2a2,2,0,0,1,0-.73.93.93,0,0,1,.53-.71h0l.18,0h.11a.8.8,0,0,1,.36.09l0,0a1,1,0,0,1,.39.56l.11,0h.08a.15.15,0,0,1,.09,0,.37.37,0,0,1,.25.31s0,0,0,0a.79.79,0,0,1-.05.22,1.23,1.23,0,0,1-.42.57l-.1.06a1.64,1.64,0,0,1-.16.29h0a.86.86,0,0,1-.2.18.61.61,0,0,1-.28.11h-.1Z"/>
        <path class="cls-15" d="M26.2,8.53a.64.64,0,0,1-.42-.15.76.76,0,0,1-.29-.5,1.2,1.2,0,0,1,.11-.65,1.77,1.77,0,0,1,.4-.54c0-.57,0-1.15,0-1.72a.5.5,0,0,1,0-.22A.88.88,0,0,1,26,4.6.41.41,0,0,1,26,4.31a.47.47,0,0,1,.2-.17.43.43,0,0,1,.14,0h.07a.41.41,0,0,1,.26.09.44.44,0,0,1,.17.21.36.36,0,0,1,0,.11.41.41,0,0,1,0,.22A.57.57,0,0,1,27,5a1,1,0,0,1,0,.17v.16a.33.33,0,0,1,.21-.11h.06a.31.31,0,0,1,.19.06h0a.38.38,0,0,1,.15.24.5.5,0,0,1,0,.24,2.39,2.39,0,0,1-.63,1V7c0,.12,0,.25,0,.37a2.57,2.57,0,0,1-.05.4,1.16,1.16,0,0,1-.18.43h0a.72.72,0,0,1-.47.3H26.2Z"/>
        <path class="cls-15" d="M27.67,6.82a.85.85,0,0,1-.35-.08.88.88,0,0,1-.27-.24h0A1.33,1.33,0,0,1,26.83,6l0-.09a1.77,1.77,0,0,1,0-.73,1,1,0,0,1,.52-.71h0a.47.47,0,0,1,.17,0h.12a.73.73,0,0,1,.35.09h0a1,1,0,0,1,.39.57.24.24,0,0,1,.12,0h.07l.1,0a.42.42,0,0,1,.25.31v0a.54.54,0,0,1-.05.22,1.07,1.07,0,0,1-.42.57.21.21,0,0,1-.1.06,1.18,1.18,0,0,1-.16.29h0a1,1,0,0,1-.21.19.86.86,0,0,1-.28.11h-.09Z"/>
        <path class="cls-15" d="M29.1,6.61a.73.73,0,0,1-.53-.22h0A.74.74,0,0,1,28.38,6a.57.57,0,0,1,0-.31l-.06,0h0a.37.37,0,0,1-.1-.17v0a.37.37,0,0,1,0-.18,5.16,5.16,0,0,1,.16-.52c0-.09.08-.18.13-.27a.74.74,0,0,1,.3-.28h0a.88.88,0,0,1,.23-.07h.12l.19,0a.38.38,0,0,1,.1,0h.05l.09.06a.33.33,0,0,1,.14.24v.08a.34.34,0,0,1-.11.24.32.32,0,0,1-.18.1s0,0,0,0l.11.16,0,0,0-.08a.43.43,0,0,1,0,0A.39.39,0,0,1,30,4.78h.17l0,0a.34.34,0,0,1,.21.28.37.37,0,0,1,0,.18,3.36,3.36,0,0,1-.28.65,1.57,1.57,0,0,1-.58.59.92.92,0,0,1-.28.09H29.1Z"/>
        <path class="cls-4" d="M11.47,9.2a1.16,1.16,0,0,1-.37,0,1.05,1.05,0,0,1-.49-.28,1.31,1.31,0,0,1-.4-.79,2,2,0,0,1,0-.42,2.7,2.7,0,0,1,.32-1.09A1.62,1.62,0,0,1,11,6.08a1,1,0,0,1,.43-.18.65.65,0,0,1,.31,0,.52.52,0,0,1,.26.17.37.37,0,0,1,.08.19s0,.08,0,.11v0a2.43,2.43,0,0,1-.07.78.83.83,0,0,1,0,.15.28.28,0,0,1-.23.19.55.55,0,0,1-.18,0l-.1,0a.09.09,0,0,1-.06-.08.19.19,0,0,1,0-.11,2,2,0,0,0,.29-.91V6.31a.24.24,0,0,0-.06-.11.14.14,0,0,0-.11,0,.2.2,0,0,0-.14.06,1.55,1.55,0,0,0-.43.49,2.4,2.4,0,0,0-.27,1.34.45.45,0,0,0,0,.11,1.77,1.77,0,0,0,0,.2.78.78,0,0,0,.45.53.62.62,0,0,0,.33,0,.73.73,0,0,0,.25-.08,1.21,1.21,0,0,0,.43-.41,2,2,0,0,0,.32-.78c0-.08,0-.12.08-.13a.07.07,0,0,1,.07,0,.21.21,0,0,1,0,.17,2.18,2.18,0,0,1-.51,1.08,1.2,1.2,0,0,1-.34.25A1.22,1.22,0,0,1,11.47,9.2Z"/>
        <path class="cls-4" d="M12.9,8.64h0a.34.34,0,0,1-.27-.12.66.66,0,0,1-.13-.28.5.5,0,0,1,0-.12,1.23,1.23,0,0,1,0-.27,2.44,2.44,0,0,1,0-.27,2.93,2.93,0,0,1,0-.29A.85.85,0,0,1,12.63,7a.53.53,0,0,1,.21-.21.24.24,0,0,1,.12,0,.85.85,0,0,1,.37,0l0-.06a.24.24,0,0,1,0-.08l.05,0h.07l.13,0a.22.22,0,0,1,.17.19,2.07,2.07,0,0,1,0,.43c0,.12,0,.25,0,.37a2.81,2.81,0,0,0,0,.41s0,0,0,.05a.1.1,0,0,0,.08.06h0a.18.18,0,0,0,.07,0A.5.5,0,0,0,14,8a4.5,4.5,0,0,0,.16-.48.14.14,0,0,1,0-.07l0,0,0,0s.06,0,.07,0a0,0,0,0,1,0,0s0,0,0,0a3.68,3.68,0,0,1-.23.71.59.59,0,0,1-.14.23.4.4,0,0,1-.2.09.37.37,0,0,1-.23,0,.37.37,0,0,1-.15-.13.45.45,0,0,1-.07-.18.15.15,0,0,1,0-.07c0,.05,0,.09,0,.13a1.8,1.8,0,0,1-.08.21.53.53,0,0,1-.11.14A.3.3,0,0,1,12.9,8.64ZM13,8.32s0,0,0,0l0,0v0c0-.07.05-.13.06-.16a.62.62,0,0,0,0-.11h0a7.72,7.72,0,0,0,.14-.79V7.1a0,0,0,0,0,0,0,.06.06,0,0,1,0-.06h-.19l0,0h0L13,7.14h0l0,.06,0,.1,0,.05a2.09,2.09,0,0,0,0,.49v.06a1.64,1.64,0,0,0,0,.23l0,.1A.22.22,0,0,0,13,8.32Z"/>
        <path class="cls-4" d="M14.82,8.37h-.08a.43.43,0,0,1-.33-.13A.46.46,0,0,1,14.29,8c0-.09,0-.14,0-.16l0,0h0l0,0a.14.14,0,0,1,0,.06V8a.23.23,0,0,0,.07.15.14.14,0,0,0,.13.05.12.12,0,0,0,.09-.06.24.24,0,0,0,.05-.19.78.78,0,0,0-.05-.14l-.12-.2-.05-.07-.09-.14a1.62,1.62,0,0,1-.1-.18,2.76,2.76,0,0,1-.08.27s0,0-.06,0a.08.08,0,0,1-.07,0l0,0a.06.06,0,0,1,0,0,4.13,4.13,0,0,1,.15-.5,2.4,2.4,0,0,1,.11-.23.35.35,0,0,1,.18-.16h0l.16,0a.45.45,0,0,1,.2,0h.11s0,0,0,.06v0a.08.08,0,0,1,0,0l0,0h-.14s-.06,0-.08.06h0s0,0,0,.06a.33.33,0,0,0,0,.14.52.52,0,0,0,.07.21l.12.19a1.64,1.64,0,0,1,.14.22.58.58,0,0,1,.09.25.34.34,0,0,1,0,.1.44.44,0,0,0,.08-.11,2.32,2.32,0,0,0,.26-.6s0,0,.07,0h0s.05,0,.05.07,0,0,0,0a2.38,2.38,0,0,1-.25.59,1.28,1.28,0,0,1-.47.48A.6.6,0,0,1,14.82,8.37Z"/>
        <path class="cls-4" d="M15.94,8.18a.32.32,0,0,1-.24-.07.73.73,0,0,1-.2-.45c0-.11,0-.22,0-.34l0-.34c.05-.34.18-.55.4-.63l.08,0a.74.74,0,0,1,.37.06v0h0v0a.07.07,0,0,1,0-.06.1.1,0,0,1,.05,0l.14,0a.25.25,0,0,1,.16.06.23.23,0,0,1,.07.14.29.29,0,0,1,0,.13l0,.23c0,.16,0,.32,0,.48a2,2,0,0,0,0,.35.36.36,0,0,0,0,.09.07.07,0,0,0,.07,0h0a.51.51,0,0,0,.27-.27.62.62,0,0,0,.08-.38.26.26,0,0,0,0-.12.08.08,0,0,1,0-.06s0-.07.05-.1a.21.21,0,0,1,.12,0,.19.19,0,0,1,.18.06.34.34,0,0,1,.08.17.74.74,0,0,1,0,.29,2.1,2.1,0,0,1-.13.26,1.86,1.86,0,0,1-.21.28A.91.91,0,0,1,16.9,8a.28.28,0,0,1-.13,0,.33.33,0,0,1-.24,0,.48.48,0,0,1-.21-.34v0a1.26,1.26,0,0,1-.15.38A.34.34,0,0,1,15.94,8.18ZM16,7.85l0,0v0a.85.85,0,0,0,.09-.24v0l0-.16q0-.15.06-.36a2.86,2.86,0,0,0,.06-.35.1.1,0,0,1,0-.09h0a.2.2,0,0,0-.1,0,.24.24,0,0,0-.11.06.39.39,0,0,0-.08.1.93.93,0,0,0,0,.13,1.73,1.73,0,0,0-.06.85v.09h0v0s0,0,0,0h0Z"/>
        <path class="cls-2" d="M21,7.41h0a.37.37,0,0,1-.27-.12A.65.65,0,0,1,20.59,7l0-.12a2.45,2.45,0,0,1,0-.27,2.45,2.45,0,0,1,0-.27,1.47,1.47,0,0,1,.05-.29.82.82,0,0,1,.1-.26.53.53,0,0,1,.21-.21l.12,0a.9.9,0,0,1,.38,0,.14.14,0,0,1,0-.06.08.08,0,0,1,0-.08l0,0a.06.06,0,0,1,.06,0l.14,0a.2.2,0,0,1,.16.19,2.6,2.6,0,0,1,0,.43l0,.37a2.84,2.84,0,0,0,0,.41.08.08,0,0,0,0,0,.13.13,0,0,0,.07.06h0A.16.16,0,0,0,22,6.91a.77.77,0,0,0,.1-.18,4,4,0,0,0,.15-.49l0-.06a.09.09,0,0,1,0,0l0,0s.05,0,.07,0,0,0,0,0v0a4.34,4.34,0,0,1-.24.72.59.59,0,0,1-.14.23.37.37,0,0,1-.19.09.41.41,0,0,1-.24,0,.29.29,0,0,1-.14-.13.48.48,0,0,1-.08-.18V6.85s0,.09-.05.13a.9.9,0,0,1-.08.21.45.45,0,0,1-.1.14A.35.35,0,0,1,21,7.41Zm.06-.32,0,0,0,0,0,0a.82.82,0,0,0,.06-.16.43.43,0,0,0,0-.1h0c.06-.26.1-.52.14-.78V5.84a.09.09,0,0,1,0-.06l0,0h-.14l0,0h0a.24.24,0,0,0-.06.09h0l0,.06a.42.42,0,0,0,0,.1v0a2.05,2.05,0,0,0-.06.49v.06a1.79,1.79,0,0,0,0,.23L21,7A.34.34,0,0,0,21.05,7.09Z"/>
        <path class="cls-2" d="M22.53,7.17a.4.4,0,0,1-.15,0,.16.16,0,0,1-.11,0l0-.08V7c0-.33,0-.65,0-1V5.37a.08.08,0,0,1,0,0l.05,0a.45.45,0,0,1,.24,0,.21.21,0,0,1,.12.17.15.15,0,0,1,0,.07s0,.21,0,.57l.09-.37a2.07,2.07,0,0,1,.15-.34A.47.47,0,0,1,23,5.29a.23.23,0,0,1,.14-.07.29.29,0,0,1,.24.08.39.39,0,0,1,.11.24,3.17,3.17,0,0,1,0,.53,2.41,2.41,0,0,0,0,.38.37.37,0,0,0,0,.11.36.36,0,0,0,0,.11l0,0,0,0a.05.05,0,0,0,.05,0,.45.45,0,0,0,.11-.19A2.15,2.15,0,0,0,23.94,6c0-.1,0-.15.1-.15s.07,0,.08.07a.17.17,0,0,1,0,.1L24,6.38a2,2,0,0,1-.14.34.48.48,0,0,1-.34.28.25.25,0,0,1-.17,0,.31.31,0,0,1-.15-.1.42.42,0,0,1-.07-.13.75.75,0,0,1,0-.16,2.46,2.46,0,0,1,0-.28,2.72,2.72,0,0,1,0-.28V5.57h0a.12.12,0,0,0-.08.11,5.45,5.45,0,0,0-.25,1.2.77.77,0,0,1,0,.15A.19.19,0,0,1,22.53,7.17Z"/>
        <path class="cls-2" d="M24.36,6.9a.26.26,0,0,1-.15,0,.46.46,0,0,1-.29-.4.62.62,0,0,1,0-.13c0-.21,0-.62,0-1.22,0-.11,0-.23,0-.34l-.23,0h-.07l0-.06s0,0,0-.06a.1.1,0,0,1,.05,0l.26,0a1.16,1.16,0,0,0,0-.27h0v-.1s0,0,0-.06a.07.07,0,0,1,.06,0h0l.12,0a.26.26,0,0,1,.2.15.14.14,0,0,1,0,.06.48.48,0,0,1,0,.12v.06l.2,0,.06,0a.07.07,0,0,1,0,.06.07.07,0,0,1,0,.06l-.06,0-.23,0,0,.42,0,.6c0,.12,0,.23,0,.35a1.48,1.48,0,0,0,0,.21.31.31,0,0,0,0,.1v0s0,0,0,0a.08.08,0,0,0,0,0h0l.06,0,.05,0a.45.45,0,0,0,.1-.14l.09-.17a3.52,3.52,0,0,0,.15-.42.12.12,0,0,1,.07,0h0a.09.09,0,0,1,.06.06.07.07,0,0,1,0,0h0L25,6.15a2.29,2.29,0,0,1-.14.27,1.18,1.18,0,0,1-.11.19A.54.54,0,0,1,24.36,6.9Z"/>
        <path class="cls-2" d="M25.43,6.75h0a.37.37,0,0,1-.23,0A.65.65,0,0,1,25,6.55a1.08,1.08,0,0,1-.17-.43V6a1.6,1.6,0,0,1,0-.62.68.68,0,0,1,.36-.51.27.27,0,0,1,.12,0,.43.43,0,0,1,.29,0,.84.84,0,0,1,.32.6,2.08,2.08,0,0,1,0,.5.66.66,0,0,0,.29-.39v0c0-.07.05-.11.1-.12h0a.11.11,0,0,1,.07.09.23.23,0,0,1,0,.11.91.91,0,0,1-.31.44.36.36,0,0,1-.17.07,1,1,0,0,1-.16.35.53.53,0,0,1-.14.12A.33.33,0,0,1,25.43,6.75Zm.06-.23a.1.1,0,0,0,.05,0,1,1,0,0,0,.11-.29h0l0,0a.59.59,0,0,1-.26-.4s0-.07,0-.11a2.11,2.11,0,0,1,0-.51,1.24,1.24,0,0,0-.11.52,2.06,2.06,0,0,0,0,.44,1.05,1.05,0,0,0,.06.24.46.46,0,0,0,.09.15.09.09,0,0,0,.08,0ZM25.67,6V5.74a.13.13,0,0,0,0-.06v-.1l0-.14a.81.81,0,0,0-.05-.15.49.49,0,0,0-.06-.13.46.46,0,0,0,0,.1v.13a.38.38,0,0,0,0,.1.57.57,0,0,0,0,.13.36.36,0,0,0,0,.1.49.49,0,0,0,0,.14.47.47,0,0,0,.06.09h0l0,0Z"/>
        <path class="cls-2" d="M26.16,8.12h0A.38.38,0,0,1,25.88,8a.49.49,0,0,1-.18-.32.87.87,0,0,1,.09-.48,1.57,1.57,0,0,1,.34-.47h0l.06-.06a.28.28,0,0,0,0-.09q0-.89,0-1.77a.31.31,0,0,1,0-.11.07.07,0,0,1,.06,0h.08l.14,0a.23.23,0,0,1,.14.19.49.49,0,0,1,0,.12l0,1.23a1.72,1.72,0,0,0,.46-.75.54.54,0,0,1,.05-.11.09.09,0,0,1,.06,0h.05a.05.05,0,0,1,0,0,.18.18,0,0,1,0,.1,2.13,2.13,0,0,1-.57.91l-.05.06a.24.24,0,0,0,0,.08c0,.07,0,.18,0,.33s0,.24,0,.36a2.2,2.2,0,0,1,0,.36.85.85,0,0,1-.13.31A.42.42,0,0,1,26.16,8.12ZM26,7.83l0,0a1,1,0,0,0,.14-.52V7.23a1.4,1.4,0,0,0,0-.29.85.85,0,0,0-.24.35.66.66,0,0,0-.06.36A.34.34,0,0,0,26,7.8S26,7.83,26,7.83Zm.38-3.23h0a.12.12,0,0,1-.11,0,.16.16,0,0,1-.08-.13.1.1,0,0,1,0-.09.22.22,0,0,1,.07-.06l.07,0h0a.1.1,0,0,1,.1,0,.18.18,0,0,1,.08.09s0,0,0,0a.17.17,0,0,1,0,.07S26.47,4.58,26.39,4.6Z"/>
        <path class="cls-2" d="M27.64,6.41h0a.36.36,0,0,1-.23,0,.43.43,0,0,1-.18-.15A1,1,0,0,1,27,5.78l0-.08a1.82,1.82,0,0,1,0-.62.69.69,0,0,1,.37-.51.23.23,0,0,1,.11,0,.42.42,0,0,1,.29,0,.8.8,0,0,1,.32.6,1.65,1.65,0,0,1,0,.5.69.69,0,0,0,.28-.39v0c0-.07.05-.11.1-.12h0a.11.11,0,0,1,.06.09.36.36,0,0,1,0,.11,1,1,0,0,1-.32.45.43.43,0,0,1-.17.06.86.86,0,0,1-.16.35l-.13.13A.49.49,0,0,1,27.64,6.41Zm.06-.22.05-.05a.61.61,0,0,0,.11-.28v0h0a.58.58,0,0,1-.26-.41.36.36,0,0,1,0-.11,2,2,0,0,1,0-.5,1.37,1.37,0,0,0-.11.52,2.9,2.9,0,0,0,0,.43,1.05,1.05,0,0,0,.06.24.36.36,0,0,0,.08.15.12.12,0,0,0,.08,0Zm.19-.54V5.41a.2.2,0,0,1,0-.07V5.25l0-.15c0-.07,0-.12-.05-.15a.56.56,0,0,0-.07-.13.34.34,0,0,1,0,.11v.13a.22.22,0,0,1,0,.09s0,.09,0,.13a.43.43,0,0,1,0,.11.44.44,0,0,0,.05.13.24.24,0,0,0,.06.09h0l0,0h0Z"/>
        <path class="cls-2" d="M29.12,6.2H29a.42.42,0,0,1-.34-.13.44.44,0,0,1-.11-.24c0-.08,0-.14,0-.16l.05,0h0a.05.05,0,0,1,.05,0,.08.08,0,0,1,0,0V5.8a.29.29,0,0,0,.08.14A.14.14,0,0,0,29,6a.12.12,0,0,0,.09-.06.22.22,0,0,0,0-.18A.3.3,0,0,0,29,5.6a1.18,1.18,0,0,0-.11-.19l-.05-.08-.1-.14L28.69,5c0,.09-.05.18-.08.27a.09.09,0,0,1-.14,0,.08.08,0,0,1,0,0v0c.05-.17.1-.34.16-.5a1.2,1.2,0,0,1,.11-.23.4.4,0,0,1,.18-.16h0a.58.58,0,0,1,.17-.06.46.46,0,0,1,.2,0h.09l0,0a.1.1,0,0,1,0,0v0a.09.09,0,0,1,0,0l-.05,0H29.2a.13.13,0,0,0-.07.06h0a.1.1,0,0,0,0,.06.71.71,0,0,0,0,.15.5.5,0,0,0,.08.2.76.76,0,0,0,.12.19,1.64,1.64,0,0,1,.14.22.73.73,0,0,1,.08.25.34.34,0,0,1,0,.1l.08-.1A3,3,0,0,0,29.87,5s0,0,.06,0H30A.06.06,0,0,1,30,5v.05a2.79,2.79,0,0,1-.26.59,1.07,1.07,0,0,1-.47.47A.4.4,0,0,1,29.12,6.2Z"/>
      </g>
      <g>
        <path class="cls-15" d="M18.9,8.12a1,1,0,0,1-1-.81,1.09,1.09,0,0,1,.46-1.1.81.81,0,0,1,0-.31,1.07,1.07,0,0,1,.78-.78l.17,0h.09a.64.64,0,0,1,.65.46A.67.67,0,0,1,20,6a.49.49,0,0,1,.26.53.67.67,0,0,1-.23.37.93.93,0,0,1,0,.47,1.07,1.07,0,0,1-.83.74A1.17,1.17,0,0,1,18.9,8.12Z"/>
        <path class="cls-3" d="M19.22,6.36h0l-.27,0c-.81.2-.57,1.22.05,1.07.47-.12.45-.61.25-.68-.19.08-.33.18-.3.32s0,0,0,0h0a.21.21,0,0,1-.15-.34c.19-.28,1.09-.39,1-.68,0,0,0,0,0,0s0,0,0,0a.2.2,0,0,1,.12.23c0,.13-.17.22-.34.3.25.24.19.87-.5,1-1,.25-1.41-1-.41-1.47-.27-.21-.06-.79.46-.92l.12,0a.36.36,0,0,1,.27.65l-.05,0c-.14,0-.31-.09-.22-.14s.23-.44,0-.4h-.05c-.37.09-.48.69-.07.69l.2,0C19.36,6.08,19.3,6.34,19.22,6.36Z"/>
      </g>
      <path class="cls-1" d="M7.42,8.23h0A6.08,6.08,0,0,1,7,8.69l0,.05a6.94,6.94,0,0,1-.77.7,8,8,0,0,1-.71.47l1.39-1.2Z"/>
      <path class="cls-16" d="M7,8.74s.72.25.56,1.47-1-.51-1-.51l-.09-.49"/>
    </g>
  </g>
</svg>
