<svg xmlns="http://www.w3.org/2000/svg" viewBox="0 0 33.57 14.41">
  <defs>
    <style>
      .cls-1 {
        fill: #0d0b03;
      }

      .cls-2 {
        fill: #f8d116;
      }

      .cls-3 {
        fill: #e4141d;
      }

      .cls-4 {
        fill: #49ad33;
      }

      .cls-5 {
        fill: #805f15;
      }

      .cls-6 {
        fill: #138f38;
      }

      .cls-7 {
        fill: #231a03;
      }

      .cls-8 {
        fill: #261c04;
      }

      .cls-9 {
        fill: #2e2307;
      }

      .cls-10 {
        fill: #322607;
      }

      .cls-11 {
        fill: #362907;
      }

      .cls-12 {
        fill: #291f06;
      }

      .cls-13 {
        fill: #392b08;
      }

      .cls-14 {
        fill: #3d2e0a;
      }

      .cls-15 {
        fill: #fff;
      }

      .cls-16 {
        fill: #cb1718;
      }
    </style>
  </defs>
  <g id="Capa_2" data-name="Capa 2">
    <g id="Capa_1-2" data-name="Capa 1">
      <g>
        <path class="cls-1" d="M13.67,3.3a7,7,0,0,0-.29-.76c-.15-.33-.3-.65-.47-1A1.16,1.16,0,0,0,12.26,1,2.48,2.48,0,0,0,10.91.94a3.62,3.62,0,0,0-1.34.68,8.7,8.7,0,0,0-1.09,1c-.18.19-.35.39-.53.59l-.27-.37A13.23,13.23,0,0,0,6.26,1.19,5.9,5.9,0,0,0,5,.25,2.72,2.72,0,0,0,4.41,0,1,1,0,0,0,3.29.6a3.13,3.13,0,0,0-.16.52,4.47,4.47,0,0,0,0,1.46A14,14,0,0,0,4.23,6.29l.25.57a2.79,2.79,0,0,1-.33-.06Q3.56,6.67,3,6.5a4.53,4.53,0,0,0-1-.18A1.47,1.47,0,0,0,1,6.6,3.06,3.06,0,0,0,.15,7.68,1.45,1.45,0,0,0,0,8.62a2.32,2.32,0,0,0,.32.84,1.9,1.9,0,0,0,1.18.89,2.72,2.72,0,0,0,.94.07l.43-.07.28-.08A5.76,5.76,0,0,0,4,9.94a6.66,6.66,0,0,0,.83-.45l.29-.18,0,0,.62-.41a8.36,8.36,0,0,0,.72-.65l.1,0a1.07,1.07,0,0,1,.26.26l0,.06.5-.08a17,17,0,0,0,1.72-.36,12,12,0,0,0,1.6-.53,6.39,6.39,0,0,0,1.72-1,3.56,3.56,0,0,0,1.16-1.74A2.69,2.69,0,0,0,13.67,3.3ZM12,5.61,12,5.7h0L11.6,6a5.09,5.09,0,0,1-.45.31.57.57,0,0,0-.13.08l0,0a2.08,2.08,0,0,1-.35.2c-.3.14-.62.27-.94.39a5.79,5.79,0,0,1-.62.22l.11-.06a6.89,6.89,0,0,0,1.29-.89,1.83,1.83,0,0,0,.4-.5v0l.06-.14a.67.67,0,0,0-.41-.86,1.15,1.15,0,0,0-.41-.08l-.27,0a4,4,0,0,1,.65-.65,3.54,3.54,0,0,1,1-.58,2,2,0,0,1,.71-.14h.2l.26.06v0a1.94,1.94,0,0,1,.11.43,1.73,1.73,0,0,1-.14.84A2.83,2.83,0,0,1,12,5.61ZM4.23,8.88l0-.2.16.09Zm-1.84.67H2.27l.13-.18,0,0,.13.14ZM1.64,7.42a1.14,1.14,0,0,1,.73-.29h.06l.41,0,.55.12.21,0,0,0a4.26,4.26,0,0,1-.68.38,1.77,1.77,0,0,1-.71.18.65.65,0,0,1-.2,0,.8.8,0,0,1-.54-.3ZM4.39,4.64h0L4.3,4.36a.69.69,0,0,0,0-.1A2.76,2.76,0,0,0,4.18,4V4l0-.06h0l-.06-.22,0-.11L4,3.35s0-.07,0-.1a1.89,1.89,0,0,1,0-.23h0s0-.06,0-.09a2.5,2.5,0,0,1-.05-.29.31.31,0,0,1,0-.1h0a1,1,0,0,1,0-.23c0-.05,0-.09,0-.13h0c0-.07,0-.15,0-.22V1.84a1.21,1.21,0,0,1,0-.19.37.37,0,0,1,0-.11.91.91,0,0,1,0-.23V1.25A.79.79,0,0,1,4,.93.23.23,0,0,1,4.2.85h0A1,1,0,0,1,4.68,1a4.1,4.1,0,0,1,1,.75,9.79,9.79,0,0,1,1,1.2l.45.63a7.08,7.08,0,0,0-.91.32,5.53,5.53,0,0,0-1,.53A5.8,5.8,0,0,0,4.51,5s0-.07,0-.11,0-.08,0-.12ZM9,3.3H9ZM5.79,7.45l.29.08-.24.23C5.82,7.66,5.81,7.55,5.79,7.45Zm-.9.47-.07,0,0,0ZM6.37,6.61l-.23-.07.18-.19Zm1.1-.71-.2.24a2.33,2.33,0,0,1,0-.28ZM8.64,4.24H8.7l0,.06Zm1.79-2.11.14-.08v.12ZM7.62,4.94l.14-.16,0,.18Z"/>
        <path class="cls-1" d="M9.22,8.44a1.32,1.32,0,0,0-.07-.3,17,17,0,0,1-1.72.36l-.09.21-.08.21.38-.06.67-.12c.3-.06.61-.13.92-.22A.25.25,0,0,0,9.22,8.44Z"/>
        <path class="cls-1" d="M13.67,3.3a7,7,0,0,0-.29-.76c-.15-.33-.3-.65-.47-1A1.16,1.16,0,0,0,12.26,1,2.48,2.48,0,0,0,10.91.94a3.62,3.62,0,0,0-1.34.68,8.7,8.7,0,0,0-1.09,1c-.18.19-.35.39-.53.59l-.27-.37A13.23,13.23,0,0,0,6.26,1.19,5.9,5.9,0,0,0,5,.25,2.72,2.72,0,0,0,4.41,0,1,1,0,0,0,3.29.6a3.13,3.13,0,0,0-.16.52,4.47,4.47,0,0,0,0,1.46A14,14,0,0,0,4.23,6.29l.25.57a2.79,2.79,0,0,1-.33-.06Q3.56,6.67,3,6.5a4.53,4.53,0,0,0-1-.18A1.47,1.47,0,0,0,1,6.6,3.06,3.06,0,0,0,.15,7.68,1.45,1.45,0,0,0,0,8.62a2.32,2.32,0,0,0,.32.84,1.9,1.9,0,0,0,1.18.89,2.72,2.72,0,0,0,.94.07l.43-.07.28-.08A5.76,5.76,0,0,0,4,9.94a6.66,6.66,0,0,0,.83-.45l.29-.18,0,0,.62-.41a8.36,8.36,0,0,0,.72-.65l.1,0a1.07,1.07,0,0,1,.26.26l0,.06.5-.08a17,17,0,0,0,1.72-.36,12,12,0,0,0,1.6-.53,6.39,6.39,0,0,0,1.72-1,3.56,3.56,0,0,0,1.16-1.74A2.69,2.69,0,0,0,13.67,3.3Zm-2-1.87a.75.75,0,0,1,.58.24.86.86,0,0,1,.21.36c.06.18.16.36.24.54l0,0L11.37,1.45A.89.89,0,0,1,11.69,1.43Zm-.56.07,1.21,1c-.22,0-.4,0-.58,0l-.54.11A6.13,6.13,0,0,1,11.13,1.5Zm-.21,0a1.37,1.37,0,0,1,0,.19c0,.33,0,.65.06,1h-.06L9.69,2.32l-.12,0A3.19,3.19,0,0,1,10.92,1.51Zm-.11,1.33-.56.38c-.18.13-.34.27-.53.42,0,0,0-.08-.05-.12-.07-.35-.13-.7-.2-1.08ZM9.28,2.51c.09.44.17.84.25,1.26L8.25,3.61A10.58,10.58,0,0,1,9.28,2.51ZM9.42,4,8.47,5.2h0c-.09-.47-.19-.94-.28-1.42Zm-3.16,4L6.17,8h0l-.06.06-.06,0-.12.11-.06,0h0l-.09.07,0,0,0,0,0,0h0l-.09.07C5.47,8,5.39,7.43,5.3,6.9l1.49.43-.14.16-.08.09-.11.12-.12.12ZM5.13,7c.09.54.18,1.05.27,1.6-.26-.13-.52-.26-.77-.4L4.5,8.16l-.17-.09L4.21,8,4.12,8A7.43,7.43,0,0,0,5.13,7ZM4.8,6.64c-.1-.22-.19-.39-.27-.57a.14.14,0,0,1,0-.11c.08-.08.13-.2.25-.25v0c0,.23,0,.46,0,.69C4.81,6.46,4.8,6.53,4.8,6.64Zm.83-.7c-.2.25-.42.48-.65.73V5.59Zm-.57-.5a4,4,0,0,1,.85-.6l0,.34c0,.16,0,.31,0,.47s-.07.16-.18.11Zm.35,1.29L6.56,5.54l.32,1.62ZM6.43,5l-.37.44H6c0-.19,0-.38,0-.6Zm-.27-.3a3.6,3.6,0,0,1,.7-.3,1,1,0,0,1-.33.47Zm.57.7,1.46.2A17.1,17.1,0,0,1,7.06,7C6.93,6.47,6.83,5.94,6.73,5.4Zm1,1.45,0,0a3.43,3.43,0,0,0,.44-.19,6.57,6.57,0,0,0,1-.47,3.61,3.61,0,0,0,.69-.46c.06,0,.1-.12.15-.17s.1-.08.19,0l-.11.16-.28.24-.53.38,0,0-.81.45c-.23.12-.47.22-.7.33l-.27.08ZM8,3.93c.11.52.2,1,.3,1.49L6.84,5.23ZM4.43,5.63l-.06,0c-.1-.24-.19-.45-.27-.68s-.21-.62-.31-.93A8.24,8.24,0,0,1,3.4,1.92a2.38,2.38,0,0,1,.06-.75A1.11,1.11,0,0,1,3.69.68.61.61,0,0,1,4.24.46a1.3,1.3,0,0,1,.63.2,4.55,4.55,0,0,1,1,.81A10.55,10.55,0,0,1,7,2.72l.51.73a1,1,0,0,1,.1.18,2.75,2.75,0,0,1-.22.26.24.24,0,0,1-.1,0,7.14,7.14,0,0,0-.92.32,5,5,0,0,0-.91.5A4.2,4.2,0,0,0,4.43,5.63Zm-3,1.49a1.49,1.49,0,0,1,1.06-.38,3.4,3.4,0,0,1,.46.06L4,7c.17,0,.34.05.55.09-.28.21-.52.41-.77.58a6.65,6.65,0,0,1-.74.41,1.89,1.89,0,0,1-1.15.19A1.16,1.16,0,0,1,1,7.57,1.47,1.47,0,0,1,1.39,7.12ZM.72,8.22l.53,1.41A1.4,1.4,0,0,1,.72,8.22Zm.74,1.43c-.17-.44-.33-.86-.5-1.28a2.21,2.21,0,0,0,1.15.4Zm1.67.16h0l0,0H2.9l-.1,0H2.31a1.26,1.26,0,0,1-.7-.13s0,0,0,0l.73-1,.92,1Zm.31-.22L3,9.08,2.89,9l-.28-.3L3,8.57l.06,0,.14-.05,0,0,.26-.13,0,0,.07,0,0,0,.19-.13a.56.56,0,0,1,0,.12l0,.13-.24.9C3.49,9.39,3.46,9.49,3.44,9.59ZM4.89,9l-1.17.61-.1,0c.14-.52.28-1,.41-1.52l1.2.64A2.26,2.26,0,0,1,4.89,9ZM13,4.85a3.33,3.33,0,0,1-1.14,1.46,6.65,6.65,0,0,1-.62.41,3.14,3.14,0,0,1-.44.25c-.31.14-.64.27-1,.4l-.16.06-.12,0h0l-.09,0-.13,0-.13,0h0L9,7.64l0,0H8.92l-.13,0-.1,0h0l-.08,0h0l-.12,0-.6.14h0L7.51,8,7,8.1l-.14,0-.3,0h0L7,7.74H7l.1-.06a6.5,6.5,0,0,0,.62-.22c.43-.2.87-.4,1.29-.63A6.37,6.37,0,0,0,10.19,6a1.26,1.26,0,0,0,.31-.38l.06-.12a.29.29,0,0,0-.18-.37,1,1,0,0,0-.56,0A4,4,0,0,0,9,5.36l-.18,0c.12-.18.22-.33.34-.48a6.07,6.07,0,0,1,1.07-1.19,4.17,4.17,0,0,1,1.1-.64A2.25,2.25,0,0,1,12.43,3a1.24,1.24,0,0,1,.47.15.14.14,0,0,1,.08.07,3,3,0,0,1,.17.67A2.18,2.18,0,0,1,13,4.85Z"/>
        <path class="cls-2" d="M6.58,8.16,7,7.73l.1-.05c.21-.08.42-.14.62-.23.43-.2.87-.4,1.29-.63A6.37,6.37,0,0,0,10.19,6a1.26,1.26,0,0,0,.31-.38l.06-.12a.29.29,0,0,0-.18-.37,1,1,0,0,0-.56,0A4,4,0,0,0,9,5.36l-.18,0c.12-.18.22-.33.34-.48a6.07,6.07,0,0,1,1.07-1.19,4.17,4.17,0,0,1,1.1-.64A2.25,2.25,0,0,1,12.43,3a1.24,1.24,0,0,1,.47.15.14.14,0,0,1,.08.07,3,3,0,0,1,.17.67,2.18,2.18,0,0,1-.17,1,3.33,3.33,0,0,1-1.14,1.46,6.65,6.65,0,0,1-.62.41,3.14,3.14,0,0,1-.44.25c-.31.14-.64.27-1,.4a13.57,13.57,0,0,1-2,.57C7.43,8,7,8.1,6.6,8.18Zm5.06-2,0,0A1.09,1.09,0,0,0,12,5.93a.52.52,0,0,0,.07-.15A.17.17,0,0,0,12,5.59Zm-.17-.64-.23.5a.54.54,0,0,0,.3-.3A.16.16,0,0,0,11.47,5.55Zm-.37,0a.85.85,0,0,0-.19.35C11.12,5.84,11.16,5.76,11.1,5.58Z"/>
        <path class="cls-2" d="M4.37,5.68c-.1-.24-.19-.45-.27-.67s-.21-.63-.31-.94A8.24,8.24,0,0,1,3.4,1.92a2.38,2.38,0,0,1,.06-.75A1,1,0,0,1,3.69.68.61.61,0,0,1,4.24.46a1.4,1.4,0,0,1,.63.19,4.89,4.89,0,0,1,1,.82A10.55,10.55,0,0,1,7,2.72l.51.73a1,1,0,0,1,.1.18,2.75,2.75,0,0,1-.22.26.24.24,0,0,1-.1,0,7.14,7.14,0,0,0-.92.32,5,5,0,0,0-.91.5,4.2,4.2,0,0,0-1,.87ZM4.19,4.42a1.17,1.17,0,0,0,.46-.34.4.4,0,0,0-.45.34h0ZM5,4.77a.44.44,0,0,0-.32.09.53.53,0,0,0-.17.35Zm-.66.07a6.4,6.4,0,0,0,.5-.41A.46.46,0,0,0,4.31,4.84Zm.14-1.38q-.33-.12-.48.3Zm.09.32A.33.33,0,0,0,4.09,4Zm-.19-.64a.32.32,0,0,0-.44.27Zm-.6-.43.42-.26C4,2.38,3.86,2.46,3.75,2.71Zm.08.37.43-.27C4.1,2.72,4,2.81,3.83,3.08Zm.25-.93c-.19-.07-.33,0-.4.23ZM4,1.84a.25.25,0,0,0-.35.22Zm-.39-.07.34-.21C3.77,1.5,3.65,1.57,3.59,1.77Zm.29-.48c-.17-.05-.25,0-.3.15Z"/>
        <path class="cls-2" d="M4.56,7.11c-.28.21-.52.41-.77.58a6.65,6.65,0,0,1-.74.41,1.89,1.89,0,0,1-1.15.19A1.16,1.16,0,0,1,1,7.57a1.47,1.47,0,0,1,.41-.45,1.49,1.49,0,0,1,1.06-.38,3.4,3.4,0,0,1,.46.06L4,7C4.18,7.06,4.35,7.07,4.56,7.11Z"/>
        <path class="cls-3" d="M6.79,7.33A8.37,8.37,0,0,1,5.58,8.5C5.47,8,5.39,7.43,5.3,6.9Z"/>
        <path class="cls-3" d="M7.06,7c-.13-.52-.23-1-.33-1.59l1.46.2A17.1,17.1,0,0,1,7.06,7Z"/>
        <path class="cls-4" d="M6.62,5.54,7,7.16,5.47,6.73Z"/>
        <path class="cls-3" d="M3.62,9.63,4,8.11l1.2.64A2.26,2.26,0,0,1,4.89,9l-1.17.61Z"/>
        <path class="cls-3" d="M2.36,8.76l.92,1a2.54,2.54,0,0,1-1,.19,1.26,1.26,0,0,1-.7-.13s0,0,0,0Z"/>
        <path class="cls-4" d="M8.05,3.93l.3,1.49L6.9,5.23Z"/>
        <path class="cls-4" d="M9.63,2.27A3.19,3.19,0,0,1,11,1.51l0,.19c0,.33,0,.65.05,1H11L9.75,2.32Z"/>
        <path class="cls-4" d="M5.47,8.62C5,8.4,4.61,8.19,4.19,8a7.35,7.35,0,0,0,1-.93Z"/>
        <path class="cls-3" d="M8.43,5.2,8.15,3.78,9.42,4,8.47,5.2Z"/>
        <path class="cls-4" d="M9.34,2.51c.1.44.18.84.25,1.26L8.32,3.61A9.5,9.5,0,0,1,9.34,2.51Z"/>
        <path class="cls-3" d="M9.47,2.44l1.34.4-.56.38c-.18.13-.34.27-.53.42,0,0,0-.08-.05-.12C9.6,3.17,9.54,2.82,9.47,2.44Z"/>
        <path class="cls-4" d="M3.5,9.59,2.68,8.7a3.69,3.69,0,0,0,1.21-.56Z"/>
        <path class="cls-3" d="M11.13,1.5l1.21,1c-.22,0-.4,0-.58,0l-.55.11A7.34,7.34,0,0,1,11.13,1.5Z"/>
        <path class="cls-4" d="M1,8.37a2.08,2.08,0,0,0,1.14.39l-.65.89Z"/>
        <path class="cls-5" d="M7.45,7.19l.27-.34,0,0a3.43,3.43,0,0,0,.44-.19,6.57,6.57,0,0,0,1-.47,3.61,3.61,0,0,0,.69-.46c.06,0,.1-.12.15-.17s.1-.08.19,0l-.11.16-.28.24-.53.38,0,0-.81.45c-.23.12-.47.22-.7.33Z"/>
        <path class="cls-4" d="M12.7,2.59,11.37,1.45a.89.89,0,0,1,.32,0,.75.75,0,0,1,.58.24.86.86,0,0,1,.21.36c.06.18.16.36.24.54Z"/>
        <path class="cls-4" d="M5.06,5.44a4.37,4.37,0,0,1,.85-.61c0,.13,0,.24,0,.35s0,.31,0,.47-.07.16-.18.11Z"/>
        <path class="cls-3" d="M5,6.67V5.59l.65.35C5.43,6.19,5.21,6.42,5,6.67Z"/>
        <path class="cls-3" d="M.72,8.22l.53,1.41A1.4,1.4,0,0,1,.72,8.22Z"/>
        <path class="cls-4" d="M4.79,5.71c0,.23,0,.46,0,.69,0,.06,0,.13,0,.24-.1-.22-.19-.39-.27-.57a.14.14,0,0,1,0-.11c.08-.08.13-.2.25-.25Z"/>
        <path class="cls-4" d="M6.53,4.87,6.16,4.7a3.6,3.6,0,0,1,.7-.3A1,1,0,0,1,6.53,4.87Z"/>
        <path class="cls-3" d="M6,5.43l0-.6L6.43,5l-.37.44Z"/>
        <path class="cls-6" d="M4.79,5.71v0Z"/>
        <path class="cls-7" d="M11.64,6.19l.38-.6a.17.17,0,0,1,.07.19.52.52,0,0,1-.07.15,1.09,1.09,0,0,1-.35.29Z"/>
        <path class="cls-8" d="M11.47,5.55a.16.16,0,0,1,.07.2.54.54,0,0,1-.3.3Z"/>
        <path class="cls-9" d="M11.1,5.58c.06.18,0,.26-.19.35A.85.85,0,0,1,11.1,5.58Z"/>
        <path class="cls-10" d="M5,4.77l-.49.44a.53.53,0,0,1,.17-.35A.44.44,0,0,1,5,4.77Z"/>
        <path class="cls-11" d="M4.31,4.84a.46.46,0,0,1,.5-.41A6.4,6.4,0,0,1,4.31,4.84Z"/>
        <path class="cls-12" d="M4.2,4.42a.4.4,0,0,1,.45-.34,1.17,1.17,0,0,1-.46.34Z"/>
        <path class="cls-13" d="M4.45,3.46,4,3.76Q4.12,3.34,4.45,3.46Z"/>
        <path class="cls-9" d="M4.54,3.78,4.09,4A.33.33,0,0,1,4.54,3.78Z"/>
        <path class="cls-10" d="M4.35,3.14l-.44.27A.32.32,0,0,1,4.35,3.14Z"/>
        <path class="cls-11" d="M3.75,2.71c.11-.25.24-.33.42-.26Z"/>
        <path class="cls-11" d="M3.83,3.08c.12-.27.27-.36.43-.27Z"/>
        <path class="cls-14" d="M4.08,2.15l-.4.23C3.75,2.16,3.89,2.08,4.08,2.15Z"/>
        <path class="cls-14" d="M4,1.84l-.35.22A.25.25,0,0,1,4,1.84Z"/>
        <path class="cls-10" d="M3.59,1.77c.06-.2.18-.27.34-.21Z"/>
        <path class="cls-14" d="M3.88,1.29l-.3.15C3.63,1.29,3.71,1.24,3.88,1.29Z"/>
        <path class="cls-12" d="M4.19,4.42h0Z"/>
      </g>
      <g>
        <path class="cls-1" d="M9.41,14.41a1.38,1.38,0,0,1-.6-.13h0a1.49,1.49,0,0,1-.68-1.14h0A8.24,8.24,0,0,1,8,11.89q0-.54.06-1.08c0-.29,0-.59.05-.88,0-.12,0-.24,0-.35l-.06.18h0A12.58,12.58,0,0,0,7.66,13a.82.82,0,0,1,0,.22.61.61,0,0,1-.23.36.58.58,0,0,1-.28.12H7a1.06,1.06,0,0,1-.31,0,1,1,0,0,1-.71-.85,1.77,1.77,0,0,1,0-.46L6,10.2c-.07.21-.13.43-.18.64h0a12.9,12.9,0,0,0-.36,2.77.71.71,0,0,1-.38.68H5l-.1,0h-.2A1.1,1.1,0,0,1,4,14.1H4a.92.92,0,0,1-.26-.54,1.86,1.86,0,0,1,0-.41c.06-.85.1-1.72.12-2.57v-.28l.25-.11a8.31,8.31,0,0,0,.78-.4l0,0,.07,0,.43-.26.48-.31v0L6.16,9l.07-.05h0a.41.41,0,0,1,.15-.07l.13-.08,0,.07L7,8.76l.18,0h0a1.6,1.6,0,0,1,.1-.23,2.69,2.69,0,0,1,.45-.65l0,0a1.4,1.4,0,0,1,.79-.44H9a1.13,1.13,0,0,1,.32.13,1.23,1.23,0,0,1,.53.65,1.59,1.59,0,0,1,.1.39s0,.06,0,.09h0c0,.13,0,.25,0,.38,0,.57,0,1.14-.07,1.72,0,.42,0,.85-.06,1.28a7.08,7.08,0,0,0,.07,1.22.54.54,0,0,1,.34.43.51.51,0,0,1,0,.32h0a.63.63,0,0,1-.52.37H9.41Z"/>
        <path class="cls-1" d="M5.81,8.73a7.64,7.64,0,0,0,.68-.61l.21-.21L7,8l.14.07h0a1.18,1.18,0,0,1,.4.4.2.2,0,0,1,0,.08l.29.54-.6.08-.18,0-.56.07h0l-.17.12Z"/>
        <path class="cls-1" d="M11,13H11a1.44,1.44,0,0,1-.82-.32,1.84,1.84,0,0,1-.66-1.19,2.54,2.54,0,0,1,0-.95,2.59,2.59,0,0,1,.36-1h0a1.65,1.65,0,0,1,1-.74h0l.16,0,.19,0a1,1,0,0,1,.41.09,1,1,0,0,1,.4.37,1.11,1.11,0,0,1,.17.47,1.48,1.48,0,0,1,0,.42.59.59,0,0,1,.29-.13h.08a.55.55,0,0,1,.48.27.64.64,0,0,1,.1.24,1.94,1.94,0,0,1-.29,1,4.81,4.81,0,0,1-.25.51,2.2,2.2,0,0,1-.8.85,1.57,1.57,0,0,1-.55.19Zm.16-1.58a.86.86,0,0,0,.07.21l.09-.07h0a2,2,0,0,0,.34-.49l.08-.17a1.52,1.52,0,0,1-.22.22A3.57,3.57,0,0,1,11.19,11.46Z"/>
        <path class="cls-1" d="M13.33,12.71a.58.58,0,0,1-.39-.15.62.62,0,0,1-.18-.36v0a1,1,0,0,1,0-.34L13,11.3c.08-.26.12-.4.14-.48a.6.6,0,0,1-.41.29h-.09a.61.61,0,0,1-.36-.13.63.63,0,0,1-.23-.38.88.88,0,0,1,.06-.4v-.06c.06-.25.12-.51.16-.76h0a1,1,0,0,0,0-.19V9.11h0a.65.65,0,0,1,.51-.71A1.37,1.37,0,0,1,13,8.32h.13a.68.68,0,0,1,.2,0h0a1,1,0,0,1,.51.35v0A1,1,0,0,1,14,8.49a.72.72,0,0,1,.34-.22h.14a.61.61,0,0,1,.45.2.83.83,0,0,1,.2.41.86.86,0,0,1,0,.42,1.53,1.53,0,0,1-.11.27l-.33.72c.06.14.13.28.2.41l0,.05c.07-.22.14-.44.19-.66a1,1,0,0,1,.1-.3.59.59,0,0,1,.44-.31h.09a.51.51,0,0,1,.37.15.56.56,0,0,1,.19.36v0h0a.85.85,0,0,1-.05.36l-.25.86a2.6,2.6,0,0,1-.3.72,1.13,1.13,0,0,1-.76.53h-.18a1.1,1.1,0,0,1-.4-.08,1.28,1.28,0,0,1-.4-.25,2,2,0,0,1-.08.22.6.6,0,0,1-.45.32Z"/>
        <path class="cls-1" d="M16.15,12.26a1.14,1.14,0,0,1-.51-.13h0a1.12,1.12,0,0,1-.5-.61,1.56,1.56,0,0,1-.1-.37l0-.24h0c0-.3,0-.6,0-.9s0-.57.07-.86h0a.88.88,0,0,0,0-.17V8.82l0-.12a.59.59,0,0,1,.08-.44l0-.07a.14.14,0,0,0,0-.06.83.83,0,0,1,0-.15.63.63,0,0,1,.1-.46.76.76,0,0,1,.32-.27,1,1,0,0,1,.24-.07h.12a.76.76,0,0,1,.41.13.9.9,0,0,1,.34.54.64.64,0,0,1-.05.36h0l-.06.11,0,0v0a.84.84,0,0,1,.15.38,1.34,1.34,0,0,1,0,.4l0,.34v.09a.85.85,0,0,1,.14-.19l0,0h0a.68.68,0,0,1,.26-.12h.09a.55.55,0,0,1,.28.07.53.53,0,0,1,.28.34l0,.06v0a.65.65,0,0,1,0,.34,10.92,10.92,0,0,1-.45,1.34,1.61,1.61,0,0,1-.37.56l0,0h0a1.19,1.19,0,0,1-.54.24h-.22Z"/>
        <path class="cls-1" d="M18,12h-.19a1.52,1.52,0,0,1-.77-.38,1.84,1.84,0,0,1-.55-1.08,2.33,2.33,0,0,1,0-.53,4.43,4.43,0,0,1,.06-.51,2.8,2.8,0,0,1,.32-.92,1.75,1.75,0,0,1,.78-.74h0a1.33,1.33,0,0,1,.34-.1h.19a1,1,0,0,1,.57.17h0a1.14,1.14,0,0,1,.44.76,1.48,1.48,0,0,1,0,.47.1.1,0,0,1,0,0h0V9a.68.68,0,0,1,.33-.16h.08a.53.53,0,0,1,.27.08l0,0,0,0a.63.63,0,0,1,.19.38.73.73,0,0,1,0,.36h0a5.33,5.33,0,0,1-.51,1.08,2.76,2.76,0,0,1-.68.8h0a1.65,1.65,0,0,1-.76.32Zm.19-2.12a2.16,2.16,0,0,0,0,.36h0a.91.91,0,0,0,0,.17,1.6,1.6,0,0,0,.05.21,1.27,1.27,0,0,0,.36-.37,2.89,2.89,0,0,0,.32-.6.73.73,0,0,1-.38.24h-.14a.85.85,0,0,1-.22,0Z"/>
        <path class="cls-1" d="M20.15,11.67a1,1,0,0,1-.8-.37h0a1.71,1.71,0,0,1-.32-.68,2.56,2.56,0,0,1-.05-.27,3.43,3.43,0,0,1,0-.56,4.89,4.89,0,0,1,0-.54,3.83,3.83,0,0,1,.1-.59,2.22,2.22,0,0,1,.24-.6,1.35,1.35,0,0,1,.56-.55h0a1,1,0,0,1,.34-.1l.21,0h.22l0,0,0,0A.56.56,0,0,1,21,7.17h.23l.31,0h0a.81.81,0,0,1,.61.7,3,3,0,0,1,0,.83.68.68,0,0,1,.17-.21.58.58,0,0,1,.29-.13h.08a.56.56,0,0,1,.51.34v0a.75.75,0,0,1,.05.16.81.81,0,0,1,0,.22h0a8.46,8.46,0,0,1-.45,1.4,1.71,1.71,0,0,1-.35.56h0a1.07,1.07,0,0,1-.58.27l-.17,0a1.21,1.21,0,0,1-.52-.13h0L21,11.2a1.3,1.3,0,0,1-.19.22,1,1,0,0,1-.52.24h-.09Z"/>
        <path class="cls-1" d="M22.78,11.26h-.05a.72.72,0,0,1-.51-.25v0h0a.79.79,0,0,1-.13-.33.81.81,0,0,1,0-.22c0-.6,0-1.19,0-1.76V7.48a.6.6,0,0,1,.17-.43.63.63,0,0,1,.33-.15h.19a1.3,1.3,0,0,1,.49.1.92.92,0,0,1,.25.17A.75.75,0,0,1,23.66,7a.93.93,0,0,1,.49-.23h.14a1,1,0,0,1,.64.24h0l0,0a1.24,1.24,0,0,1,.33.69v0h0c0,.17,0,.33,0,.48a.6.6,0,0,1,.44-.3h.07a.6.6,0,0,1,.58.47v0h0a.92.92,0,0,1,0,.37c-.05.22-.11.45-.17.67a3,3,0,0,1-.3.71,1.29,1.29,0,0,1-.93.75h-.16a1,1,0,0,1-.38-.07,1,1,0,0,1-.44-.32,1.07,1.07,0,0,1-.15-.22,1.7,1.7,0,0,1-.06.31.79.79,0,0,1-.7.6h0Z"/>
        <path class="cls-1" d="M26.55,10.73a1.17,1.17,0,0,1-.58-.15,1.56,1.56,0,0,1-.48-.4h0a2.27,2.27,0,0,1-.38-1l0-.14h0a3.41,3.41,0,0,1,.05-1.32A1.66,1.66,0,0,1,26,6.49h0a1.11,1.11,0,0,1,.3-.08l.2,0a1.34,1.34,0,0,1,.61.15h0l0,0a1.77,1.77,0,0,1,.72,1.12.63.63,0,0,1,.29-.13h.19l.07,0a.59.59,0,0,1,.39.5v.07a.9.9,0,0,1-.08.36,2.1,2.1,0,0,1-.74,1l-.21.11a2,2,0,0,1-.3.55h0a1.78,1.78,0,0,1-.35.32,1.22,1.22,0,0,1-.48.18h-.16Z"/>
        <path class="cls-1" d="M30.11,10.48h-.35a3.94,3.94,0,0,1-1-.22h0a1.2,1.2,0,0,1-.51-.38A1.25,1.25,0,0,1,28,9.27a.8.8,0,0,1,.09-.59.57.57,0,0,1-.13-.08.57.57,0,0,1-.22-.37.62.62,0,0,1,0-.27c.09-.32.19-.64.3-1a3,3,0,0,1,.25-.51,1.28,1.28,0,0,1,.5-.45,1.33,1.33,0,0,1,.44-.14l.2,0A1.38,1.38,0,0,1,30,6h0a.61.61,0,0,1,.31.3A1.56,1.56,0,0,1,30.54,6a1.79,1.79,0,0,1,.59-.36h0a1.93,1.93,0,0,1,.44-.12l.28,0a1.59,1.59,0,0,1,.66.14,1.66,1.66,0,0,1,.69.6,2.44,2.44,0,0,1,.33.88,2.82,2.82,0,0,1,0,.82,3.17,3.17,0,0,1-.25.83h0a2.61,2.61,0,0,1-.87,1,3.54,3.54,0,0,1-1,.48,3.92,3.92,0,0,1-.66.15A3.71,3.71,0,0,1,30.11,10.48Zm-.35-3.32a.66.66,0,0,0,.08.21,1.64,1.64,0,0,0,.17.26h0a4,4,0,0,1,.32.5,1.66,1.66,0,0,1,.21.6,1.55,1.55,0,0,1,0,.48,2,2,0,0,0,1-.46,1.88,1.88,0,0,0,.49-1.06,1.65,1.65,0,0,0,0-.54c0-.25-.13-.3-.17-.32h0l-.05.06a.43.43,0,0,0,0,.11.45.45,0,0,0,0,.12v0a.6.6,0,0,1,.08.21.49.49,0,0,1-.35.55l-.17,0-.19,0a1,1,0,0,1-.42-.09,1.1,1.1,0,0,1-.42-.35,1.26,1.26,0,0,1-.19-.47.13.13,0,0,0,0-.06.57.57,0,0,1-.31.15Z"/>
        <path class="cls-3" d="M9.54,13.56c0-.05,0-.08-.12-.1a.28.28,0,0,1-.18-.15,1,1,0,0,1,0-.17,8.11,8.11,0,0,1-.08-1.3c0-.44,0-.87.07-1.31a15.72,15.72,0,0,0,.06-1.68,1.83,1.83,0,0,0,0-.33.25.25,0,0,0,0-.08,1.32,1.32,0,0,0-.07-.3.86.86,0,0,0-.36-.43.67.67,0,0,0-.21-.09H8.37a1,1,0,0,0-.55.31V8a2.34,2.34,0,0,0-.38.55l-.09.21-.08.21c-.07.23-.14.45-.2.68,0-.11,0-.22,0-.33a1.53,1.53,0,0,0,0-.3h0L6.81,9l-.56.07h0l-.07,0a.13.13,0,0,1,0,.06.55.55,0,0,1,0,.22l-.08,2.79a2.41,2.41,0,0,0,0,.38.58.58,0,0,0,.41.5.86.86,0,0,0,.28,0h0l.09,0A.15.15,0,0,0,7,12.93a.59.59,0,0,0,0-.13,12.7,12.7,0,0,1,.45-3.35A4,4,0,0,1,7.58,9a.42.42,0,0,1,.06-.14,2,2,0,0,1,.16-.28A.3.3,0,0,1,8,8.43H8a.19.19,0,0,1,.14,0,.37.37,0,0,1,.16.28h0a8.2,8.2,0,0,1,0,1c0,.3,0,.6-.05.9s0,.7-.06,1a7.52,7.52,0,0,0,.06,1.16,1.09,1.09,0,0,0,.47.83,1,1,0,0,0,.52.08h.08a.23.23,0,0,0,.19-.13A.11.11,0,0,0,9.54,13.56ZM5,9.89c0,.16-.09.33-.13.5,0-.14,0-.29,0-.43a8,8,0,0,1-.83.42c0,.87-.06,1.73-.11,2.6a1.07,1.07,0,0,0,0,.31.47.47,0,0,0,.14.29.77.77,0,0,0,.45.14h.12c.09,0,.13-.14.13-.29a13.84,13.84,0,0,1,.37-2.87,9.12,9.12,0,0,1,.28-.93Z"/>
        <path class="cls-15" d="M6.93,8.58l-.18,0-.54.07A.48.48,0,0,0,6,8.74l-.18.13a8.36,8.36,0,0,0,.72-.65l.1,0a1.07,1.07,0,0,1,.26.26Z"/>
        <path class="cls-3" d="M10.92,12.39a.59.59,0,0,1-.19,0,1,1,0,0,1-.57-.22,1.42,1.42,0,0,1-.51-.93,2.46,2.46,0,0,1,0-.81A2.29,2.29,0,0,1,10,9.57,1.22,1.22,0,0,1,10.71,9l.11,0a.65.65,0,0,1,.35,0,.56.56,0,0,1,.22.21.77.77,0,0,1,.11.3,1.17,1.17,0,0,1-.11.65,2.33,2.33,0,0,1-.37.46l-.46.37a.1.1,0,0,0-.06.05.68.68,0,0,0,0,.24,1.37,1.37,0,0,0,.21.55.4.4,0,0,0,.3.07.78.78,0,0,0,.39-.23,2.49,2.49,0,0,0,.42-.6,6,6,0,0,0,.28-.7c0-.13.1-.2.17-.21a.16.16,0,0,1,.14.07l0,.08a2.26,2.26,0,0,1-.26.77,3.39,3.39,0,0,1-.23.47,1.69,1.69,0,0,1-.64.68A1,1,0,0,1,10.92,12.39Zm-.43-1.73a1.73,1.73,0,0,0,.56-.55.91.91,0,0,0,.14-.34.57.57,0,0,0,0-.12.55.55,0,0,0,0-.17A.11.11,0,0,0,11,9.42a.18.18,0,0,0-.14.1,1.65,1.65,0,0,0-.32.77A2.38,2.38,0,0,0,10.49,10.66Z"/>
        <path class="cls-3" d="M14.58,11.85a.57.57,0,0,1-.34,0,.91.91,0,0,1-.29-.19,1.24,1.24,0,0,1-.22-.28,2.38,2.38,0,0,1-.18-.3,3.35,3.35,0,0,0-.27.77l-.06.17A.15.15,0,0,1,13,12a.14.14,0,0,1-.05-.11.37.37,0,0,1,0-.18l.16-.52a3,3,0,0,0,.17-.67s-.19-.43-.56-1.21l-.2.91c0,.14-.08.21-.16.22a.12.12,0,0,1-.12,0,.12.12,0,0,1-.06-.1.44.44,0,0,1,0-.21l0-.08c.07-.26.12-.53.17-.8a1.15,1.15,0,0,0,0-.35l0-.07c0-.11.06-.19.22-.24a.9.9,0,0,1,.22-.06.5.5,0,0,1,.17,0,.48.48,0,0,1,.26.18,1.08,1.08,0,0,1,.16.3l.23.52L14,8.67l.07-.11a.17.17,0,0,1,.1-.07.18.18,0,0,1,.17.07.31.31,0,0,1,.09.18.55.55,0,0,1,0,.22l-.09.21L14,10a.27.27,0,0,0,0,.14.2.2,0,0,0,0,.08,4,4,0,0,0,.25.51,2.51,2.51,0,0,0,.32.46l.08.07.09,0c.06,0,.12-.07.16-.18A6.29,6.29,0,0,0,15.25,10a.84.84,0,0,1,.05-.17.14.14,0,0,1,.13-.09.11.11,0,0,1,.11,0,.13.13,0,0,1,.05.11.32.32,0,0,1,0,.19l-.25.87a2.17,2.17,0,0,1-.25.62A.69.69,0,0,1,14.58,11.85Z"/>
        <path class="cls-3" d="M16.05,11.61H16a.7.7,0,0,1-.4-.07.71.71,0,0,1-.31-.39,1.29,1.29,0,0,1-.08-.28,1.64,1.64,0,0,1,0-.22,5.89,5.89,0,0,1,0-.84c0-.28,0-.56.07-.84a1.66,1.66,0,0,0,0-.22,1.48,1.48,0,0,0,0-.21l0-.12c0-.12,0-.19.13-.21a.41.41,0,0,1,.19,0h0a.62.62,0,0,1,.37.18.49.49,0,0,1,.08.21,1.22,1.22,0,0,1,0,.27l0,.36a10.83,10.83,0,0,0-.08,1.27,2,2,0,0,0,0,.25A.56.56,0,0,0,16,11a.14.14,0,0,0,.13.05c.06,0,.12-.05.17-.14a3.55,3.55,0,0,0,.21-.44l.15-.47c0-.12.07-.24.11-.36a.25.25,0,0,1,.08-.14l.06,0a.16.16,0,0,1,.1,0,.11.11,0,0,1,.07.08v0a.23.23,0,0,1,0,.14,10.6,10.6,0,0,1-.43,1.31,1,1,0,0,1-.27.41A.79.79,0,0,1,16.05,11.61ZM15.68,8h-.13a.37.37,0,0,1-.23-.23.14.14,0,0,1,0-.07.17.17,0,0,1,0-.15.24.24,0,0,1,.13-.11l.13,0h0a.29.29,0,0,1,.2,0,.46.46,0,0,1,.14.17l0,.08a.27.27,0,0,1,0,.13A.4.4,0,0,1,15.68,8Z"/>
        <path class="cls-3" d="M17.9,11.36h-.27a.93.93,0,0,1-.54-.27,1.36,1.36,0,0,1-.42-.82,2.26,2.26,0,0,1,0-.45,3.47,3.47,0,0,1,.06-.45A2.25,2.25,0,0,1,17,8.58,1.41,1.41,0,0,1,17.57,8,1,1,0,0,1,17.8,8a.57.57,0,0,1,.45.09.73.73,0,0,1,.28.48.91.91,0,0,1-.14.61.39.39,0,0,1-.2.16.15.15,0,0,1-.09,0,.12.12,0,0,1-.09-.1.2.2,0,0,1,0-.1.47.47,0,0,1,0-.1.53.53,0,0,0,.08-.38.64.64,0,0,0-.06-.18A.1.1,0,0,0,18,8.35a.12.12,0,0,0-.07.05,1.32,1.32,0,0,0-.31.61,3.12,3.12,0,0,0-.12,1.05,1.79,1.79,0,0,0,0,.23,1.52,1.52,0,0,0,.12.4.35.35,0,0,0,.2.21.28.28,0,0,0,.13,0l.12,0a1.56,1.56,0,0,0,.62-.57,4.57,4.57,0,0,0,.46-.91v0a.4.4,0,0,1,.1-.18.17.17,0,0,1,.11-.06h.06a.2.2,0,0,1,.06.14.32.32,0,0,1,0,.17,4.57,4.57,0,0,1-.47,1,2.35,2.35,0,0,1-.57.68A1.27,1.27,0,0,1,17.9,11.36Z"/>
        <path class="cls-3" d="M19.92,11h0a.65.65,0,0,1-.5-.22,1.31,1.31,0,0,1-.23-.51,1.89,1.89,0,0,1-.05-.23,4.07,4.07,0,0,1,0-.5c0-.16,0-.33,0-.5a4.89,4.89,0,0,1,.09-.53,1.74,1.74,0,0,1,.2-.49,1,1,0,0,1,.39-.38A.81.81,0,0,1,20,7.61a1.49,1.49,0,0,1,.69.09l0-.11a.16.16,0,0,1,0-.15.16.16,0,0,1,.09-.05h.12l.25,0a.39.39,0,0,1,.3.35,4.48,4.48,0,0,1,0,.8c0,.23,0,.46-.05.69a4.7,4.7,0,0,0,0,.75.3.3,0,0,0,0,.1.15.15,0,0,0,.14.1h0a.19.19,0,0,0,.14-.09,1.63,1.63,0,0,0,.19-.34,8.6,8.6,0,0,0,.29-.9l0-.12a.23.23,0,0,1,.08-.09.25.25,0,0,1,.08,0,.13.13,0,0,1,.13.09s0,0,0,.06v.09a7.68,7.68,0,0,1-.44,1.33,1.29,1.29,0,0,1-.26.42.69.69,0,0,1-.8.09.69.69,0,0,1-.27-.24.83.83,0,0,1-.13-.34.49.49,0,0,1,0-.12,2.25,2.25,0,0,0-.08.24,3.12,3.12,0,0,1-.15.39.86.86,0,0,1-.2.26A.61.61,0,0,1,19.92,11Zm.11-.6a.09.09,0,0,0,.06,0l0-.06,0-.05a3.05,3.05,0,0,0,.11-.29,1.72,1.72,0,0,0,.05-.2h0c.11-.49.19-1,.25-1.45l0-.15a.07.07,0,0,0,0,0A.14.14,0,0,1,20.68,8l-.09,0h-.17l0,0h0l0,0-.06,0h0a.91.91,0,0,0-.11.16h0l-.05.12L20,8.59l0,.09a3.94,3.94,0,0,0-.1.9v.11a3,3,0,0,0,0,.43l0,.19Z"/>
        <path class="cls-3" d="M22.77,10.61l-.27,0a.3.3,0,0,1-.2-.1.39.39,0,0,1-.06-.15.61.61,0,0,1,0-.14c0-.6,0-1.19,0-1.77V7.27a.15.15,0,0,1,0-.1.19.19,0,0,1,.1,0,.78.78,0,0,1,.44.06.34.34,0,0,1,.22.3.53.53,0,0,1,0,.13s0,.4,0,1.06c.05-.23.1-.46.17-.68a2.8,2.8,0,0,1,.27-.64,1.59,1.59,0,0,1,.2-.24A.49.49,0,0,1,24,7a.58.58,0,0,1,.44.14.78.78,0,0,1,.2.46,6.41,6.41,0,0,1,0,1c0,.24,0,.47,0,.71a1.48,1.48,0,0,0,0,.21,1.46,1.46,0,0,0,.05.2.56.56,0,0,0,.05.08.11.11,0,0,0,.08,0,.16.16,0,0,0,.08-.06,1,1,0,0,0,.22-.34,4.59,4.59,0,0,0,.28-1c0-.17.07-.26.17-.28a.15.15,0,0,1,.16.14.41.41,0,0,1,0,.19c-.05.22-.11.44-.17.66a2.89,2.89,0,0,1-.26.63.88.88,0,0,1-.62.52.58.58,0,0,1-.32,0,.66.66,0,0,1-.27-.19,1,1,0,0,1-.14-.25,2.11,2.11,0,0,1-.06-.29,2.92,2.92,0,0,1,0-.51c0-.17,0-.35,0-.52s0-.44,0-.66V7.78a.18.18,0,0,0,0-.06.07.07,0,0,0,0,0l0,0v0h0c-.06,0-.11.09-.15.2a9.9,9.9,0,0,0-.44,2.23,1.28,1.28,0,0,1-.05.27A.39.39,0,0,1,22.77,10.61Z"/>
        <path class="cls-3" d="M26.39,10.09h-.05a.82.82,0,0,1-.43-.09,1,1,0,0,1-.33-.28,1.91,1.91,0,0,1-.31-.8l0-.14a2.92,2.92,0,0,1,0-1.15,1.26,1.26,0,0,1,.68-1,.66.66,0,0,1,.2-.06.79.79,0,0,1,.54.1,1.51,1.51,0,0,1,.6,1.11,4,4,0,0,1,0,.92A1.22,1.22,0,0,0,27.83,8V8c0-.14.1-.21.18-.22h0a.17.17,0,0,1,.12.16.54.54,0,0,1-.05.21,1.71,1.71,0,0,1-.57.82.88.88,0,0,1-.32.12,1.84,1.84,0,0,1-.3.65.92.92,0,0,1-.25.23A.79.79,0,0,1,26.39,10.09Zm.11-.42a.2.2,0,0,0,.09-.09,1.39,1.39,0,0,0,.21-.52V9l0,0a1.06,1.06,0,0,1-.48-.74,1.55,1.55,0,0,1,0-.21,4.61,4.61,0,0,1,0-.93,2.19,2.19,0,0,0-.2,1,4.23,4.23,0,0,0,0,.81,1.69,1.69,0,0,0,.12.44.72.72,0,0,0,.15.27.15.15,0,0,0,.15.07Zm.34-1V8.41a1.36,1.36,0,0,1,0-.18.57.57,0,0,1,0-.13,1.39,1.39,0,0,1,0-.17l-.05-.27c0-.13-.07-.23-.09-.28s-.07-.14-.12-.23a1.76,1.76,0,0,0,0,.19v.24s0,.11,0,.18l0,.24,0,.19a1.68,1.68,0,0,0,.08.26s.06.1.11.16h0l0,0h0Z"/>
        <path class="cls-3" d="M30.46,9.81a4.77,4.77,0,0,1-.93,0,3.09,3.09,0,0,1-.9-.2.71.71,0,0,1-.34-.25A.86.86,0,0,1,28.13,9q0-.24,0-.3a.19.19,0,0,1,.1-.05.2.2,0,0,1,.11,0,.24.24,0,0,1,.06.11v.07a.49.49,0,0,0,0,.11.48.48,0,0,0,0,.17.16.16,0,0,0,.1.11h0a.27.27,0,0,0,.22.06A.26.26,0,0,0,29,9.15a.53.53,0,0,0,0-.3,1,1,0,0,0-.13-.36l-.25-.38a4.12,4.12,0,0,1-.37-.61l-.14.5q0,.08-.12.09a.12.12,0,0,1-.12,0A.18.18,0,0,1,27.87,8a.28.28,0,0,1,0-.09c.08-.31.18-.62.29-.92a1.91,1.91,0,0,1,.21-.43.8.8,0,0,1,.33-.3,1.12,1.12,0,0,1,.31-.1.87.87,0,0,1,.52.08.16.16,0,0,1,.11.13.17.17,0,0,1,0,.12.13.13,0,0,1-.11.06.19.19,0,0,1-.1,0h-.16a.24.24,0,0,0-.17.2,1,1,0,0,0,0,.3,1.6,1.6,0,0,0,.12.35,2.92,2.92,0,0,0,.21.32,3.73,3.73,0,0,1,.29.46,1.42,1.42,0,0,1,.16.45,1,1,0,0,1-.33.88,3.6,3.6,0,0,0,.8,0,2.27,2.27,0,0,0,1.27-.58,2.19,2.19,0,0,0,.63-1.29,2,2,0,0,0,0-.68.83.83,0,0,0-.38-.64.43.43,0,0,0-.31-.06.41.41,0,0,0-.21.1.53.53,0,0,0-.17.23,1.05,1.05,0,0,0-.06.24,1.34,1.34,0,0,0,0,.21.36.36,0,0,0,.07.21.08.08,0,0,1,0,0s0,.06,0,.07l-.11,0a.69.69,0,0,1-.36,0,.58.58,0,0,1-.25-.21.81.81,0,0,1-.12-.29.77.77,0,0,1,0-.36.86.86,0,0,1,.22-.34A1.18,1.18,0,0,1,31,5.82a1.58,1.58,0,0,1,.36-.09,1.21,1.21,0,0,1,.69.08,1.23,1.23,0,0,1,.51.45,1.59,1.59,0,0,1,.26.7,2.06,2.06,0,0,1,0,.7,2.45,2.45,0,0,1-.21.72,2.22,2.22,0,0,1-.72.87,3.23,3.23,0,0,1-.86.42A4.34,4.34,0,0,1,30.46,9.81Z"/>
      </g>
      <g>
        <path class="cls-1" d="M10.71,9a1.15,1.15,0,0,1-.26,0h0a1.2,1.2,0,0,1-.59-.33,1.47,1.47,0,0,1-.45-.9,1.7,1.7,0,0,1,0-.45,2.74,2.74,0,0,1,.33-1.14,1.76,1.76,0,0,1,.53-.59,1.24,1.24,0,0,1,.52-.22h.15a.84.84,0,0,1,.27,0,.77.77,0,0,1,.37.24.62.62,0,0,1,.13.32s0,.09,0,.13v0a2.74,2.74,0,0,1-.07.83,1.21,1.21,0,0,1-.05.18.54.54,0,0,1-.43.34H11l-.17,0a.51.51,0,0,1-.17-.07.4.4,0,0,1-.19-.27v0a.47.47,0,0,1,.08-.27,1.75,1.75,0,0,0,.2-.47.77.77,0,0,0-.14.21,1.85,1.85,0,0,0-.23,1.1.19.19,0,0,0,0,.08.9.9,0,0,0,0,.16.44.44,0,0,0,.26.32l.11,0h.05A.38.38,0,0,0,11,8.19a.78.78,0,0,0,.31-.29h0a1.44,1.44,0,0,0,.25-.63.4.4,0,0,1,.29-.34H12A.36.36,0,0,1,12.2,7a.35.35,0,0,1,.1.2.5.5,0,0,1,0,.21,2.28,2.28,0,0,1-.56,1.13,1.46,1.46,0,0,1-.84.46Z"/>
        <path class="cls-1" d="M12.18,8.5a.57.57,0,0,1-.44-.2h0a.85.85,0,0,1-.18-.37.68.68,0,0,1,0-.14,1.37,1.37,0,0,1,0-.29,2.53,2.53,0,0,1,0-.28,2.87,2.87,0,0,1,.05-.31,1.27,1.27,0,0,1,.13-.32.75.75,0,0,1,.31-.3h0l.19,0h.21a.44.44,0,0,1,.19-.1h.13l.16,0h0a.47.47,0,0,1,.35.4,1.06,1.06,0,0,1,0,.27.31.31,0,0,1,.16-.06h.05a.32.32,0,0,1,.3.21h0a.36.36,0,0,1,0,.1.29.29,0,0,1,0,.13v0a4.52,4.52,0,0,1-.23.71.91.91,0,0,1-.19.3l0,0a.63.63,0,0,1-.32.15h-.1a.62.62,0,0,1-.29-.07h0l0,0a.6.6,0,0,1-.08.08.53.53,0,0,1-.29.14h-.06Z"/>
        <path class="cls-1" d="M13.91,8.26a.65.65,0,0,1-.49-.21h0a.71.71,0,0,1-.17-.36.64.64,0,0,1,0-.29l-.06,0h0a.51.51,0,0,1-.09-.16v0a.42.42,0,0,1,0-.16c.05-.17.1-.34.16-.49a1.23,1.23,0,0,1,.12-.26A.7.7,0,0,1,13.67,6h0a.81.81,0,0,1,.22-.07H14l.17,0a.17.17,0,0,1,.1,0h0l0,0,.08,0a.34.34,0,0,1,.13.23v.07a.38.38,0,0,1-.11.23.42.42,0,0,1-.17.1s0,0,0,0l.1.15,0,0,0-.08s0,0,0,0a.37.37,0,0,1,.27-.2h.16l0,0a.34.34,0,0,1,.2.26.47.47,0,0,1,0,.17,3.29,3.29,0,0,1-.26.61,1.38,1.38,0,0,1-.55.55.66.66,0,0,1-.27.09h-.13Z"/>
        <path class="cls-1" d="M15,8.07A.54.54,0,0,1,14.67,8l0,0a.91.91,0,0,1-.28-.58,2.23,2.23,0,0,1,0-.37,2,2,0,0,1,0-.35.92.92,0,0,1,.54-.81h0l.13,0h.19a.33.33,0,0,1,.21-.11h.2A.5.5,0,0,1,16,5.8a.45.45,0,0,1,.16.3.66.66,0,0,1,0,.14.49.49,0,0,1,.17-.06h.07a.47.47,0,0,1,.34.15.6.6,0,0,1,.15.31.81.81,0,0,1-.05.4,1,1,0,0,1-.14.3,1.72,1.72,0,0,1-.24.31,1,1,0,0,1-.35.24.7.7,0,0,1-.19.06h-.11a.53.53,0,0,1-.3-.09h0a.51.51,0,0,1-.35.21Z"/>
        <path class="cls-1" d="M19.78,7.35a.58.58,0,0,1-.44-.21h0a.85.85,0,0,1-.18-.37.59.59,0,0,1,0-.14,1.37,1.37,0,0,1,0-.29,2.62,2.62,0,0,1,0-.28c0-.1,0-.21.05-.31a1.27,1.27,0,0,1,.13-.32.75.75,0,0,1,.31-.3h0l.19-.05H20A.34.34,0,0,1,20.21,5h.13l.16,0h0a.47.47,0,0,1,.35.4,1.06,1.06,0,0,1,0,.27A.44.44,0,0,1,21,5.58h.05a.32.32,0,0,1,.3.21h0a.29.29,0,0,1,0,.09.28.28,0,0,1,0,.13V6a6,6,0,0,1-.23.72,1.17,1.17,0,0,1-.19.3h0a.5.5,0,0,1-.32.15h-.1a.62.62,0,0,1-.29-.07h0l0,0-.08.08a.53.53,0,0,1-.29.14h-.06Z"/>
        <path class="cls-1" d="M21.1,7.14h0A.41.41,0,0,1,20.8,7l0,0a.44.44,0,0,1-.07-.19.49.49,0,0,1,0-.12c0-.31,0-.61,0-.9v-.6a.35.35,0,0,1,.11-.26A.48.48,0,0,1,21,4.81h.1a.82.82,0,0,1,.28.05l.1.06,0,0a.57.57,0,0,1,.28-.14h.08a.61.61,0,0,1,.36.13l0,0a.71.71,0,0,1,.18.39v0s0,.07,0,.1a.4.4,0,0,1,.16-.07h.05a.34.34,0,0,1,.34.28v0a.5.5,0,0,1,0,.21c0,.11-.05.23-.08.34a1.8,1.8,0,0,1-.16.38.71.71,0,0,1-.51.4h-.09a.57.57,0,0,1-.22,0,.55.55,0,0,1-.24-.18v0a.46.46,0,0,1-.4.34h0l-.16,0Z"/>
        <path class="cls-1" d="M22.92,6.87a.5.5,0,0,1-.17,0h0a.68.68,0,0,1-.46-.59s0-.1,0-.15a11.7,11.7,0,0,1,0-1.17h0a.3.3,0,0,1-.15-.07A.34.34,0,0,1,22,4.64v0a.35.35,0,0,1,.07-.26.33.33,0,0,1,.23-.14h0v0h0V4.13a.35.35,0,0,1,.07-.26.33.33,0,0,1,.23-.14h.25a.52.52,0,0,1,.38.28h0s0,0,0,0a.35.35,0,0,1,.3.28v0a.33.33,0,0,1-.07.27.36.36,0,0,1-.22.13h0a1.09,1.09,0,0,1,0,.18c0,.18,0,.36,0,.54l0-.07a0,0,0,0,1,0,0,.35.35,0,0,1,.27-.2h0l.11,0,0,0a.36.36,0,0,1,.19.26.43.43,0,0,1,0,.2,3,3,0,0,1-.11.29,1.55,1.55,0,0,1-.14.29,1.18,1.18,0,0,1-.11.19.78.78,0,0,1-.52.4Z"/>
        <path class="cls-1" d="M23.92,6.73a.72.72,0,0,1-.32-.08.78.78,0,0,1-.26-.22h0a1.39,1.39,0,0,1-.2-.51V5.83a1.76,1.76,0,0,1,0-.69.91.91,0,0,1,.5-.67h0a.48.48,0,0,1,.17,0h.1a.69.69,0,0,1,.34.09h0a.94.94,0,0,1,.37.53l.11,0h.16a.36.36,0,0,1,.23.3.09.09,0,0,1,0,0,.65.65,0,0,1-.05.2,1.15,1.15,0,0,1-.39.54l-.1,0a1.51,1.51,0,0,1-.15.28h0a1.54,1.54,0,0,1-.19.17.63.63,0,0,1-.27.1h-.09Z"/>
        <path class="cls-1" d="M24.62,8a.62.62,0,0,1-.39-.14A.73.73,0,0,1,24,7.41a1,1,0,0,1,.1-.61,1.76,1.76,0,0,1,.37-.52c0-.53,0-1.07,0-1.61a.66.66,0,0,1,0-.21.58.58,0,0,1-.05-.14.42.42,0,0,1,.06-.27.49.49,0,0,1,.19-.16l.13,0h.07a.4.4,0,0,1,.24.07.54.54,0,0,1,.17.2l0,.11a.44.44,0,0,1,0,.2.55.55,0,0,1,.1.25.43.43,0,0,1,0,.16V5a.44.44,0,0,1,.2-.11h.06a.35.35,0,0,1,.18,0h0a.33.33,0,0,1,.14.23.42.42,0,0,1,0,.22,2.31,2.31,0,0,1-.59,1v.27c0,.11,0,.23,0,.35a2.35,2.35,0,0,1-.05.37,1,1,0,0,1-.17.4h0A.65.65,0,0,1,24.7,8h-.08Z"/>
        <path class="cls-1" d="M26,6.41a.61.61,0,0,1-.32-.08.78.78,0,0,1-.26-.22h0a1.2,1.2,0,0,1-.21-.51V5.51a1.76,1.76,0,0,1,0-.69.93.93,0,0,1,.5-.67h0l.17-.05H26a.69.69,0,0,1,.34.09h0a.94.94,0,0,1,.37.53l.11,0h.07l.09,0a.35.35,0,0,1,.23.29.11.11,0,0,1,0,0,.46.46,0,0,1,0,.2,1.1,1.1,0,0,1-.39.54l-.1.06a.81.81,0,0,1-.15.27h0a.61.61,0,0,1-.19.17.64.64,0,0,1-.27.11H26Z"/>
        <path class="cls-1" d="M27.35,6.21a.7.7,0,0,1-.5-.2h0a.74.74,0,0,1-.17-.37.45.45,0,0,1,0-.29l-.06,0h0a.27.27,0,0,1-.08-.16,0,0,0,0,1,0,0,.29.29,0,0,1,0-.16,2.81,2.81,0,0,1,.16-.49,1.51,1.51,0,0,1,.12-.26.64.64,0,0,1,.28-.26h0a.86.86,0,0,1,.21-.07h.12l.17,0,.09,0h.05l.09,0a.36.36,0,0,1,.13.23v.08a.32.32,0,0,1-.1.22.4.4,0,0,1-.18.1l0,0a.86.86,0,0,0,.1.16l0,0s0,0,0-.08,0,0,0,0a.35.35,0,0,1,.26-.2h.06a.2.2,0,0,1,.11,0h0a.34.34,0,0,1,.21.27.3.3,0,0,1,0,.16,2.73,2.73,0,0,1-.26.61,1.41,1.41,0,0,1-.55.56.79.79,0,0,1-.26.08h-.13Z"/>
        <path class="cls-4" d="M10.78,8.65a1.28,1.28,0,0,1-.34,0A1,1,0,0,1,10,8.38a1.28,1.28,0,0,1-.37-.75,1.7,1.7,0,0,1,0-.39,2.52,2.52,0,0,1,.3-1,1.47,1.47,0,0,1,.45-.51,1,1,0,0,1,.4-.17.75.75,0,0,1,.3,0,.49.49,0,0,1,.24.16.38.38,0,0,1,.07.19.34.34,0,0,1,0,.1V6a2.88,2.88,0,0,1-.07.74.74.74,0,0,1,0,.14.25.25,0,0,1-.22.17.33.33,0,0,1-.17,0l-.09,0A.16.16,0,0,1,10.71,7a.16.16,0,0,1,0-.1A1.9,1.9,0,0,0,11,6a.22.22,0,0,0,0-.08.14.14,0,0,0,0-.1.19.19,0,0,0-.1,0,.35.35,0,0,0-.14.06,1.39,1.39,0,0,0-.4.47,2.18,2.18,0,0,0-.26,1.25.38.38,0,0,1,0,.1,1.05,1.05,0,0,0,.05.19.73.73,0,0,0,.42.51.79.79,0,0,0,.54-.05,1.27,1.27,0,0,0,.41-.39,1.78,1.78,0,0,0,.29-.73c0-.07,0-.11.08-.12s0,0,.06,0a.06.06,0,0,1,0,.06.28.28,0,0,1,0,.09,2.08,2.08,0,0,1-.49,1,1.5,1.5,0,0,1-.31.24A1.26,1.26,0,0,1,10.78,8.65Z"/>
        <path class="cls-4" d="M12.13,8.12h0A.34.34,0,0,1,11.87,8a.62.62,0,0,1-.12-.26.5.5,0,0,1,0-.12,1.06,1.06,0,0,1,0-.25,2.26,2.26,0,0,1,0-.26,2,2,0,0,1,0-.26.69.69,0,0,1,.1-.25.43.43,0,0,1,.2-.2.35.35,0,0,1,.11,0,.77.77,0,0,1,.35,0l0,0a.19.19,0,0,1,0-.08l.05,0h.06l.13,0a.18.18,0,0,1,.15.17,2.34,2.34,0,0,1,0,.41l0,.35a2.41,2.41,0,0,0,0,.38.08.08,0,0,0,0,.05.11.11,0,0,0,.07.06h0a.1.1,0,0,0,.07,0,.61.61,0,0,0,.09-.18A3.39,3.39,0,0,0,13.29,7a.14.14,0,0,1,0-.06l0,0,.05,0s0,0,.06,0a0,0,0,0,1,0,0V7a4,4,0,0,1-.22.67.71.71,0,0,1-.13.22.48.48,0,0,1-.18.08.36.36,0,0,1-.36-.16.36.36,0,0,1-.07-.17.13.13,0,0,1,0-.06s0,.08,0,.12a1.59,1.59,0,0,1-.07.2.64.64,0,0,1-.1.13A.3.3,0,0,1,12.13,8.12Zm0-.3,0,0s0,0,0,0l0,0a.77.77,0,0,0,.06-.15l0-.1h0a6.77,6.77,0,0,0,.13-.74V6.67s0,0,0,0a.06.06,0,0,1,0-.06h-.18l0,0h0a.21.21,0,0,0-.06.08h0s0,0,0,.06l0,.09,0,0a2.4,2.4,0,0,0-.05.46v.06c0,.07,0,.14,0,.21l0,.1A.17.17,0,0,1,12.18,7.82Z"/>
        <path class="cls-4" d="M13.93,7.87h-.07a.41.41,0,0,1-.32-.13.46.46,0,0,1-.11-.22.24.24,0,0,1,0-.16l.05,0h0l0,0a.13.13,0,0,1,0,0V7.5a.28.28,0,0,0,.07.13.12.12,0,0,0,.12,0,.16.16,0,0,0,.09-.06.23.23,0,0,0,0-.17.78.78,0,0,0-.05-.14,1.08,1.08,0,0,0-.11-.18l0-.07a.51.51,0,0,1-.09-.13.7.7,0,0,1-.09-.17c0,.08,0,.17-.08.25s0,0-.06,0a.08.08,0,0,1-.07,0s0,0,0,0a.09.09,0,0,1,0,0c0-.16.09-.31.14-.47a2,2,0,0,1,.1-.21.35.35,0,0,1,.17-.15h0l.15-.05a.41.41,0,0,1,.19,0h.1s0,0,0,.06v0s0,0,0,0l0,0H14s0,0-.07,0h0l0,0a.33.33,0,0,0,0,.14A.49.49,0,0,0,14,6.7a1.74,1.74,0,0,0,.11.18,1.07,1.07,0,0,1,.13.21.63.63,0,0,1,.08.23.31.31,0,0,1,0,.1.86.86,0,0,1,.07-.1,3,3,0,0,0,.25-.57s0,0,.06,0h0a.13.13,0,0,1,0,.06.09.09,0,0,1,0,0,2.21,2.21,0,0,1-.23.55,1.12,1.12,0,0,1-.44.45A.64.64,0,0,1,13.93,7.87Z"/>
        <path class="cls-4" d="M15,7.68a.23.23,0,0,1-.22-.06.69.69,0,0,1-.19-.42c0-.1,0-.21,0-.32l0-.32A.69.69,0,0,1,15,6l.08,0a.71.71,0,0,1,.34,0V6h0v0a.07.07,0,0,1,0-.06s0,0,.06,0h.13a.3.3,0,0,1,.14.06.24.24,0,0,1,.07.13.29.29,0,0,1,0,.13l0,.21,0,.46a1.71,1.71,0,0,0,0,.32.13.13,0,0,0,0,.08.06.06,0,0,0,.07,0h0A.42.42,0,0,0,16.11,7a.54.54,0,0,0,.07-.36.14.14,0,0,0-.05-.1.09.09,0,0,1,0-.07s0-.06,0-.09a.31.31,0,0,1,.12,0,.18.18,0,0,1,.17.06.29.29,0,0,1,.07.16.42.42,0,0,1,0,.27,1.45,1.45,0,0,1-.11.25,1.71,1.71,0,0,1-.21.26.87.87,0,0,1-.26.18l-.13,0a.37.37,0,0,1-.23,0,.42.42,0,0,1-.19-.32v0a1.42,1.42,0,0,1-.14.36A.31.31,0,0,1,15,7.68Zm.07-.3,0,0v0h0a1,1,0,0,0,.08-.23v0l0-.15a2.73,2.73,0,0,1,.06-.34c0-.12,0-.23.05-.33s0-.07,0-.08h-.11a.19.19,0,0,0-.1.05.36.36,0,0,0-.07.1.61.61,0,0,0-.05.12,1.94,1.94,0,0,0,0,.8v.16h0Z"/>
        <path class="cls-2" d="M19.73,7h0a.31.31,0,0,1-.25-.11.62.62,0,0,1-.12-.26.5.5,0,0,1,0-.12,1,1,0,0,1,0-.25,2.09,2.09,0,0,1,0-.25,2.56,2.56,0,0,1,.05-.27.77.77,0,0,1,.1-.25.46.46,0,0,1,.19-.2l.12,0a.79.79,0,0,1,.35,0s0,0,0-.06a.19.19,0,0,1,0-.08l.05,0h.06l.13,0a.18.18,0,0,1,.15.18,2.24,2.24,0,0,1,0,.4l0,.35a2.38,2.38,0,0,0,0,.38.14.14,0,0,0,0,.06s0,0,.07,0h0a.12.12,0,0,0,.07,0,.56.56,0,0,0,.09-.17,4.11,4.11,0,0,0,.15-.46.14.14,0,0,1,0-.06l0,0,0,0a.05.05,0,0,1,.06,0,0,0,0,0,1,0,0v.05a3.75,3.75,0,0,1-.22.67.54.54,0,0,1-.13.22.36.36,0,0,1-.18.08.37.37,0,0,1-.23,0,.33.33,0,0,1-.13-.13.36.36,0,0,1-.07-.17.13.13,0,0,1,0-.06s0,.08,0,.12a1.59,1.59,0,0,1-.07.2.64.64,0,0,1-.1.13A.34.34,0,0,1,19.73,7Zm.05-.3s0,0,0,0l0,0,0,0a.77.77,0,0,0,.06-.15l0-.1h0a6.77,6.77,0,0,0,.13-.74V5.51s0,0,0,0a.06.06,0,0,1,0-.06h-.18l0,0h0a.21.21,0,0,0-.06.08h0s0,0,0,.06l0,.1,0,0a2.49,2.49,0,0,0-.05.46v.06c0,.07,0,.14,0,.22l0,.09Z"/>
        <path class="cls-2" d="M21.18,6.74H21a.12.12,0,0,1-.1,0,.09.09,0,0,1,0-.07.2.2,0,0,1,0-.07c0-.31,0-.61,0-.9V5.05a0,0,0,0,1,0,0L21,5a.57.57,0,0,1,.23,0,.19.19,0,0,1,.11.16v.61a3.59,3.59,0,0,1,.08-.35,1.64,1.64,0,0,1,.14-.33.58.58,0,0,1,.1-.12.25.25,0,0,1,.14-.06A.24.24,0,0,1,22,5a.38.38,0,0,1,.11.23,4,4,0,0,1,0,.49v.36s0,.07,0,.11l0,.1a.05.05,0,0,0,0,0l0,0,0,0a.42.42,0,0,0,.11-.18,1.65,1.65,0,0,0,.14-.48c0-.09,0-.14.09-.14s.07,0,.08.06a.17.17,0,0,1,0,.1L22.58,6a1.2,1.2,0,0,1-.13.31.46.46,0,0,1-.32.27.23.23,0,0,1-.16,0,.3.3,0,0,1-.13-.09.28.28,0,0,1-.07-.13.54.54,0,0,1,0-.15,2.11,2.11,0,0,1,0-.26,2.35,2.35,0,0,1,0-.26c0-.11,0-.22,0-.33V5.23h0a.21.21,0,0,0-.08.1,4.89,4.89,0,0,0-.22,1.14.89.89,0,0,1,0,.14A.18.18,0,0,1,21.18,6.74Z"/>
        <path class="cls-2" d="M22.9,6.49h-.14a.44.44,0,0,1-.28-.38s0-.08,0-.12c0-.2,0-.59,0-1.15,0-.11,0-.21,0-.32l-.22,0h-.06a.33.33,0,0,1,0-.06.07.07,0,0,1,0-.06l.05,0,.24,0a1,1,0,0,0,0-.25h0V4a.14.14,0,0,1,0-.06l0,0h0l.12,0a.23.23,0,0,1,.18.14.14.14,0,0,1,0,.06.21.21,0,0,1,0,.11v.06l.19,0a.07.07,0,0,1,.06,0,.05.05,0,0,1,0,.05.07.07,0,0,1,0,.06.05.05,0,0,1-.05,0l-.22,0c0,.14,0,.27,0,.4s0,.38,0,.56,0,.22,0,.33v.2a.38.38,0,0,1,0,.1v0l0,0s0,0,0,0h0l.05,0,.05,0a1.13,1.13,0,0,0,.1-.13c0-.06,0-.11.08-.16s.11-.27.15-.39a.06.06,0,0,1,.06,0h0a.12.12,0,0,1,.05.07s0,0,0,0h0a1.6,1.6,0,0,1-.11.29,1.23,1.23,0,0,1-.12.26,1,1,0,0,1-.1.17A.55.55,0,0,1,22.9,6.49Z"/>
        <path class="cls-2" d="M23.9,6.34h0a.54.54,0,0,1-.21,0,.41.41,0,0,1-.17-.15.94.94,0,0,1-.16-.4V5.68a1.45,1.45,0,0,1,0-.59.64.64,0,0,1,.34-.48l.11,0a.44.44,0,0,1,.27,0,.77.77,0,0,1,.3.56,2.51,2.51,0,0,1,0,.48.64.64,0,0,0,.26-.37v0a.12.12,0,0,1,.09-.11h0a.1.1,0,0,1,.06.08.43.43,0,0,1,0,.11.8.8,0,0,1-.3.41.33.33,0,0,1-.16.07,1,1,0,0,1-.15.33.69.69,0,0,1-.13.11A.39.39,0,0,1,23.9,6.34ZM24,6.13a.08.08,0,0,0,0,0,.64.64,0,0,0,.11-.27h0l0,0a.53.53,0,0,1-.24-.37.52.52,0,0,1,0-.11,2.36,2.36,0,0,1,0-.47,1.17,1.17,0,0,0-.1.48,2.62,2.62,0,0,0,0,.41.86.86,0,0,0,.06.23.39.39,0,0,0,.08.14.07.07,0,0,0,.08,0Zm.17-.51V5.4s0,0,0-.07V5.25l0-.14c0-.07,0-.12,0-.14L24,4.85A.38.38,0,0,0,24,5,.13.13,0,0,0,24,5s0,0,0,.06v.09a.5.5,0,0,0,0,.12s0,.07,0,.1,0,.11,0,.13l.06.08h0l0,0h0Z"/>
        <path class="cls-2" d="M24.59,7.63h0a.34.34,0,0,1-.24-.07.46.46,0,0,1-.17-.3.79.79,0,0,1,.08-.46,1.5,1.5,0,0,1,.32-.44h0a.1.1,0,0,0,.05-.06.19.19,0,0,0,0-.08c0-.55,0-1.11,0-1.66a.15.15,0,0,1,0-.1.05.05,0,0,1,.05,0h.08a.31.31,0,0,1,.13,0,.21.21,0,0,1,.13.17.49.49,0,0,1,0,.12l0,1.15a1.65,1.65,0,0,0,.43-.7.31.31,0,0,1,.05-.1.05.05,0,0,1,0,0h.05a.07.07,0,0,1,0,.06.12.12,0,0,1,0,.08,2,2,0,0,1-.54.86L25,6.11a.17.17,0,0,0,0,.07,2.64,2.64,0,0,0,0,.32c0,.11,0,.22,0,.33a1.86,1.86,0,0,1,0,.34.79.79,0,0,1-.12.3A.39.39,0,0,1,24.59,7.63Zm-.14-.27,0,0a.89.89,0,0,0,.14-.49v0a2.44,2.44,0,0,0,0-.27.82.82,0,0,0-.23.32.57.57,0,0,0,0,.34.34.34,0,0,0,0,.14A.05.05,0,0,0,24.45,7.36Zm.36-3h0l-.1,0a.26.26,0,0,1-.08-.13.12.12,0,0,1,0-.08.18.18,0,0,1,.07,0l.06,0h0a.17.17,0,0,1,.1,0,.18.18,0,0,1,.07.08.09.09,0,0,1,0,0,.06.06,0,0,1,0,.06A.2.2,0,0,1,24.81,4.32Z"/>
        <path class="cls-2" d="M26,6h0a.42.42,0,0,1-.22,0,.46.46,0,0,1-.17-.14,1.13,1.13,0,0,1-.16-.41V5.36a1.39,1.39,0,0,1,0-.58.66.66,0,0,1,.34-.49l.11,0a.43.43,0,0,1,.27,0,.79.79,0,0,1,.3.57,1.82,1.82,0,0,1,0,.47A.61.61,0,0,0,26.71,5V5c0-.06.05-.1.09-.11h0a.09.09,0,0,1,.06.09.44.44,0,0,1,0,.1.88.88,0,0,1-.3.42.38.38,0,0,1-.16.06,1,1,0,0,1-.15.33.68.68,0,0,1-.12.12A.44.44,0,0,1,26,6ZM26,5.82l.05-.05a.79.79,0,0,0,.1-.27h0a.58.58,0,0,1-.24-.38.43.43,0,0,1,0-.11,1.79,1.79,0,0,1,0-.47,1.22,1.22,0,0,0-.11.49,2.73,2.73,0,0,0,0,.41,1.74,1.74,0,0,0,.05.22.64.64,0,0,0,.08.14.1.1,0,0,0,.08,0Zm.17-.51V5.08a.13.13,0,0,0,0-.06V4.93l0-.14a1.3,1.3,0,0,1-.05-.14l-.06-.12a.46.46,0,0,0,0,.1v.21s0,.09,0,.13a.29.29,0,0,0,0,.09.24.24,0,0,0,0,.13l.05.09h0l0,0h0Z"/>
        <path class="cls-2" d="M27.37,5.82h-.08A.43.43,0,0,1,27,5.71a.45.45,0,0,1-.11-.23c0-.08,0-.13,0-.15l0,0h0s0,0,.05,0a.08.08,0,0,1,0,0v.08a.24.24,0,0,0,.07.13.14.14,0,0,0,.13,0s.05,0,.08,0a.22.22,0,0,0,0-.18.28.28,0,0,0,0-.13l-.11-.19L27.14,5l-.09-.13L27,4.71c0,.09-.05.17-.07.25a.06.06,0,0,1-.06,0,.06.06,0,0,1-.07,0,.05.05,0,0,1,0,0v0a3.68,3.68,0,0,1,.15-.47,1.47,1.47,0,0,1,.1-.22.41.41,0,0,1,.17-.15h0A.39.39,0,0,1,27.32,4a.62.62,0,0,1,.19,0h.08l0,0a.1.1,0,0,1,0,0v0s0,0,0,.05l-.05,0h-.13a.11.11,0,0,0-.07.06h0a.06.06,0,0,0,0,.05.66.66,0,0,0,0,.14.62.62,0,0,0,.07.19l.12.18a1.07,1.07,0,0,1,.13.21.63.63,0,0,1,.08.23s0,.07,0,.1l.07-.1a2.44,2.44,0,0,0,.24-.57.13.13,0,0,1,.06,0h.05a.07.07,0,0,1,0,.06,0,0,0,0,1,0,0,2.49,2.49,0,0,1-.24.56,1.09,1.09,0,0,1-.44.44A.49.49,0,0,1,27.37,5.82Z"/>
      </g>
      <g>
        <path class="cls-1" d="M17.77,7.63a.93.93,0,0,1-.95-.76,1,1,0,0,1,.43-1,.71.71,0,0,1,0-.29A1,1,0,0,1,18,4.82a.45.45,0,0,1,.16,0h.08a.6.6,0,0,1,.59.83.45.45,0,0,1,.25.5.58.58,0,0,1-.22.34.82.82,0,0,1,0,.44,1,1,0,0,1-.78.7A1.13,1.13,0,0,1,17.77,7.63Z"/>
        <path class="cls-15" d="M18.06,6h0a.87.87,0,0,0-.25,0c-.77.19-.55,1.14,0,1s.43-.58.24-.64-.31.17-.28.3,0,.05,0,.05h0a.21.21,0,0,1-.14-.32c.18-.26,1-.37,1-.64,0,0,0,0,0,0h0a.2.2,0,0,1,.11.22c0,.12-.16.21-.32.28.24.23.18.82-.47,1-.95.24-1.33-1-.38-1.39-.26-.19-.06-.74.43-.86l.12,0a.33.33,0,0,1,.25.61l-.05,0c-.13,0-.29-.08-.21-.13s.22-.41,0-.37h0c-.35.09-.46.65-.07.65l.19,0C18.19,5.71,18.14,6,18.06,6Z"/>
      </g>
      <path class="cls-1" d="M7,7.73H7s-.15.19-.38.43l0,.05a8.36,8.36,0,0,1-.72.65,5.16,5.16,0,0,1-.67.44l1.3-1.12Z"/>
      <path class="cls-16" d="M6.54,8.22s.68.23.52,1.38-.91-.49-.91-.49l-.07-.45"/>
    </g>
  </g>
</svg>
