<svg xmlns="http://www.w3.org/2000/svg" viewBox="0 0 34.41 14.77">
  <defs>
    <style>
      .cls-1 {
        fill: #0d0b03;
      }

      .cls-2 {
        fill: #f8d116;
      }

      .cls-3 {
        fill: #e4141d;
      }

      .cls-4 {
        fill: #49ad33;
      }

      .cls-5 {
        fill: #805f15;
      }

      .cls-6 {
        fill: #138f38;
      }

      .cls-7 {
        fill: #231a03;
      }

      .cls-8 {
        fill: #261c04;
      }

      .cls-9 {
        fill: #2e2307;
      }

      .cls-10 {
        fill: #322607;
      }

      .cls-11 {
        fill: #362907;
      }

      .cls-12 {
        fill: #291f06;
      }

      .cls-13 {
        fill: #392b08;
      }

      .cls-14 {
        fill: #3d2e0a;
      }

      .cls-15 {
        fill: #fff;
      }

      .cls-16 {
        fill: #cb1718;
      }
    </style>
  </defs>
  <g id="Capa_2" data-name="Capa 2">
    <g id="Capa_1-2" data-name="Capa 1">
      <g>
        <path class="cls-1" d="M14,3.38a5.7,5.7,0,0,0-.3-.78q-.23-.5-.48-1a1.13,1.13,0,0,0-.66-.55A2.49,2.49,0,0,0,11.19,1a3.59,3.59,0,0,0-1.38.69,8.47,8.47,0,0,0-1.12,1l-.54.6-.28-.37A11.37,11.37,0,0,0,6.41,1.22a5.6,5.6,0,0,0-1.26-1A2.41,2.41,0,0,0,4.52,0a1,1,0,0,0-1.15.6,3.24,3.24,0,0,0-.16.53,5,5,0,0,0,0,1.5,14.73,14.73,0,0,0,1.13,3.8L4.59,7,4.25,7,3.06,6.66A4.89,4.89,0,0,0,2,6.48a1.47,1.47,0,0,0-.93.29,2.9,2.9,0,0,0-.9,1.1,1.46,1.46,0,0,0-.13,1,2.47,2.47,0,0,0,.32.87,2,2,0,0,0,1.22.91,2.6,2.6,0,0,0,1,.07A3.54,3.54,0,0,0,3,10.6l.28-.07a6.54,6.54,0,0,0,.87-.34A6.3,6.3,0,0,0,5,9.73l.3-.18,0,0c.22-.13.42-.28.63-.42a7.59,7.59,0,0,0,.75-.67l.09.05a.87.87,0,0,1,.27.27l0,0,.52-.08a17.71,17.71,0,0,0,1.76-.36A13.58,13.58,0,0,0,11,7.8a6.56,6.56,0,0,0,1.78-1.06A3.73,3.73,0,0,0,14,5,2.74,2.74,0,0,0,14,3.38ZM12.34,5.75l-.08.09h0a2.24,2.24,0,0,1-.36.31,4.25,4.25,0,0,1-.47.31l-.13.09,0,0a3.65,3.65,0,0,1-.36.21l-1,.4c-.21.08-.42.16-.64.22l.12-.06a6.77,6.77,0,0,0,1.32-.92,1.51,1.51,0,0,0,.41-.51v0l.06-.14a.68.68,0,0,0-.42-.88,1.16,1.16,0,0,0-.42-.08l-.27,0a4.19,4.19,0,0,1,.66-.67,3.47,3.47,0,0,1,1-.59,2.06,2.06,0,0,1,.72-.15l.21,0a.9.9,0,0,1,.27.06v0a2.1,2.1,0,0,1,.11.45,1.83,1.83,0,0,1-.14.86A2.81,2.81,0,0,1,12.34,5.75Zm-8,3.35.06-.2L4.55,9Zm-1.88.69H2.33l.13-.18,0,0,.13.14ZM1.68,7.61a1.17,1.17,0,0,1,.75-.3h.06l.42.05.57.12.21,0,0,0a5.52,5.52,0,0,1-.7.39,1.85,1.85,0,0,1-.72.18L2,8.1a.86.86,0,0,1-.56-.31A1.3,1.3,0,0,1,1.68,7.61ZM4.5,4.75h0c0-.09-.06-.18-.1-.28l0-.1-.09-.28v0l0-.06h0l-.06-.22,0-.11L4.1,3.44s0-.07,0-.11,0-.16,0-.23H4A.29.29,0,0,1,4,3c0-.1,0-.2,0-.3s0-.07,0-.1h0l0-.25s0-.08,0-.13h0c0-.07,0-.15,0-.22V1.69s0-.08,0-.11l0-.23V1.28A.72.72,0,0,1,4.09,1s.09-.08.22-.08h0A1.06,1.06,0,0,1,4.8,1a4,4,0,0,1,1,.77A9,9,0,0,1,6.83,3l.45.64A7.29,7.29,0,0,0,6.36,4a5.88,5.88,0,0,0-1,.54,7.36,7.36,0,0,0-.73.56.42.42,0,0,0,0-.1s0-.09,0-.13ZM9.27,3.38v0h0ZM5.93,7.63l.3.09L6,8ZM5,8.12l-.07,0L5,8ZM6.53,6.77,6.29,6.7l.19-.19ZM7.66,6l-.21.26c0-.1,0-.19,0-.29Zm1.19-1.7h.07l-.05.07Zm1.84-2.16.15-.08v.13ZM7.81,5.06,8,4.9l0,.18Z"/>
        <path class="cls-1" d="M9.45,8.65a1.32,1.32,0,0,0-.07-.3,17.71,17.71,0,0,1-1.76.36,1.47,1.47,0,0,0-.1.22c0,.07,0,.14-.08.22l.39-.06L8.51,9c.31-.06.63-.14,1-.22C9.46,8.71,9.46,8.68,9.45,8.65Z"/>
        <path class="cls-1" d="M14,3.38a5.7,5.7,0,0,0-.3-.78q-.23-.5-.48-1a1.13,1.13,0,0,0-.66-.55A2.49,2.49,0,0,0,11.19,1a3.59,3.59,0,0,0-1.38.69,8.47,8.47,0,0,0-1.12,1l-.54.6-.28-.37A11.37,11.37,0,0,0,6.41,1.22a5.6,5.6,0,0,0-1.26-1A2.41,2.41,0,0,0,4.52,0a1,1,0,0,0-1.15.6,3.24,3.24,0,0,0-.16.53,5,5,0,0,0,0,1.5,14.73,14.73,0,0,0,1.13,3.8L4.59,7,4.25,7,3.06,6.66A4.89,4.89,0,0,0,2,6.48a1.47,1.47,0,0,0-.93.29,2.9,2.9,0,0,0-.9,1.1,1.46,1.46,0,0,0-.13,1,2.47,2.47,0,0,0,.32.87,2,2,0,0,0,1.22.91,2.6,2.6,0,0,0,1,.07A3.54,3.54,0,0,0,3,10.6l.28-.07a6.54,6.54,0,0,0,.87-.34A6.3,6.3,0,0,0,5,9.73l.3-.18,0,0c.22-.13.42-.28.63-.42a7.59,7.59,0,0,0,.75-.67l.09.05a.87.87,0,0,1,.27.27l0,0,.52-.08a17.71,17.71,0,0,0,1.76-.36A13.58,13.58,0,0,0,11,7.8a6.56,6.56,0,0,0,1.78-1.06A3.73,3.73,0,0,0,14,5,2.74,2.74,0,0,0,14,3.38ZM12,1.47a.72.72,0,0,1,.59.24,1,1,0,0,1,.23.37,3.82,3.82,0,0,0,.24.55l0,0L11.65,1.49A.76.76,0,0,1,12,1.47Zm-.57.06,1.24,1.06c-.22,0-.41,0-.59,0a5,5,0,0,0-.56.11A6.6,6.6,0,0,1,11.41,1.53Zm-.21,0a1.23,1.23,0,0,0,0,.19l.06,1h-.07L9.93,2.37l-.12,0A3.21,3.21,0,0,1,11.2,1.55Zm-.12,1.36-.58.39L10,3.73a.52.52,0,0,1-.06-.13c-.07-.35-.13-.71-.21-1.09ZM9.51,2.57c.1.46.18.87.26,1.3L8.46,3.7A11,11,0,0,1,9.51,2.57ZM9.66,4l-1,1.29h0c-.09-.48-.19-1-.29-1.46ZM6.41,8.1l-.08.09h0l-.05.06L6.2,8.3l-.12.12L6,8.47H6l-.09.08a.1.1,0,0,0,0,0l0,0,0,0h0l-.09.07c-.11-.56-.2-1.09-.29-1.64L7,7.51a2.09,2.09,0,0,0-.14.17l-.09.09-.11.12L6.5,8ZM5.26,7.19c.09.56.18,1.09.28,1.65l-.8-.41-.12-.07-.18-.09L4.32,8.2l-.09,0A7.19,7.19,0,0,0,5.26,7.19ZM4.92,6.8c-.11-.22-.19-.4-.27-.58a.11.11,0,0,1,0-.11c.09-.09.14-.2.26-.25v0c0,.23,0,.46,0,.7C4.93,6.63,4.92,6.7,4.92,6.8Zm.85-.71c-.2.26-.43.49-.67.75V5.73Zm-.58-.52A3.88,3.88,0,0,1,6.06,5c0,.13,0,.24,0,.35s0,.32,0,.48S5.91,6,5.8,5.9ZM5.54,6.9,6.72,5.68c.12.56.22,1.1.34,1.66Zm1-1.77-.37.45,0,0c0-.19,0-.39.06-.61Zm-.27-.31A3,3,0,0,1,7,4.51,1.06,1.06,0,0,1,6.69,5Zm.58.72,1.5.2c-.38.5-.75,1-1.16,1.43C7.11,6.63,7,6.09,6.9,5.54ZM7.91,7A.05.05,0,0,1,8,7a3.43,3.43,0,0,0,.44-.19,6.08,6.08,0,0,0,1-.49,3.36,3.36,0,0,0,.71-.47c.05,0,.1-.12.15-.18s.1-.08.19,0-.07.12-.11.17a3.47,3.47,0,0,1-.29.25l-.54.39,0,0L8.63,7c-.23.12-.48.23-.72.33a1.71,1.71,0,0,1-.27.09Zm.27-3c.11.53.21,1,.31,1.53L7,5.36C7.41,4.92,7.78,4.48,8.18,4ZM4.54,5.77l-.06.06c-.1-.25-.19-.47-.27-.7s-.23-.64-.32-1A8.72,8.72,0,0,1,3.48,2a3.29,3.29,0,0,1,.06-.77A1,1,0,0,1,3.78.7.63.63,0,0,1,4.35.47,1.6,1.6,0,0,1,5,.67a4.62,4.62,0,0,1,1.07.84A10.11,10.11,0,0,1,7.15,2.79l.53.75a1.45,1.45,0,0,1,.1.18L7.55,4a.16.16,0,0,1-.1,0,6.56,6.56,0,0,0-.94.33,5,5,0,0,0-.94.51A4.58,4.58,0,0,0,4.54,5.77ZM1.43,7.29a1.55,1.55,0,0,1,1.09-.38A3.62,3.62,0,0,1,3,7l1.13.23.57.08c-.29.22-.53.42-.8.6a5.52,5.52,0,0,1-.75.42A1.93,1.93,0,0,1,2,8.49,1.19,1.19,0,0,1,1,7.76,1.75,1.75,0,0,1,1.43,7.29ZM.74,8.43l.54,1.44A1.41,1.41,0,0,1,.74,8.43ZM1.5,9.89C1.32,9.44,1.16,9,1,8.58A2.19,2.19,0,0,0,2.16,9Zm1.71.16,0,0h0l-.05,0H3l-.1,0H2.65l-.28,0a1.34,1.34,0,0,1-.72-.13l0,0c.25-.35.49-.69.75-1l.94,1Zm.31-.22L3,9.3,3,9.22l-.28-.3.4-.13.07,0,.14,0,0,0,.27-.13,0,0,.07,0,0,0,.19-.14,0,.13,0,.13c-.09.31-.17.61-.25.92ZM5,9.2l-1.21.63-.1,0c.15-.53.28-1,.42-1.56L5.37,9A4.14,4.14,0,0,1,5,9.2ZM13.31,5a3.53,3.53,0,0,1-1.17,1.5c-.2.15-.42.28-.63.42a4.17,4.17,0,0,1-.46.26l-1,.4-.17.07-.12,0h0l-.09,0-.13,0-.14,0h0l-.14,0-.05,0H9.14L9,7.9l-.1,0h0L8.81,8h0L8.65,8,8,8.14H8l-.31.07-.48.09-.14,0-.32.06v0h0c.13-.14.26-.29.4-.43h0a.17.17,0,0,1,.1-.06c.21-.08.43-.14.63-.23.45-.21.89-.41,1.32-.65a6.31,6.31,0,0,0,1.25-.86,1.52,1.52,0,0,0,.32-.39.61.61,0,0,0,.05-.12.29.29,0,0,0-.18-.38,1,1,0,0,0-.57,0,3.82,3.82,0,0,0-.83.26l-.19.06c.13-.18.23-.35.35-.5a6.36,6.36,0,0,1,1.1-1.22,4,4,0,0,1,1.12-.65A2.25,2.25,0,0,1,12.74,3a1.38,1.38,0,0,1,.49.14.2.2,0,0,1,.08.08,4,4,0,0,1,.17.68A2.28,2.28,0,0,1,13.31,5Z"/>
        <path class="cls-2" d="M6.75,8.36c.13-.14.26-.29.4-.43a.17.17,0,0,1,.1-.06c.21-.08.43-.14.63-.23.45-.21.89-.41,1.32-.65a6.31,6.31,0,0,0,1.25-.86,1.52,1.52,0,0,0,.32-.39.61.61,0,0,0,.05-.12.29.29,0,0,0-.18-.38,1,1,0,0,0-.57,0,3.82,3.82,0,0,0-.83.26l-.19.06c.13-.18.23-.35.35-.5a6.36,6.36,0,0,1,1.1-1.22,4,4,0,0,1,1.12-.65A2.26,2.26,0,0,1,12.74,3a1.38,1.38,0,0,1,.49.14.2.2,0,0,1,.08.08,4,4,0,0,1,.17.68,2.28,2.28,0,0,1-.17,1,3.53,3.53,0,0,1-1.17,1.5c-.2.15-.42.28-.63.42a4.17,4.17,0,0,1-.46.26l-1,.4a12.18,12.18,0,0,1-2,.59l-1.26.25Zm5.19-2,0,0a1.12,1.12,0,0,0,.36-.29.69.69,0,0,0,.07-.15.18.18,0,0,0-.07-.2Zm-.18-.65-.24.51a.59.59,0,0,0,.31-.3A.17.17,0,0,0,11.76,5.69Zm-.38,0a.91.91,0,0,0-.2.36C11.4,6,11.44,5.91,11.38,5.72Z"/>
        <path class="cls-2" d="M4.48,5.83c-.1-.25-.19-.47-.27-.7s-.23-.64-.32-1A8.72,8.72,0,0,1,3.48,2a3.29,3.29,0,0,1,.06-.77A1,1,0,0,1,3.78.7.63.63,0,0,1,4.35.47,1.6,1.6,0,0,1,5,.67a4.62,4.62,0,0,1,1.07.84A10.11,10.11,0,0,1,7.15,2.79l.53.75a1.45,1.45,0,0,1,.1.18L7.55,4a.16.16,0,0,1-.1,0,6.56,6.56,0,0,0-.94.33,5,5,0,0,0-.94.51,4.85,4.85,0,0,0-1,.89ZM4.3,4.53a1.2,1.2,0,0,0,.47-.35.42.42,0,0,0-.47.35h0Zm.79.36A.44.44,0,0,0,4.77,5a.52.52,0,0,0-.18.36ZM4.42,5c.17-.14.35-.26.51-.42A.47.47,0,0,0,4.42,5Zm.14-1.42c-.22-.08-.39,0-.5.31Zm.09.33a.33.33,0,0,0-.45.27Zm-.19-.65A.32.32,0,0,0,4,3.49Zm-.62-.44.43-.27C4.09,2.44,4,2.52,3.84,2.78Zm.08.38.45-.28C4.2,2.79,4.05,2.88,3.92,3.16Zm.26-1c-.2-.08-.34,0-.4.23Zm-.1-.32a.26.26,0,0,0-.36.23Zm-.4-.08L4,1.6C3.86,1.53,3.74,1.61,3.68,1.81ZM4,1.32c-.17-.05-.25,0-.3.16Z"/>
        <path class="cls-2" d="M4.68,7.28c-.29.22-.53.42-.8.6a5.52,5.52,0,0,1-.75.42A1.93,1.93,0,0,1,2,8.49,1.19,1.19,0,0,1,1,7.76a1.75,1.75,0,0,1,.43-.47,1.55,1.55,0,0,1,1.09-.38A3.62,3.62,0,0,1,3,7l1.13.23Z"/>
        <path class="cls-3" d="M7,7.51a8.27,8.27,0,0,1-1.24,1.2c-.11-.56-.2-1.09-.29-1.64Z"/>
        <path class="cls-3" d="M7.24,7.17C7.11,6.63,7,6.09,6.9,5.54l1.5.2C8,6.24,7.65,6.71,7.24,7.17Z"/>
        <path class="cls-4" d="M6.79,5.68l.33,1.66L5.61,6.9Z"/>
        <path class="cls-3" d="M3.71,9.87l.42-1.56L5.37,9A4.14,4.14,0,0,1,5,9.2l-1.21.63Z"/>
        <path class="cls-3" d="M2.42,9l.94,1a2.5,2.5,0,0,1-1,.2,1.34,1.34,0,0,1-.72-.13s0,0,0,0C1.92,9.67,2.16,9.33,2.42,9Z"/>
        <path class="cls-4" d="M8.25,4l.3,1.53-1.47-.2Z"/>
        <path class="cls-4" d="M9.87,2.33a3.21,3.21,0,0,1,1.39-.78,1.23,1.23,0,0,1,0,.19c0,.34,0,.67.06,1h-.07L10,2.37Z"/>
        <path class="cls-4" d="M5.6,8.84,4.29,8.15a7.19,7.19,0,0,0,1-1Z"/>
        <path class="cls-3" d="M8.64,5.33,8.35,3.87,9.66,4l-1,1.29Z"/>
        <path class="cls-4" d="M9.58,2.57c.09.46.18.87.25,1.3L8.52,3.7A12.37,12.37,0,0,1,9.58,2.57Z"/>
        <path class="cls-3" d="M9.7,2.51l1.38.4-.58.39L10,3.73a.52.52,0,0,1-.06-.13C9.84,3.25,9.78,2.89,9.7,2.51Z"/>
        <path class="cls-4" d="M3.59,9.83l-.85-.91A3.64,3.64,0,0,0,4,8.34Z"/>
        <path class="cls-3" d="M11.41,1.53l1.24,1.06a5.28,5.28,0,0,0-.59,0,5,5,0,0,0-.56.11A6.6,6.6,0,0,1,11.41,1.53Z"/>
        <path class="cls-4" d="M1.05,8.58A2.22,2.22,0,0,0,2.22,9l-.66.91Z"/>
        <path class="cls-5" d="M7.64,7.37,7.91,7A.05.05,0,0,1,8,7a3.43,3.43,0,0,0,.44-.19,6.08,6.08,0,0,0,1-.49,3.36,3.36,0,0,0,.71-.47c.05,0,.1-.12.15-.18s.1-.08.19,0-.07.12-.11.17a3.47,3.47,0,0,1-.29.25l-.54.39,0,0L8.63,7c-.23.12-.48.23-.72.33A1.71,1.71,0,0,1,7.64,7.37Z"/>
        <path class="cls-4" d="M13,2.65,11.65,1.49a.76.76,0,0,1,.33,0,.72.72,0,0,1,.59.24,1,1,0,0,1,.23.37,3.82,3.82,0,0,0,.24.55Z"/>
        <path class="cls-4" d="M5.19,5.57A3.88,3.88,0,0,1,6.06,5c0,.13,0,.24,0,.35s0,.32,0,.48S5.91,6,5.8,5.9Z"/>
        <path class="cls-3" d="M5.1,6.84V5.73l.67.36C5.57,6.35,5.34,6.58,5.1,6.84Z"/>
        <path class="cls-3" d="M.74,8.43l.54,1.44A1.41,1.41,0,0,1,.74,8.43Z"/>
        <path class="cls-4" d="M4.91,5.86c0,.23,0,.46,0,.7,0,.07,0,.14,0,.24-.11-.22-.19-.4-.27-.58a.11.11,0,0,1,0-.11c.09-.09.14-.2.26-.25Z"/>
        <path class="cls-4" d="M6.69,5l-.37-.18A3,3,0,0,1,7,4.51,1.06,1.06,0,0,1,6.69,5Z"/>
        <path class="cls-3" d="M6.18,5.56,6.24,5l.35.18-.37.45Z"/>
        <path class="cls-6" d="M4.91,5.86v0Z"/>
        <path class="cls-7" d="M11.94,6.34l.38-.61a.18.18,0,0,1,.07.2.69.69,0,0,1-.07.15,1.12,1.12,0,0,1-.36.29Z"/>
        <path class="cls-8" d="M11.76,5.69a.17.17,0,0,1,.07.21.59.59,0,0,1-.31.3Z"/>
        <path class="cls-9" d="M11.38,5.72c.06.19,0,.26-.2.36A.91.91,0,0,1,11.38,5.72Z"/>
        <path class="cls-10" d="M5.09,4.89l-.5.45A.52.52,0,0,1,4.77,5,.44.44,0,0,1,5.09,4.89Z"/>
        <path class="cls-11" d="M4.42,5a.47.47,0,0,1,.51-.42C4.77,4.7,4.59,4.82,4.42,5Z"/>
        <path class="cls-12" d="M4.3,4.53a.42.42,0,0,1,.47-.35,1.2,1.2,0,0,1-.47.35Z"/>
        <path class="cls-13" d="M4.56,3.54l-.5.31C4.17,3.56,4.34,3.46,4.56,3.54Z"/>
        <path class="cls-9" d="M4.65,3.87l-.45.27A.33.33,0,0,1,4.65,3.87Z"/>
        <path class="cls-10" d="M4.46,3.22,4,3.49A.32.32,0,0,1,4.46,3.22Z"/>
        <path class="cls-11" d="M3.84,2.78c.11-.26.25-.34.43-.27Z"/>
        <path class="cls-11" d="M3.92,3.16c.13-.28.28-.37.45-.28Z"/>
        <path class="cls-14" d="M4.18,2.21l-.4.23C3.84,2.22,4,2.13,4.18,2.21Z"/>
        <path class="cls-14" d="M4.08,1.89l-.36.23A.26.26,0,0,1,4.08,1.89Z"/>
        <path class="cls-10" d="M3.68,1.81c.06-.2.18-.28.35-.21Z"/>
        <path class="cls-14" d="M4,1.32l-.3.16C3.72,1.32,3.8,1.27,4,1.32Z"/>
        <path class="cls-12" d="M4.3,4.53h0Z"/>
      </g>
      <g>
        <path class="cls-15" d="M9.65,14.77A1.39,1.39,0,0,1,9,14.64H9a1.54,1.54,0,0,1-.7-1.17h0a8.65,8.65,0,0,1-.06-1.25q0-.55.06-1.11c0-.3,0-.6,0-.9,0-.13,0-.25,0-.36a1.05,1.05,0,0,0,0,.19h0a13.2,13.2,0,0,0-.45,3.31.58.58,0,0,1,0,.23.61.61,0,0,1-.23.37.53.53,0,0,1-.29.12H7.12A1.12,1.12,0,0,1,6.81,14a1,1,0,0,1-.73-.87,2.43,2.43,0,0,1,0-.47l.07-2.21c-.07.21-.14.43-.19.65h0A14.35,14.35,0,0,0,5.57,14a.72.72,0,0,1-.38.7h0l-.1,0h-.2a1.09,1.09,0,0,1-.73-.26h0a1,1,0,0,1-.27-.55,1.48,1.48,0,0,1,0-.42c0-.88.09-1.76.11-2.64v-.28l.26-.11A7.61,7.61,0,0,0,5,10l0,0,.07,0,.43-.27.5-.32h0l.26-.18.07,0h0l.15-.07L6.68,9l0,.07L7.18,9l.18,0h0l.1-.24a3.07,3.07,0,0,1,.46-.67L8,8a1.39,1.39,0,0,1,.81-.45l.17,0,.17,0h.07a1.3,1.3,0,0,1,.32.14,1.25,1.25,0,0,1,.55.66,1.8,1.8,0,0,1,.1.4s0,.07,0,.1h0c0,.13,0,.26,0,.39,0,.58,0,1.17-.07,1.76,0,.43-.06.87-.07,1.31a7.62,7.62,0,0,0,.08,1.26.55.55,0,0,1,.35.43.63.63,0,0,1,0,.33h0a.64.64,0,0,1-.53.38H9.65Z"/>
        <path class="cls-1" d="M6,9a6.86,6.86,0,0,0,.7-.63l.21-.21.28.11.15.07h0a1.15,1.15,0,0,1,.41.41l0,.08.3.55-.62.09-.19,0-.57.07h0l-.19.13Z"/>
        <path class="cls-15" d="M11.3,13.36h-.07A1.41,1.41,0,0,1,10.4,13a1.89,1.89,0,0,1-.68-1.22,2.87,2.87,0,0,1,0-1,2.94,2.94,0,0,1,.38-1.05h0a1.74,1.74,0,0,1,1-.76h0l.17,0,.19,0a1,1,0,0,1,.42.09,1.07,1.07,0,0,1,.41.38,1.26,1.26,0,0,1,.18.48,1.62,1.62,0,0,1,0,.44.51.51,0,0,1,.29-.14h.09a.58.58,0,0,1,.49.27.74.74,0,0,1,.1.26,2.05,2.05,0,0,1-.29,1c-.08.18-.17.35-.26.52a2.3,2.3,0,0,1-.82.87,1.69,1.69,0,0,1-.57.2Zm.17-1.61a1.72,1.72,0,0,0,.07.21.28.28,0,0,0,.09-.07h0a2,2,0,0,0,.36-.51l.07-.16-.22.22Z"/>
        <path class="cls-15" d="M13.66,13a.59.59,0,0,1-.39-.16.58.58,0,0,1-.19-.37v0h0a.83.83,0,0,1,0-.35l.15-.54c.09-.26.13-.41.15-.48a.61.61,0,0,1-.43.29H12.9a.58.58,0,0,1-.36-.12.59.59,0,0,1-.23-.39.82.82,0,0,1,0-.42l0-.05c.06-.26.11-.52.16-.79h0a.79.79,0,0,0,0-.2l0-.07h0a.65.65,0,0,1,.51-.72,1.11,1.11,0,0,1,.3-.08h.14a.75.75,0,0,1,.21,0h0a.89.89,0,0,1,.51.36l0,0a.72.72,0,0,1,.12-.21.63.63,0,0,1,.34-.23h.14a.61.61,0,0,1,.46.22.8.8,0,0,1,.21.42.86.86,0,0,1,0,.42,2.33,2.33,0,0,1-.11.28l-.35.74.21.42,0,0a5.82,5.82,0,0,0,.2-.68,1,1,0,0,1,.1-.3A.6.6,0,0,1,16,9.71h.09a.58.58,0,0,1,.39.15.63.63,0,0,1,.19.37v0h0a.78.78,0,0,1-.05.37l-.25.88a2.87,2.87,0,0,1-.3.74,1.19,1.19,0,0,1-.79.55h-.18a1,1,0,0,1-.41-.08,1.36,1.36,0,0,1-.41-.26.92.92,0,0,1-.09.23.61.61,0,0,1-.46.33Z"/>
        <path class="cls-15" d="M16.56,12.56a1.12,1.12,0,0,1-.53-.13h0a1.16,1.16,0,0,1-.51-.62,1.64,1.64,0,0,1-.1-.38l0-.25h0a7.06,7.06,0,0,1,0-.92c0-.29.05-.59.08-.88h0a1.1,1.1,0,0,0,0-.18.49.49,0,0,0,0-.12V8.92a.68.68,0,0,1,.07-.45l.05-.07a.14.14,0,0,0,0-.06.47.47,0,0,1,0-.16.65.65,0,0,1,.1-.47.81.81,0,0,1,.33-.28,1,1,0,0,1,.24-.07h.13a.73.73,0,0,1,.42.14.86.86,0,0,1,.28.34.66.66,0,0,1,.06.2.7.7,0,0,1,0,.38h0L17,8.54l0,0,0,0a1.09,1.09,0,0,1,.15.39,1.34,1.34,0,0,1,0,.4l0,.36v.09a.52.52,0,0,1,.14-.19l0,0,0,0a.54.54,0,0,1,.27-.11h.09a.62.62,0,0,1,.29.07.57.57,0,0,1,.28.35l0,.06v0a.84.84,0,0,1,0,.35,10.79,10.79,0,0,1-.45,1.36,1.67,1.67,0,0,1-.38.58l0,0h0a1.18,1.18,0,0,1-.55.24h-.22Z"/>
        <path class="cls-15" d="M18.46,12.3h-.19a1.45,1.45,0,0,1-.79-.39,1.87,1.87,0,0,1-.57-1.1,3.37,3.37,0,0,1,0-.55A3,3,0,0,1,17,9.73a2.83,2.83,0,0,1,.32-.94,1.86,1.86,0,0,1,.8-.77h0a1.42,1.42,0,0,1,.35-.11h.19a1.07,1.07,0,0,1,.59.17h0a1.17,1.17,0,0,1,.45.78,1.48,1.48,0,0,1,0,.47l0,0v0h0a.57.57,0,0,1,.33-.16h.08a.54.54,0,0,1,.28.08l0,0,0,0a.64.64,0,0,1,.2.4.87.87,0,0,1,0,.36v0h0a5.54,5.54,0,0,1-.52,1.1,2.87,2.87,0,0,1-.69.82h0a1.68,1.68,0,0,1-.78.33Zm.19-2.18c0,.13,0,.25,0,.37h0a.88.88,0,0,0,0,.17,1.42,1.42,0,0,0,0,.22,1.27,1.27,0,0,0,.37-.39,3.6,3.6,0,0,0,.33-.61.8.8,0,0,1-.4.25h-.14a.85.85,0,0,1-.22,0Z"/>
        <path class="cls-15" d="M20.65,12a1.09,1.09,0,0,1-.82-.37h0a1.56,1.56,0,0,1-.33-.7,2.56,2.56,0,0,1,0-.27,3.68,3.68,0,0,1-.05-.58l0-.55c0-.2.06-.4.1-.6a2.6,2.6,0,0,1,.25-.62,1.42,1.42,0,0,1,.58-.56h0a1.1,1.1,0,0,1,.35-.11h.42v0l0,0,0,0a.59.59,0,0,1,.33-.15h.23l.32,0h0a.84.84,0,0,1,.63.72,3.74,3.74,0,0,1,0,.85.68.68,0,0,1,.17-.21.52.52,0,0,1,.3-.14h.08a.56.56,0,0,1,.52.35h0a.55.55,0,0,1,0,.17.88.88,0,0,1,0,.23h0a8.83,8.83,0,0,1-.46,1.43,1.85,1.85,0,0,1-.36.57l0,0h0a1.12,1.12,0,0,1-.59.28h-.18a1.24,1.24,0,0,1-.53-.12h0l-.15-.1a1.42,1.42,0,0,1-.2.22,1,1,0,0,1-.53.26h-.1Z"/>
        <path class="cls-15" d="M23.35,11.54H23.3a.69.69,0,0,1-.52-.26h0v0a.81.81,0,0,1-.14-.33,1.85,1.85,0,0,1,0-.23c0-.61,0-1.22,0-1.81V7.67a.53.53,0,0,1,.17-.44.63.63,0,0,1,.33-.15h.2a1.25,1.25,0,0,1,.51.1.85.85,0,0,1,.25.17.75.75,0,0,1,.15-.16.94.94,0,0,1,.5-.24h.15a1,1,0,0,1,.65.25h0a1.28,1.28,0,0,1,.34.72h0V8c0,.17,0,.33,0,.49a.6.6,0,0,1,.44-.31h.08a.6.6,0,0,1,.59.48v0A.93.93,0,0,1,27,9c-.05.23-.11.46-.17.69a3.9,3.9,0,0,1-.31.73,1.3,1.3,0,0,1-1,.76l-.16,0a1.09,1.09,0,0,1-.39-.08,1.06,1.06,0,0,1-.45-.32,1.5,1.5,0,0,1-.15-.23,1.8,1.8,0,0,1-.06.32.83.83,0,0,1-.72.61h0Z"/>
        <path class="cls-15" d="M27.21,11a1.31,1.31,0,0,1-.59-.14,1.54,1.54,0,0,1-.49-.42h0a2.32,2.32,0,0,1-.39-1l0-.15h0a3.36,3.36,0,0,1,.05-1.35,1.7,1.7,0,0,1,.94-1.27h0A1.18,1.18,0,0,1,27,6.56l.2,0a1.28,1.28,0,0,1,.63.16h0a1.87,1.87,0,0,1,.74,1.15.62.62,0,0,1,.3-.13h.2l.07,0a.65.65,0,0,1,.4.51v.08a1,1,0,0,1-.08.37,2.15,2.15,0,0,1-.75,1,1.19,1.19,0,0,1-.22.12,2.63,2.63,0,0,1-.31.57h0a1.56,1.56,0,0,1-.35.33,1.28,1.28,0,0,1-.49.19h-.17Z"/>
        <path class="cls-15" d="M30.87,10.75l-.37,0a3.8,3.8,0,0,1-1.05-.23h0a1.2,1.2,0,0,1-.52-.39,1.24,1.24,0,0,1-.26-.6.84.84,0,0,1,.09-.61.57.57,0,0,1-.13-.08.61.61,0,0,1-.23-.38.67.67,0,0,1,0-.28c.08-.33.19-.65.3-1A3.14,3.14,0,0,1,29,6.67a1.31,1.31,0,0,1,.52-.47,1.7,1.7,0,0,1,.45-.15h.21a1.46,1.46,0,0,1,.57.12h0a.64.64,0,0,1,.32.31,1.38,1.38,0,0,1,.26-.35,1.75,1.75,0,0,1,.6-.37h0a1.88,1.88,0,0,1,.45-.12,1.46,1.46,0,0,1,.29,0,1.56,1.56,0,0,1,.68.14,1.71,1.71,0,0,1,.7.61,2.36,2.36,0,0,1,.34.91,3,3,0,0,1,0,.84,3.3,3.3,0,0,1-.25.85h0a2.67,2.67,0,0,1-.89,1.06,3.47,3.47,0,0,1-1,.49,3.92,3.92,0,0,1-.66.15A4,4,0,0,1,30.87,10.75Zm-.36-3.41a1,1,0,0,0,.07.21,2.11,2.11,0,0,0,.18.27h0a4.27,4.27,0,0,1,.33.51A1.75,1.75,0,0,1,31.3,9a1.16,1.16,0,0,1,0,.49A2,2,0,0,0,32.36,9a2,2,0,0,0,.51-1.08,1.77,1.77,0,0,0,0-.56c0-.26-.13-.31-.17-.33h0a.13.13,0,0,0,0,.06l0,.11a.38.38,0,0,0,0,.13v0a.47.47,0,0,1,.09.22.5.5,0,0,1-.36.56l-.18,0-.19,0a1,1,0,0,1-.43-.1,1,1,0,0,1-.43-.36,1.06,1.06,0,0,1-.19-.48.13.13,0,0,1,0-.06.58.58,0,0,1-.32.16Z"/>
        <path class="cls-3" d="M9.78,13.9c0-.05,0-.08-.13-.1a.26.26,0,0,1-.18-.16,1,1,0,0,1,0-.17,7.48,7.48,0,0,1-.08-1.33c0-.45,0-.9.07-1.34a16.76,16.76,0,0,0,.06-1.73c0-.11,0-.22,0-.33s0-.06,0-.09a1.32,1.32,0,0,0-.07-.3A.87.87,0,0,0,9,7.9a.67.67,0,0,0-.21-.09H8.58A1,1,0,0,0,8,8.13H8a2.63,2.63,0,0,0-.39.57,1.47,1.47,0,0,0-.1.22c0,.07,0,.14-.08.22s-.14.45-.2.69c0-.11,0-.23,0-.34s0-.21,0-.31h0L7,9.22c-.18,0-.38,0-.58.06h0l-.06.05s0,0,0,.06a.88.88,0,0,1,0,.23l-.08,2.85a1.67,1.67,0,0,0,0,.39.56.56,0,0,0,.41.51.57.57,0,0,0,.29,0H7a.18.18,0,0,0,.09,0,.14.14,0,0,0,.07-.1.66.66,0,0,0,0-.14,12.9,12.9,0,0,1,.47-3.43,3.53,3.53,0,0,1,.15-.46.35.35,0,0,1,.06-.14A1.22,1.22,0,0,1,8,8.8a.29.29,0,0,1,.2-.16h0a.19.19,0,0,1,.14,0A.37.37,0,0,1,8.51,9h0a6.75,6.75,0,0,1,0,1c0,.31,0,.62,0,.92s-.05.72-.06,1.08a7.91,7.91,0,0,0,.06,1.19A1.07,1.07,0,0,0,9,14a1,1,0,0,0,.53.09h.08a.24.24,0,0,0,.2-.12A.14.14,0,0,0,9.78,13.9ZM5.09,10.14c0,.17-.09.34-.13.51,0-.15,0-.3,0-.44a7.49,7.49,0,0,1-.85.43c0,.89-.06,1.78-.11,2.66a.86.86,0,0,0,0,.32.47.47,0,0,0,.14.3.72.72,0,0,0,.46.14h.13c.09,0,.13-.14.13-.3a13.93,13.93,0,0,1,.38-2.94,8,8,0,0,1,.29-1Z"/>
        <path class="cls-15" d="M7.1,8.79l-.18,0-.55.06A.53.53,0,0,0,6.15,9L6,9.09a7.59,7.59,0,0,0,.75-.67l.09.05a.87.87,0,0,1,.27.27Z"/>
        <path class="cls-3" d="M11.2,12.7l-.2,0a1.09,1.09,0,0,1-.59-.24,1.45,1.45,0,0,1-.52-.94,2.32,2.32,0,0,1,0-.83,2.16,2.16,0,0,1,.32-.9A1.29,1.29,0,0,1,11,9.23l.11,0a.56.56,0,0,1,.35,0,.49.49,0,0,1,.24.21,1,1,0,0,1,.11.31,1.16,1.16,0,0,1-.12.67,1.87,1.87,0,0,1-.38.46,4.33,4.33,0,0,1-.47.38l-.06.06a.74.74,0,0,0,0,.25,1.34,1.34,0,0,0,.22.56.42.42,0,0,0,.31.07.83.83,0,0,0,.4-.24,2.45,2.45,0,0,0,.43-.62,4.37,4.37,0,0,0,.28-.71q.06-.2.18-.21a.13.13,0,0,1,.14.07l0,.08a2.37,2.37,0,0,1-.26.79q-.11.24-.24.48a1.79,1.79,0,0,1-.66.7A1.19,1.19,0,0,1,11.2,12.7Zm-.45-1.77a1.86,1.86,0,0,0,.58-.57.91.91,0,0,0,.14-.34.62.62,0,0,0,0-.13.55.55,0,0,0-.05-.17.14.14,0,0,0-.13-.07.24.24,0,0,0-.14.11,1.81,1.81,0,0,0-.33.78Z"/>
        <path class="cls-3" d="M14.94,12.15a.67.67,0,0,1-.34,0,1,1,0,0,1-.3-.2,2.15,2.15,0,0,1-.23-.28l-.18-.32a3.8,3.8,0,0,0-.28.8l-.06.17a.17.17,0,0,1-.13.1.1.1,0,0,1-.11,0,.2.2,0,0,1-.06-.11.55.55,0,0,1,0-.18l.16-.54a3,3,0,0,0,.18-.68s-.2-.44-.58-1.25l-.2.93c0,.15-.08.22-.16.24a.16.16,0,0,1-.12,0,.17.17,0,0,1-.07-.1.53.53,0,0,1,0-.22l0-.07c.07-.27.12-.55.17-.82a.82.82,0,0,0,0-.37V9.06c0-.11,0-.19.22-.24a.9.9,0,0,1,.22-.06h.18a.42.42,0,0,1,.26.19,1.78,1.78,0,0,1,.17.3l.23.54.38-.9.06-.12a.3.3,0,0,1,.11-.07.2.2,0,0,1,.17.07.34.34,0,0,1,.09.19.55.55,0,0,1,0,.22.85.85,0,0,1-.09.22l-.38.82a.27.27,0,0,0,0,.14.36.36,0,0,0,0,.09,5,5,0,0,0,.26.52,2.21,2.21,0,0,0,.33.47.27.27,0,0,0,.08.07l.09,0c.06,0,.12-.07.16-.18a5.87,5.87,0,0,0,.38-1.14.48.48,0,0,1,.06-.18.18.18,0,0,1,.13-.09.11.11,0,0,1,.11,0,.16.16,0,0,1,.05.11.35.35,0,0,1,0,.2l-.26.9a2.51,2.51,0,0,1-.25.63A.75.75,0,0,1,14.94,12.15Z"/>
        <path class="cls-3" d="M16.45,11.9h-.06a.7.7,0,0,1-.41-.07.72.72,0,0,1-.33-.4,1.38,1.38,0,0,1-.08-.29,1.64,1.64,0,0,1,0-.22,6.31,6.31,0,0,1,0-.87c0-.28,0-.57.08-.86a1.64,1.64,0,0,0,0-.22,1.7,1.7,0,0,0,0-.22l0-.12c0-.12,0-.2.13-.21H16a.53.53,0,0,1,.38.18.6.6,0,0,1,.08.21,1.4,1.4,0,0,1,0,.29l0,.36a11.51,11.51,0,0,0-.08,1.31,1,1,0,0,0,0,.25.67.67,0,0,0,.08.23.13.13,0,0,0,.13.06c.07,0,.12-.06.18-.15a2.31,2.31,0,0,0,.21-.45c.06-.16.11-.32.16-.48s.07-.24.11-.37a.25.25,0,0,1,.08-.14.09.09,0,0,1,.07,0,.13.13,0,0,1,.1,0,.11.11,0,0,1,.07.08v0a.32.32,0,0,1,0,.14,9.86,9.86,0,0,1-.45,1.34,1.12,1.12,0,0,1-.27.43A.78.78,0,0,1,16.45,11.9Zm-.38-3.68h0a.21.21,0,0,1-.11,0A.38.38,0,0,1,15.7,8a.14.14,0,0,1,0-.06.23.23,0,0,1,0-.16.33.33,0,0,1,.14-.12l.13,0h0a.27.27,0,0,1,.21,0,.46.46,0,0,1,.14.17l0,.09a.32.32,0,0,1,0,.13A.43.43,0,0,1,16.07,8.22Z"/>
        <path class="cls-3" d="M18.35,11.64a1.29,1.29,0,0,1-.28,0,1,1,0,0,1-.55-.28,1.37,1.37,0,0,1-.43-.85,2.26,2.26,0,0,1,0-.45,3.4,3.4,0,0,1,.06-.46,2.42,2.42,0,0,1,.28-.82,1.38,1.38,0,0,1,.6-.57.68.68,0,0,1,.23-.07.62.62,0,0,1,.47.09.68.68,0,0,1,.28.49.89.89,0,0,1-.14.63.35.35,0,0,1-.2.16h-.1a.14.14,0,0,1-.09-.11.18.18,0,0,1,0-.1l.06-.11a.57.57,0,0,0,.08-.38.48.48,0,0,0-.06-.18c0-.05-.06-.07-.1-.07a.15.15,0,0,0-.07,0,1.35,1.35,0,0,0-.32.63A3.23,3.23,0,0,0,18,10.31a1.64,1.64,0,0,0,0,.23,1.39,1.39,0,0,0,.12.41.37.37,0,0,0,.2.22.23.23,0,0,0,.14,0,.28.28,0,0,0,.12,0,1.57,1.57,0,0,0,.64-.58,4.13,4.13,0,0,0,.47-.94v0a.44.44,0,0,1,.1-.19c.05,0,.08-.06.11-.06a.08.08,0,0,1,.07,0,.26.26,0,0,1,.06.14.37.37,0,0,1,0,.18,4.75,4.75,0,0,1-.48,1,2.5,2.5,0,0,1-.59.7A1.2,1.2,0,0,1,18.35,11.64Z"/>
        <path class="cls-3" d="M20.42,11.31h0a.64.64,0,0,1-.51-.23,1.24,1.24,0,0,1-.24-.52,2,2,0,0,1-.05-.24,4.21,4.21,0,0,1,0-.51l0-.51a4.68,4.68,0,0,1,.09-.54,2.25,2.25,0,0,1,.2-.51,1,1,0,0,1,.4-.39,1,1,0,0,1,.23-.07,1.57,1.57,0,0,1,.71.09.2.2,0,0,1,0-.11.19.19,0,0,1,0-.16.15.15,0,0,1,.09,0h.12a1.09,1.09,0,0,1,.26,0A.41.41,0,0,1,22,8a4.6,4.6,0,0,1,0,.81c0,.24-.05.47-.06.71a5,5,0,0,0,0,.77.35.35,0,0,0,0,.11.2.2,0,0,0,.15.1h0a.22.22,0,0,0,.15-.1,1.41,1.41,0,0,0,.19-.34c.11-.31.21-.61.29-.93a.56.56,0,0,1,0-.12.18.18,0,0,1,.08-.09A.15.15,0,0,1,23,8.85c.06,0,.1,0,.13.09a.14.14,0,0,1,0,.06.14.14,0,0,1,0,.09,8,8,0,0,1-.44,1.36,1.62,1.62,0,0,1-.27.44.74.74,0,0,1-.37.17.73.73,0,0,1-.45-.08.83.83,0,0,1-.28-.25.71.71,0,0,1-.13-.35.49.49,0,0,1,0-.12,2.41,2.41,0,0,0-.08.25,3.33,3.33,0,0,1-.16.4.86.86,0,0,1-.2.26A.49.49,0,0,1,20.42,11.31Zm.11-.6s0,0,.06-.05a.21.21,0,0,0,0-.06l0,0a2.28,2.28,0,0,0,.12-.3,1.72,1.72,0,0,0,0-.2h0a13.36,13.36,0,0,0,.27-1.49l0-.15s0,0,0-.06a.12.12,0,0,1,.07-.11l-.1,0h-.17l0,0h0l0,0-.06.05h0a1.67,1.67,0,0,0-.12.16s0,0,0,0,0,0-.06.12l-.06.19,0,.1a3.62,3.62,0,0,0-.11.92v.12c0,.14,0,.29,0,.44l0,.19Z"/>
        <path class="cls-3" d="M23.34,10.87a1,1,0,0,1-.28,0,.26.26,0,0,1-.2-.1.34.34,0,0,1-.06-.15.66.66,0,0,1,0-.14c0-.62,0-1.23,0-1.82V7.46a.1.1,0,0,1,0-.11.19.19,0,0,1,.1,0,.81.81,0,0,1,.45.06.38.38,0,0,1,.23.31.53.53,0,0,1,0,.13s0,.41,0,1.09c.05-.24.1-.47.17-.7a2.9,2.9,0,0,1,.28-.65,1.29,1.29,0,0,1,.2-.25.54.54,0,0,1,.73,0,.82.82,0,0,1,.21.47,6.72,6.72,0,0,1,0,1c0,.24,0,.48,0,.73a1.49,1.49,0,0,0,0,.21,1.46,1.46,0,0,0,.05.2.28.28,0,0,0,.05.08.11.11,0,0,0,.08,0,.11.11,0,0,0,.09,0,1.31,1.31,0,0,0,.21-.36,3.69,3.69,0,0,0,.29-1c0-.17.08-.27.18-.28s.14,0,.17.14a.41.41,0,0,1,0,.19c-.05.23-.11.46-.17.68a3,3,0,0,1-.27.64.9.9,0,0,1-.64.54.5.5,0,0,1-.32,0,.58.58,0,0,1-.27-.19.76.76,0,0,1-.15-.26,1.24,1.24,0,0,1-.06-.29,3.15,3.15,0,0,1,0-.53c0-.17,0-.35,0-.53s0-.45,0-.67V8a.2.2,0,0,0,0-.07.43.43,0,0,0,0,0l0,0h0c-.07,0-.12.09-.15.2a9.5,9.5,0,0,0-.46,2.29,1.37,1.37,0,0,1-.05.28A.38.38,0,0,1,23.34,10.87Z"/>
        <path class="cls-3" d="M27.05,10.34H27a1,1,0,0,1-.44-.1,1.05,1.05,0,0,1-.34-.29,2.18,2.18,0,0,1-.32-.81l0-.15a2.73,2.73,0,0,1,0-1.18,1.27,1.27,0,0,1,.69-1l.21-.06a.88.88,0,0,1,.55.09A1.59,1.59,0,0,1,28,8a3.75,3.75,0,0,1,0,1,1.22,1.22,0,0,0,.54-.74v0A.27.27,0,0,1,28.72,8h.05a.22.22,0,0,1,.12.17.54.54,0,0,1-.05.21,1.81,1.81,0,0,1-.59.84.79.79,0,0,1-.33.13,2,2,0,0,1-.3.66,1.18,1.18,0,0,1-.26.24A.84.84,0,0,1,27.05,10.34Zm.11-.43a.15.15,0,0,0,.1-.09,1.6,1.6,0,0,0,.21-.54v0s0,0,0,0A1.08,1.08,0,0,1,27,8.47a1.74,1.74,0,0,1-.05-.22,4.18,4.18,0,0,1,0-1,2.48,2.48,0,0,0-.21,1,5.5,5.5,0,0,0,0,.83,3.9,3.9,0,0,0,.12.46.92.92,0,0,0,.16.27.17.17,0,0,0,.16.08Zm.36-1V8.63c0-.09,0-.15,0-.19s0-.09,0-.13a.82.82,0,0,1,0-.18l-.06-.28c0-.14-.07-.23-.09-.29a2,2,0,0,0-.13-.23c0,.08,0,.15,0,.19v.13a.57.57,0,0,0,0,.12,1.21,1.21,0,0,0,0,.18,2,2,0,0,0,0,.25c0,.06,0,.13,0,.2a2.16,2.16,0,0,0,.08.26l.11.17h0l.05.05h0Z"/>
        <path class="cls-3" d="M31.23,10.05a4.36,4.36,0,0,1-1,0,3.69,3.69,0,0,1-.93-.21A.84.84,0,0,1,29,9.63a1,1,0,0,1-.17-.4c0-.15,0-.26,0-.3a.2.2,0,0,1,.09,0,.16.16,0,0,1,.18.14.11.11,0,0,1,0,.08.54.54,0,0,0,0,.11.55.55,0,0,0,.05.17c0,.06.06.1.11.11h0a.28.28,0,0,0,.45-.1.55.55,0,0,0,.05-.31,1.21,1.21,0,0,0-.14-.37c-.07-.12-.16-.25-.25-.38A4.06,4.06,0,0,1,29,7.69l-.15.51q0,.08-.12.09a.16.16,0,0,1-.12,0,.14.14,0,0,1-.06-.1.14.14,0,0,1,0-.09c.08-.32.18-.64.29-1a1.93,1.93,0,0,1,.22-.43.73.73,0,0,1,.34-.31.87.87,0,0,1,.31-.1.93.93,0,0,1,.54.07.19.19,0,0,1,.12.14.27.27,0,0,1,0,.12.16.16,0,0,1-.11.07h-.1a.33.33,0,0,0-.14,0h0a.25.25,0,0,0-.17.21,1,1,0,0,0,0,.3,1.79,1.79,0,0,0,.12.37c.06.1.13.21.21.32a4.34,4.34,0,0,1,.3.47,1.4,1.4,0,0,1,.17.47,1,1,0,0,1-.05.48,1,1,0,0,1-.29.42,3.25,3.25,0,0,0,.82,0,2.37,2.37,0,0,0,1.3-.58A2.36,2.36,0,0,0,33,7.77a2.08,2.08,0,0,0,0-.7.84.84,0,0,0-.39-.65.52.52,0,0,0-.32-.07.57.57,0,0,0-.22.11.63.63,0,0,0-.17.23,1.14,1.14,0,0,0-.06.25,1.41,1.41,0,0,0,0,.22.36.36,0,0,0,.07.21l0,0s0,.06-.05.07l-.12,0a.6.6,0,0,1-.36,0,.67.67,0,0,1-.26-.21.86.86,0,0,1-.12-.3.64.64,0,0,1,0-.36.86.86,0,0,1,.22-.36A1.36,1.36,0,0,1,31.81,6a2,2,0,0,1,.36-.1,1.22,1.22,0,0,1,.72.09,1.32,1.32,0,0,1,.52.45,1.88,1.88,0,0,1,.27.73,2.81,2.81,0,0,1,0,.71,3,3,0,0,1-.22.74,2.34,2.34,0,0,1-.74.89,3,3,0,0,1-.89.43A4.34,4.34,0,0,1,31.23,10.05Z"/>
      </g>
      <g>
        <path class="cls-1" d="M11,9.27l-.26,0h0a1.35,1.35,0,0,1-.62-.34A1.59,1.59,0,0,1,9.63,8a2.33,2.33,0,0,1,0-.46A2.79,2.79,0,0,1,10,6.34a1.72,1.72,0,0,1,.54-.6A1.3,1.3,0,0,1,11,5.51h.15a1.26,1.26,0,0,1,.28,0,.82.82,0,0,1,.38.25.77.77,0,0,1,.14.33s0,.09,0,.13v0a2.51,2.51,0,0,1-.07.84,1.33,1.33,0,0,1-.05.19.56.56,0,0,1-.44.35h-.11l-.17,0L11,7.58a.41.41,0,0,1-.18-.28v0A.49.49,0,0,1,10.85,7a1.46,1.46,0,0,0,.21-.48.8.8,0,0,0-.15.21,1.94,1.94,0,0,0-.23,1.13.28.28,0,0,0,0,.09l0,.15a.47.47,0,0,0,.26.33.25.25,0,0,0,.12,0h.06l.15,0a.89.89,0,0,0,.31-.3h0a1.68,1.68,0,0,0,.25-.64.42.42,0,0,1,.29-.36h.08a.33.33,0,0,1,.25.11.36.36,0,0,1,.11.21.54.54,0,0,1,0,.22A2.58,2.58,0,0,1,12,8.79a1.68,1.68,0,0,1-.4.3,1.25,1.25,0,0,1-.47.16Z"/>
        <path class="cls-1" d="M12.49,8.72A.62.62,0,0,1,12,8.51v0a.85.85,0,0,1-.18-.37.78.78,0,0,1,0-.14,1.55,1.55,0,0,1,0-.31,2.64,2.64,0,0,1,0-.28c0-.11,0-.21,0-.32A1.51,1.51,0,0,1,12,6.74a.77.77,0,0,1,.32-.3h0a.7.7,0,0,1,.19-.06h.2l0,0a.34.34,0,0,1,.2-.09h.13l.17,0h0a.48.48,0,0,1,.36.41,1.4,1.4,0,0,1,0,.27.56.56,0,0,1,.16-.07h.06a.35.35,0,0,1,.31.21h0a.29.29,0,0,1,0,.1.29.29,0,0,1,0,.13v0a4.46,4.46,0,0,1-.24.73.92.92,0,0,1-.2.31l0,0a.63.63,0,0,1-.32.15h-.1a.82.82,0,0,1-.3-.07h0l0,0-.07.08a.59.59,0,0,1-.3.14h-.06Z"/>
        <path class="cls-1" d="M14.26,8.47a.74.74,0,0,1-.51-.21v0a.76.76,0,0,1-.18-.37.69.69,0,0,1,0-.3l-.06,0h0a.42.42,0,0,1-.09-.16,0,0,0,0,1,0,0,.47.47,0,0,1,0-.17c.05-.17.1-.34.16-.5a1.26,1.26,0,0,1,.13-.26A.61.61,0,0,1,14,6.13h0a.62.62,0,0,1,.23-.07h.11a.55.55,0,0,1,.18,0l.09,0h0l0,0a.26.26,0,0,1,.09,0,.43.43,0,0,1,.14.23v.08a.33.33,0,0,1-.1.23.39.39,0,0,1-.19.1s0,0,0,0l.1.15,0,0,0-.08s0,0,0,0a.35.35,0,0,1,.27-.2h.05a.25.25,0,0,1,.12,0h0a.36.36,0,0,1,.21.27.32.32,0,0,1,0,.17,2.89,2.89,0,0,1-.26.63,1.42,1.42,0,0,1-.57.57,1.14,1.14,0,0,1-.26.09h-.14Z"/>
        <path class="cls-1" d="M15.39,8.27A.6.6,0,0,1,15,8.15l0,0a1,1,0,0,1-.28-.6,2.17,2.17,0,0,1,0-.37,2,2,0,0,1,0-.36A1,1,0,0,1,15.3,6h0a.28.28,0,0,1,.13,0h.19a.36.36,0,0,1,.21-.11h.21a.52.52,0,0,1,.3.13.51.51,0,0,1,.17.3.65.65,0,0,1,0,.14l.17-.06h.08a.45.45,0,0,1,.35.15.64.64,0,0,1,.15.31,1,1,0,0,1,0,.42,1.63,1.63,0,0,1-.4.62,1.23,1.23,0,0,1-.36.25.66.66,0,0,1-.2.06h-.1a.59.59,0,0,1-.32-.09h0a.59.59,0,0,1-.37.22Z"/>
        <path class="cls-1" d="M20.28,7.53a.59.59,0,0,1-.46-.21h0a.89.89,0,0,1-.18-.38.68.68,0,0,1,0-.14,1.53,1.53,0,0,1,0-.3c0-.1,0-.19,0-.29s0-.21,0-.31a1.2,1.2,0,0,1,.13-.33.8.8,0,0,1,.32-.31h0a.67.67,0,0,1,.19,0h.2l0,0a.37.37,0,0,1,.2-.09h.13a.51.51,0,0,1,.17,0h0a.48.48,0,0,1,.36.41,1.5,1.5,0,0,1,0,.28.37.37,0,0,1,.16-.07h.06a.34.34,0,0,1,.31.22h0a.38.38,0,0,1,0,.1.29.29,0,0,1,0,.13v0a4.91,4.91,0,0,1-.24.74,1,1,0,0,1-.2.3l0,0a.56.56,0,0,1-.32.15h-.1a.66.66,0,0,1-.3-.07h0l0,0-.07.08a.52.52,0,0,1-.3.14h-.06Z"/>
        <path class="cls-1" d="M21.63,7.31h0a.38.38,0,0,1-.3-.15l0,0A.54.54,0,0,1,21.22,7V6.82c0-.31,0-.61,0-.91V5.29A.33.33,0,0,1,21.34,5a.42.42,0,0,1,.2-.1h.1a.68.68,0,0,1,.29.06L22,5l.05,0a.57.57,0,0,1,.28-.14h.09a.59.59,0,0,1,.37.14h0a.74.74,0,0,1,.18.4v0a.41.41,0,0,1,0,.11.35.35,0,0,1,.17-.07h0a.36.36,0,0,1,.36.29v0a.49.49,0,0,1,0,.21l-.09.36a1.8,1.8,0,0,1-.16.38.76.76,0,0,1-.53.42h-.09a.57.57,0,0,1-.22,0,.64.64,0,0,1-.25-.18V7a.47.47,0,0,1-.41.35h-.19Z"/>
        <path class="cls-1" d="M23.5,7.05a.57.57,0,0,1-.18,0h0a.74.74,0,0,1-.46-.62.66.66,0,0,1,0-.14c0-.22,0-.62,0-1.21h0A.33.33,0,0,1,22.68,5a.37.37,0,0,1-.14-.22h0a.4.4,0,0,1,.07-.28.36.36,0,0,1,.24-.13h0v0h0v0A.4.4,0,0,1,22.92,4a.45.45,0,0,1,.24-.14h.11l.12,0h0a.56.56,0,0,1,.38.29h0a.08.08,0,0,0,0,.05.46.46,0,0,1,.16.07.4.4,0,0,1,.14.22v0a.35.35,0,0,1-.07.28.36.36,0,0,1-.23.13h0c0,.06,0,.13,0,.19s0,.36,0,.54l0-.06v0a.36.36,0,0,1,.28-.21h0l.12,0,0,0a.35.35,0,0,1,.2.27.37.37,0,0,1,0,.21c0,.11-.07.2-.1.29a2.59,2.59,0,0,1-.14.29l-.12.21a.82.82,0,0,1-.54.4Z"/>
        <path class="cls-1" d="M24.52,6.9a.73.73,0,0,1-.33-.08,1,1,0,0,1-.26-.23h0a1.28,1.28,0,0,1-.21-.53V6a1.81,1.81,0,0,1,0-.7.94.94,0,0,1,.51-.69h0l.17,0h.11a.69.69,0,0,1,.34.09h0a1,1,0,0,1,.38.55l.11,0h.07l.1,0a.38.38,0,0,1,.23.3.11.11,0,0,1,0,0,.8.8,0,0,1-.05.21,1.08,1.08,0,0,1-.4.55l-.1.06a1.51,1.51,0,0,1-.15.28h0a.86.86,0,0,1-.2.18.63.63,0,0,1-.27.1h-.09Z"/>
        <path class="cls-1" d="M25.24,8.22a.68.68,0,0,1-.41-.14.78.78,0,0,1-.27-.48A1,1,0,0,1,24.67,7,1.64,1.64,0,0,1,25,6.44c0-.55,0-1.1,0-1.65a.47.47,0,0,1,0-.21A.88.88,0,0,1,25,4.43a.4.4,0,0,1,.07-.28A.38.38,0,0,1,25.28,4a.38.38,0,0,1,.13,0h.08a.43.43,0,0,1,.24.08.5.5,0,0,1,.17.21l0,.11a.5.5,0,0,1,0,.21A.44.44,0,0,1,26,4.8.86.86,0,0,1,26,5v.15a.35.35,0,0,1,.2-.1h.07a.41.41,0,0,1,.18,0v0a.31.31,0,0,1,.14.23.37.37,0,0,1,0,.23,2.33,2.33,0,0,1-.6,1,1.94,1.94,0,0,0,0,.27c0,.12,0,.24,0,.36a1.58,1.58,0,0,1,0,.38.88.88,0,0,1-.17.41h0a.65.65,0,0,1-.45.28h-.08Z"/>
        <path class="cls-1" d="M26.65,6.57a.61.61,0,0,1-.32-.08.67.67,0,0,1-.27-.23h0a1.18,1.18,0,0,1-.2-.52l0-.08a1.68,1.68,0,0,1,0-.71.91.91,0,0,1,.5-.68h0a.58.58,0,0,1,.18,0h.11a.84.84,0,0,1,.34.08l0,0a1,1,0,0,1,.37.54l.11,0h.17a.4.4,0,0,1,.24.31v0a.54.54,0,0,1-.05.21,1.13,1.13,0,0,1-.4.55l-.1,0a1.25,1.25,0,0,1-.15.28h0a.81.81,0,0,1-.19.18.7.7,0,0,1-.27.11h-.1Z"/>
        <path class="cls-1" d="M28,6.37a.72.72,0,0,1-.52-.21h0a.77.77,0,0,1-.17-.38.5.5,0,0,1,0-.29l-.05-.05h0a.35.35,0,0,1-.09-.16,0,0,0,0,0,0,0,.33.33,0,0,1,0-.17,4.13,4.13,0,0,1,.15-.5,2.1,2.1,0,0,1,.13-.26A.66.66,0,0,1,27.78,4h0A.81.81,0,0,1,28,4h.12l.17,0a.17.17,0,0,1,.1,0h0l.08,0a.33.33,0,0,1,.14.23v0a0,0,0,0,1,0,0,.33.33,0,0,1-.1.23.27.27,0,0,1-.18.1s0,0,0,0l.11.16,0,0,0-.08,0,0a.33.33,0,0,1,.27-.2h.06l.11,0h0a.36.36,0,0,1,.21.28.33.33,0,0,1,0,.17A3.76,3.76,0,0,1,29,5.7a1.46,1.46,0,0,1-.56.57l-.27.09H28Z"/>
        <path class="cls-4" d="M11.05,8.86a.82.82,0,0,1-.35,0,.94.94,0,0,1-.48-.26,1.26,1.26,0,0,1-.38-.77,1.76,1.76,0,0,1,0-.4,2.51,2.51,0,0,1,.31-1,1.41,1.41,0,0,1,.46-.51A.88.88,0,0,1,11,5.68a.65.65,0,0,1,.31,0,.51.51,0,0,1,.24.17.3.3,0,0,1,.07.18s0,.08,0,.11v0a2.31,2.31,0,0,1-.07.76.57.57,0,0,1,0,.14.26.26,0,0,1-.22.18.37.37,0,0,1-.18,0,.18.18,0,0,1-.09,0A.11.11,0,0,1,11,7.15.19.19,0,0,1,11,7a1.82,1.82,0,0,0,.28-.87V6.08A.37.37,0,0,0,11.25,6a.15.15,0,0,0-.11,0A.35.35,0,0,0,11,6a1.46,1.46,0,0,0-.41.48,2.2,2.2,0,0,0-.27,1.28s0,.07,0,.11a1.29,1.29,0,0,0,0,.19.79.79,0,0,0,.43.52.7.7,0,0,0,.32,0,.75.75,0,0,0,.24-.08,1.12,1.12,0,0,0,.42-.39,2,2,0,0,0,.3-.75c0-.07,0-.12.08-.13a.09.09,0,0,1,.06,0,.05.05,0,0,1,0,0,.41.41,0,0,1,0,.11,2.12,2.12,0,0,1-.5,1,1.11,1.11,0,0,1-.32.25A1.07,1.07,0,0,1,11.05,8.86Z"/>
        <path class="cls-4" d="M12.43,8.32h0a.29.29,0,0,1-.26-.11A.68.68,0,0,1,12,7.94s0-.08,0-.12a2.11,2.11,0,0,1,0-.26,2.46,2.46,0,0,1,0-.26,1.26,1.26,0,0,1,0-.27,1.17,1.17,0,0,1,.1-.26.58.58,0,0,1,.21-.2.35.35,0,0,1,.11,0,.8.8,0,0,1,.36,0,.43.43,0,0,1,0,0,.08.08,0,0,1,0-.08s0,0,.05,0H13l.13,0a.23.23,0,0,1,.16.19,3,3,0,0,1,0,.41l0,.36c0,.13,0,.26,0,.39s0,0,0,.06a.12.12,0,0,0,.07.05h0a.14.14,0,0,0,.08-.05.61.61,0,0,0,.09-.18,3.68,3.68,0,0,0,.15-.47s0,0,0-.06l0,0,0,0s0,0,.07,0a.1.1,0,0,1,0,0v0a4,4,0,0,1-.23.69.54.54,0,0,1-.13.22.37.37,0,0,1-.19.09.38.38,0,0,1-.23,0A.41.41,0,0,1,12.88,8a.45.45,0,0,1-.07-.18V7.79l-.05.12a1.18,1.18,0,0,1-.07.2.38.38,0,0,1-.11.14A.26.26,0,0,1,12.43,8.32ZM12.49,8l0,0,0,0v0a.77.77,0,0,0,.06-.15.65.65,0,0,0,0-.1h0c.06-.25.1-.5.14-.75V6.81a.07.07,0,0,1,0,0l-.05,0h-.12l0,0,0,0h0a.22.22,0,0,0,0,.08h0l0,.06,0,.1v0a2,2,0,0,0-.06.47v.06a1.79,1.79,0,0,0,0,.23l0,.09A.15.15,0,0,0,12.49,8Z"/>
        <path class="cls-4" d="M14.28,8.07H14.2A.4.4,0,0,1,13.88,8a.44.44,0,0,1-.11-.24c0-.08,0-.13,0-.15l.05,0h0s0,0,0,0,0,0,0,.05v.07a.27.27,0,0,0,.07.14.14.14,0,0,0,.13,0s0,0,.08,0a.23.23,0,0,0,0-.18.58.58,0,0,0,0-.14.88.88,0,0,0-.12-.19l0-.07L14,7.1a.7.7,0,0,1-.09-.17c0,.08,0,.17-.08.26a.1.1,0,0,1-.06,0l-.07,0,0,0a.06.06,0,0,1,0,0,4,4,0,0,1,.15-.49,2,2,0,0,1,.1-.21.43.43,0,0,1,.17-.16h0a.52.52,0,0,1,.16-.06.41.41,0,0,1,.19,0h.09l0,0a.1.1,0,0,1,0,.05v0a.05.05,0,0,1,0,0s0,0,0,0h-.14a.13.13,0,0,0-.07.06h0a.17.17,0,0,0,0,0,.33.33,0,0,0,0,.14.48.48,0,0,0,.07.2,1.74,1.74,0,0,0,.11.18,1.53,1.53,0,0,1,.14.21.75.75,0,0,1,.08.24.34.34,0,0,1,0,.1l.07-.1A2.31,2.31,0,0,0,15,6.92s0,0,.07,0h0a.13.13,0,0,1,.05.06.09.09,0,0,1,0,.05,2,2,0,0,1-.24.57,1.17,1.17,0,0,1-.45.46Z"/>
        <path class="cls-4" d="M15.36,7.88a.29.29,0,0,1-.23-.07.69.69,0,0,1-.19-.43,1.17,1.17,0,0,1,0-.33,1.66,1.66,0,0,1,0-.32.69.69,0,0,1,.37-.62l.09,0a.76.76,0,0,1,.35,0v0h0v0a.07.07,0,0,1,0-.06.05.05,0,0,1,.05,0H16a.3.3,0,0,1,.14.06.22.22,0,0,1,.08.14.49.49,0,0,1,0,.12v.22c0,.15,0,.31,0,.47a1.82,1.82,0,0,0,0,.33l0,.09s0,0,.07,0h0a.45.45,0,0,0,.27-.26.61.61,0,0,0,.07-.36.22.22,0,0,0-.05-.11.21.21,0,0,1,0-.06.11.11,0,0,1,.05-.1.27.27,0,0,1,.11,0,.18.18,0,0,1,.18.06.3.3,0,0,1,.08.17.64.64,0,0,1,0,.27c0,.1-.08.18-.12.26a1.71,1.71,0,0,1-.21.26.83.83,0,0,1-.27.19l-.13,0a.38.38,0,0,1-.24,0,.41.41,0,0,1-.19-.33v0a1.49,1.49,0,0,1-.14.37A.33.33,0,0,1,15.36,7.88Zm.06-.32,0,0,0,0v0a.85.85,0,0,0,.09-.24v0l0-.15c0-.1,0-.21.06-.34s0-.24,0-.34a.13.13,0,0,1,0-.09h0a.18.18,0,0,0-.1,0,.21.21,0,0,0-.1.06.36.36,0,0,0-.07.1.61.61,0,0,0-.05.12,1.87,1.87,0,0,0-.06.82l0,.08v0s0,0,0,0h0Z"/>
        <path class="cls-2" d="M20.22,7.14h0A.32.32,0,0,1,20,7a.64.64,0,0,1-.13-.26s0-.08,0-.12a2.28,2.28,0,0,1,0-.26,2.11,2.11,0,0,1,0-.26,1.26,1.26,0,0,1,0-.28,1.09,1.09,0,0,1,.1-.25.45.45,0,0,1,.21-.2l.11,0a.82.82,0,0,1,.36.05s0,0,0-.06a.08.08,0,0,1,0-.08l.05,0h.06l.13,0a.2.2,0,0,1,.16.18,2.9,2.9,0,0,1,0,.41c0,.12,0,.24,0,.36a2.54,2.54,0,0,0,0,.39l0,.06s0,0,.07,0h0a.1.1,0,0,0,.08,0,.56.56,0,0,0,.09-.17A4.26,4.26,0,0,0,21.41,6s0,0,0-.06a.1.1,0,0,1,0,0l0,0s0,0,.07,0,0,0,0,0V6a4.65,4.65,0,0,1-.23.69.71.71,0,0,1-.13.22A.36.36,0,0,1,21,7a.37.37,0,0,1-.23,0,.44.44,0,0,1-.14-.13.36.36,0,0,1-.07-.18V6.6s0,.08-.05.13,0,.13-.07.2a.45.45,0,0,1-.11.13A.28.28,0,0,1,20.22,7.14Zm.06-.31,0,0,0,0v0a1.16,1.16,0,0,0,.06-.16.43.43,0,0,0,0-.1h0c.06-.26.1-.51.14-.76v-.1a.07.07,0,0,1,0-.06l-.05,0h-.14s0,0,0,0h0a.35.35,0,0,0-.05.08h0l0,.06,0,.1v0a1.48,1.48,0,0,0-.05.47v.06a1.8,1.8,0,0,0,0,.22l0,.1Z"/>
        <path class="cls-2" d="M21.71,6.91h-.15a.14.14,0,0,1-.1,0,.11.11,0,0,1,0-.08.16.16,0,0,1,0-.07V5.18s0,0,0-.06l.06,0a.45.45,0,0,1,.23,0,.19.19,0,0,1,.11.16.13.13,0,0,1,0,.06s0,.21,0,.56l.09-.36a1.36,1.36,0,0,1,.14-.33,1.47,1.47,0,0,1,.1-.13A.35.35,0,0,1,22.32,5a.29.29,0,0,1,.23.07.38.38,0,0,1,.11.24,2.93,2.93,0,0,1,0,.51,2.28,2.28,0,0,0,0,.37v.1l0,.11,0,0h0l0,0a.52.52,0,0,0,.11-.19,2,2,0,0,0,.15-.49q0-.13.09-.15a.08.08,0,0,1,.08.07.16.16,0,0,1,0,.1c0,.12-.05.23-.08.35a1.83,1.83,0,0,1-.14.32.45.45,0,0,1-.32.28.34.34,0,0,1-.31-.12.42.42,0,0,1-.07-.13l0-.15a1.23,1.23,0,0,1,0-.27V5.81c0-.11,0-.23,0-.34V5.41a0,0,0,0,0,0,0h0a.15.15,0,0,0-.07.11,4.61,4.61,0,0,0-.24,1.16.68.68,0,0,1,0,.14A.18.18,0,0,1,21.71,6.91Z"/>
        <path class="cls-2" d="M23.47,6.65a.33.33,0,0,1-.14,0,.44.44,0,0,1-.28-.39s0-.08,0-.12c0-.21,0-.6,0-1.18,0-.11,0-.22,0-.33l-.22,0a.07.07,0,0,1-.06,0,.06.06,0,0,1,0-.06.07.07,0,0,1,0-.06l0,0,.26,0V4.19h0a.25.25,0,0,0,0-.08v0a.07.07,0,0,1,0-.06l.06,0h.16a.29.29,0,0,1,.19.15s0,0,0,.06v.18l.19,0h.06a.09.09,0,0,1,0,.06.07.07,0,0,1,0,.06l-.06,0-.22,0,0,.41,0,.57c0,.11,0,.22,0,.33a1.48,1.48,0,0,0,0,.21.34.34,0,0,0,0,.1v0a.43.43,0,0,0,0,0,.1.1,0,0,0,.05,0h0l.05,0,.05,0a1.13,1.13,0,0,0,.1-.13A1.3,1.3,0,0,0,23.85,6a3.25,3.25,0,0,0,.15-.4.12.12,0,0,1,.07,0h0s0,0,.05.06a.07.07,0,0,1,0,0h0a3,3,0,0,1-.11.29,2.21,2.21,0,0,1-.12.27l-.11.18A.54.54,0,0,1,23.47,6.65Z"/>
        <path class="cls-2" d="M24.5,6.5h0a.54.54,0,0,1-.22,0,.5.5,0,0,1-.17-.15.9.9,0,0,1-.16-.41l0-.08a1.69,1.69,0,0,1,0-.6.67.67,0,0,1,.35-.49.23.23,0,0,1,.11,0,.39.39,0,0,1,.28,0,.75.75,0,0,1,.31.57,2.62,2.62,0,0,1,0,.49.69.69,0,0,0,.27-.38v0c0-.07.05-.1.1-.11h0a.09.09,0,0,1,.06.08.36.36,0,0,1,0,.11.86.86,0,0,1-.3.43.49.49,0,0,1-.17.06,1,1,0,0,1-.15.34.49.49,0,0,1-.13.12A.52.52,0,0,1,24.5,6.5Zm.06-.21a.1.1,0,0,0,0,0A.7.7,0,0,0,24.71,6V6h0a.58.58,0,0,1-.24-.39l0-.11a2.49,2.49,0,0,1,0-.48,1.27,1.27,0,0,0-.11.5,2.77,2.77,0,0,0,0,.42,1,1,0,0,0,.06.23.29.29,0,0,0,.08.14.09.09,0,0,0,.08,0Zm.18-.52v-.3l0-.09,0-.14c0-.07,0-.12-.05-.15L24.58,5a.41.41,0,0,0,0,.1.18.18,0,0,0,0,.06s0,0,0,.07v.09s0,.08,0,.13a.44.44,0,0,0,0,.1.33.33,0,0,0,0,.13l.05.08h0l0,0h0Z"/>
        <path class="cls-2" d="M25.2,7.82h0a.38.38,0,0,1-.25-.09.43.43,0,0,1-.18-.3A.84.84,0,0,1,24.85,7a1.45,1.45,0,0,1,.33-.45h0s0,0,0-.06a.22.22,0,0,0,0-.08q0-.86,0-1.71a.25.25,0,0,1,0-.1.07.07,0,0,1,.06,0h.08l.13,0a.21.21,0,0,1,.14.18s0,.08,0,.11l0,1.19a1.67,1.67,0,0,0,.44-.72.19.19,0,0,1,0-.1.1.1,0,0,1,.05,0h.05a.05.05,0,0,1,0,.05.14.14,0,0,1,0,.09,2.09,2.09,0,0,1-.55.88l0,.06a.22.22,0,0,0,0,.08,2.55,2.55,0,0,0,0,.32c0,.11,0,.23,0,.35s0,.22,0,.34a1,1,0,0,1-.13.3A.37.37,0,0,1,25.2,7.82Zm-.14-.28,0,0A.93.93,0,0,0,25.23,7V7a1.31,1.31,0,0,0,0-.28A.86.86,0,0,0,25,7a.61.61,0,0,0-.05.35.29.29,0,0,0,.05.14S25,7.54,25.06,7.54Zm.37-3.11h0a.11.11,0,0,1-.11,0,.16.16,0,0,1-.08-.12.1.1,0,0,1,0-.09.18.18,0,0,1,.07-.05l.06,0h0a.23.23,0,0,1,.11,0,.22.22,0,0,1,.07.09s0,0,0,0a.2.2,0,0,1,0,.07A.21.21,0,0,1,25.43,4.43Z"/>
        <path class="cls-2" d="M26.63,6.18h0a.46.46,0,0,1-.23,0A.59.59,0,0,1,26.21,6a1,1,0,0,1-.16-.41V5.49a1.34,1.34,0,0,1,0-.6.64.64,0,0,1,.35-.49l.11,0a.48.48,0,0,1,.28,0,.8.8,0,0,1,.3.58,1.52,1.52,0,0,1,0,.48.58.58,0,0,0,.27-.38h0q0-.11.09-.12h0a.13.13,0,0,1,.07.09.26.26,0,0,1,0,.11.88.88,0,0,1-.3.42.33.33,0,0,1-.17.07,1.14,1.14,0,0,1-.15.34.69.69,0,0,1-.13.11A.33.33,0,0,1,26.63,6.18ZM26.69,6a.1.1,0,0,0,0,0,.73.73,0,0,0,.1-.28h0v0a.56.56,0,0,1-.25-.38.52.52,0,0,1,0-.11,2,2,0,0,1,0-.49,1.12,1.12,0,0,0-.11.5,1.91,1.91,0,0,0,0,.42.86.86,0,0,0,.06.23.32.32,0,0,0,.08.14s0,0,.08,0Zm.18-.52V5.21a.17.17,0,0,1,0-.07V5.06l0-.15a.93.93,0,0,0-.05-.14.34.34,0,0,0-.06-.12s0,.07,0,.1v.12a.28.28,0,0,0,0,.09.53.53,0,0,0,0,.13.44.44,0,0,0,0,.1.5.5,0,0,0,0,.13.35.35,0,0,0,.06.09h0l0,0h0Z"/>
        <path class="cls-2" d="M28.05,6S28,6,28,6h0a.44.44,0,0,1-.33-.13.54.54,0,0,1-.11-.23.23.23,0,0,1,0-.16l.05,0h0l.05,0a.08.08,0,0,1,0,0v.07a.27.27,0,0,0,.07.14.14.14,0,0,0,.22,0,.22.22,0,0,0,0-.18A.34.34,0,0,0,28,5.4a1.18,1.18,0,0,0-.11-.19l-.05-.07L27.73,5l-.09-.17-.08.26s0,0-.06,0a.08.08,0,0,1-.07,0,.08.08,0,0,1,0,0V5a3.37,3.37,0,0,1,.15-.48,1.51,1.51,0,0,1,.11-.22.44.44,0,0,1,.17-.16h0A.44.44,0,0,1,28,4.11a.62.62,0,0,1,.19,0h.08l0,0a.07.07,0,0,1,0,0v0a.08.08,0,0,1,0,0s0,0-.05,0h-.14a.13.13,0,0,0-.07.06h0l0,0a.33.33,0,0,0,0,.14.48.48,0,0,0,.07.2,1.88,1.88,0,0,0,.12.18,2.39,2.39,0,0,1,.13.21.75.75,0,0,1,.08.24.41.41,0,0,1,0,.11l.07-.11a2.56,2.56,0,0,0,.26-.58s0,0,.06-.05h0s.05,0,.05.07v0a2.41,2.41,0,0,1-.25.57,1.17,1.17,0,0,1-.45.46A.48.48,0,0,1,28.05,6Z"/>
      </g>
      <g>
        <path class="cls-1" d="M18.21,7.82a1,1,0,0,1-1-.78A1.05,1.05,0,0,1,17.68,6a.71.71,0,0,1,0-.29,1,1,0,0,1,.75-.75l.16,0h.09a.63.63,0,0,1,.63.45.61.61,0,0,1,0,.4.48.48,0,0,1,.26.51.55.55,0,0,1-.23.35.8.8,0,0,1,0,.46,1,1,0,0,1-.8.71A1.15,1.15,0,0,1,18.21,7.82Z"/>
        <path class="cls-15" d="M18.51,6.13h0a1,1,0,0,0-.26,0c-.78.19-.56,1.17,0,1s.44-.58.24-.65c-.17.08-.31.17-.28.31a.08.08,0,0,1,0,.05h0a.21.21,0,0,1-.14-.32c.19-.28,1.06-.39,1-.66,0,0,0,0,0,0h0a.19.19,0,0,1,.11.21c0,.13-.16.22-.33.3.24.23.19.83-.48,1A.74.74,0,1,1,18,6c-.27-.2-.06-.76.44-.88l.12,0a.34.34,0,0,1,.26.62l0,0c-.14,0-.3-.08-.21-.14s.22-.41,0-.38h-.05c-.36.09-.47.67-.07.66h.2C18.65,5.85,18.6,6.11,18.51,6.13Z"/>
      </g>
      <path class="cls-1" d="M7.15,7.93h0s-.16.2-.39.44l0,.05A7.59,7.59,0,0,1,6,9.09a5,5,0,0,1-.68.46L6.61,8.39Z"/>
      <path class="cls-16" d="M6.71,8.42s.69.25.53,1.42-.93-.5-.93-.5l-.08-.47"/>
    </g>
  </g>
</svg>
