<svg xmlns="http://www.w3.org/2000/svg" viewBox="0 0 35.14 15.09">
  <defs>
    <style>
      .cls-1 {
        fill: #0d0b03;
      }

      .cls-2 {
        fill: #f8d116;
      }

      .cls-3 {
        fill: #e4141d;
      }

      .cls-4 {
        fill: #49ad33;
      }

      .cls-5 {
        fill: #805f15;
      }

      .cls-6 {
        fill: #138f38;
      }

      .cls-7 {
        fill: #231a03;
      }

      .cls-8 {
        fill: #261c04;
      }

      .cls-9 {
        fill: #2e2307;
      }

      .cls-10 {
        fill: #322607;
      }

      .cls-11 {
        fill: #362907;
      }

      .cls-12 {
        fill: #291f06;
      }

      .cls-13 {
        fill: #392b08;
      }

      .cls-14 {
        fill: #3d2e0a;
      }

      .cls-15 {
        fill: #fff;
      }
    </style>
  </defs>
  <g id="Capa_2" data-name="Capa 2">
    <g id="Capa_1-2" data-name="Capa 1">
      <g>
        <path class="cls-1" d="M14.31,3.45a7.54,7.54,0,0,0-.3-.79c-.16-.34-.32-.68-.5-1a1.18,1.18,0,0,0-.67-.57A2.51,2.51,0,0,0,11.43,1,3.48,3.48,0,0,0,10,1.7,8.11,8.11,0,0,0,8.88,2.75l-.56.62L8,3A13.12,13.12,0,0,0,6.55,1.24a6.19,6.19,0,0,0-1.29-1A2.41,2.41,0,0,0,4.61,0,1,1,0,0,0,3.44.63a3.35,3.35,0,0,0-.16.54,5.3,5.3,0,0,0,0,1.54A15.07,15.07,0,0,0,4.43,6.59c.09.19.17.38.26.6l-.34-.07L3.12,6.81A5.1,5.1,0,0,0,2,6.61a1.54,1.54,0,0,0-.95.3A3,3,0,0,0,.16,8,1.51,1.51,0,0,0,0,9a2.46,2.46,0,0,0,.33.88,2,2,0,0,0,1.24.93,2.77,2.77,0,0,0,1,.08A3.54,3.54,0,0,0,3,10.83l.29-.08a6.3,6.3,0,0,0,.89-.34,9.09,9.09,0,0,0,.87-.47l.31-.19,0,0,.64-.43a7.78,7.78,0,0,0,.76-.69l.1.05a.87.87,0,0,1,.27.27l0,.06.53-.08c.6-.1,1.21-.22,1.8-.37A13.16,13.16,0,0,0,11.25,8a6.75,6.75,0,0,0,1.81-1.07,3.76,3.76,0,0,0,1.21-1.82A2.88,2.88,0,0,0,14.31,3.45ZM12.6,5.87,12.52,6h0c-.12.11-.24.22-.37.32a4,4,0,0,1-.48.32l-.14.09,0,0a2.72,2.72,0,0,1-.37.2c-.32.15-.65.28-1,.41s-.43.16-.65.23L9.6,7.5A7.56,7.56,0,0,0,11,6.56,1.84,1.84,0,0,0,11.37,6V6a1.16,1.16,0,0,0,.06-.15A.69.69,0,0,0,11,5a1.22,1.22,0,0,0-.43-.08l-.28,0A4.37,4.37,0,0,1,11,4.24a3.91,3.91,0,0,1,1-.61,2.16,2.16,0,0,1,.74-.15l.21,0,.28.06v0a2.1,2.1,0,0,1,.11.45,1.8,1.8,0,0,1-.15.88A2.67,2.67,0,0,1,12.6,5.87ZM4.43,9.3l.05-.21.17.09ZM2.5,10H2.38l.13-.19,0,0,.14.14ZM1.71,7.77a1.23,1.23,0,0,1,.77-.31h.06a3,3,0,0,1,.43,0l.58.12.22.05,0,0a7.67,7.67,0,0,1-.71.4,1.93,1.93,0,0,1-.74.18.78.78,0,0,1-.22,0A.91.91,0,0,1,1.5,8ZM4.6,4.85h0a2.31,2.31,0,0,1-.1-.28.49.49,0,0,0,0-.11l-.09-.29v0l0-.06h0l-.06-.23,0-.11-.06-.23a.43.43,0,0,1,0-.11l-.06-.24h0a.29.29,0,0,0,0-.09c0-.1,0-.2,0-.3s0-.07,0-.11H4a1.87,1.87,0,0,1,0-.25.57.57,0,0,0,0-.13H4c0-.08,0-.15,0-.22V1.93a1.27,1.27,0,0,1,0-.2V1.61a1.57,1.57,0,0,1,0-.23V1.31A.82.82,0,0,1,4.17,1,.27.27,0,0,1,4.4.89h0a1.05,1.05,0,0,1,.47.16,4.23,4.23,0,0,1,1,.78A9.25,9.25,0,0,1,7,3.09c.14.2.31.42.47.66a7,7,0,0,0-.94.33,5.41,5.41,0,0,0-1,.56,5.67,5.67,0,0,0-.75.57.76.76,0,0,0,0-.11s0-.08,0-.13Zm4.87-1.4v0h0ZM6.06,7.8l.3.08-.24.25Zm-.95.49L5,8.25,5.1,8.2ZM6.67,6.92l-.25-.07.2-.2Zm1.15-.75-.21.26-.06-.29ZM9,4.44h.07l0,.06Zm1.87-2.21.16-.08a.49.49,0,0,0,0,.12ZM8,5.17,8.12,5l0,.18Z"/>
        <path class="cls-1" d="M9.66,8.84a2,2,0,0,0-.08-.31c-.59.15-1.2.27-1.8.37a1.47,1.47,0,0,0-.1.22,2,2,0,0,1-.08.22L8,9.28l.71-.13c.31-.06.64-.14,1-.23A.19.19,0,0,1,9.66,8.84Z"/>
        <path class="cls-1" d="M14.31,3.45a7.54,7.54,0,0,0-.3-.79c-.16-.34-.32-.68-.5-1a1.18,1.18,0,0,0-.67-.57A2.51,2.51,0,0,0,11.43,1,3.48,3.48,0,0,0,10,1.7,8.11,8.11,0,0,0,8.88,2.75l-.56.62L8,3A13.12,13.12,0,0,0,6.55,1.24a6.19,6.19,0,0,0-1.29-1A2.41,2.41,0,0,0,4.61,0,1,1,0,0,0,3.44.63a3.35,3.35,0,0,0-.16.54,5.3,5.3,0,0,0,0,1.54A15.07,15.07,0,0,0,4.43,6.59c.09.19.17.38.26.6l-.34-.07L3.12,6.81A5.1,5.1,0,0,0,2,6.61a1.54,1.54,0,0,0-.95.3A3,3,0,0,0,.16,8,1.51,1.51,0,0,0,0,9a2.46,2.46,0,0,0,.33.88,2,2,0,0,0,1.24.93,2.77,2.77,0,0,0,1,.08A3.54,3.54,0,0,0,3,10.83l.29-.08a6.3,6.3,0,0,0,.89-.34,9.09,9.09,0,0,0,.87-.47l.31-.19,0,0,.64-.43a7.78,7.78,0,0,0,.76-.69l.1.05a.87.87,0,0,1,.27.27l0,.06.53-.08c.6-.1,1.21-.22,1.8-.37A13.16,13.16,0,0,0,11.25,8a6.75,6.75,0,0,0,1.81-1.07,3.76,3.76,0,0,0,1.21-1.82A2.88,2.88,0,0,0,14.31,3.45ZM12.24,1.5a.72.72,0,0,1,.6.25,1,1,0,0,1,.23.37,5.72,5.72,0,0,0,.24.57l0,0L11.9,1.52A.81.81,0,0,1,12.24,1.5Zm-.58.07,1.26,1.07c-.23,0-.42,0-.61,0s-.38.08-.57.12A7,7,0,0,1,11.66,1.57Zm-.23,0,0,.2.06,1h-.07l-1.31-.39-.13,0A3.36,3.36,0,0,1,11.43,1.58ZM11.32,3c-.21.14-.41.27-.59.41s-.36.28-.55.43a.29.29,0,0,1,0-.13C10.05,3.32,10,3,9.91,2.56ZM9.71,2.63c.1.46.19.88.27,1.32L8.64,3.78A11.49,11.49,0,0,1,9.71,2.63Zm.15,1.5c-.34.45-.67.88-1,1.32h0L8.53,4ZM6.55,8.27l-.09.09h0l-.06.05-.06.06-.13.12-.06.05h0l-.09.08,0,0,0,0,0,0h0l-.09.07c-.11-.58-.2-1.12-.29-1.68l1.56.46L7,7.84l-.08.09-.12.13-.12.12ZM5.37,7.34c.1.57.19,1.11.29,1.69l-.82-.42-.12-.07-.18-.1-.13-.07-.09,0A8.08,8.08,0,0,0,5.37,7.34ZM5,7c-.1-.23-.19-.41-.27-.6a.11.11,0,0,1,0-.11C4.84,6.15,4.89,6,5,6V6c0,.24,0,.48,0,.72A2.45,2.45,0,0,1,5,7Zm.87-.73c-.21.26-.43.5-.68.77V5.86ZM5.3,5.69a4.75,4.75,0,0,1,.89-.63l0,.36c0,.17,0,.33,0,.5S6,6.08,5.93,6Zm.36,1.36L6.87,5.8c.11.58.22,1.12.34,1.7ZM6.73,5.24l-.38.46,0,0c0-.2,0-.4.06-.62Zm-.28-.32a3.34,3.34,0,0,1,.73-.31,1.08,1.08,0,0,1-.35.49Zm.6.74,1.53.2c-.39.51-.77,1-1.18,1.46C7.26,6.77,7.15,6.22,7.05,5.66Zm1,1.52a.05.05,0,0,1,.05,0A2.57,2.57,0,0,0,8.58,7a6.28,6.28,0,0,0,1-.49A3.16,3.16,0,0,0,10.31,6a1.29,1.29,0,0,0,.16-.17.11.11,0,0,1,.19,0s-.06.12-.11.16l-.29.26-.56.4,0,0-.84.47-.74.34a1.54,1.54,0,0,1-.28.09Zm.28-3.06c.11.53.21,1,.31,1.55L7.16,5.48ZM4.64,5.89s0,0-.07.06c-.1-.25-.19-.48-.27-.71s-.23-.65-.33-1A9.51,9.51,0,0,1,3.55,2a3,3,0,0,1,.07-.79A1.14,1.14,0,0,1,3.86.71.67.67,0,0,1,4.44.48,1.55,1.55,0,0,1,5.1.69a4.71,4.71,0,0,1,1.09.85A11.57,11.57,0,0,1,7.31,2.85l.54.76L8,3.8a3.08,3.08,0,0,1-.24.27.17.17,0,0,1-.1.06,6.4,6.4,0,0,0-1,.33,5.94,5.94,0,0,0-1,.52A4.81,4.81,0,0,0,4.64,5.89ZM1.46,7.45a1.55,1.55,0,0,1,1.11-.39l.48.06,1.15.23c.17,0,.35.06.58.09-.29.22-.55.43-.82.61a5.7,5.7,0,0,1-.76.43A2,2,0,0,1,2,8.68a1.23,1.23,0,0,1-1-.75A1.56,1.56,0,0,1,1.46,7.45ZM.75,8.61l.56,1.47A1.45,1.45,0,0,1,.75,8.61Zm.78,1.5L1,8.76a2.31,2.31,0,0,0,1.19.42Zm1.75.16h0l-.05,0h0l-.05,0H3l-.1,0H2.71l-.29,0a1.23,1.23,0,0,1-.73-.14l0,0,.76-1.06,1,1ZM3.6,10,3.1,9.5,3,9.42c-.09-.1-.19-.2-.28-.31L3.15,9l.07,0,.14-.06h0l.28-.14,0,0,.07,0,0,0L4,8.52c0,.05,0,.09,0,.13l0,.13c-.09.32-.17.63-.26.94C3.66,9.83,3.63,9.93,3.6,10ZM5.12,9.4,3.9,10l-.11,0c.15-.54.29-1.06.43-1.59l1.26.67Zm8.47-4.32A3.58,3.58,0,0,1,12.4,6.61a5.54,5.54,0,0,1-.65.42,3.07,3.07,0,0,1-.46.27c-.33.15-.67.28-1,.42l-.17.06-.12,0h0l-.1,0-.13,0L9.61,8h0L9.45,8l0,0H9.34l-.13,0-.11,0h0L9,8.13H9l-.13,0-.62.14h0l-.32.06-.49.1-.14,0-.32.06v0h0c.14-.15.27-.3.41-.44h0A.27.27,0,0,1,7.4,8c.22-.08.44-.14.65-.24.45-.21.91-.42,1.35-.66a6.54,6.54,0,0,0,1.27-.88,1.41,1.41,0,0,0,.33-.4.61.61,0,0,0,.05-.12.3.3,0,0,0-.19-.39,1,1,0,0,0-.58,0,4.41,4.41,0,0,0-.85.27l-.19.06.36-.51a6.09,6.09,0,0,1,1.13-1.25,4.19,4.19,0,0,1,1.14-.66A2.35,2.35,0,0,1,13,3.09a1.45,1.45,0,0,1,.5.15.2.2,0,0,1,.08.08,3.27,3.27,0,0,1,.18.7A2.26,2.26,0,0,1,13.59,5.08Z"/>
        <path class="cls-2" d="M6.89,8.54c.14-.15.27-.3.41-.44A.27.27,0,0,1,7.4,8c.22-.08.44-.14.65-.24.45-.21.91-.42,1.35-.66a6.54,6.54,0,0,0,1.27-.88,1.41,1.41,0,0,0,.33-.4.61.61,0,0,0,.05-.12.3.3,0,0,0-.19-.39,1,1,0,0,0-.58,0,4.41,4.41,0,0,0-.85.27l-.19.06.36-.51a6.09,6.09,0,0,1,1.13-1.25,4.19,4.19,0,0,1,1.14-.66A2.35,2.35,0,0,1,13,3.09a1.45,1.45,0,0,1,.5.15.2.2,0,0,1,.08.08,3.27,3.27,0,0,1,.18.7,2.26,2.26,0,0,1-.18,1.06A3.58,3.58,0,0,1,12.4,6.61a5.54,5.54,0,0,1-.65.42,3.07,3.07,0,0,1-.46.27c-.33.15-.67.28-1,.41a12.55,12.55,0,0,1-2.07.6c-.43.1-.87.17-1.3.26Zm5.3-2.06,0,0a1.31,1.31,0,0,0,.36-.3,1,1,0,0,0,.07-.15.15.15,0,0,0-.07-.2ZM12,5.81l-.24.52A.57.57,0,0,0,12.08,6,.18.18,0,0,0,12,5.81Zm-.38,0a.85.85,0,0,0-.21.37C11.64,6.11,11.69,6,11.63,5.84Z"/>
        <path class="cls-2" d="M4.57,6c-.1-.25-.19-.48-.27-.71s-.23-.65-.33-1A9.51,9.51,0,0,1,3.55,2a3,3,0,0,1,.07-.79A1.14,1.14,0,0,1,3.86.71.67.67,0,0,1,4.44.48,1.55,1.55,0,0,1,5.1.69a4.71,4.71,0,0,1,1.09.85A11.57,11.57,0,0,1,7.31,2.85l.54.76L8,3.8a3.08,3.08,0,0,1-.24.27.17.17,0,0,1-.1.06,6.4,6.4,0,0,0-1,.33,5.94,5.94,0,0,0-1,.52,4.81,4.81,0,0,0-1.05.91S4.61,5.92,4.57,6ZM4.39,4.62a1.25,1.25,0,0,0,.48-.35.43.43,0,0,0-.48.36h0ZM5.2,5a.4.4,0,0,0-.33.08.57.57,0,0,0-.18.38Zm-.69.07A5.49,5.49,0,0,0,5,4.63.5.5,0,0,0,4.51,5.07Zm.15-1.45c-.23-.09-.4,0-.51.31ZM4.75,4a.33.33,0,0,0-.46.27Zm-.2-.68a.33.33,0,0,0-.45.29Zm-.62-.44.43-.27C4.18,2.49,4,2.57,3.93,2.84ZM4,3.23l.45-.29C4.29,2.85,4.13,2.94,4,3.23Zm.26-1c-.2-.08-.34,0-.41.24Zm-.1-.32a.27.27,0,0,0-.37.23Zm-.41-.08.36-.22C3.94,1.57,3.82,1.64,3.76,1.85Zm.3-.5c-.18-.05-.26,0-.31.16Z"/>
        <path class="cls-2" d="M4.78,7.44c-.29.22-.55.43-.82.61a5.7,5.7,0,0,1-.76.43A2,2,0,0,1,2,8.68a1.23,1.23,0,0,1-1-.75,1.56,1.56,0,0,1,.44-.48,1.55,1.55,0,0,1,1.11-.39l.48.06,1.15.23C4.37,7.39,4.55,7.41,4.78,7.44Z"/>
        <path class="cls-3" d="M7.11,7.68A8.63,8.63,0,0,1,5.84,8.9c-.11-.58-.2-1.12-.29-1.68Z"/>
        <path class="cls-3" d="M7.4,7.32c-.14-.55-.25-1.1-.35-1.66l1.53.2C8.19,6.37,7.81,6.85,7.4,7.32Z"/>
        <path class="cls-4" d="M6.93,5.8l.34,1.7L5.72,7.05Z"/>
        <path class="cls-3" d="M3.79,10.08l.43-1.59,1.26.67-.36.24L3.9,10Z"/>
        <path class="cls-3" d="M2.47,9.17l1,1a2.41,2.41,0,0,1-1,.21,1.25,1.25,0,0,1-.73-.14l0,0Z"/>
        <path class="cls-4" d="M8.42,4.12l.32,1.55L7.23,5.48Z"/>
        <path class="cls-4" d="M10.08,2.38a3.3,3.3,0,0,1,1.42-.8,1.5,1.5,0,0,1,0,.2l.06,1h-.06l-1.31-.39Z"/>
        <path class="cls-4" d="M5.72,9c-.46-.24-.89-.46-1.34-.71a7,7,0,0,0,1-1Z"/>
        <path class="cls-3" d="M8.83,5.44,8.53,4l1.33.17-1,1.32Z"/>
        <path class="cls-4" d="M9.78,2.63c.1.46.18.88.26,1.32L8.71,3.78A10.42,10.42,0,0,1,9.78,2.63Z"/>
        <path class="cls-3" d="M9.91,2.56,11.32,3c-.21.14-.41.27-.59.41s-.36.28-.55.43a.29.29,0,0,1,0-.13C10.05,3.32,10,3,9.91,2.56Z"/>
        <path class="cls-4" d="M3.66,10,2.8,9.11a3.68,3.68,0,0,0,1.27-.59Z"/>
        <path class="cls-3" d="M11.66,1.57l1.26,1.07c-.23,0-.42,0-.61,0s-.38.08-.57.12A7,7,0,0,1,11.66,1.57Z"/>
        <path class="cls-4" d="M1.08,8.76a2.25,2.25,0,0,0,1.19.42l-.68.93Z"/>
        <path class="cls-5" d="M7.8,7.53l.28-.35a.05.05,0,0,1,.05,0A2.57,2.57,0,0,0,8.58,7a6.28,6.28,0,0,0,1-.49A3.16,3.16,0,0,0,10.31,6a1.29,1.29,0,0,0,.16-.17.11.11,0,0,1,.19,0s-.06.12-.11.16l-.29.26-.56.4,0,0-.84.47-.74.34A1.54,1.54,0,0,1,7.8,7.53Z"/>
        <path class="cls-4" d="M13.29,2.71,11.9,1.52a.81.81,0,0,1,.34,0,.72.72,0,0,1,.6.25,1,1,0,0,1,.23.37,5.72,5.72,0,0,0,.24.57Z"/>
        <path class="cls-4" d="M5.3,5.69a4.75,4.75,0,0,1,.89-.63l0,.36c0,.17,0,.33,0,.5S6,6.08,5.93,6Z"/>
        <path class="cls-3" d="M5.21,7V5.86l.68.36C5.68,6.48,5.46,6.72,5.21,7Z"/>
        <path class="cls-3" d="M.75,8.61l.56,1.47A1.45,1.45,0,0,1,.75,8.61Z"/>
        <path class="cls-4" d="M5,6c0,.24,0,.48,0,.72A2.45,2.45,0,0,1,5,7c-.1-.23-.19-.41-.27-.6a.11.11,0,0,1,0-.11C4.84,6.15,4.89,6,5,6Z"/>
        <path class="cls-4" d="M6.83,5.1l-.38-.18a3.34,3.34,0,0,1,.73-.31A1.08,1.08,0,0,1,6.83,5.1Z"/>
        <path class="cls-3" d="M6.31,5.68l.06-.62.36.18-.38.46Z"/>
        <path class="cls-6" d="M5,6V6Z"/>
        <path class="cls-7" d="M12.19,6.48l.39-.62a.15.15,0,0,1,.07.2,1,1,0,0,1-.07.15,1.31,1.31,0,0,1-.36.3Z"/>
        <path class="cls-8" d="M12,5.81a.18.18,0,0,1,.07.21.57.57,0,0,1-.31.31Z"/>
        <path class="cls-9" d="M11.63,5.84c.06.19,0,.27-.21.37A.85.85,0,0,1,11.63,5.84Z"/>
        <path class="cls-10" d="M5.2,5l-.51.46a.57.57,0,0,1,.18-.38A.4.4,0,0,1,5.2,5Z"/>
        <path class="cls-11" d="M4.51,5.07A.5.5,0,0,1,5,4.63,5.49,5.49,0,0,1,4.51,5.07Z"/>
        <path class="cls-12" d="M4.39,4.63a.43.43,0,0,1,.48-.36,1.25,1.25,0,0,1-.48.35Z"/>
        <path class="cls-13" d="M4.66,3.62l-.51.31C4.26,3.64,4.43,3.53,4.66,3.62Z"/>
        <path class="cls-9" d="M4.75,4l-.46.27A.33.33,0,0,1,4.75,4Z"/>
        <path class="cls-10" d="M4.55,3.28l-.45.29A.33.33,0,0,1,4.55,3.28Z"/>
        <path class="cls-11" d="M3.93,2.84c.11-.27.25-.35.43-.27Z"/>
        <path class="cls-11" d="M4,3.23c.12-.29.28-.38.45-.29Z"/>
        <path class="cls-14" d="M4.27,2.25l-.41.24C3.93,2.26,4.07,2.17,4.27,2.25Z"/>
        <path class="cls-14" d="M4.17,1.93l-.37.23A.27.27,0,0,1,4.17,1.93Z"/>
        <path class="cls-10" d="M3.76,1.85c.06-.21.18-.28.36-.22Z"/>
        <path class="cls-14" d="M4.06,1.35l-.31.16C3.8,1.35,3.88,1.3,4.06,1.35Z"/>
        <path class="cls-12" d="M4.39,4.62v0h0Z"/>
      </g>
      <g>
        <path class="cls-1" d="M9.85,15.09A1.51,1.51,0,0,1,9.23,15h0a1.55,1.55,0,0,1-.72-1.19h0a6.86,6.86,0,0,1-.06-1.28c0-.37,0-.76.06-1.13s0-.62,0-.92c0-.13,0-.26,0-.37l-.06.19h0A13.24,13.24,0,0,0,8,13.61a.86.86,0,0,1,0,.23.64.64,0,0,1-.24.38.56.56,0,0,1-.29.12h-.2a1.25,1.25,0,0,1-.32,0,1,1,0,0,1-.74-.89,2.54,2.54,0,0,1,0-.48l.07-2.26a5.61,5.61,0,0,0-.19.67h0a13.48,13.48,0,0,0-.38,2.9A.72.72,0,0,1,5.3,15h0l-.1,0H5a1.19,1.19,0,0,1-.75-.26h0a.93.93,0,0,1-.27-.56,1.24,1.24,0,0,1,0-.43Q4,12.41,4,11.06v-.28l.26-.12a7.12,7.12,0,0,0,.82-.42l0,0,.08-.05.44-.27.51-.33h0l.26-.18.08-.05h0a.47.47,0,0,1,.15-.06l.15-.09,0,.07.53-.06.19,0h0a2.44,2.44,0,0,1,.1-.24,2.91,2.91,0,0,1,.47-.69l0,0A1.42,1.42,0,0,1,9,7.74h.41a1.64,1.64,0,0,1,.33.14,1.26,1.26,0,0,1,.56.68,1.76,1.76,0,0,1,.11.41s0,.06,0,.1h0a1.7,1.7,0,0,1,0,.39q0,.9-.06,1.8c0,.45-.06.9-.07,1.35a7.85,7.85,0,0,0,.07,1.28.56.56,0,0,1,.36.44.54.54,0,0,1,0,.33h0a.71.71,0,0,1-.55.39H9.85Z"/>
        <path class="cls-1" d="M6.08,9.14A7.17,7.17,0,0,0,6.8,8.5L7,8.28l.28.12.15.07h0a1.13,1.13,0,0,1,.42.42.56.56,0,0,1,0,.08l.3.56-.63.1-.19,0-.59.07h0l-.19.13Z"/>
        <path class="cls-1" d="M11.55,13.65h-.08a1.55,1.55,0,0,1-.85-.34,1.93,1.93,0,0,1-.69-1.25,2.75,2.75,0,0,1,0-1A2.92,2.92,0,0,1,10.34,10h0a1.75,1.75,0,0,1,1-.78h0l.17,0,.19,0a1,1,0,0,1,.43.1,1,1,0,0,1,.43.38,1.19,1.19,0,0,1,.17.49,1.14,1.14,0,0,1,0,.45.67.67,0,0,1,.31-.15h.08a.6.6,0,0,1,.51.28.58.58,0,0,1,.09.26c0,.18,0,.41-.29,1a5.28,5.28,0,0,1-.27.53,2.26,2.26,0,0,1-.84.89,1.69,1.69,0,0,1-.57.2ZM11.72,12a.79.79,0,0,0,.06.22.25.25,0,0,0,.1-.08h0a1.82,1.82,0,0,0,.36-.51l.08-.17a2.39,2.39,0,0,1-.22.23Z"/>
        <path class="cls-1" d="M14,13.31a.59.59,0,0,1-.4-.16.74.74,0,0,1-.2-.38v0a.83.83,0,0,1,.05-.35l.16-.55c.08-.27.12-.42.14-.5a.57.57,0,0,1-.43.3h-.09a.62.62,0,0,1-.37-.13.6.6,0,0,1-.24-.4,1,1,0,0,1,0-.43l0,0c.06-.26.12-.53.17-.8h0a.79.79,0,0,0,0-.2l0-.07h0a.66.66,0,0,1,.52-.74,1.18,1.18,0,0,1,.31-.08h.14l.21,0h0a1,1,0,0,1,.53.37v0a1.14,1.14,0,0,1,.12-.22A.7.7,0,0,1,15,8.66h.15a.64.64,0,0,1,.47.21.87.87,0,0,1,.21.43,1,1,0,0,1,0,.44c0,.09-.07.19-.11.28l-.36.76c.07.14.14.29.22.43l0,0a6,6,0,0,0,.21-.69,1.12,1.12,0,0,1,.1-.31.65.65,0,0,1,.46-.33h.1a.58.58,0,0,1,.39.15.67.67,0,0,1,.2.38v0h0a1,1,0,0,1-.05.38l-.26.89a2.75,2.75,0,0,1-.31.76,1.2,1.2,0,0,1-.8.56h0l-.17,0A1.06,1.06,0,0,1,15,13a1.54,1.54,0,0,1-.42-.26,1.55,1.55,0,0,1-.08.23.66.66,0,0,1-.47.34Z"/>
        <path class="cls-1" d="M16.91,12.83a1.09,1.09,0,0,1-.53-.13h0a1.22,1.22,0,0,1-.52-.64,1.64,1.64,0,0,1-.1-.38,1.22,1.22,0,0,1,0-.26h0a7.37,7.37,0,0,1,0-.94c0-.3.05-.6.08-.9h0a1.1,1.1,0,0,0,0-.18.57.57,0,0,0,0-.13V9.11a.64.64,0,0,1,.08-.46.18.18,0,0,1,.05-.07l0-.07a.75.75,0,0,1,0-.16A.64.64,0,0,1,16,7.87a.81.81,0,0,1,.33-.28,1.07,1.07,0,0,1,.25-.07h.12a.65.65,0,0,1,.43.14.79.79,0,0,1,.29.34.81.81,0,0,1,.07.22.72.72,0,0,1-.05.38h0l-.07.11,0,0,0,0a1,1,0,0,1,.15.4,1.41,1.41,0,0,1,0,.41l0,.37V10a1,1,0,0,1,.15-.2l0,0h0a.5.5,0,0,1,.28-.12H18a.73.73,0,0,1,.29.07.61.61,0,0,1,.29.36l0,.06v0a.89.89,0,0,1,0,.36,11.28,11.28,0,0,1-.46,1.39,1.6,1.6,0,0,1-.39.59l0,0,0,0a1.2,1.2,0,0,1-.57.24h-.22Z"/>
        <path class="cls-1" d="M18.85,12.56h-.19a1.48,1.48,0,0,1-.81-.4A1.9,1.9,0,0,1,17.27,11a3.62,3.62,0,0,1,0-.57,3.09,3.09,0,0,1,.07-.52,2.74,2.74,0,0,1,.33-1,1.8,1.8,0,0,1,.81-.78h0a1.42,1.42,0,0,1,.35-.11H19a1.06,1.06,0,0,1,.6.18h0a1.19,1.19,0,0,1,.46.8,1.54,1.54,0,0,1,0,.48l0,0h0a.66.66,0,0,1,.33-.17h.09a.52.52,0,0,1,.29.09l0,0,0,0a.64.64,0,0,1,.2.4.81.81,0,0,1,0,.38h0a5.07,5.07,0,0,1-.53,1.13,3,3,0,0,1-.7.83h0a1.75,1.75,0,0,1-.79.35Zm.2-2.22a2.41,2.41,0,0,0,0,.38h0a1.1,1.1,0,0,0,0,.18,1.42,1.42,0,0,0,.05.22,1.27,1.27,0,0,0,.37-.39,3.2,3.2,0,0,0,.34-.63.78.78,0,0,1-.4.26h-.14a.59.59,0,0,1-.23,0Z"/>
        <path class="cls-1" d="M21.09,12.22a1.1,1.1,0,0,1-.84-.39h0a1.58,1.58,0,0,1-.33-.72,2.61,2.61,0,0,1-.06-.27,3.81,3.81,0,0,1,0-.59,5.44,5.44,0,0,1,0-.57,4.31,4.31,0,0,1,.1-.61,2.51,2.51,0,0,1,.25-.63,1.43,1.43,0,0,1,.59-.58h0a1.65,1.65,0,0,1,.36-.11h.44l0,0,0,0A.71.71,0,0,1,22,7.5h.24l.32,0h0a.87.87,0,0,1,.64.73,4.38,4.38,0,0,1,0,.87.55.55,0,0,1,.18-.22.75.75,0,0,1,.3-.14h.09a.57.57,0,0,1,.53.35v0a1,1,0,0,1,.05.16,1,1,0,0,1,0,.24h0a8.39,8.39,0,0,1-.47,1.47,1.85,1.85,0,0,1-.37.58h0l0,0a1.19,1.19,0,0,1-.6.28h-.18a1.2,1.2,0,0,1-.55-.13h0l-.15-.1a1.15,1.15,0,0,1-.21.23,1,1,0,0,1-.54.26h-.1Z"/>
        <path class="cls-1" d="M23.85,11.79h-.06a.76.76,0,0,1-.52-.27h0l0,0a.71.71,0,0,1-.13-.34.93.93,0,0,1,0-.23c0-.63,0-1.25,0-1.85V7.83a.58.58,0,0,1,.18-.45.63.63,0,0,1,.34-.15h.19a1.32,1.32,0,0,1,.53.1.88.88,0,0,1,.25.18,1.29,1.29,0,0,1,.16-.17.93.93,0,0,1,.51-.24l.15,0a1,1,0,0,1,.67.26h0v0a1.22,1.22,0,0,1,.34.73h0v0c0,.17,0,.34,0,.5A.62.62,0,0,1,27,8.3H27a.62.62,0,0,1,.61.5h0v0a1,1,0,0,1,0,.38c-.05.24-.11.47-.18.7a4.09,4.09,0,0,1-.31.75,1.36,1.36,0,0,1-1,.78l-.16,0a1.15,1.15,0,0,1-.41-.08,1.09,1.09,0,0,1-.46-.33A1.2,1.2,0,0,1,25,10.8a1.91,1.91,0,0,1-.06.33.86.86,0,0,1-.73.63h0Z"/>
        <path class="cls-1" d="M27.79,11.23a1.31,1.31,0,0,1-.61-.15,1.55,1.55,0,0,1-.49-.43h0a2.52,2.52,0,0,1-.4-1l0-.16h0a3.51,3.51,0,0,1,.05-1.38,1.76,1.76,0,0,1,1-1.3h0a1.16,1.16,0,0,1,.32-.08l.21,0a1.31,1.31,0,0,1,.63.16h0A1.88,1.88,0,0,1,29.23,8a.68.68,0,0,1,.31-.13h.2l.07,0a.67.67,0,0,1,.41.52v.08a1,1,0,0,1-.08.38A2.17,2.17,0,0,1,29.37,10a1,1,0,0,1-.23.12,2.13,2.13,0,0,1-.3.58h0a1.65,1.65,0,0,1-.37.33,1.13,1.13,0,0,1-.5.19l-.07,0h-.1Z"/>
        <path class="cls-1" d="M31.53,11l-.38,0a4.25,4.25,0,0,1-1.07-.23h0a1.32,1.32,0,0,1-.54-.4,1.33,1.33,0,0,1-.26-.61.83.83,0,0,1,.1-.62A.42.42,0,0,1,29.23,9,.57.57,0,0,1,29,8.62a.71.71,0,0,1,0-.29c.09-.33.2-.66.31-1a3.73,3.73,0,0,1,.26-.53,1.36,1.36,0,0,1,.53-.48,1.77,1.77,0,0,1,.46-.15h.21a1.52,1.52,0,0,1,.59.12h0a.62.62,0,0,1,.32.32A1.5,1.5,0,0,1,32,6.26a2,2,0,0,1,.62-.38h0a2.09,2.09,0,0,1,.46-.12,1.51,1.51,0,0,1,.3,0,1.77,1.77,0,0,1,.69.14,1.72,1.72,0,0,1,.71.63,2.13,2.13,0,0,1,.35.92,3.05,3.05,0,0,1-.26,1.73h0a2.78,2.78,0,0,1-.91,1.08,3.48,3.48,0,0,1-1,.5,4,4,0,0,1-.68.16A4.14,4.14,0,0,1,31.53,11Zm-.37-3.49a.63.63,0,0,0,.08.22,3.23,3.23,0,0,0,.18.28h0c.14.2.25.37.34.52a1.8,1.8,0,0,1,.21.63,1.2,1.2,0,0,1,0,.5,2,2,0,0,0,1.09-.48,2,2,0,0,0,.52-1.11,1.52,1.52,0,0,0,0-.56c0-.27-.13-.32-.17-.34h0l0,.06a.27.27,0,0,0,0,.12v.16a.43.43,0,0,1,.09.22.51.51,0,0,1-.37.57l-.18.05h-.19a1.13,1.13,0,0,1-.45-.09,1.11,1.11,0,0,1-.43-.37,1,1,0,0,1-.2-.49.13.13,0,0,1,0-.06.64.64,0,0,1-.33.16Z"/>
        <path class="cls-15" d="M10,14.2s-.05-.09-.13-.11a.31.31,0,0,1-.19-.16,1.16,1.16,0,0,1,0-.18,7.71,7.71,0,0,1-.08-1.36c0-.45,0-.91.07-1.36s.07-1.18.07-1.77c0-.11,0-.22,0-.34a.19.19,0,0,1,0-.08,2,2,0,0,0-.08-.31.91.91,0,0,0-.37-.46A.85.85,0,0,0,9,8H9a.46.46,0,0,0-.2,0,1,1,0,0,0-.57.32v0a2.31,2.31,0,0,0-.4.58,1.47,1.47,0,0,0-.1.22,2,2,0,0,1-.08.22,6.29,6.29,0,0,0-.2.71c0-.12,0-.23,0-.35a1.63,1.63,0,0,0,0-.31h0l-.25,0-.59.07h0l-.07,0a.13.13,0,0,1,0,.06.65.65,0,0,1,0,.24l-.08,2.91a1.67,1.67,0,0,0,0,.39.58.58,0,0,0,.42.53.72.72,0,0,0,.29,0h0l.09,0a.16.16,0,0,0,.07-.11.66.66,0,0,0,0-.14,13.8,13.8,0,0,1,.48-3.5,4.42,4.42,0,0,1,.15-.48L8,9.28A2.38,2.38,0,0,1,8.17,9a.35.35,0,0,1,.2-.16h0a.21.21,0,0,1,.15,0,.45.45,0,0,1,.17.3h0a7.14,7.14,0,0,1,0,1c0,.32,0,.63-.05,1s-.05.73-.06,1.1a8.18,8.18,0,0,0,.06,1.21,1.14,1.14,0,0,0,.49.87,1,1,0,0,0,.55.09h.08a.24.24,0,0,0,.2-.12A.14.14,0,0,0,10,14.2ZM5.2,10.35c0,.18-.09.35-.13.53,0-.15,0-.3,0-.46a8.85,8.85,0,0,1-.87.45c0,.9-.06,1.81-.12,2.72a1.71,1.71,0,0,0,0,.32.48.48,0,0,0,.15.3.65.65,0,0,0,.47.15h.13c.09,0,.14-.14.13-.3a15.22,15.22,0,0,1,.39-3,8.35,8.35,0,0,1,.3-1Z"/>
        <path class="cls-15" d="M7.25,9,7.07,9l-.57.06a.58.58,0,0,0-.22.08l-.19.14a7.78,7.78,0,0,0,.76-.69l.1.05a.87.87,0,0,1,.27.27Z"/>
        <path class="cls-15" d="M11.44,13h-.2a1.07,1.07,0,0,1-.6-.24,1.48,1.48,0,0,1-.54-1,2.45,2.45,0,0,1,0-.85,2.41,2.41,0,0,1,.32-.91,1.39,1.39,0,0,1,.76-.59l.12,0a.61.61,0,0,1,.36,0,.56.56,0,0,1,.24.22A1,1,0,0,1,12,10a1.19,1.19,0,0,1-.12.68,1.74,1.74,0,0,1-.38.47,6,6,0,0,1-.49.39l-.06.06a.8.8,0,0,0,0,.26,1.54,1.54,0,0,0,.22.57.46.46,0,0,0,.32.07.82.82,0,0,0,.41-.24,2.47,2.47,0,0,0,.44-.63,6.52,6.52,0,0,0,.29-.73c0-.13.1-.21.18-.22a.17.17,0,0,1,.17.15,2.14,2.14,0,0,1-.26.81c-.08.17-.16.33-.25.49a1.88,1.88,0,0,1-.67.72A1.56,1.56,0,0,1,11.44,13ZM11,11.16a1.82,1.82,0,0,0,.59-.58.89.89,0,0,0,.14-.35.28.28,0,0,0,0-.13.49.49,0,0,0-.06-.17.12.12,0,0,0-.12-.07.2.2,0,0,0-.15.11,1.74,1.74,0,0,0-.34.8Z"/>
        <path class="cls-15" d="M15.26,12.41a.7.7,0,0,1-.35,0,1.21,1.21,0,0,1-.3-.2,2.17,2.17,0,0,1-.24-.29c-.06-.11-.13-.22-.18-.33a3.8,3.8,0,0,0-.29.82,1.27,1.27,0,0,1-.06.18.21.21,0,0,1-.14.1.17.17,0,0,1-.11,0,.23.23,0,0,1-.06-.12.63.63,0,0,1,0-.19l.16-.54a3.2,3.2,0,0,0,.18-.7s-.2-.45-.59-1.28l-.21,1c0,.14-.08.22-.16.24a.2.2,0,0,1-.13,0,.15.15,0,0,1-.06-.11.41.41,0,0,1,0-.22l0-.07c.06-.28.12-.56.17-.84a.82.82,0,0,0,0-.37V9.25c0-.11.06-.19.23-.24l.22-.07h.18a.47.47,0,0,1,.27.19,1.34,1.34,0,0,1,.17.31l.24.55.38-.92A.63.63,0,0,1,14.76,9a.19.19,0,0,1,.11-.07A.18.18,0,0,1,15,9a.34.34,0,0,1,.09.19.45.45,0,0,1,0,.23,2.14,2.14,0,0,1-.1.22l-.39.84a.39.39,0,0,0,0,.14.16.16,0,0,0,0,.09,5.28,5.28,0,0,0,.27.53,2.38,2.38,0,0,0,.34.49.16.16,0,0,0,.08.06.09.09,0,0,0,.09,0c.07,0,.12-.07.17-.18A6.05,6.05,0,0,0,16,10.43a.48.48,0,0,1,.06-.18.18.18,0,0,1,.14-.1.11.11,0,0,1,.11,0,.17.17,0,0,1,.05.12.35.35,0,0,1,0,.2l-.26.91a2.39,2.39,0,0,1-.26.65A.78.78,0,0,1,15.26,12.41Z"/>
        <path class="cls-15" d="M16.8,12.15h-.06a.67.67,0,0,1-.42-.07.79.79,0,0,1-.34-.4,1.63,1.63,0,0,1-.07-.3,1.81,1.81,0,0,1,0-.23,6.46,6.46,0,0,1,0-.88c0-.3,0-.59.08-.88a1.79,1.79,0,0,0,0-.23A.81.81,0,0,0,16,9l0-.12c0-.13,0-.21.14-.22h.24a.56.56,0,0,1,.38.19.49.49,0,0,1,.08.21.94.94,0,0,1,0,.29l0,.37A12,12,0,0,0,16.68,11a1.15,1.15,0,0,0,0,.26.76.76,0,0,0,.08.23.13.13,0,0,0,.14.06.26.26,0,0,0,.17-.15,2.47,2.47,0,0,0,.23-.46l.15-.49c0-.13.07-.25.11-.37a.35.35,0,0,1,.09-.16l.07,0a.19.19,0,0,1,.1,0,.1.1,0,0,1,.07.08v0a.26.26,0,0,1,0,.15,11,11,0,0,1-.45,1.37,1.23,1.23,0,0,1-.28.43A.82.82,0,0,1,16.8,12.15Zm-.39-3.76h-.13A.41.41,0,0,1,16,8.14s0,0,0-.06a.21.21,0,0,1,0-.17.26.26,0,0,1,.14-.11.55.55,0,0,1,.13,0h0a.3.3,0,0,1,.21,0A.43.43,0,0,1,16.7,8l0,.08a.34.34,0,0,1,0,.14A.45.45,0,0,1,16.41,8.39Z"/>
        <path class="cls-15" d="M18.74,11.89a.88.88,0,0,1-.28,0,1,1,0,0,1-.57-.27,1.51,1.51,0,0,1-.44-.87,2.43,2.43,0,0,1,0-.47,2.54,2.54,0,0,1,.07-.47A2.47,2.47,0,0,1,17.78,9a1.36,1.36,0,0,1,.62-.59.88.88,0,0,1,.23-.07.64.64,0,0,1,.48.09.77.77,0,0,1,.29.51,1,1,0,0,1-.14.64.35.35,0,0,1-.21.16.16.16,0,0,1-.1,0,.13.13,0,0,1-.09-.11.12.12,0,0,1,0-.1.54.54,0,0,1,.05-.11A.57.57,0,0,0,19,9,.44.44,0,0,0,19,8.81c0-.05-.06-.07-.09-.06a.1.1,0,0,0-.08.05,1.45,1.45,0,0,0-.33.64,3.32,3.32,0,0,0-.12,1.09,1.94,1.94,0,0,0,0,.24,1.69,1.69,0,0,0,.13.42.4.4,0,0,0,.2.22.33.33,0,0,0,.14,0l.13,0a1.58,1.58,0,0,0,.65-.6,4.24,4.24,0,0,0,.48-.95v0a.37.37,0,0,1,.11-.19.17.17,0,0,1,.11-.06.07.07,0,0,1,.06,0,.21.21,0,0,1,.07.14.4.4,0,0,1,0,.19,5.8,5.8,0,0,1-.49,1,2.32,2.32,0,0,1-.61.71A1.25,1.25,0,0,1,18.74,11.89Z"/>
        <path class="cls-15" d="M20.86,11.56h0a.68.68,0,0,1-.52-.23,1.32,1.32,0,0,1-.24-.54,1.69,1.69,0,0,1,0-.24A3,3,0,0,1,20,10a4.53,4.53,0,0,1,0-.52A5.43,5.43,0,0,1,20.11,9a2.28,2.28,0,0,1,.21-.51,1,1,0,0,1,.41-.4A.88.88,0,0,1,21,8a1.61,1.61,0,0,1,.72.09l0-.12a.23.23,0,0,1,0-.16l.1,0h.12l.27,0a.41.41,0,0,1,.31.37,4.81,4.81,0,0,1,0,.83q0,.36-.06.72a4.17,4.17,0,0,0,0,.79.35.35,0,0,0,0,.11.18.18,0,0,0,.15.1h0a.22.22,0,0,0,.15-.1,1.22,1.22,0,0,0,.2-.35,7.5,7.5,0,0,0,.3-.95.56.56,0,0,1,0-.12.31.31,0,0,1,.07-.09A.21.21,0,0,1,23.45,9a.14.14,0,0,1,.15.15.14.14,0,0,1,0,.09,8.46,8.46,0,0,1-.45,1.4,1.53,1.53,0,0,1-.27.44.81.81,0,0,1-.38.17.75.75,0,0,1-.46-.07.77.77,0,0,1-.28-.26.81.81,0,0,1-.14-.35.57.57,0,0,1,0-.13,2.41,2.41,0,0,0-.08.25,2.9,2.9,0,0,1-.16.41.9.9,0,0,1-.21.27A.61.61,0,0,1,20.86,11.56Zm.11-.63.06,0a.16.16,0,0,0,0-.07l0,0a3,3,0,0,0,.12-.31,1,1,0,0,0,.06-.21h0a13.87,13.87,0,0,0,.27-1.52l0-.15a.11.11,0,0,0,0-.06.12.12,0,0,1,.07-.11l-.1,0h-.17l0,0h0l0,0-.07.05h0a.91.91,0,0,0-.11.16v0s0,0-.06.12L21,9l0,.1a4.31,4.31,0,0,0-.11.94v.12c0,.15,0,.3,0,.45l0,.19A.49.49,0,0,0,21,10.93Z"/>
        <path class="cls-15" d="M23.84,11.11l-.29,0a.27.27,0,0,1-.2-.11.26.26,0,0,1-.07-.15.75.75,0,0,1,0-.15c0-.63,0-1.25,0-1.85V7.62a.16.16,0,0,1,0-.11.18.18,0,0,1,.11,0,1,1,0,0,1,.46,0,.4.4,0,0,1,.24.32s0,.09,0,.13,0,.42,0,1.12a6.25,6.25,0,0,1,.17-.72,2.76,2.76,0,0,1,.29-.66,1.06,1.06,0,0,1,.2-.26.56.56,0,0,1,.28-.13.59.59,0,0,1,.46.15.77.77,0,0,1,.22.48,7,7,0,0,1,0,1c0,.24,0,.49,0,.74a1.49,1.49,0,0,0,0,.21,2.25,2.25,0,0,0,.05.22.56.56,0,0,0,.05.08.12.12,0,0,0,.09,0,.16.16,0,0,0,.08-.06,1.13,1.13,0,0,0,.22-.36,4.36,4.36,0,0,0,.3-1c0-.17.07-.27.18-.28a.15.15,0,0,1,.17.14.46.46,0,0,1,0,.2c-.05.23-.1.46-.17.69a3.42,3.42,0,0,1-.27.65,1,1,0,0,1-.66.56.75.75,0,0,1-.33,0,.63.63,0,0,1-.28-.2.6.6,0,0,1-.14-.26A2.21,2.21,0,0,1,25,10a3.27,3.27,0,0,1,0-.54c0-.18,0-.36,0-.54s0-.46,0-.69V8.15a.2.2,0,0,0,0-.07.07.07,0,0,0,0-.05l0,0,0,0h0c-.07,0-.12.09-.16.2a10.33,10.33,0,0,0-.47,2.34,1.45,1.45,0,0,1,0,.29A.42.42,0,0,1,23.84,11.11Z"/>
        <path class="cls-15" d="M27.63,10.56h-.06a.86.86,0,0,1-.44-.1,1,1,0,0,1-.35-.3,1.87,1.87,0,0,1-.32-.83l0-.15a3,3,0,0,1,0-1.21,1.31,1.31,0,0,1,.7-1,.9.9,0,0,1,.22-.06A1,1,0,0,1,28,7a1.62,1.62,0,0,1,.62,1.16,3.91,3.91,0,0,1,0,1,1.29,1.29,0,0,0,.55-.76v0a.26.26,0,0,1,.19-.23h0a.23.23,0,0,1,.13.17.6.6,0,0,1-.06.22,1.77,1.77,0,0,1-.6.86.79.79,0,0,1-.33.13,2.1,2.1,0,0,1-.31.68,1.48,1.48,0,0,1-.26.24A1,1,0,0,1,27.63,10.56Zm.11-.43a.17.17,0,0,0,.1-.1,1.37,1.37,0,0,0,.21-.55v0a0,0,0,0,0,0,0,1.17,1.17,0,0,1-.5-.78,1.7,1.7,0,0,1,0-.22,5.1,5.1,0,0,1,0-1,2.63,2.63,0,0,0-.21,1,4.52,4.52,0,0,0,.05.84,1.91,1.91,0,0,0,.12.47.69.69,0,0,0,.15.28c.06.06.11.09.17.08Zm.36-1.05V8.81a1.49,1.49,0,0,1,0-.19s0-.09,0-.14a1.49,1.49,0,0,0,0-.17L28,8l-.1-.29a1.47,1.47,0,0,0-.13-.24c0,.08,0,.15,0,.19v.13a.62.62,0,0,0,0,.13,1.28,1.28,0,0,0,0,.18,2.28,2.28,0,0,0,0,.26c0,.06,0,.13,0,.2a.93.93,0,0,0,.09.26A1,1,0,0,0,28,9h0l.05.05h0Z"/>
        <path class="cls-15" d="M31.89,10.27a3.91,3.91,0,0,1-1,0,3,3,0,0,1-1-.21.75.75,0,0,1-.35-.26.8.8,0,0,1-.17-.4c0-.16,0-.26,0-.31a.2.2,0,0,1,.09,0,.12.12,0,0,1,.12,0,.19.19,0,0,1,.07.11v.08a.23.23,0,0,0,0,.12,1.54,1.54,0,0,0,.05.17.23.23,0,0,0,.12.12l0,0a.31.31,0,0,0,.23.07.27.27,0,0,0,.22-.17.51.51,0,0,0,.05-.32,1,1,0,0,0-.14-.37c-.07-.13-.16-.26-.25-.4a3.77,3.77,0,0,1-.39-.64l-.15.52c0,.06,0,.09-.12.1a.15.15,0,0,1-.13,0,.21.21,0,0,1-.06-.1.14.14,0,0,1,0-.09c.08-.33.19-.65.3-1a2,2,0,0,1,.22-.44.76.76,0,0,1,.35-.31.94.94,0,0,1,.32-.11,1,1,0,0,1,.55.08.19.19,0,0,1,.12.14.27.27,0,0,1,0,.12.19.19,0,0,1-.11.07h-.27a.27.27,0,0,0-.19.22.81.81,0,0,0,0,.31,1.34,1.34,0,0,0,.12.37,2.1,2.1,0,0,0,.22.33,5.33,5.33,0,0,1,.31.48,1.36,1.36,0,0,1,.16.48,1,1,0,0,1-.34.91,3,3,0,0,0,.84,0,2.44,2.44,0,0,0,1.33-.6,2.39,2.39,0,0,0,.66-1.35,2.18,2.18,0,0,0,0-.72.86.86,0,0,0-.39-.66A.5.5,0,0,0,33,6.49a.46.46,0,0,0-.22.11.66.66,0,0,0-.18.23,1.38,1.38,0,0,0-.06.26,1.41,1.41,0,0,0,0,.22.42.42,0,0,0,.08.22s0,0,0,0a.07.07,0,0,1-.06.07.53.53,0,0,1-.12,0,.65.65,0,0,1-.37,0,.69.69,0,0,1-.38-.52.78.78,0,0,1,0-.37A.88.88,0,0,1,32,6.38a1.35,1.35,0,0,1,.47-.29A1.81,1.81,0,0,1,32.86,6a1.18,1.18,0,0,1,.73.08,1.26,1.26,0,0,1,.53.47,1.93,1.93,0,0,1,.28.74,3,3,0,0,1,0,.73,3,3,0,0,1-.22.75,2.38,2.38,0,0,1-.76.91,3.88,3.88,0,0,1-1.53.59Z"/>
      </g>
      <g>
        <path class="cls-1" d="M11.21,9.46l-.27,0h0a1.31,1.31,0,0,1-.62-.34,1.63,1.63,0,0,1-.47-.94,1.87,1.87,0,0,1,0-.47,2.84,2.84,0,0,1,.35-1.2,1.92,1.92,0,0,1,.55-.62,1.38,1.38,0,0,1,.55-.23h.15a1,1,0,0,1,.29,0,.84.84,0,0,1,.38.26.56.56,0,0,1,.14.33s0,.09,0,.13v0a2.91,2.91,0,0,1-.07.86l-.06.19a.54.54,0,0,1-.45.36h-.11a.55.55,0,0,1-.18,0,.67.67,0,0,1-.18-.07A.41.41,0,0,1,11,7.46v0a.45.45,0,0,1,.08-.28,1.87,1.87,0,0,0,.2-.49,1.1,1.1,0,0,0-.14.21A2,2,0,0,0,10.91,8a.28.28,0,0,0,0,.09,1.1,1.1,0,0,0,0,.16.49.49,0,0,0,.27.34h.17l.16-.05a1,1,0,0,0,.32-.31h0a1.61,1.61,0,0,0,.27-.65.41.41,0,0,1,.29-.37h.08a.34.34,0,0,1,.26.12.36.36,0,0,1,.11.21.41.41,0,0,1,0,.22A2.34,2.34,0,0,1,12.28,9a1.5,1.5,0,0,1-.4.3,1.38,1.38,0,0,1-.48.17Z"/>
        <path class="cls-1" d="M12.76,8.9a.59.59,0,0,1-.47-.21h0a1,1,0,0,1-.18-.39l0-.14a1.62,1.62,0,0,1,0-.31,2.71,2.71,0,0,1,0-.29,1.91,1.91,0,0,1,.06-.33,1,1,0,0,1,.13-.33.82.82,0,0,1,.32-.32h0a.6.6,0,0,1,.19-.06H13a.42.42,0,0,1,.2-.1h.14a.51.51,0,0,1,.17,0h0a.52.52,0,0,1,.37.42,1.5,1.5,0,0,1,0,.28.41.41,0,0,1,.17-.07h0a.35.35,0,0,1,.32.21h0a.19.19,0,0,1,0,.1.33.33,0,0,1,0,.14h0a3.89,3.89,0,0,1-.25.75.94.94,0,0,1-.19.32l0,0a.62.62,0,0,1-.34.15h-.1a.66.66,0,0,1-.3-.07h0l0,0a.6.6,0,0,1-.08.08.61.61,0,0,1-.3.15h-.06Z"/>
        <path class="cls-1" d="M14.57,8.65A.73.73,0,0,1,14,8.43h0A.89.89,0,0,1,13.85,8a.75.75,0,0,1,0-.31l-.06,0h0a.34.34,0,0,1-.1-.16v0a.33.33,0,0,1,0-.17,5,5,0,0,1,.16-.51A1.66,1.66,0,0,1,14,6.53a.69.69,0,0,1,.29-.27h0a.9.9,0,0,1,.23-.08h.12a.55.55,0,0,1,.18,0l.1,0h0l0,0,.09,0a.42.42,0,0,1,.14.24v.08a.38.38,0,0,1-.11.24A.4.4,0,0,1,15,7s0,0,0,0l.11.16,0,0s0,0,0-.08l0,0a.36.36,0,0,1,.28-.2h.06l.11,0h0a.4.4,0,0,1,.21.28.55.55,0,0,1,0,.18,3.27,3.27,0,0,1-.28.64,1.51,1.51,0,0,1-.57.58,1.31,1.31,0,0,1-.28.09h-.13Z"/>
        <path class="cls-1" d="M15.72,8.45a.55.55,0,0,1-.36-.13h0a1,1,0,0,1-.28-.61,2.56,2.56,0,0,1,0-.39c0-.13,0-.25,0-.37a1,1,0,0,1,.56-.85h0l.14,0H16a.33.33,0,0,1,.21-.11h.05l.16,0a.49.49,0,0,1,.31.13.5.5,0,0,1,.17.31.61.61,0,0,1,0,.14.49.49,0,0,1,.17-.06h.08a.48.48,0,0,1,.36.16.63.63,0,0,1,.15.32.87.87,0,0,1-.05.42,1.57,1.57,0,0,1-.15.32,1.85,1.85,0,0,1-.25.32,1.23,1.23,0,0,1-.36.25.83.83,0,0,1-.21.06h-.11a.62.62,0,0,1-.32-.09h0a.55.55,0,0,1-.36.22Z"/>
        <path class="cls-1" d="M20.71,7.69a.62.62,0,0,1-.47-.21v0a.89.89,0,0,1-.18-.38l0-.15c0-.1,0-.2,0-.3s0-.2,0-.3,0-.21.05-.32a1.22,1.22,0,0,1,.14-.33.76.76,0,0,1,.32-.32h0a.66.66,0,0,1,.2-.06h.2l0,0a.34.34,0,0,1,.2-.09h.14l.17,0h0a.48.48,0,0,1,.36.42,1.13,1.13,0,0,1,0,.28A.37.37,0,0,1,22,5.84h.06a.35.35,0,0,1,.32.21h0l0,.1a.65.65,0,0,1,0,.14h0a3.86,3.86,0,0,1-.24.75,1,1,0,0,1-.2.32l0,0a.71.71,0,0,1-.33.15h-.1a.67.67,0,0,1-.31-.07h0l0,0-.07.08a.6.6,0,0,1-.31.15h-.06Z"/>
        <path class="cls-1" d="M22.09,7.47h0a.46.46,0,0,1-.31-.15v0a.5.5,0,0,1-.08-.2.62.62,0,0,1,0-.13c0-.32,0-.63,0-.94V5.4a.38.38,0,0,1,.11-.27A.4.4,0,0,1,22,5h.11a.64.64,0,0,1,.28.06l.1.06.05,0A.47.47,0,0,1,22.83,5h.09a.59.59,0,0,1,.37.14l0,0a.68.68,0,0,1,.19.4v.14a.4.4,0,0,1,.17-.08h.05a.36.36,0,0,1,.36.3v0a.5.5,0,0,1,0,.21,2.37,2.37,0,0,1-.09.36,1.68,1.68,0,0,1-.16.39.75.75,0,0,1-.54.43H23.2a.64.64,0,0,1-.23,0,.58.58,0,0,1-.25-.18v0a.51.51,0,0,1-.42.36h-.2Z"/>
        <path class="cls-1" d="M24,7.2a.57.57,0,0,1-.18,0h0a.74.74,0,0,1-.47-.63s0-.1,0-.15c0-.22,0-.63,0-1.23h0a.29.29,0,0,1-.16-.07A.33.33,0,0,1,23,4.85h0a.36.36,0,0,1,.08-.28.31.31,0,0,1,.23-.14h0v0h0v0a0,0,0,0,1,0,0,.35.35,0,0,1,.07-.28.41.41,0,0,1,.24-.15h.27a.57.57,0,0,1,.39.3h0s0,0,0,0a.44.44,0,0,1,.17.07.39.39,0,0,1,.15.23h0a.37.37,0,0,1-.08.29.43.43,0,0,1-.23.14h0c0,.06,0,.12,0,.19s0,.37,0,.56l0-.07v0a.37.37,0,0,1,.28-.22h.06a.25.25,0,0,1,.12,0h0a.39.39,0,0,1,.2.28A.36.36,0,0,1,25,6l-.11.3a1.4,1.4,0,0,1-.15.3,1.13,1.13,0,0,1-.12.21.81.81,0,0,1-.54.41Z"/>
        <path class="cls-1" d="M25,7.05A.66.66,0,0,1,24.71,7a.75.75,0,0,1-.27-.23h0a1.27,1.27,0,0,1-.21-.54l0-.08a1.72,1.72,0,0,1,0-.72,1,1,0,0,1,.52-.7h0a.48.48,0,0,1,.17,0h.12a.76.76,0,0,1,.35.09h0a.93.93,0,0,1,.39.56l.11,0H26l.1,0a.37.37,0,0,1,.24.31.09.09,0,0,1,0,0,.54.54,0,0,1-.05.21,1.22,1.22,0,0,1-.41.57l-.1,0a1,1,0,0,1-.16.29h0a1.12,1.12,0,0,1-.2.18.75.75,0,0,1-.28.11H25Z"/>
        <path class="cls-1" d="M25.78,8.39a.71.71,0,0,1-.42-.14.79.79,0,0,1-.28-.49,1.2,1.2,0,0,1,.11-.65,1.87,1.87,0,0,1,.39-.53c0-.56,0-1.13,0-1.69a.51.51,0,0,1,0-.22.33.33,0,0,1-.05-.15.39.39,0,0,1,.06-.28.45.45,0,0,1,.2-.16A.48.48,0,0,1,26,4H26a.38.38,0,0,1,.25.08.44.44,0,0,1,.17.21.2.2,0,0,1,0,.11.31.31,0,0,1,0,.21.57.57,0,0,1,.12.26c0,.06,0,.11,0,.17v.15a.43.43,0,0,1,.21-.11h.07a.37.37,0,0,1,.18,0h0a.35.35,0,0,1,.14.25.42.42,0,0,1,0,.22,2.38,2.38,0,0,1-.62,1v.28c0,.12,0,.24,0,.36s0,.27-.05.39a1,1,0,0,1-.18.42h0a.72.72,0,0,1-.46.29h-.08Z"/>
        <path class="cls-1" d="M27.22,6.71a.64.64,0,0,1-.33-.08.87.87,0,0,1-.27-.23h0a1.27,1.27,0,0,1-.21-.54l0-.08a1.72,1.72,0,0,1,0-.72,1,1,0,0,1,.52-.7h0a.47.47,0,0,1,.17,0h.12a.81.81,0,0,1,.34.08l0,0A1,1,0,0,1,28,5a.19.19,0,0,1,.11,0h.07l.1,0a.37.37,0,0,1,.24.31.07.07,0,0,1,0,0,.8.8,0,0,1-.05.21,1.22,1.22,0,0,1-.41.57l-.1,0a1.18,1.18,0,0,1-.16.29h0a1.12,1.12,0,0,1-.2.18,1,1,0,0,1-.28.11h-.1Z"/>
        <path class="cls-1" d="M28.63,6.5a.72.72,0,0,1-.52-.21h0a.7.7,0,0,1-.18-.39.48.48,0,0,1,0-.3l-.06,0h0a.51.51,0,0,1-.09-.16s0,0,0,0a.5.5,0,0,1,0-.17A4.32,4.32,0,0,1,28,4.66a1.66,1.66,0,0,1,.13-.27.63.63,0,0,1,.29-.27h0A.9.9,0,0,1,28.63,4h.12l.18,0,.09,0h.06l.08.06a.33.33,0,0,1,.14.24v.08a.38.38,0,0,1-.11.23.35.35,0,0,1-.19.1l0,0a.91.91,0,0,0,.11.16l0,0,0-.08s0,0,0,0a.4.4,0,0,1,.28-.21h.06l.11,0h0a.4.4,0,0,1,.21.28.32.32,0,0,1,0,.17,2.42,2.42,0,0,1-.27.64A1.35,1.35,0,0,1,29,6.4a.62.62,0,0,1-.27.09h-.14Z"/>
        <path class="cls-4" d="M11.28,9.05a.83.83,0,0,1-.35,0,.92.92,0,0,1-.49-.27A1.25,1.25,0,0,1,10.05,8a1.88,1.88,0,0,1,0-.41,2.56,2.56,0,0,1,.31-1.07A1.71,1.71,0,0,1,10.81,6a1,1,0,0,1,.43-.18.65.65,0,0,1,.31,0A.53.53,0,0,1,11.8,6a.33.33,0,0,1,.07.19s0,.08,0,.11v0a2.43,2.43,0,0,1-.07.78.83.83,0,0,1,0,.15.29.29,0,0,1-.23.18.55.55,0,0,1-.18,0l-.1,0a.1.1,0,0,1,0-.08.17.17,0,0,1,0-.11,1.81,1.81,0,0,0,.29-.89V6.21a.22.22,0,0,0,0-.11.15.15,0,0,0-.11,0,.2.2,0,0,0-.14.06,1.33,1.33,0,0,0-.42.49,2.21,2.21,0,0,0-.27,1.31.31.31,0,0,0,0,.1,1.18,1.18,0,0,0,0,.2.8.8,0,0,0,.44.53.6.6,0,0,0,.32,0,.73.73,0,0,0,.25-.08,1.27,1.27,0,0,0,.43-.4,2,2,0,0,0,.31-.77c0-.08,0-.12.08-.13s0,0,.06,0a.09.09,0,0,1,0,.06.16.16,0,0,1,0,.1A2.07,2.07,0,0,1,12,8.66a1.35,1.35,0,0,1-.33.26A1.06,1.06,0,0,1,11.28,9.05Z"/>
        <path class="cls-4" d="M12.7,8.5h0a.34.34,0,0,1-.26-.12.57.57,0,0,1-.13-.27.5.5,0,0,1,0-.12,1.14,1.14,0,0,1,0-.26,2.44,2.44,0,0,1,0-.27,2.33,2.33,0,0,1,.05-.28,1.17,1.17,0,0,1,.1-.26.53.53,0,0,1,.21-.21l.12,0a.74.74,0,0,1,.37.05.14.14,0,0,1,0-.06.13.13,0,0,1,0-.09l.05,0h.06l.14,0a.23.23,0,0,1,.16.19,2,2,0,0,1,0,.42c0,.12,0,.24,0,.37a2.67,2.67,0,0,0,0,.4s0,0,0,0a.1.1,0,0,0,.08.06h0A.13.13,0,0,0,13.66,8a.59.59,0,0,0,.1-.17,4.42,4.42,0,0,0,.15-.48l0-.06a.13.13,0,0,1,0-.06l0,0s.05,0,.06,0a0,0,0,0,1,0,0,0,0,0,0,1,0,0,3.58,3.58,0,0,1-.23.7.68.68,0,0,1-.14.23.34.34,0,0,1-.19.09.38.38,0,0,1-.23,0,.35.35,0,0,1-.14-.13A.48.48,0,0,1,13.08,8V8a.93.93,0,0,0,0,.13,1.8,1.8,0,0,1-.08.21.76.76,0,0,1-.11.14A.26.26,0,0,1,12.7,8.5Zm.06-.32,0,0,0,0v0A1.14,1.14,0,0,0,12.88,8a.62.62,0,0,0,0-.11h0a7.09,7.09,0,0,0,.14-.78V7s0,0,0,0a.09.09,0,0,1,0-.06l0,0h-.14l0,0h0L12.81,7h0a.15.15,0,0,1,0,.06l0,.11v0a2,2,0,0,0-.06.48v.06c0,.07,0,.15,0,.22l0,.1Z"/>
        <path class="cls-4" d="M14.59,8.24h-.08a.42.42,0,0,1-.33-.13.46.46,0,0,1-.12-.24.23.23,0,0,1,0-.16l.05,0h0s0,0,0,0a.08.08,0,0,1,0,0v0a.13.13,0,0,0,0,.06A.23.23,0,0,0,14.3,8a.14.14,0,0,0,.13,0A.16.16,0,0,0,14.52,8a.22.22,0,0,0,0-.18.34.34,0,0,0-.05-.14,1.28,1.28,0,0,0-.11-.2l-.05-.07-.09-.14a1,1,0,0,1-.1-.17c0,.08-.05.17-.07.26s0,0-.07,0a.08.08,0,0,1-.07,0,.08.08,0,0,1,0,0,0,0,0,0,1,0,0,2.81,2.81,0,0,1,.16-.49.88.88,0,0,1,.1-.22.37.37,0,0,1,.18-.17h0a.49.49,0,0,1,.17-.06.62.62,0,0,1,.19,0h0l0,0h0l0,0a.09.09,0,0,1,0,.06v0s0,0,0,0l0,0h-.14a.16.16,0,0,0-.08.06h0l0,.06a.33.33,0,0,0,0,.14.48.48,0,0,0,.07.2l.12.19a1.64,1.64,0,0,1,.14.22.75.75,0,0,1,.08.24.41.41,0,0,1,0,.11l.08-.11a2.83,2.83,0,0,0,.25-.59s0-.05.07-.05h0a.06.06,0,0,1,.05.06v0a2.67,2.67,0,0,1-.25.58,1.22,1.22,0,0,1-.46.47A.64.64,0,0,1,14.59,8.24Z"/>
        <path class="cls-4" d="M15.69,8A.27.27,0,0,1,15.45,8a.79.79,0,0,1-.2-.44,1.82,1.82,0,0,1,0-.33,1.87,1.87,0,0,1,0-.34c.05-.34.17-.55.38-.63l.09,0a.82.82,0,0,1,.36,0v0h0v0a.07.07,0,0,1,0-.06l.06,0s.05,0,.14,0a.2.2,0,0,1,.15.06.21.21,0,0,1,.07.14.28.28,0,0,1,0,.13l0,.22c0,.15,0,.31,0,.48s0,.23,0,.33a.16.16,0,0,0,0,.09.06.06,0,0,0,.07,0h0a.45.45,0,0,0,.27-.26A.58.58,0,0,0,16.94,7a.17.17,0,0,0-.05-.12.07.07,0,0,1,0-.06.1.1,0,0,1,0-.1A.21.21,0,0,1,17,6.64a.18.18,0,0,1,.18.06.34.34,0,0,1,.08.17.69.69,0,0,1,0,.28,1.58,1.58,0,0,1-.13.26.9.9,0,0,1-.21.27.67.67,0,0,1-.28.19.28.28,0,0,1-.13,0,.33.33,0,0,1-.24,0,.43.43,0,0,1-.2-.33v0a1.51,1.51,0,0,1-.15.37A.29.29,0,0,1,15.69,8Zm.06-.32,0,0,0,0v0a.78.78,0,0,0,.09-.24v0l0-.16c0-.1,0-.22.06-.35s0-.24.06-.35,0-.07,0-.08h0a.18.18,0,0,0-.1,0,.16.16,0,0,0-.11.05.41.41,0,0,0-.07.11.61.61,0,0,0,0,.12,2,2,0,0,0-.06.84v.13a0,0,0,0,0,0,0h0Z"/>
        <path class="cls-2" d="M20.66,7.29h0a.36.36,0,0,1-.27-.12.66.66,0,0,1-.12-.27l0-.12a1.22,1.22,0,0,1,0-.27,2.26,2.26,0,0,1,0-.26A1.26,1.26,0,0,1,20.28,6a.88.88,0,0,1,.1-.27.58.58,0,0,1,.21-.2.24.24,0,0,1,.12,0,.8.8,0,0,1,.36,0s0,0,0-.06a.08.08,0,0,1,0-.08l.05,0h.06l.13,0a.2.2,0,0,1,.16.19,2.47,2.47,0,0,1,0,.42l0,.36c0,.14,0,.27,0,.41s0,0,0,0,0,0,.07,0h0a.1.1,0,0,0,.08,0,.77.77,0,0,0,.1-.18,3.37,3.37,0,0,0,.15-.48.14.14,0,0,1,0-.06l0,0,0,0s.06,0,.07,0,0,0,0,0v0a4.21,4.21,0,0,1-.23.71.68.68,0,0,1-.14.23.46.46,0,0,1-.19.08.36.36,0,0,1-.23,0A.64.64,0,0,1,21.11,7,.45.45,0,0,1,21,6.81V6.74s0,.09-.05.13a.9.9,0,0,1-.08.21.41.41,0,0,1-.1.13A.37.37,0,0,1,20.66,7.29ZM20.71,7s0,0,0,0l0,0,0,0a1.16,1.16,0,0,0,.06-.16.43.43,0,0,0,0-.1h0A7,7,0,0,0,21,5.85l0-.08v0a.07.07,0,0,1,0-.06l0,0h-.14s0,0,0,0h0l-.06.08h0s0,0,0,.06l0,.11,0,0a2,2,0,0,0-.05.48v.06a1.64,1.64,0,0,0,0,.23l0,.1A.15.15,0,0,0,20.71,7Z"/>
        <path class="cls-2" d="M22.17,7.06H22a.14.14,0,0,1-.1-.05.13.13,0,0,1,0-.08.22.22,0,0,1,0-.08c0-.32,0-.63,0-.94V5.29s0,0,0-.06l.06,0a.42.42,0,0,1,.23,0,.19.19,0,0,1,.12.16s0,0,0,.07V6a2.22,2.22,0,0,1,.09-.37,1.43,1.43,0,0,1,.14-.34.69.69,0,0,1,.11-.13.35.35,0,0,1,.14-.06.28.28,0,0,1,.24.07.44.44,0,0,1,.1.24,3.06,3.06,0,0,1,0,.52v.38a.41.41,0,0,0,0,.11.26.26,0,0,0,0,.11.08.08,0,0,0,0,0h0a.05.05,0,0,0,.05,0,.42.42,0,0,0,.11-.18,2.15,2.15,0,0,0,.15-.51q0-.14.09-.15a.09.09,0,0,1,.09.08.38.38,0,0,1,0,.1,2.25,2.25,0,0,1-.09.35,1.56,1.56,0,0,1-.14.33.47.47,0,0,1-.33.28.35.35,0,0,1-.17,0,.28.28,0,0,1-.14-.1.42.42,0,0,1-.07-.13.83.83,0,0,1,0-.15,2.64,2.64,0,0,1,0-.28,2.44,2.44,0,0,1,0-.27V5.48h0s-.06,0-.08.1a4.93,4.93,0,0,0-.24,1.19.77.77,0,0,1,0,.15A.23.23,0,0,1,22.17,7.06Z"/>
        <path class="cls-2" d="M24,6.79a.22.22,0,0,1-.14,0,.46.46,0,0,1-.29-.4.49.49,0,0,1,0-.12c0-.21,0-.61,0-1.2,0-.11,0-.23,0-.34l-.22,0a.06.06,0,0,1-.06,0,.09.09,0,0,1,0-.06.07.07,0,0,1,0-.06.05.05,0,0,1,.05,0l.26,0V4.28h0v-.1a.07.07,0,0,1,0-.06.1.1,0,0,1,.05,0h.16a.28.28,0,0,1,.2.15.14.14,0,0,1,0,.06v.18l.19,0a.09.09,0,0,1,.08.14l-.05,0-.23,0,0,.42,0,.59c0,.11,0,.23,0,.34a1.48,1.48,0,0,0,0,.21.31.31,0,0,0,0,.1v.05l0,0s0,0,0,0h0l.05,0,.06,0a.64.64,0,0,0,.1-.13l.08-.17c.06-.14.11-.28.16-.41s0,0,.06,0h0s.05,0,.05.07a0,0,0,0,1,0,0h0l-.11.3a2.24,2.24,0,0,1-.13.27l-.11.19A.56.56,0,0,1,24,6.79Z"/>
        <path class="cls-2" d="M25,6.64h0a.34.34,0,0,1-.22,0,.43.43,0,0,1-.18-.15A1,1,0,0,1,24.43,6l0-.08a1.76,1.76,0,0,1,0-.61.68.68,0,0,1,.36-.5.23.23,0,0,1,.11,0,.42.42,0,0,1,.29,0,.79.79,0,0,1,.31.59,1.59,1.59,0,0,1,0,.49.63.63,0,0,0,.28-.38v0c0-.07.05-.11.1-.12h0A.13.13,0,0,1,26,5.5a.45.45,0,0,1,0,.11.89.89,0,0,1-.31.44.43.43,0,0,1-.17.06.93.93,0,0,1-.16.35.77.77,0,0,1-.13.12A.44.44,0,0,1,25,6.64Zm.06-.22a.12.12,0,0,0,.05,0,.86.86,0,0,0,.11-.28h0l0,0A.56.56,0,0,1,25,5.67a.52.52,0,0,1,0-.11,2,2,0,0,1,0-.5,1.36,1.36,0,0,0-.11.51,2.81,2.81,0,0,0,0,.43,1.05,1.05,0,0,0,.06.24.39.39,0,0,0,.08.14s.05,0,.08,0Zm.18-.53V5.65a.13.13,0,0,0,0-.06V5.5l0-.15a.64.64,0,0,0-.05-.15.34.34,0,0,0-.06-.12s0,.08,0,.1v.13s0,.05,0,.09a.53.53,0,0,0,0,.13s0,.07,0,.1l0,.14.06.09h0l0,0h0Z"/>
        <path class="cls-2" d="M25.74,8h0a.34.34,0,0,1-.26-.08.47.47,0,0,1-.18-.31.86.86,0,0,1,.09-.48,1.5,1.5,0,0,1,.33-.46h0l.06-.06a.28.28,0,0,0,0-.09q0-.87,0-1.74a.34.34,0,0,1,0-.11.09.09,0,0,1,.06,0h.08a.35.35,0,0,1,.14,0,.22.22,0,0,1,.14.18.48.48,0,0,1,0,.12V6.16a1.76,1.76,0,0,0,.45-.74.19.19,0,0,1,.05-.1.1.1,0,0,1,.05,0h0a.05.05,0,0,1,0,0,.12.12,0,0,1,0,.1,2,2,0,0,1-.56.89.18.18,0,0,0-.05.07.19.19,0,0,0,0,.07V6.8c0,.12,0,.24,0,.35a2,2,0,0,1-.05.35.75.75,0,0,1-.13.32A.4.4,0,0,1,25.74,8ZM25.6,7.7l0,0a.85.85,0,0,0,.14-.5V7.12a1.41,1.41,0,0,0,0-.29,1.16,1.16,0,0,0-.24.34.63.63,0,0,0-.05.35.34.34,0,0,0,.06.15A.05.05,0,0,0,25.6,7.7ZM26,4.53h0a.23.23,0,0,1-.11,0,.2.2,0,0,1-.08-.13.1.1,0,0,1,0-.09.22.22,0,0,1,.07-.06l.06,0h0a.11.11,0,0,1,.11,0,.16.16,0,0,1,.07.09s0,0,0,0a.17.17,0,0,1,0,.07A.25.25,0,0,1,26,4.53Z"/>
        <path class="cls-2" d="M27.2,6.31h0a.34.34,0,0,1-.22,0,.52.52,0,0,1-.18-.15.94.94,0,0,1-.16-.42l0-.08a1.76,1.76,0,0,1,0-.61A.68.68,0,0,1,27,4.5a.23.23,0,0,1,.11,0,.42.42,0,0,1,.29,0,.77.77,0,0,1,.31.59,1.58,1.58,0,0,1,0,.49A.65.65,0,0,0,28,5.21h0c0-.07.05-.11.1-.12h0a.08.08,0,0,1,.06.09.23.23,0,0,1,0,.11.82.82,0,0,1-.31.43.36.36,0,0,1-.17.07.82.82,0,0,1-.16.34.53.53,0,0,1-.13.13A.44.44,0,0,1,27.2,6.31Zm.06-.22a.12.12,0,0,0,0,0,.86.86,0,0,0,.11-.28h0l0,0a.56.56,0,0,1-.25-.39.52.52,0,0,1,0-.11,2,2,0,0,1,0-.5,1.36,1.36,0,0,0-.11.51,2.81,2.81,0,0,0,0,.43,1.05,1.05,0,0,0,.06.24.39.39,0,0,0,.08.14.1.1,0,0,0,.08,0Zm.18-.53V5.32a.2.2,0,0,0,0-.07V5.16l0-.14c0-.07,0-.12-.05-.15a.34.34,0,0,0-.06-.12s0,.07,0,.1V5s0,0,0,.09a.57.57,0,0,0,0,.13s0,.06,0,.1l0,.14s0,0,.06.08h0l0,0h0Z"/>
        <path class="cls-2" d="M28.65,6.1h-.08A.41.41,0,0,1,28.24,6a.45.45,0,0,1-.11-.23c0-.09,0-.14,0-.16l.05,0h0a.05.05,0,0,1,.05,0,.08.08,0,0,1,0,0V5.7a.23.23,0,0,0,.07.14.16.16,0,0,0,.13.06.18.18,0,0,0,.09-.06.23.23,0,0,0,.05-.18.88.88,0,0,0-.05-.15,1.22,1.22,0,0,0-.12-.19l0-.07-.1-.14-.09-.18c0,.09-.05.18-.08.27a.1.1,0,0,1-.06,0l-.07,0,0-.05a.06.06,0,0,1,0,0,4.13,4.13,0,0,1,.15-.5,2.26,2.26,0,0,1,.11-.22.44.44,0,0,1,.17-.16h0a.52.52,0,0,1,.16-.06.45.45,0,0,1,.2,0h.09l0,0a.05.05,0,0,1,0,0v0a.05.05,0,0,1,0,0,.05.05,0,0,1-.05,0h-.14a.13.13,0,0,0-.07.06h0a.14.14,0,0,0,0,.06.33.33,0,0,0,0,.14.48.48,0,0,0,.07.2l.12.19a1.18,1.18,0,0,1,.14.22.62.62,0,0,1,.08.24.34.34,0,0,1,0,.1.61.61,0,0,0,.07-.1,2.32,2.32,0,0,0,.26-.6.12.12,0,0,1,.07,0h0a.06.06,0,0,1,.05.06.06.06,0,0,1,0,0,2.29,2.29,0,0,1-.24.58,1.25,1.25,0,0,1-.46.48A.6.6,0,0,1,28.65,6.1Z"/>
      </g>
      <g>
        <path class="cls-1" d="M18.6,8a1,1,0,0,1-1-.8,1.06,1.06,0,0,1,.45-1.08.76.76,0,0,1,0-.3A1,1,0,0,1,18.83,5L19,5h.09a.63.63,0,0,1,.62.86A.5.5,0,0,1,20,6.4a.65.65,0,0,1-.23.36.9.9,0,0,1,0,.46,1,1,0,0,1-.81.73A1.22,1.22,0,0,1,18.6,8Z"/>
        <path class="cls-15" d="M18.91,6.26h0l-.27,0c-.8.2-.57,1.2,0,1s.45-.6.25-.67c-.18.08-.32.18-.29.32a.08.08,0,0,1,0,0h0a.21.21,0,0,1-.14-.33c.19-.29,1.07-.4,1-.67,0,0,0,0,0,0h0a.2.2,0,0,1,.12.22c0,.14-.17.23-.33.31.24.23.18.85-.5,1a.75.75,0,1,1-.4-1.45c-.27-.21-.06-.78.45-.9l.13,0a.35.35,0,0,1,.26.64l-.05,0c-.14,0-.3-.09-.22-.15s.23-.42,0-.39h0c-.36.09-.47.68-.07.68L19,6C19.05,6,19,6.24,18.91,6.26Z"/>
      </g>
      <path class="cls-1" d="M7.3,8.1h0a5.63,5.63,0,0,1-.4.45l-.05,0a7.78,7.78,0,0,1-.76.69,5.91,5.91,0,0,1-.69.46L6.76,8.57Z"/>
      <path class="cls-15" d="M6.85,8.6s.71.25.55,1.45-1-.51-1-.51l-.08-.48"/>
    </g>
  </g>
</svg>
