<svg xmlns="http://www.w3.org/2000/svg" viewBox="0 0 24.79 18.79">
  <defs>
    <style>
      .cls-1 {
        fill: #0d0b03;
      }

      .cls-2 {
        fill: #f8d116;
      }

      .cls-3 {
        fill: #cb1718;
      }

      .cls-4 {
        fill: #128f38;
      }

      .cls-5 {
        fill: #cc1618;
      }

      .cls-6 {
        fill: #cb1717;
      }

      .cls-7 {
        fill: #138f38;
      }

      .cls-8 {
        fill: #805f15;
      }

      .cls-9 {
        fill: #c81717;
      }

      .cls-10 {
        fill: #231a03;
      }

      .cls-11 {
        fill: #261c04;
      }

      .cls-12 {
        fill: #2e2307;
      }

      .cls-13 {
        fill: #322607;
      }

      .cls-14 {
        fill: #362907;
      }

      .cls-15 {
        fill: #291f06;
      }

      .cls-16 {
        fill: #392b08;
      }

      .cls-17 {
        fill: #3d2e0a;
      }
    </style>
  </defs>
  <g id="Capa_2" data-name="Capa 2">
    <g id="Capa_1-2" data-name="Capa 1">
      <g>
        <g>
          <path class="cls-1" d="M24.62,5.94a12.37,12.37,0,0,0-.53-1.36q-.39-.88-.84-1.74a2,2,0,0,0-1.16-1,4.38,4.38,0,0,0-2.43-.16,6.2,6.2,0,0,0-2.43,1.22,14.68,14.68,0,0,0-2,1.82c-.32.34-.63.7-.95,1.06l-.49-.66a22.17,22.17,0,0,0-2.56-3A10.18,10.18,0,0,0,9.05.45,4,4,0,0,0,7.94,0a1.7,1.7,0,0,0-2,1A4.45,4.45,0,0,0,5.64,2a8.35,8.35,0,0,0,0,2.64,25.56,25.56,0,0,0,2,6.68c.14.33.28.66.44,1-.23,0-.41-.06-.59-.11-.71-.17-1.41-.35-2.11-.54a8,8,0,0,0-1.87-.33,2.65,2.65,0,0,0-1.65.51A5.42,5.42,0,0,0,.27,13.83a2.72,2.72,0,0,0-.22,1.69A4.45,4.45,0,0,0,.62,17a3.47,3.47,0,0,0,2.13,1.6,4.68,4.68,0,0,0,1.7.12,5.29,5.29,0,0,0,.78-.13l.5-.13a11.26,11.26,0,0,0,1.53-.59,16.64,16.64,0,0,0,1.5-.81l.52-.33.09-.05,1.1-.74a13.83,13.83,0,0,0,1.32-1.18l.16.08a1.41,1.41,0,0,1,.47.47l.06.1.9-.14c1-.17,2.08-.37,3.09-.64a21.19,21.19,0,0,0,2.88-1,11.24,11.24,0,0,0,3.11-1.85,6.4,6.4,0,0,0,2.08-3.13A4.88,4.88,0,0,0,24.62,5.94ZM21.68,10.1l-.15.16h0a6.89,6.89,0,0,1-.63.55,9.19,9.19,0,0,1-.83.55l-.23.14-.08.05a5.24,5.24,0,0,1-.63.36c-.55.25-1.12.48-1.7.71-.37.14-.74.27-1.12.39l.2-.11a12,12,0,0,0,2.32-1.61,2.82,2.82,0,0,0,.73-.91v0l.11-.25a1.2,1.2,0,0,0-.74-1.55,2,2,0,0,0-.73-.13,2.85,2.85,0,0,0-.49,0,7.61,7.61,0,0,1,1.17-1.17,6.26,6.26,0,0,1,1.77-1A3.83,3.83,0,0,1,21.93,6l.36,0a2,2,0,0,1,.48.11l0,.06A4.48,4.48,0,0,1,23,7a3.39,3.39,0,0,1-.26,1.51A4.9,4.9,0,0,1,21.68,10.1ZM7.62,16l.09-.36L8,15.8ZM4.3,17.2H4.09c.08-.1.15-.21.23-.32l0,0,.23.25ZM3,13.37a2.07,2.07,0,0,1,1.31-.53h.11a6,6,0,0,1,.74.1l1,.2.37.08-.05,0a8,8,0,0,1-1.22.68,3.15,3.15,0,0,1-1.28.33,1.55,1.55,0,0,1-.37,0,1.42,1.42,0,0,1-1-.54A2.38,2.38,0,0,1,3,13.37Zm5-5h0c-.06-.16-.12-.32-.17-.49l-.06-.18c0-.16-.11-.33-.16-.5,0,0,0,0,0-.06a.42.42,0,0,0,0-.1h0c0-.14-.07-.26-.11-.39a1.05,1.05,0,0,0-.05-.19c0-.14-.07-.27-.1-.4a1.29,1.29,0,0,1,0-.19,3,3,0,0,1-.09-.41h0a.75.75,0,0,1,0-.16L7,4.76a1.1,1.1,0,0,1,0-.18h0c0-.14,0-.29-.06-.43s0-.15,0-.23h0l0-.38V3.32c0-.12,0-.24,0-.35a1.36,1.36,0,0,1,0-.2c0-.14,0-.27,0-.4s0-.05,0-.07a.09.09,0,0,1,0,0,1.2,1.2,0,0,1,.26-.57.42.42,0,0,1,.39-.15h0a2,2,0,0,1,.82.27,8.16,8.16,0,0,1,1.72,1.35A17.56,17.56,0,0,1,12,5.32l.8,1.13A12.69,12.69,0,0,0,11.17,7,10.46,10.46,0,0,0,9.41,8,8.94,8.94,0,0,0,8.12,9a1.46,1.46,0,0,0-.07-.19C8,8.71,8,8.63,8,8.55Zm8.37-2.41V6h0Zm-5.85,7.47.51.15-.42.42Zm-1.63.85-.12-.07.09-.08Zm2.68-2.36-.43-.12.33-.35Zm2-1.28-.35.44c0-.16-.07-.33-.1-.5Zm2.11-3,.11,0-.09.12Zm3.22-3.8L19,3.69c0,.08,0,.15,0,.22ZM13.72,8.89,14,8.62l.06.31Z"/>
          <path class="cls-1" d="M24.62,5.94a12.37,12.37,0,0,0-.53-1.36q-.39-.88-.84-1.74a2,2,0,0,0-1.16-1,4.38,4.38,0,0,0-2.43-.16,6.2,6.2,0,0,0-2.43,1.22,14.68,14.68,0,0,0-2,1.82c-.32.34-.63.7-.95,1.06l-.49-.66a22.17,22.17,0,0,0-2.56-3A10.18,10.18,0,0,0,9.05.45,4,4,0,0,0,7.94,0a1.7,1.7,0,0,0-2,1A4.45,4.45,0,0,0,5.64,2a8.35,8.35,0,0,0,0,2.64,25.56,25.56,0,0,0,2,6.68c.14.33.28.66.44,1-.23,0-.41-.06-.59-.11-.71-.17-1.41-.35-2.11-.54a8,8,0,0,0-1.87-.33,2.65,2.65,0,0,0-1.65.51A5.42,5.42,0,0,0,.27,13.83a2.72,2.72,0,0,0-.22,1.69A4.45,4.45,0,0,0,.62,17a3.47,3.47,0,0,0,2.13,1.6,4.68,4.68,0,0,0,1.7.12,5.29,5.29,0,0,0,.78-.13l.5-.13a11.26,11.26,0,0,0,1.53-.59,16.64,16.64,0,0,0,1.5-.81l.52-.33.09-.05,1.1-.74a13.83,13.83,0,0,0,1.32-1.18l.16.08a1.41,1.41,0,0,1,.47.47l.06.1.9-.14c1-.17,2.08-.37,3.09-.64a21.19,21.19,0,0,0,2.88-1,11.24,11.24,0,0,0,3.11-1.85,6.4,6.4,0,0,0,2.08-3.13A4.88,4.88,0,0,0,24.62,5.94ZM21.06,2.58a1.34,1.34,0,0,1,1,.42,1.71,1.71,0,0,1,.39.65c.11.34.28.65.42,1l0,0-2.4-2A1.36,1.36,0,0,1,21.06,2.58Zm-1,.11,2.17,1.85c-.38,0-.71,0-1,.06s-.65.13-1,.2A12.3,12.3,0,0,1,20.05,2.69Zm-.38,0c0,.12,0,.23,0,.34,0,.59.07,1.18.1,1.78H19.7l-2.25-.67-.22-.08A5.69,5.69,0,0,1,19.67,2.72Zm-.2,2.39c-.36.25-.69.46-1,.7s-.62.48-.95.75a1.09,1.09,0,0,1-.09-.23L17.05,4.4Zm-2.76-.59c.17.8.32,1.52.45,2.27l-2.3-.29A20,20,0,0,1,16.71,4.52ZM17,7.11l-1.7,2.26h-.07c-.17-.84-.34-1.68-.52-2.55Zm-5.69,7.12-.15.16h0l-.1.1-.11.1-.22.2-.11.09h0l-.16.13-.08.07-.08.06,0,0h0l-.16.12c-.19-1-.34-1.92-.5-2.89l2.68.78-.26.29-.14.16-.2.21-.2.22Zm-2-1.6c.16,1,.32,1.91.49,2.9l-1.4-.72-.22-.12-.3-.16-.22-.12-.16-.09A13.14,13.14,0,0,0,9.24,12.63ZM8.64,12l-.48-1a.21.21,0,0,1,0-.19c.14-.15.24-.36.45-.45v0l0,1.23C8.66,11.64,8.65,11.77,8.64,12Zm1.49-1.26A17.42,17.42,0,0,1,9,12c0-.68,0-1.29,0-1.95Zm-1-.9a8,8,0,0,1,1.53-1.08c0,.23,0,.42-.05.62s0,.57-.07.85-.13.28-.32.19C9.84,10.19,9.48,10,9.11,9.79Zm.63,2.34L11.81,10l.59,2.93ZM11.58,9l-.66.79-.06,0c0-.34.06-.68.1-1.07Zm-.48-.54a5.21,5.21,0,0,1,1.26-.54,2,2,0,0,1-.61.85Zm1,1.26,2.63.35c-.65.88-1.31,1.71-2,2.52C12.49,11.65,12.3,10.71,12.12,9.73Zm1.78,2.61a.12.12,0,0,1,.08,0,5.53,5.53,0,0,0,.79-.34,10.28,10.28,0,0,0,1.73-.85,6.39,6.39,0,0,0,1.24-.83A4,4,0,0,0,18,10c.09-.11.18-.14.34,0a2,2,0,0,1-.2.28,4.23,4.23,0,0,1-.51.44c-.31.24-.63.47-.95.69l-.07.05c-.49.27-1,.55-1.45.81s-.84.4-1.27.59c-.14.06-.29.1-.48.16Zm.48-5.26c.19.93.36,1.79.54,2.68l-2.6-.34ZM8,10.13l-.11.11C7.7,9.8,7.53,9.41,7.39,9S7,7.89,6.83,7.33a16,16,0,0,1-.72-3.87A5.69,5.69,0,0,1,6.23,2.1a2,2,0,0,1,.41-.88,1.17,1.17,0,0,1,1-.4,2.68,2.68,0,0,1,1.13.36,8.37,8.37,0,0,1,1.88,1.47,18.05,18.05,0,0,1,1.92,2.26l.93,1.3c.06.1.11.21.17.33-.13.16-.26.32-.4.47a.51.51,0,0,1-.18.09,13.39,13.39,0,0,0-1.65.57,9.73,9.73,0,0,0-1.65.9A8.17,8.17,0,0,0,8,10.13ZM2.51,12.82a2.74,2.74,0,0,1,1.91-.68,5.58,5.58,0,0,1,.82.11c.66.12,1.32.27,2,.4.3.06.61.09,1,.15-.5.38-.94.74-1.4,1a10.63,10.63,0,0,1-1.32.74,3.46,3.46,0,0,1-2.07.34,2.09,2.09,0,0,1-1.67-1.29A2.94,2.94,0,0,1,2.51,12.82Zm-1.22,2,1,2.53A2.51,2.51,0,0,1,1.29,14.81Zm1.34,2.57c-.31-.79-.6-1.55-.89-2.31a3.82,3.82,0,0,0,2.05.72Zm3,.28-.07,0-.09,0-.09,0-.08,0-.09,0-.17,0H4.78l-.13,0-.49,0a2.35,2.35,0,0,1-1.26-.24.25.25,0,0,1,0-.07l1.31-1.82,1.66,1.77Zm.55-.39-.86-.93a1.59,1.59,0,0,1-.13-.13l-.49-.53c.24-.08.48-.15.71-.24l.12,0,.24-.1.07,0L6.32,15l.06,0,.11-.06.06,0a3.53,3.53,0,0,0,.34-.24l-.06.22-.06.23c-.14.54-.29,1.07-.43,1.61Zm2.62-1.11c-.7.38-1.4.74-2.11,1.11l-.18.07c.26-.94.5-1.83.74-2.74l2.17,1.16A7,7,0,0,1,8.81,16.16ZM23.39,8.74a6.27,6.27,0,0,1-2.06,2.63c-.35.27-.74.49-1.11.73a7.9,7.9,0,0,1-.8.46c-.57.25-1.15.48-1.73.71l-.3.12-.2.07h0l-.16.06-.22.07-.25.08h0l-.24.07-.09,0-.09,0h0l-.22.06-.19,0h0l-.14,0h-.07l-.22.06-1.07.25h0l-.55.11-.83.17-.26,0-.54.11,0,0v0c.23-.25.46-.51.7-.76h0a.5.5,0,0,1,.17-.11,11.5,11.5,0,0,0,1.12-.4c.78-.36,1.57-.72,2.32-1.14a11.38,11.38,0,0,0,2.19-1.51,2.21,2.21,0,0,0,.56-.69A1.89,1.89,0,0,0,19,9.87a.5.5,0,0,0-.32-.66,1.71,1.71,0,0,0-1,0,7.53,7.53,0,0,0-1.46.47,2.71,2.71,0,0,1-.33.1c.22-.32.41-.61.61-.88a11.25,11.25,0,0,1,1.94-2.14,7,7,0,0,1,2-1.14,4,4,0,0,1,2-.27,2.39,2.39,0,0,1,.85.26.35.35,0,0,1,.14.13,6.22,6.22,0,0,1,.31,1.2A4.06,4.06,0,0,1,23.39,8.74Z"/>
          <path class="cls-2" d="M11.86,14.69c.23-.26.46-.51.7-.76a.5.5,0,0,1,.17-.11,11.5,11.5,0,0,0,1.12-.4c.78-.36,1.57-.72,2.32-1.14a11.38,11.38,0,0,0,2.19-1.51,2.29,2.29,0,0,0,.56-.68c0-.08.07-.15.09-.22a.5.5,0,0,0-.32-.66,1.63,1.63,0,0,0-1,0,6.88,6.88,0,0,0-1.46.46,2.71,2.71,0,0,1-.33.1c.22-.32.41-.61.61-.88a11.25,11.25,0,0,1,1.94-2.14,7,7,0,0,1,2-1.14,4,4,0,0,1,2-.27,2.59,2.59,0,0,1,.85.25.47.47,0,0,1,.14.14,6.22,6.22,0,0,1,.31,1.2,4.06,4.06,0,0,1-.3,1.83,6.27,6.27,0,0,1-2.06,2.63c-.35.27-.74.49-1.11.73a7.9,7.9,0,0,1-.8.46c-.57.25-1.15.48-1.73.71a23.47,23.47,0,0,1-3.57,1c-.74.16-1.49.29-2.23.44ZM21,11.14l.05.06a2.07,2.07,0,0,0,.62-.52,1.05,1.05,0,0,0,.13-.26.31.31,0,0,0-.12-.35ZM20.66,10l-.41.9a1.06,1.06,0,0,0,.54-.54A.32.32,0,0,0,20.66,10Zm-.66.05a1.45,1.45,0,0,0-.35.63C20,10.51,20.11,10.38,20,10.05Z"/>
          <path class="cls-2" d="M7.87,10.24C7.7,9.8,7.53,9.41,7.39,9S7,7.89,6.83,7.33a16,16,0,0,1-.72-3.87A5.69,5.69,0,0,1,6.23,2.1a2,2,0,0,1,.41-.88,1.17,1.17,0,0,1,1-.4,2.68,2.68,0,0,1,1.13.36,8.37,8.37,0,0,1,1.88,1.47,18.05,18.05,0,0,1,1.92,2.26l.93,1.3c.06.1.11.21.17.33-.13.16-.26.32-.4.47a.38.38,0,0,1-.18.09,13.39,13.39,0,0,0-1.65.57,9.73,9.73,0,0,0-1.65.9A8.17,8.17,0,0,0,8,10.13ZM7.55,8a2.15,2.15,0,0,0,.83-.6A.72.72,0,0,0,7.56,8V8Zm1.39.65a.67.67,0,0,0-.56.15,1,1,0,0,0-.32.64Zm-1.18.12c.3-.26.62-.46.9-.75A.83.83,0,0,0,7.76,8.72ZM8,6.22c-.4-.14-.69,0-.88.55Zm.15.59a.58.58,0,0,0-.8.46ZM7.83,5.65a.56.56,0,0,0-.78.49ZM6.76,4.89l.75-.47C7.19,4.29,7,4.43,6.76,4.89Zm.14.66.77-.49C7.38,4.91,7.11,5.07,6.9,5.55Zm.45-1.67c-.35-.14-.6,0-.71.41Zm-.18-.57a.46.46,0,0,0-.63.41Zm-.71-.13.62-.37C6.78,2.7,6.58,2.82,6.46,3.18ZM7,2.32a.36.36,0,0,0-.53.28Z"/>
          <path class="cls-2" d="M8.22,12.8c-.5.38-.94.74-1.4,1a10.63,10.63,0,0,1-1.32.74,3.46,3.46,0,0,1-2.07.34,2.09,2.09,0,0,1-1.67-1.29,2.94,2.94,0,0,1,.75-.82,2.74,2.74,0,0,1,1.91-.68,5.58,5.58,0,0,1,.82.11c.66.12,1.32.27,2,.4C7.52,12.71,7.83,12.74,8.22,12.8Z"/>
          <path class="cls-3" d="M12.23,13.2a15,15,0,0,1-2.18,2.11c-.19-1-.34-1.92-.5-2.89Z"/>
          <path class="cls-3" d="M12.72,12.6c-.23-.95-.42-1.89-.6-2.87l2.63.35C14.1,11,13.44,11.79,12.72,12.6Z"/>
          <path class="cls-4" d="M11.81,10l.59,2.93-2.66-.77Z"/>
          <path class="cls-5" d="M6.52,17.34l.74-2.74,2.17,1.16a7,7,0,0,1-.62.4c-.7.38-1.4.74-2.11,1.11Z"/>
          <path class="cls-5" d="M4.25,15.78l1.66,1.77a4.35,4.35,0,0,1-1.75.36,2.35,2.35,0,0,1-1.26-.24.25.25,0,0,1,0-.07Z"/>
          <path class="cls-4" d="M14.38,7.08l.54,2.68-2.6-.34Z"/>
          <path class="cls-4" d="M17.23,4.09a5.69,5.69,0,0,1,2.44-1.37c0,.12,0,.23,0,.35,0,.58.07,1.17.1,1.77H19.7l-2.25-.67Z"/>
          <path class="cls-4" d="M9.73,15.53c-.79-.4-1.53-.78-2.3-1.21a13.14,13.14,0,0,0,1.81-1.69Z"/>
          <path class="cls-6" d="M15.19,9.36l-.52-2.55,2.29.3-1.7,2.26Z"/>
          <path class="cls-4" d="M16.71,4.52c.17.8.32,1.52.45,2.27l-2.3-.29A20,20,0,0,1,16.71,4.52Z"/>
          <path class="cls-3" d="M17.05,4.4l2.42.71c-.36.24-.69.46-1,.7s-.62.48-.95.75a1.09,1.09,0,0,1-.09-.23Z"/>
          <path class="cls-4" d="M6.19,17.27,4.71,15.68a6.56,6.56,0,0,0,2.18-1Z"/>
          <path class="cls-6" d="M20.05,2.69l2.17,1.85c-.38,0-.71,0-1,.06s-.65.13-1,.2A12.3,12.3,0,0,1,20.05,2.69Z"/>
          <path class="cls-7" d="M1.74,15.07a3.82,3.82,0,0,0,2.05.72L2.63,17.38Z"/>
          <path class="cls-8" d="M13.42,13l.48-.62a.12.12,0,0,1,.08,0,5.53,5.53,0,0,0,.79-.34,10.28,10.28,0,0,0,1.73-.85,6.39,6.39,0,0,0,1.24-.83A2.73,2.73,0,0,0,18,10c.09-.11.18-.14.34,0a2,2,0,0,1-.2.28,4.23,4.23,0,0,1-.51.44c-.31.24-.63.47-.95.69l-.07.05c-.49.27-1,.55-1.45.81s-.84.4-1.27.59C13.76,12.86,13.61,12.9,13.42,13Z"/>
          <path class="cls-7" d="M22.87,4.66l-2.4-2a1.36,1.36,0,0,1,.59,0,1.34,1.34,0,0,1,1,.42,1.71,1.71,0,0,1,.39.65c.11.34.28.65.42,1Z"/>
          <path class="cls-7" d="M9.11,9.79a8,8,0,0,1,1.53-1.08c0,.23,0,.42-.05.62s0,.57-.07.85-.13.28-.32.19C9.84,10.19,9.48,10,9.11,9.79Z"/>
          <path class="cls-6" d="M9,12V10.07l1.16.62A17.42,17.42,0,0,1,9,12Z"/>
          <path class="cls-9" d="M1.29,14.81l1,2.53A2.51,2.51,0,0,1,1.29,14.81Z"/>
          <path class="cls-7" d="M8.63,10.29l0,1.23c0,.12,0,.25,0,.43l-.48-1a.21.21,0,0,1,0-.19c.14-.15.24-.36.45-.45Z"/>
          <path class="cls-7" d="M11.75,8.78l-.65-.31a5.21,5.21,0,0,1,1.26-.54A1.94,1.94,0,0,1,11.75,8.78Z"/>
          <path class="cls-9" d="M10.86,9.77,11,8.7l.62.31-.66.79Z"/>
          <path class="cls-7" d="M8.63,10.29v0Z"/>
          <path class="cls-10" d="M21,11.14l.68-1.07a.31.31,0,0,1,.12.35,1.05,1.05,0,0,1-.13.26,2.07,2.07,0,0,1-.62.52Z"/>
          <path class="cls-11" d="M20.66,10a.32.32,0,0,1,.13.36,1.06,1.06,0,0,1-.54.54Z"/>
          <path class="cls-12" d="M20,10.05c.11.33,0,.46-.35.63A1.45,1.45,0,0,1,20,10.05Z"/>
          <path class="cls-13" d="M8.94,8.6l-.88.79a1,1,0,0,1,.32-.64A.67.67,0,0,1,8.94,8.6Z"/>
          <path class="cls-14" d="M7.76,8.72A.83.83,0,0,1,8.66,8C8.38,8.26,8.06,8.46,7.76,8.72Z"/>
          <path class="cls-15" d="M7.56,8a.72.72,0,0,1,.82-.61,2.15,2.15,0,0,1-.83.6Z"/>
          <path class="cls-16" d="M8,6.22l-.88.55C7.33,6.26,7.62,6.08,8,6.22Z"/>
          <path class="cls-12" d="M8.17,6.81l-.8.46A.58.58,0,0,1,8.17,6.81Z"/>
          <path class="cls-13" d="M7.83,5.65l-.78.49A.56.56,0,0,1,7.83,5.65Z"/>
          <path class="cls-14" d="M6.76,4.89c.19-.46.43-.6.75-.47Z"/>
          <path class="cls-14" d="M6.9,5.55c.21-.48.48-.64.77-.49Z"/>
          <path class="cls-17" d="M7.35,3.88l-.71.41C6.75,3.89,7,3.74,7.35,3.88Z"/>
          <path class="cls-17" d="M7.17,3.31l-.63.41A.46.46,0,0,1,7.17,3.31Z"/>
          <path class="cls-13" d="M6.46,3.18c.12-.36.32-.48.62-.37Z"/>
          <path class="cls-17" d="M7,2.32l-.53.28A.36.36,0,0,1,7,2.32Z"/>
          <path class="cls-15" d="M7.55,8V8Z"/>
        </g>
        <path class="cls-1" d="M17,14.53s-5,1.14-6.32,1.29,1.15-1,1.15-1"/>
      </g>
    </g>
  </g>
</svg>
