<?xml version="1.0" encoding="utf-8"?>
<!-- Generator: Adobe Illustrator 26.3.1, SVG Export Plug-In . SVG Version: 6.00 Build 0)  -->
<svg version="1.1" id="Capa_1" xmlns="http://www.w3.org/2000/svg" xmlns:xlink="http://www.w3.org/1999/xlink" x="0px" y="0px"
	 viewBox="0 0 46.1 46.1" style="enable-background:new 0 0 46.1 46.1;" xml:space="preserve">
<style type="text/css">
	.st0{opacity:0.18;}
	.st1{fill:#DD1341;}
	.st2{fill:#DE1241;}
	.st3{fill:#DD1542;}
	.st4{fill:#DE1141;}
	.st5{fill:#DD1743;}
	.st6{fill:#DD1441;}
	.st7{fill:#C4163F;}
	.st8{fill:#F6C9CD;}
	.st9{fill:#387934;}
	.st10{fill:#57A756;}
	.st11{fill:#57A856;}
	.st12{fill:#357A34;}
	.st13{fill:#F8D7D9;}
	.st14{fill:#377B34;}
	.st15{fill:#F7D4D6;}
	.st16{fill:#F8D5D7;}
	.st17{fill:#252F23;}
	.st18{fill:#377A34;}
	.st19{fill:#58AA57;}
	.st20{fill:#F7D3D5;}
	.st21{fill:#F7D2D4;}
	.st22{fill:#F7CDD1;}
	.st23{fill:#F8D6D8;}
	.st24{fill:#EF8EA1;}
</style>
<g id="Capa_2_00000083782029834158404540000018393225561607189642_" class="st0">
	<g id="Capa_1-2">
		<g>
			<path class="st1" d="M22.5,0c0,0.4,0.1,0.8,0.3,1.1c0.6,1,1.5,1.7,2.5,2.1c0.6,0.3,1.3,0.5,2,0.6c0.1,0,0.1,0.1,0.2,0.1v0V4h-0.2
				c-0.9,0.2-1.9,0.1-2.7-0.2c-1.5-0.4-2.7-1.4-3.5-2.8c-0.2-0.3-0.3-0.7-0.5-1.1H22.5z M23.5,2.4c0.7,0.8,1.7,1.3,2.8,1.4
				C25.3,3.5,24.4,3,23.5,2.4z"/>
			<path class="st1" d="M27.4,43.2c0.3-0.1,0.6,0,0.7,0.2c0.1,0.1,0.2,0.2,0.2,0.4c0.3,0.7,0.8,1.2,1.5,1.5c0.8,0.4,1.6,0.7,2.5,0.7
				c0.7,0,1.3,0,2-0.1c0.2,0,0.3,0,0.3,0.3h-3l-1.3-0.3v0.1l0.6,0.2h-2.5c-0.1-0.1-0.1-0.1-0.2-0.2c-0.7-0.4-1.2-1-1.7-1.6
				c-0.2-0.3-0.1-0.4,0.2-0.5s0.4-0.2,0.6-0.3C27.4,43.4,27.4,43.3,27.4,43.2z M27.6,43.8L27.6,43.8c-0.2-0.1-0.3,0-0.4,0.1V44
				L27.6,43.8z"/>
			<path class="st2" d="M43.6,34.9c0.3-0.1,0.5,0,0.7,0.3c0.1,0.2,0.2,0.3,0.2,0.5c0.3,0.8,0.8,1.4,1.5,1.7v1.2l-0.2-0.1
				c-1.3-0.4-2.4-1.3-3.1-2.5c-0.2-0.2-0.2-0.5,0-0.7h0.2c0.2-0.1,0.5-0.2,0.7-0.2S43.6,35,43.6,34.9z M43.3,35.5L43.3,35.5
				c0.1,0.2,0.3,0.1,0.4,0c0,0,0,0,0,0v-0.1L43.3,35.5z"/>
			<path class="st2" d="M2.9,18.9c-0.2,0.2-0.5,0.1-0.7-0.1c-0.1-0.1-0.2-0.2-0.3-0.4c-0.4-0.6-0.9-1.1-1.6-1.3L0,17.1v-1.2
				c0.4,0,0.7,0.1,1.1,0.2c0.9,0.3,1.8,0.9,2.4,1.6c0.2,0.1,0.2,0.4,0.2,0.6c-0.3,0.1-0.5,0.3-0.8,0.4C2.9,18.7,2.9,18.8,2.9,18.9z
				 M2.6,18.5c0.2,0,0.3-0.1,0.4-0.2C2.8,18.2,2.7,18.2,2.6,18.5z"/>
			<path class="st1" d="M4.6,43.5c0.2-0.1,0.5-0.1,0.6,0.1c0.1,0.1,0.2,0.3,0.3,0.5c0.3,0.6,0.8,1.1,1.4,1.4c0.5,0.2,1,0.4,1.4,0.6
				H5.2c0-0.1-0.1-0.1-0.2-0.2c-0.5-0.3-0.9-0.8-1.3-1.3c-0.1-0.2-0.1-0.4,0-0.6c0.3-0.1,0.5-0.2,0.8-0.3
				C4.6,43.7,4.6,43.5,4.6,43.5z M4.8,44L4.8,44C4.5,44,4.5,44,4.4,44.2L4.8,44z"/>
			<path class="st1" d="M15.8,46.1c0-0.6-0.2-1.1-0.6-1.5c-0.2-0.2-0.3-0.4-0.5-0.6c-0.2-0.2-0.1-0.5,0.1-0.7c0.1,0,0.2,0,0.2,0
				c0.2-0.2,0.4-0.4,0.6-0.6c0.2,0,0.3,0,0.5,0.2c0.7,1,1,2.2,1,3.3L15.8,46.1z M15.6,43.3l-0.1-0.1l-0.3,0.3l0.1,0.1L15.6,43.3z"/>
			<path class="st2" d="M39.5,0c0.1,0.5,0.4,0.9,0.8,1.2c0.2,0.2,0.4,0.3,0.6,0.5c0.2,0.2,0.2,0.5,0,0.7c-0.1,0-0.2,0-0.2,0
				c-0.2,0.2-0.3,0.5-0.5,0.7S39.9,3.2,39.7,3c-0.5-0.5-0.9-1.2-1.2-1.9c-0.1-0.4-0.2-0.8-0.3-1.2H39.5z M40.3,2.5
				c0.2-0.1,0.3-0.1,0.2-0.3C40.3,2.2,40.2,2.4,40.3,2.5C40.3,2.5,40.3,2.5,40.3,2.5z"/>
			<path class="st3" d="M42.9,30.7c0-0.1,0-0.2,0.1-0.3c0.6-0.5,1.2-1.1,1.7-1.7c0.6-0.8,0.9-1.7,1-2.7c0-0.4,0-0.8-0.2-1.2
				c-0.1-0.2-0.1-0.4-0.2-0.7c0-0.2,0.1-0.5,0.3-0.6c0.1,0,0.1,0.1,0.2,0.1c0.1,0,0.2,0,0.2,0v4.8c0,0-0.1,0.1-0.1,0.1
				c-0.4,0.6-1,1.1-1.7,1.5C43.8,30.4,43.4,30.6,42.9,30.7z M44,29.8l-0.1,0.1l0,0L44,29.8L44,29.8L44,29.8z M45.7,27.5L45.7,27.5
				c-0.5,0.8-1,1.5-1.6,2.2C44.8,29.2,45.4,28.4,45.7,27.5L45.7,27.5z"/>
			<path class="st4" d="M0,28.5v-4.4L0.3,24v-0.1H0v-0.2l0.7-0.3c0.3,0,0.4,0.3,0.4,0.5c0.1,0.6,0.1,1.3,0,2C1,26.8,0.6,27.7,0,28.5
				z"/>
			<path class="st4" d="M45.3,46.1H44c0-0.1,0-0.2,0-0.2c0.2-0.9,0.7-1.8,1.4-2.5c0.2-0.3,0.4-0.4,0.7-0.5V45
				C45.7,45.3,45.5,45.7,45.3,46.1z"/>
			<path class="st5" d="M45.2,0c-0.2,0.5-0.3,1-0.5,1.5c-0.1,0.7-0.1,1.5,0.1,2.2c0.1,0.4,0.2,0.8,0.3,1.1c0,0.1,0.1,0.2-0.1,0.3
				c-0.6-0.7-0.9-1.5-1.2-2.4c-0.2-0.9-0.2-1.8,0-2.7L45.2,0z M44.7,0.9c-0.3,0.9-0.3,1.9,0,2.8C44.5,2.7,44.5,1.8,44.7,0.9z"/>
			<path class="st3" d="M39.5,41.1c0,0.1,0.1,0.2,0,0.3c-0.3,0.7-0.4,1.5-0.5,2.3c-0.1,0.8,0,1.7,0.4,2.4h-1.3c0-0.2,0-0.4,0-0.5
				c-0.1-1.1,0.1-2.3,0.6-3.3C39,41.8,39.2,41.5,39.5,41.1z M39,42.6c-0.3,0.9-0.4,1.8-0.1,2.7C38.8,44.4,38.8,43.5,39,42.6z"/>
			<path class="st3" d="M14.7,4.7c-0.1-0.2,0-0.3,0.1-0.4c0.6-0.9,1-1.9,1.1-3c0-0.4,0-0.9,0-1.3h1.2c-0.1,0.6-0.2,1.2-0.3,1.8
				c-0.2,0.7-0.6,1.4-1.1,2C15.4,4.1,15,4.4,14.7,4.7z M15.3,3.7c0.6-0.9,0.9-1.9,0.9-3C16,1.8,15.8,2.8,15.3,3.7L15.3,3.7z"/>
			<path class="st6" d="M8.1,0h0.8C8.9,0,9,0,9,0.1h1.5C10.6,0,10.8,0,11,0h0.7c-0.1,0.1-0.1,0.1-0.2,0.2C10.7,0.6,9.9,0.8,9,0.9
				c-0.9,0-1.9-0.1-2.8-0.4C5.9,0.3,5.7,0.2,5.4,0h2.1c0.7,0.3,1.3,0.4,2.1,0.3c0.4,0,0.8,0,1.2-0.1c-0.2,0-0.5,0-0.7,0
				c-0.2,0-0.5,0-0.7,0C8.9,0.2,8.5,0.1,8.1,0z"/>
			<path class="st3" d="M46.1,17.1c-0.9-0.4-1.9-0.4-2.9-0.2c-0.5,0.1-1,0.2-1.5,0.3c-0.1,0-0.2,0-0.3-0.1c0.2-0.1,0.5-0.3,0.7-0.5
				c0.9-0.5,1.8-0.8,2.8-0.8h1.1L46.1,17.1z M42.9,16.7c0.5,0,0.9-0.1,1.4-0.1s1,0.1,1.4,0.1v-0.1C44.8,16.4,43.8,16.4,42.9,16.7z"
				/>
			<path class="st3" d="M0,37.4c0.8,0.5,1.8,0.8,2.7,0.9c0.5,0,1,0,1.4,0c0.1,0,0.2,0.1,0.3,0.1c-0.1,0.1-0.1,0.1-0.2,0.1
				c-1.1,0.4-2.2,0.6-3.4,0.3L0,38.7V37.4z M0.2,37.8c0.3,0.5,2.5,0.9,3.3,0.7C2.4,38.5,1.2,38.2,0.2,37.8z"/>
			<path class="st7" d="M20.6,0c0.1,0.4,0.3,0.7,0.5,1.1c0.7,1.4,2,2.4,3.5,2.8c0.9,0.3,1.8,0.4,2.7,0.2h0.2c0,0.2-0.2,0.2-0.4,0.2
				c-0.8,0.1-1.7,0.1-2.5-0.2c-1.1-0.3-2.1-0.9-2.9-1.6C21,1.8,20.5,1,20.2,0H20.6z"/>
			<path class="st6" d="M28.6,0h2.6c0.7,0.1,1.5,0.1,2.2,0h0.7l-0.2,0.1c-1.3,0.6-2.7,0.7-4,0.3C29.5,0.4,29,0.2,28.6,0z"/>
			<path class="st7" d="M0,28.5c0.6-0.8,1-1.7,1.1-2.7c0.1-0.6,0.1-1.3,0-2c-0.1-0.3-0.1-0.5-0.4-0.5l-0.1-0.1
				c0.3-0.1,0.7,0.1,0.8,0.4c0,0,0,0,0,0c0.2,0.6,0.2,1.2,0.1,1.8c-0.1,1.3-0.6,2.5-1.5,3.4c0,0,0,0-0.1,0V28.5z"/>
			<path class="st7" d="M5.4,0c0.3,0.2,0.6,0.3,0.9,0.5C7.1,0.8,8.1,0.9,9,0.9c0.9-0.1,1.7-0.3,2.5-0.8c0.1,0,0.1-0.1,0.2-0.2l0,0
				c0,0.3-0.1,0.3-0.3,0.4C10.1,1.1,8.5,1.4,7.1,1C6.3,0.9,5.6,0.6,5,0.2L4.8,0H5.4z"/>
			<path class="st7" d="M42.7,35.4c-0.2,0.2-0.2,0.5,0,0.7c0.7,1.2,1.8,2.1,3.1,2.5l0.2,0.1V39c-1.3-0.3-2.4-1-3.2-2.1
				c-0.2-0.3-0.4-0.6-0.5-0.9c-0.1-0.3,0-0.6,0.3-0.7C42.6,35.3,42.6,35.3,42.7,35.4L42.7,35.4z"/>
			<path class="st7" d="M28.6,0c0.4,0.2,0.9,0.4,1.4,0.5c1.3,0.4,2.7,0.2,4-0.3L34.2,0h0.4c-0.1,0.1-0.2,0.1-0.3,0.2
				c-1.8,0.9-3.9,1-5.8,0.1c-0.2-0.1-0.4-0.2-0.5-0.3H28.6z"/>
			<path class="st7" d="M3.7,18.2c0.1-0.2,0-0.5-0.2-0.6c-0.7-0.7-1.5-1.3-2.4-1.6C0.7,16,0.4,15.9,0,15.9v-0.3
				c0.4,0,0.7,0.1,1.1,0.2c1.1,0.3,2,0.9,2.7,1.7C4,17.7,4,18.1,3.7,18.2C3.8,18.3,3.7,18.3,3.7,18.2L3.7,18.2z"/>
			<path class="st7" d="M38.1,0c0.1,0.4,0.2,0.8,0.4,1.2c0.3,0.7,0.7,1.3,1.2,1.9c0.2,0.2,0.3,0.2,0.6,0.1l0.1,0.1
				c-0.2,0.2-0.6,0.2-0.9,0c0,0,0,0,0,0c-0.1-0.1-0.2-0.1-0.3-0.2c-0.7-0.8-1.2-1.8-1.4-2.8c0-0.1,0-0.1,0-0.2H38.1z"/>
			<path class="st7" d="M17.1,46.1c0-1.2-0.3-2.4-1-3.3c-0.1-0.2-0.3-0.2-0.5-0.2l-0.1-0.1c0.2-0.2,0.6-0.2,0.8,0.1
				c0.1,0.1,0.2,0.3,0.3,0.4c0.5,0.9,0.7,1.8,0.8,2.8c0,0.1,0,0.2,0,0.3H17.1z"/>
			<path class="st7" d="M46.1,42.9c-0.3,0.1-0.6,0.3-0.7,0.5c-0.7,0.7-1.1,1.5-1.4,2.5c0,0.1,0,0.2,0,0.2h-0.4l0.1-0.4
				c0.3-1.1,0.8-2,1.7-2.8c0.2-0.2,0.5-0.3,0.7-0.2L46.1,42.9z"/>
			<path class="st7" d="M14.7,4.7c0.3-0.3,0.7-0.6,1-0.9c0.5-0.6,0.9-1.3,1.1-2C16.9,1.2,17,0.6,17.1,0h0.3
				c-0.1,1.8-0.9,3.5-2.3,4.6C15,4.7,14.9,4.9,14.7,4.7z"/>
			<path class="st5" d="M21.7,45.1c0.3,0,0.5,0.2,0.6,0.4c0.1,0.2,0.1,0.4,0.1,0.6h-1.8c0-0.1,0-0.2-0.1-0.3c-0.1-0.2,0-0.4,0.2-0.4
				c0,0,0,0,0,0c0.3,0,0.6,0,0.8,0C21.6,45.3,21.7,45.2,21.7,45.1z M21.3,45.6L21.3,45.6c0.2,0.2,0.2,0.2,0.4,0L21.3,45.6z"/>
			<path class="st7" d="M39.5,41.1c-0.3,0.4-0.6,0.8-0.8,1.2c-0.6,1-0.8,2.2-0.6,3.3c0,0.2,0,0.4,0,0.5h-0.3c0-0.5,0-1,0-1.5
				c0.1-1.2,0.6-2.4,1.4-3.4C39.2,41.1,39.3,41,39.5,41.1z"/>
			<path class="st7" d="M43.9,0c-0.2,0.9-0.2,1.8,0,2.7c0.2,0.9,0.6,1.7,1.1,2.4c-0.2,0.1-0.3,0-0.4-0.2c-0.5-0.8-0.9-1.6-1.1-2.5
				c-0.1-0.8-0.1-1.6,0-2.4H43.9z"/>
			<path class="st7" d="M46.1,15.9H45c-1,0-2,0.3-2.9,0.8c-0.3,0.1-0.5,0.3-0.7,0.5c-0.1-0.2,0.1-0.2,0.2-0.3c0.9-0.7,2-1.1,3.2-1.2
				c0.4,0,0.9,0,1.3,0V15.9z"/>
			<path class="st7" d="M0,38.7l0.8,0.2C2,39.1,3.2,39,4.2,38.5c0.1,0,0.1-0.1,0.2-0.1c0.1,0.2-0.1,0.3-0.2,0.3
				c-0.7,0.3-1.4,0.4-2.1,0.5c-0.7,0-1.3,0-1.9-0.2c0,0-0.1,0-0.1,0V38.7z"/>
			<path class="st7" d="M26.7,43.8c-0.3,0.1-0.3,0.2-0.2,0.5c0.4,0.6,1,1.2,1.7,1.6c0.1,0.1,0.1,0.1,0.2,0.2h-0.6
				c-0.3-0.2-0.6-0.5-0.8-0.7c-0.2-0.2-0.5-0.5-0.6-0.8c-0.2-0.3-0.2-0.7,0-0.9c0,0,0.1,0,0.1-0.1L26.7,43.8z"/>
			<path class="st7" d="M3.7,44c-0.1,0.2-0.1,0.4,0,0.6c0.4,0.5,0.8,0.9,1.3,1.3C5.1,46,5.1,46,5.2,46.1H4.7
				c-0.2-0.1-0.4-0.3-0.5-0.5c-0.2-0.3-0.5-0.6-0.7-0.9c-0.2-0.3-0.1-0.7,0.2-0.8c0,0,0,0,0,0L3.7,44z"/>
			<path class="st7" d="M42.9,30.7c0.5-0.1,1-0.3,1.4-0.6c0.7-0.4,1.3-0.9,1.7-1.5c0,0,0.1-0.1,0.1-0.1v0.4
				c-0.5,0.4-0.9,0.8-1.4,1.2c-0.5,0.3-0.9,0.5-1.4,0.7C43.1,30.9,43,30.9,42.9,30.7z"/>
			<path class="st8" d="M8.1,0c0.4,0.1,0.8,0.2,1.2,0.2c0.2,0,0.5,0,0.7,0c0.2,0,0.5,0,0.7,0C10.4,0.3,10,0.3,9.6,0.3
				c-0.7,0-1.4-0.1-2-0.3H8.1z"/>
			<path class="st9" d="M0.6,23.2l0.1,0.1L0,23.6v-1.1c0,0.1,0.1,0.2,0.1,0.4C0.2,23.2,0.2,23.2,0.6,23.2z"/>
			<path class="st7" d="M20.8,45.3c-0.2,0-0.3,0.2-0.2,0.4c0,0,0,0,0,0c0,0.1,0,0.2,0.1,0.3h-0.4c-0.1-0.3,0-0.7,0.4-0.9
				c0,0,0.1,0,0.1,0L20.8,45.3z"/>
			<path class="st10" d="M46,23.3c-0.2-0.4-0.3-0.8-0.2-1.2c0-0.2,0.1-0.4,0.3-0.4v0.1c-0.1,0.1-0.2,0.3-0.2,0.5
				c0,0.3,0.1,0.7,0.2,1v0.1L46,23.3z"/>
			<path class="st11" d="M0.5,43.8c0.1,0,0.2,0,0.2,0.1c0.2,0.2,0.2,0.5,0,0.7C0.4,44.7,0.2,45,0,45.2V45c0.2-0.2,0.4-0.4,0.5-0.5
				C0.6,44.2,0.6,44,0.5,43.8z"/>
			<path class="st12" d="M0.5,43.8c0.2,0.2,0.2,0.5,0,0.7C0.3,44.7,0.2,44.8,0,45v-0.2c0.3-0.1,0.5-0.5,0.4-0.8c0,0,0,0,0-0.1
				C0.4,43.9,0.4,43.8,0.5,43.8z"/>
			<path class="st13" d="M33.4,0c-0.7,0.1-1.5,0.1-2.2,0H33.4z"/>
			<path class="st14" d="M46.1,23.3c-0.1-0.3-0.2-0.7-0.2-1c0-0.1,0.1-0.3,0.2-0.5v0.2c-0.1,0.2-0.1,0.5,0,0.7V23.3z"/>
			<path class="st15" d="M30.8,46.1l-0.6-0.2v-0.1l1.3,0.3L30.8,46.1z"/>
			<path class="st12" d="M0,21.8c0.1,0,0.1-0.1,0.2-0.1c0.1,0,0.1,0,0.2,0c0,0.1,0,0.1-0.1,0.2C0.2,22,0.1,22.1,0,22.2V21.8z"/>
			<path class="st9" d="M46,23.3l0.1,0.1v0.2c-0.1,0-0.2,0-0.2,0c-0.1,0-0.1-0.1-0.2-0.1L46,23.3z"/>
			<path class="st16" d="M0,23.9h0.3V24L0,24.1V23.9z"/>
			<path class="st17" d="M46.1,22.8c-0.1-0.2-0.1-0.5,0-0.7V22.8z"/>
			<path class="st1" d="M18,36.5c0.2-0.1,0.5-0.1,0.6,0.1c0.1,0.2,0.3,0.3,0.4,0.5c0.2,0.5,0.6,0.9,1.1,1.2c0.9,0.6,2.1,0.9,3.2,0.8
				c0.5,0,1-0.1,1.5-0.1c0.1,0,0.2,0,0.3,0.1c-0.1,0.1-0.2,0.1-0.3,0.2c-1.3,0.6-2.7,0.8-4.1,0.5c-1.4-0.3-2.7-1.1-3.5-2.2
				C17,37.5,17,37.2,17.1,37c0.3-0.1,0.5-0.2,0.8-0.3C18,36.7,18,36.5,18,36.5z M23.6,39.5c-0.5,0-0.9,0-1.4-0.1s-0.9-0.2-1.4-0.3
				v0.1C21.8,39.5,22.7,39.6,23.6,39.5L23.6,39.5z M17.8,37.1L17.8,37.1c0.2,0.1,0.3,0.1,0.4-0.2L17.8,37.1z"/>
			<path class="st1" d="M11.4,4.9c0.1,0.2,0.1,0.4,0,0.6c-0.1,0.2-0.2,0.3-0.4,0.4c-0.8,0.5-1.3,1.2-1.5,2.1
				c-0.3,0.9-0.3,1.8-0.1,2.7c0.1,0.4,0.2,0.9,0.3,1.3c0,0.1,0.1,0.2-0.1,0.3c-0.4-0.5-0.7-1.1-0.9-1.7C8.4,10,8.3,9.3,8.3,8.7
				c0-0.4,0-0.8,0.1-1.2c0.1-0.4,0.1-0.8,0.3-1.2C9,5.5,9.5,4.8,10.2,4.2C10.3,4,10.6,3.9,10.8,4c0.1,0.3,0.3,0.5,0.4,0.8
				C11.2,4.8,11.4,4.8,11.4,4.9z M9.1,10.7L9.1,10.7L9.2,8C8.9,8.9,8.9,9.8,9.1,10.7z M10.8,4.7L10.8,4.7c-0.1,0.2-0.1,0.3,0.1,0.4
				L11,5L10.8,4.7z"/>
			<path class="st1" d="M12.3,33.9c-0.1-0.1,0-0.2,0.1-0.3c0.5-0.8,0.9-1.7,1.1-2.6c0.2-0.8,0.1-1.7-0.1-2.5
				c-0.1-0.3-0.3-0.7-0.5-0.9c-0.1-0.2-0.3-0.4-0.4-0.6c-0.1-0.2-0.1-0.5,0.1-0.7c0.1,0,0.2,0,0.2,0c0.2-0.2,0.4-0.4,0.6-0.6
				s0.4-0.1,0.5,0.1c0.7,1.1,1.1,2.3,0.9,3.6c-0.1,1.2-0.5,2.4-1.3,3.4C13.1,33.2,12.7,33.6,12.3,33.9z M13,32.7
				c0.6-0.8,0.8-1.8,0.7-2.8C13.6,30.8,13.4,31.8,13,32.7z M13.1,26.3L13.1,26.3c-0.2,0-0.3,0-0.3,0.3L13.1,26.3z"/>
			<path class="st6" d="M21.1,8.1c0.3,0,0.5,0.1,0.6,0.4c0.1,0.2,0.1,0.4,0.1,0.6c0,0.5,0.2,1,0.5,1.4c0.6,0.9,1.5,1.5,2.4,1.9
				c0.6,0.3,1.2,0.5,1.9,0.6c0.1,0,0.2,0.1,0.2,0.2h-1.6c-1.8-0.2-3.5-1.2-4.5-2.7C20.3,10,20,9.4,19.9,8.7c-0.1-0.1,0-0.3,0.2-0.4
				c0,0,0,0,0,0c0.3,0,0.5,0,0.8-0.1C20.9,8.3,21,8.2,21.1,8.1z M25.4,12.9c-0.4-0.2-0.9-0.4-1.3-0.6s-0.8-0.5-1.2-0.8v0.1
				C23.6,12.3,24.4,12.7,25.4,12.9z M20.6,8.7c0.1,0.1,0.3,0.1,0.4-0.1c0,0,0,0,0,0C20.9,8.5,20.7,8.5,20.6,8.7z"/>
			<path class="st6" d="M34.5,26.3c0.1,0.2,0.1,0.5-0.1,0.7c-0.2,0.2-0.3,0.3-0.5,0.4c-0.4,0.3-0.8,0.7-1,1.2
				c-0.5,1-0.7,2.2-0.5,3.3c0.1,0.5,0.2,1,0.3,1.6c0,0.1,0,0.2,0,0.3c-0.3-0.4-0.6-0.8-0.8-1.3c-0.5-1.1-0.7-2.3-0.5-3.5
				c0.2-1.3,0.9-2.6,1.9-3.5c0.2-0.2,0.3-0.2,0.5,0s0.3,0.4,0.4,0.6S34.4,26.3,34.5,26.3z M32.3,32.3c-0.1-0.9-0.1-1.9,0-2.8
				C32,30.4,32,31.4,32.3,32.3z M33.9,26.2L33.9,26.2l0.1,0.4h0.1C34.1,26.4,34,26.3,33.9,26.2z"/>
			<path class="st1" d="M24,30.8c0-0.1,0-0.2,0.1-0.3c0.6-0.5,1.2-1,1.6-1.6c0.7-0.8,1.1-1.9,1.1-3c0-0.3-0.1-0.7-0.2-1
				c0-0.2-0.1-0.4-0.2-0.6c-0.1-0.3,0.1-0.6,0.3-0.7c0.1,0,0.1,0.1,0.2,0.1c0.3-0.1,0.5-0.2,0.8-0.3s0.4,0.1,0.4,0.4
				c0.3,1.3,0.1,2.7-0.5,3.8c-0.5,1-1.3,1.9-2.2,2.5C25,30.4,24.5,30.6,24,30.8z M25.2,29.8c0.8-0.6,1.3-1.4,1.6-2.3
				c-0.2,0.4-0.5,0.8-0.7,1.2S25.5,29.5,25.2,29.8L25.2,29.8z M27,24.1v0.1l0.4-0.1V24C27.2,23.9,27.1,24,27,24.1
				C27,24.1,27,24.1,27,24.1z"/>
			<path class="st6" d="M32.4,41.1c-0.3,0-0.5-0.2-0.5-0.5c0-0.2-0.1-0.5-0.1-0.7c0-0.4-0.1-0.8-0.4-1.1c-0.5-0.9-1.4-1.7-2.4-2.1
				c-0.6-0.3-1.2-0.5-1.9-0.7c-0.1,0-0.2-0.1-0.2-0.2h0.3c1.6-0.1,3.2,0.4,4.4,1.5c0.3,0.2,0.5,0.4,0.7,0.7c0.3,0.5,0.7,1,0.9,1.5
				c0.1,0.4,0.3,0.8,0.3,1.2c0.1,0.2,0,0.4-0.2,0.5c-0.3,0-0.6,0-0.9,0C32.5,41,32.4,41.1,32.4,41.1z M30.8,37.6
				c-0.6-0.7-1.4-1.2-2.4-1.4C29.3,36.5,30.1,37,30.8,37.6z M32.5,40.6L32.5,40.6c0.1,0.2,0.3,0.2,0.4,0c0,0,0,0,0,0H32.5z"/>
			<path class="st1" d="M21,28c0.3,0.1,0.4,0.4,0.3,0.7c0,0.1-0.1,0.3-0.1,0.4c-0.3,0.7-0.4,1.5-0.2,2.3c0.2,0.8,0.5,1.5,1.1,2.2
				c0.4,0.5,0.9,1.1,1.4,1.5c0.1,0,0,0.2,0.1,0.3c-0.9-0.3-1.8-0.8-2.5-1.6c-0.9-0.9-1.5-2.2-1.7-3.5c-0.1-0.7,0-1.5,0.2-2.2
				c0-0.2,0.2-0.3,0.4-0.3c0.3,0.1,0.5,0.3,0.8,0.4C20.8,28.1,20.9,28,21,28z M20.9,31.9l-0.1,0.1c0.4,1,1,1.8,1.8,2.5
				C21.9,33.7,21.3,32.8,20.9,31.9L20.9,31.9z M20.4,28.2L20.4,28.2c0.1,0.2,0.2,0.3,0.3,0.2c0,0,0,0,0,0v-0.1L20.4,28.2z"/>
			<path class="st1" d="M8.5,23.9c0.1,0.2,0.1,0.5-0.1,0.7c-0.2,0.2-0.4,0.3-0.6,0.5c-0.4,0.2-0.7,0.6-0.8,1c-0.5,1-0.7,2.1-0.6,3.2
				c0,0.6,0.2,1.2,0.4,1.8c0.1,0.1,0,0.3-0.1,0.3c0-0.1,0-0.1-0.1-0.2c-0.9-1.4-1.3-3.1-1-4.7c0.2-0.9,0.6-1.8,1.2-2.6
				c0.2-0.3,0.4-0.5,0.7-0.7c0.1-0.1,0.3-0.2,0.5,0c0.1,0.2,0.3,0.5,0.4,0.7C8.3,23.9,8.4,23.9,8.5,23.9z M6.3,29.9
				c-0.1-0.9-0.1-1.9,0-2.9C5.9,28,5.8,29,6.3,29.9L6.3,29.9z M8,24.1L8,24.1c0.1-0.2,0-0.3-0.1-0.4c0,0,0,0,0,0H7.8L8,24.1z"/>
			<path class="st6" d="M36.6,39.5c0-0.1,0-0.2,0-0.3c0.5-0.6,0.9-1.3,1.1-2c0.5-1,0.5-2.1,0.3-3.2c-0.1-0.3-0.2-0.6-0.4-0.8
				c-0.1-0.2-0.3-0.4-0.4-0.6c-0.1-0.2-0.1-0.5,0.2-0.7c0.1,0,0.2,0.1,0.2,0c0.2-0.2,0.4-0.3,0.6-0.5c0.3-0.1,0.4,0,0.5,0.3
				c0.4,0.8,0.7,1.7,0.7,2.5c0,1.3-0.3,2.5-1.1,3.6C37.9,38.5,37.3,39.1,36.6,39.5z M38.4,35.7c-0.1,0.5-0.2,0.9-0.4,1.4
				s-0.4,0.9-0.6,1.3C38,37.6,38.4,36.7,38.4,35.7z M37.6,32.3c0.3,0,0.4,0,0.4-0.3L37.6,32.3z"/>
			<path class="st1" d="M0.6,12.8c-0.1-0.1-0.1-0.2,0.1-0.3c0.6-0.5,1.2-1,1.6-1.6C3,10,3.4,9,3.5,8c0-0.4,0-0.8-0.2-1.2
				C3.2,6.6,3.1,6.4,3.1,6.2C3,6,3.2,5.7,3.4,5.6c0.1,0,0.2,0.1,0.2,0.1l0.8-0.3c0.2,0,0.4,0.1,0.4,0.3c0.1,0.5,0.2,1,0.1,1.5
				c0,0.8-0.2,1.6-0.6,2.3c-0.6,1.1-1.4,2.1-2.6,2.7C1.4,12.4,1,12.6,0.6,12.8z M1.6,11.8c0.8-0.5,1.4-1.4,1.7-2.3
				C3,10.3,2.4,11.1,1.6,11.8L1.6,11.8z M3.7,6L3.7,6C3.8,6.2,4,6.1,4,6c0,0,0,0,0,0V5.9L3.7,6z"/>
			<path class="st1" d="M26.5,11.1c-0.1-0.1,0-0.2,0.1-0.3c0.6-0.4,1.2-1,1.6-1.6c0.8-0.9,1.2-2.2,1.1-3.4c0-0.2-0.1-0.4-0.2-0.6
				c0-0.2-0.1-0.4-0.2-0.6C28.9,4.4,29,4.1,29.3,4c0.1,0,0.1,0.1,0.2,0.1C29.7,4,30,3.9,30.2,3.8s0.4,0.1,0.4,0.4
				c0.1,0.5,0.2,1.1,0.1,1.7c0,0.8-0.2,1.5-0.6,2.2c-0.4,0.9-1.1,1.6-1.9,2.2C27.7,10.6,27.1,10.9,26.5,11.1z M27.5,10.3
				c0.8-0.6,1.4-1.4,1.8-2.3l-0.1-0.1C28.7,8.7,28.2,9.6,27.5,10.3L27.5,10.3z M29.9,4.4V4.2c-0.1,0-0.3,0-0.4,0.2v0.1L29.9,4.4z
				 M27.4,10.4h0.1l0,0l0,0H27.4z"/>
			<path class="st1" d="M36.2,7.4c0.2,0.2,0.1,0.6-0.1,0.7c-0.1,0.1-0.3,0.3-0.5,0.4c-0.4,0.3-0.8,0.7-1,1.2c-0.5,1-0.6,2-0.5,3.1
				c0.1,0.6,0.2,1.2,0.3,1.8c0,0.1,0,0.3-0.1,0.3s0-0.1-0.1-0.2c-0.3-0.5-0.5-1-0.8-1.5c-0.3-0.6-0.4-1.2-0.4-1.9
				c0-0.4,0-0.8,0.1-1.2c0-0.4,0.1-0.8,0.3-1.2c0.3-0.8,0.8-1.6,1.5-2.2c0.1-0.2,0.4-0.3,0.6-0.2c0.2,0.3,0.3,0.5,0.5,0.8
				C36,7.4,36.2,7.4,36.2,7.4z M34.1,10.6L34.1,10.6c-0.3,1-0.3,2,0,2.9C33.9,12.5,33.9,11.5,34.1,10.6z M35.6,7.2L35.6,7.2l0.2,0.3
				C35.8,7.4,35.8,7.3,35.6,7.2z"/>
			<path class="st6" d="M28.6,15.8c0.2-0.1,0.5,0,0.7,0.2c0.1,0.2,0.2,0.4,0.3,0.5c0.2,0.4,0.5,0.8,1,1.1c0.8,0.6,1.8,0.9,2.9,0.9
				c0.7,0,1.3,0,2-0.1c0.1,0,0.2,0,0.3,0c-0.1,0.1-0.2,0.2-0.2,0.2c-1,0.5-2,0.7-3.1,0.7c-1.3,0-2.5-0.5-3.5-1.3
				c-0.4-0.4-0.8-0.8-1.2-1.3c-0.1-0.1-0.1-0.3,0-0.4c0,0,0.1,0,0.1-0.1c0.2-0.1,0.5-0.2,0.7-0.3C28.6,16,28.6,15.9,28.6,15.8z
				 M34.3,18.8L34.3,18.8c-0.3-0.1-0.6-0.1-1-0.1c-0.3,0-0.7-0.1-1-0.1l-0.9-0.2v0.1C32.4,18.9,33.4,19,34.3,18.8L34.3,18.8z
				 M28.4,16.5l0.1,0.1l0.3-0.2l-0.1-0.1L28.4,16.5z"/>
			<path class="st1" d="M36.9,14.2c0-0.2,0.1-0.2,0.2-0.2c0.8-0.2,1.5-0.5,2.2-0.9c0.9-0.5,1.7-1.3,2.1-2.2c0.1-0.3,0.2-0.6,0.2-0.9
				c0-0.2,0-0.5,0.1-0.8C41.8,9,42,8.8,42.3,8.8C42.2,9,42.4,9,42.4,9c0.3,0,0.5,0,0.8,0s0.3,0.2,0.3,0.4c0,0.2-0.1,0.4-0.1,0.6
				C42.5,12.8,39.8,14.6,36.9,14.2L36.9,14.2z M40.7,12.3c-0.8,0.7-1.7,1.2-2.6,1.6C39.1,13.7,40,13.1,40.7,12.3z M42.7,9.3
				c-0.1-0.2-0.3-0.2-0.4,0H42.7z"/>
			<path class="st1" d="M39.7,19.6c0.2,0.2,0.3,0.5,0.2,0.7c-0.1,0.2-0.1,0.3-0.2,0.5c-0.4,0.6-0.5,1.3-0.4,2
				c0.2,1.5,0.8,2.9,1.9,3.9c0.1,0.1,0.3,0.2,0.1,0.4L41,27c-0.8-0.4-1.4-1-1.9-1.6c-0.9-1.1-1.3-2.6-1.3-4c0-0.7,0.2-1.3,0.4-1.9
				c0-0.2,0.3-0.3,0.5-0.3c0.2,0.2,0.5,0.3,0.7,0.5C39.5,19.7,39.6,19.6,39.7,19.6z M40.4,26.1c-0.2-0.3-0.4-0.6-0.5-0.9
				s-0.3-0.6-0.5-0.9s-0.2-0.6-0.3-0.9H39C39.2,24.4,39.7,25.4,40.4,26.1z M38.9,19.8c0.1,0.2,0.3,0.3,0.4,0.2
				C39.3,19.8,39.2,19.7,38.9,19.8z"/>
			<path class="st1" d="M18.8,24.9L18.8,24.9c-0.1-0.1-0.1-0.2-0.1-0.3c-0.2-0.7-0.2-1.5-0.1-2.2c0.1-0.7,0.3-1.4,0.6-2
				c0.3-0.6,0.7-1.2,1.2-1.7c0.5-0.5,1.2-0.9,1.8-1.2c0.2-0.1,0.4-0.1,0.6,0.1V18c0,0.2,0.1,0.3,0.1,0.5s0.1,0.1,0.2,0.1
				c0.1,0.3-0.1,0.5-0.3,0.6c-0.2,0.1-0.4,0.2-0.6,0.2c-0.4,0.1-0.8,0.3-1.1,0.6c-0.8,0.7-1.4,1.6-1.7,2.7c-0.2,0.6-0.3,1.3-0.4,2
				C18.9,24.7,18.8,24.8,18.8,24.9L18.8,24.9z M18.8,23.6c0.1-0.5,0.2-1,0.4-1.4s0.4-0.9,0.6-1.4C19.2,21.6,18.8,22.6,18.8,23.6
				L18.8,23.6z M22.4,18.6h0.1c0.1-0.1,0-0.3-0.1-0.4c0,0,0,0,0,0h-0.1L22.4,18.6z"/>
			<path class="st1" d="M10.9,38.7c-0.2,0.1-0.5,0-0.7-0.2c-0.1-0.2-0.2-0.4-0.3-0.5c-0.2-0.4-0.5-0.8-0.9-1c-0.9-0.6-1.9-1-3-1
				c-0.7,0-1.3,0-2,0.1c-0.1,0-0.2,0-0.3-0.2l0.4-0.2C5.1,35.3,6,35.1,7,35.1c0.6,0,1.1,0.1,1.7,0.2c0.6,0.1,1.2,0.4,1.8,0.8
				c0.6,0.4,1,0.9,1.4,1.4c0.1,0.1,0.2,0.4,0,0.5c0,0,0,0,0,0c-0.3,0.1-0.5,0.2-0.8,0.3C11,38.5,11,38.7,10.9,38.7z M5,35.8
				c1-0.1,2.1,0,3.1,0.3C7.1,35.7,6,35.6,5,35.8z M10.8,38.2L10.8,38.2c0.2,0.1,0.3,0.1,0.4-0.1c0,0,0,0,0,0V38L10.8,38.2z"/>
			<path class="st1" d="M14,16.9c0-0.1,0-0.3,0.1-0.4c0.5-0.8,0.9-1.8,1.1-2.7c0.2-0.8,0.1-1.6-0.1-2.4c-0.1-0.3-0.3-0.6-0.5-0.9
				c-0.1-0.2-0.3-0.4-0.4-0.6c-0.1-0.2-0.1-0.5,0.1-0.7c0.1,0,0.2,0,0.2,0C14.6,9,14.8,8.8,15,8.6s0.5,0.2,0.6,0.4
				c0.7,1.1,0.9,2.3,0.8,3.6c-0.1,1.2-0.6,2.3-1.3,3.3C14.8,16.3,14.4,16.6,14,16.9z M14.6,15.8c0.6-0.9,0.9-1.9,0.8-2.9
				C15.4,13.8,15.1,14.8,14.6,15.8z M14.8,9.3L14.8,9.3c-0.2-0.1-0.3,0-0.3,0.2l0.1,0.1L14.8,9.3z"/>
			<path class="st6" d="M8.6,16.6c0.2-0.1,0.5-0.1,0.6,0.1c0.2,0.2,0.3,0.4,0.4,0.6c0.2,0.4,0.5,0.8,0.9,1c0.9,0.6,1.9,1,3,1
				c0.7,0,1.3,0,2-0.1c0.1,0,0.2,0,0.2,0.1c0,0.1-0.1,0.1-0.2,0.2c-0.8,0.4-1.7,0.7-2.6,0.8c-0.7,0-1.3-0.1-2-0.3
				c-1.3-0.3-2.4-1.1-3.2-2.2c-0.1-0.2-0.1-0.4,0-0.6c0.3-0.1,0.5-0.2,0.8-0.3C8.6,16.8,8.6,16.6,8.6,16.6z M13.4,19.5
				c-0.3,0-0.6-0.1-1-0.1s-0.6-0.1-0.9-0.2v0.1c0.9,0.3,1.9,0.5,2.8,0.3l0.5-0.1H13.4z M8.4,17.1c0.2,0.2,0.3,0.1,0.4-0.2L8.4,17.1z
				"/>
			<path class="st7" d="M14,16.9c0.4-0.3,0.8-0.6,1.1-1c0.8-0.9,1.2-2.1,1.3-3.3c0.1-1.3-0.1-2.5-0.8-3.6c-0.1-0.2-0.3-0.5-0.6-0.4
				l-0.1-0.1c0.2-0.2,0.6-0.2,0.8,0.1c0.2,0.2,0.4,0.5,0.5,0.7c1.2,2.6,0.5,5.7-1.8,7.5C14.3,16.9,14.2,17,14,16.9z"/>
			<path class="st7" d="M11.8,38.2c0.1-0.1,0.2-0.4,0-0.5c0,0,0,0,0,0c-0.4-0.6-0.9-1-1.4-1.4c-0.5-0.4-1.1-0.7-1.8-0.8
				c-0.5-0.1-1.1-0.2-1.6-0.2c-1,0-1.9,0.2-2.8,0.6L3.8,36c0.1-0.1,0.1-0.2,0.2-0.3c0.8-0.4,1.6-0.7,2.5-0.8c1-0.1,2,0.1,3,0.4
				c1,0.4,1.9,1.1,2.5,2.1C12.2,37.7,12.1,38.1,11.8,38.2c0.1,0.1,0,0.1,0,0.1L11.8,38.2z"/>
			<path class="st7" d="M33.4,41c0.2-0.1,0.3-0.3,0.2-0.5c-0.1-0.4-0.2-0.8-0.3-1.2c-0.3-0.5-0.6-1-0.9-1.5
				c-0.2-0.2-0.4-0.5-0.7-0.7c-1.2-1.1-2.8-1.6-4.4-1.5H27c0-0.2,0.2-0.2,0.3-0.2c1.1-0.1,2.3,0.1,3.3,0.6c1.6,0.7,2.8,2.1,3.2,3.8
				c0.1,0.2,0.1,0.4,0.1,0.6c0,0.3-0.2,0.6-0.5,0.6L33.4,41z"/>
			<path class="st7" d="M35.6,6.6c-0.2-0.1-0.5,0-0.6,0.2c-0.7,0.6-1.2,1.3-1.5,2.2c-0.1,0.4-0.2,0.8-0.3,1.2
				c-0.1,0.4-0.1,0.8-0.1,1.2c0,0.6,0.1,1.3,0.4,1.9c0.2,0.5,0.5,1,0.8,1.5c0,0.1,0,0.1,0.1,0.2s-0.2-0.1-0.3-0.1
				c-0.9-1.2-1.3-2.6-1.2-4.1c0-0.4,0.1-0.9,0.1-1.3c0.3-1.1,0.9-2.1,1.8-2.9c0.2-0.2,0.6-0.2,0.9,0c0,0,0,0,0.1,0.1L35.6,6.6z"/>
			<path class="st7" d="M38.7,19.2c-0.2,0-0.4,0.1-0.5,0.3c-0.2,0.6-0.4,1.3-0.4,1.9c-0.1,1.4,0.4,2.9,1.3,4
				c0.5,0.7,1.2,1.2,1.9,1.6l0.2,0.1c-0.2,0.1-0.3,0-0.4,0c-1.3-0.7-2.2-1.8-2.8-3.1c-0.3-0.6-0.5-1.3-0.5-2
				c-0.1-0.9,0.1-1.8,0.5-2.6c0.1-0.3,0.5-0.5,0.8-0.3C38.8,19.1,38.8,19.1,38.7,19.2L38.7,19.2z"/>
			<path class="st7" d="M36.6,39.5c0.7-0.4,1.3-1,1.8-1.7c0.7-1.1,1.1-2.3,1.1-3.6c0-0.9-0.2-1.8-0.7-2.5c-0.2-0.3-0.2-0.4-0.5-0.3
				l-0.1-0.1c0.3-0.2,0.7-0.1,0.9,0.2c0,0,0,0,0,0c0.3,0.5,0.5,1.1,0.6,1.7c0.3,1.8-0.2,3.6-1.3,5c-0.4,0.5-0.8,0.9-1.3,1.3
				C36.9,39.6,36.7,39.7,36.6,39.5z"/>
			<path class="st7" d="M24,30.8c0.5-0.1,1-0.4,1.5-0.7c1-0.6,1.7-1.5,2.2-2.5c0.6-1.2,0.8-2.5,0.5-3.8c0-0.3-0.1-0.4-0.4-0.4v-0.1
				h0.1l0,0c0.4,0,0.7,0.3,0.8,0.7c0.2,1,0.2,2-0.2,3c-0.5,1.3-1.4,2.5-2.5,3.2c-0.5,0.3-1,0.5-1.5,0.7C24.2,30.9,24.1,31,24,30.8z"
				/>
			<path class="st7" d="M7.8,17.1c-0.1,0.2-0.1,0.4,0,0.6c0.8,1.1,1.9,1.9,3.2,2.2c0.7,0.2,1.3,0.3,2,0.3c0.9-0.1,1.8-0.3,2.6-0.8
				c0.1,0,0.1-0.1,0.2-0.2c0.1,0.2,0,0.3-0.1,0.4c-0.6,0.4-1.3,0.6-2.1,0.7c-1.2,0.2-2.4,0.1-3.6-0.4c-1-0.4-1.9-1.1-2.5-2.1
				C7.3,17.6,7.4,17.2,7.8,17.1c0-0.1,0-0.1,0-0.1L7.8,17.1z"/>
			<path class="st7" d="M10.8,4c-0.2-0.1-0.5,0-0.6,0.2C9.5,4.8,9,5.5,8.7,6.3C8.5,6.7,8.5,7.1,8.4,7.5C8.3,7.9,8.3,8.3,8.3,8.7
				c0,0.6,0.1,1.3,0.4,1.8c0.2,0.6,0.5,1.2,0.9,1.7c-0.2,0.1-0.3,0-0.4-0.2c-0.5-0.7-0.9-1.5-1.1-2.4C7.9,8.6,8,7.5,8.3,6.5
				c0.3-1,0.9-1.9,1.7-2.6c0.3-0.2,0.7-0.2,0.9,0.1c0,0,0,0,0,0H10.8z"/>
			<path class="st7" d="M17.2,37c-0.1,0.2-0.1,0.5,0.1,0.7c0.9,1.2,2.1,2,3.5,2.2c1.4,0.3,2.8,0.1,4.1-0.5c0.1-0.1,0.2-0.1,0.3-0.2
				c0.1,0.2,0,0.3-0.2,0.3c-0.7,0.4-1.5,0.7-2.4,0.8c-1.1,0.1-2.2,0-3.2-0.4c-1-0.4-1.9-1.1-2.5-2c-0.2-0.3-0.2-0.7,0.1-0.9
				C17.1,37,17.1,37,17.2,37L17.2,37z"/>
			<path class="st7" d="M22.7,17.6c-0.2-0.2-0.4-0.2-0.6-0.1c-0.7,0.3-1.3,0.7-1.8,1.2c-0.5,0.5-0.9,1-1.2,1.7
				c-0.3,0.6-0.5,1.3-0.6,2c-0.1,0.7,0,1.5,0.1,2.2c0,0.1,0,0.2,0,0.3c-0.1-0.1-0.2-0.2-0.2-0.3c-0.4-1.4-0.3-2.9,0.3-4.2
				c0.5-1.2,1.3-2.1,2.4-2.8c0.3-0.2,0.7-0.3,1-0.4c0.3-0.1,0.7,0.1,0.8,0.4c0,0,0,0,0,0H22.7z"/>
			<path class="st7" d="M26.5,11.1c0.7-0.3,1.3-0.6,1.8-1c0.8-0.6,1.4-1.3,1.9-2.1c0.4-0.7,0.6-1.4,0.6-2.2c0-0.6,0-1.1-0.1-1.7
				c-0.1-0.3-0.1-0.4-0.4-0.4V3.7C30.5,3.5,30.9,3.7,31,4c0,0,0,0,0,0.1c0.1,0.3,0.1,0.5,0.2,0.8c0.1,1-0.1,2.1-0.6,3
				c-0.6,1.3-1.6,2.3-2.8,3c-0.3,0.2-0.7,0.3-1,0.4C26.7,11.2,26.6,11.2,26.5,11.1z"/>
			<path class="st7" d="M36.9,14.2c2.9,0.3,5.6-1.4,6.5-4.2c0.1-0.2,0.1-0.4,0.1-0.6c0-0.2,0-0.3-0.3-0.4l0.1-0.2
				c0.3,0,0.6,0.4,0.6,0.7c0,0,0,0,0,0c0,0.1,0,0.3-0.1,0.4c-0.3,1.1-0.9,2-1.7,2.8c-1,0.9-2.3,1.5-3.7,1.7c-0.4,0-0.8,0-1.2,0
				C37,14.4,36.9,14.4,36.9,14.2z"/>
			<path class="st7" d="M20,27.7c-0.2,0-0.4,0.1-0.4,0.3c-0.2,0.7-0.2,1.4-0.2,2.1c0.1,1.3,0.7,2.6,1.7,3.5c0.7,0.7,1.5,1.3,2.5,1.6
				c-0.1,0.2-0.3,0.1-0.4,0c-2-0.8-3.5-2.6-4-4.7c-0.2-0.9-0.2-1.7,0.1-2.6c0.1-0.3,0.4-0.5,0.8-0.5c0,0,0,0,0.1,0L20,27.7z"/>
			<path class="st7" d="M0.6,12.8c0.4-0.2,0.8-0.3,1.1-0.5c1.1-0.6,2-1.6,2.6-2.7C4.7,8.8,4.9,8,4.9,7.2c0-0.5,0-1-0.1-1.5
				c0-0.2-0.2-0.4-0.4-0.3V5.2C4.7,5.1,5,5.3,5.1,5.6c0.2,0.6,0.3,1.3,0.2,1.9c-0.2,2.2-1.5,4.1-3.5,5c-0.2,0.1-0.5,0.2-0.8,0.3
				C0.9,12.8,0.8,12.8,0.6,12.8z"/>
			<path class="st7" d="M12.3,33.9c0.4-0.3,0.8-0.6,1.1-1.1c0.8-1,1.2-2.1,1.3-3.4c0.1-1.3-0.2-2.6-0.9-3.6
				c-0.1-0.2-0.3-0.3-0.5-0.1v-0.1c0.2-0.2,0.6-0.2,0.8,0.1c0,0,0,0,0,0c0.2,0.2,0.4,0.5,0.5,0.8c0.9,2,0.7,4.2-0.6,6
				c-0.3,0.5-0.8,1-1.3,1.4C12.5,33.9,12.4,34,12.3,33.9z"/>
			<path class="st7" d="M27.9,16.4c-0.2,0.1-0.2,0.2-0.2,0.4c0,0,0,0.1,0.1,0.1c0.3,0.5,0.7,0.9,1.2,1.3c1,0.8,2.2,1.2,3.5,1.3
				c1.1,0.1,2.2-0.2,3.1-0.7c0.1-0.1,0.2-0.1,0.2-0.2c0.1,0.2,0,0.3-0.2,0.4c-1.8,1-4,1.1-5.9,0.2c-0.9-0.4-1.7-1.1-2.2-1.9
				c-0.2-0.3-0.1-0.7,0.1-0.9c0,0,0,0,0.1,0L27.9,16.4z"/>
			<path class="st7" d="M7.8,23.1c-0.2-0.1-0.4-0.1-0.5,0c-0.3,0.2-0.5,0.5-0.7,0.7c-0.6,0.8-1,1.6-1.2,2.6c-0.3,1.6,0.1,3.3,1,4.7
				c0,0.1,0.1,0.1,0.1,0.2c-0.1-0.1-0.2-0.1-0.3-0.2c-0.6-0.9-1.1-1.9-1.2-3c-0.1-0.8,0-1.6,0.2-2.3C5.5,24.7,6.1,23.7,7,23
				C7.2,22.8,7.6,22.8,7.8,23.1C7.9,23,7.9,23.1,7.8,23.1L7.8,23.1z"/>
			<path class="st7" d="M33.9,25.6c-0.2-0.2-0.3-0.2-0.5,0c-1,0.9-1.7,2.1-1.9,3.4c-0.2,1.2,0,2.4,0.4,3.5c0.2,0.5,0.4,0.9,0.8,1.3
				c-0.2,0.1-0.3,0-0.4-0.1c-0.5-0.7-0.9-1.5-1.1-2.3C31,30.1,31,29,31.4,27.9c0.3-1,0.9-1.9,1.7-2.5c0.2-0.2,0.6-0.2,0.8,0
				c0,0,0,0,0,0.1C33.9,25.5,33.9,25.6,33.9,25.6z"/>
			<path class="st7" d="M20.1,8.4c-0.2,0-0.3,0.2-0.2,0.3c0,0,0,0,0,0c0.2,0.6,0.4,1.3,0.8,1.8c1,1.5,2.7,2.5,4.5,2.7h1.6
				c0,0.2-0.2,0.2-0.3,0.2c-2.8,0.4-5.5-1.1-6.6-3.6c-0.1-0.3-0.2-0.7-0.3-1c-0.1-0.3,0.1-0.6,0.4-0.6c0,0,0,0,0.1,0L20.1,8.4z"/>
			<path class="st14" d="M11.8,38.2l0.1,0.1c-0.3,0.3-0.3,0.3-0.1,0.6c0.1,0.2,0.2,0.3,0.4,0.4c0.1,0.1,0.3,0.1,0.4,0.1
				c0.2-0.1,0.2,0,0.2,0.1c-0.4,0.2-0.9,0-1.1-0.4c-0.1-0.2-0.2-0.3-0.3-0.5s-0.1,0-0.1,0l-0.4,0.1c0-0.1,0-0.2,0.1-0.2
				C11.3,38.4,11.5,38.3,11.8,38.2z"/>
			<path class="st9" d="M30.2,3.6v0.1c-0.3,0.1-0.5,0.2-0.8,0.4c0,0-0.1-0.1-0.2-0.1l0.3-0.2c0-0.1,0-0.1,0-0.2
				c0-0.3-0.1-0.6-0.1-0.9c0-0.3,0.2-0.5,0.5-0.5c0,0.1,0,0.2-0.1,0.2c-0.2,0.1-0.3,0.2-0.2,0.4c0,0.3,0.1,0.6,0.2,0.8
				c0,0,0.1,0.1,0.2,0.1C30,3.6,30.1,3.6,30.2,3.6z"/>
			<path class="st9" d="M7.8,23.1L8,23c0.3,0.3,0.3,0.3,0.6,0c0.1-0.1,0.3-0.2,0.4-0.4c0.1-0.1,0.1-0.3,0-0.5C8.9,22.1,9,22,9.1,22
				c0,0.1,0.1,0.2,0.1,0.3c0,0.3,0,0.5-0.2,0.7c-0.2,0.2-0.4,0.3-0.6,0.5c0,0-0.1,0.1,0,0.1l0.1,0.4c-0.1,0-0.2,0-0.2-0.1
				C8.1,23.6,8,23.4,7.8,23.1z"/>
			<path class="st18" d="M43.3,8.8L43.2,9c-0.3,0-0.5,0-0.8,0c-0.1,0-0.2,0-0.2-0.2l0.4-0.1c0-0.1,0.1-0.1,0.1-0.1
				c0.1-0.2,0.1-0.5,0.2-0.7c0.1-0.3,0.4-0.5,0.7-0.5c0,0.1,0,0.2-0.1,0.2c-0.2,0-0.4,0.1-0.4,0.3C43,8.1,43,8.3,42.9,8.6
				c0,0.1,0.1,0.1,0.1,0.2C43.1,8.8,43.2,8.8,43.3,8.8z"/>
			<path class="st14" d="M14.9,8.6L14.9,8.6c-0.1,0.3-0.3,0.5-0.5,0.7c0,0-0.1,0-0.2,0l0.2-0.4c0.1,0,0.1,0,0-0.1
				C14.2,8.5,14,8.3,13.8,8c-0.1-0.3-0.1-0.6,0.2-0.8c0.1,0.1,0.1,0.1,0,0.2c-0.2,0.1-0.2,0.3-0.1,0.5c0.1,0.3,0.3,0.5,0.5,0.8
				L14.9,8.6z"/>
			<path class="st9" d="M27.7,23.3v0.1c-0.2,0.1-0.5,0.2-0.8,0.3c0,0-0.1-0.1-0.2-0.1l0.3-0.2c0-0.1,0-0.1,0-0.2
				c-0.1-0.3-0.1-0.6-0.1-0.9c0-0.3,0.2-0.5,0.4-0.6c0,0,0,0,0,0c0,0.1,0,0.2-0.1,0.2C27.1,22,27,22.2,27,22.4
				c0,0.3,0.1,0.5,0.2,0.8c0,0.1,0.1,0.1,0.2,0.1C27.5,23.3,27.6,23.3,27.7,23.3z"/>
			<path class="st14" d="M26.7,43.8l-0.2-0.1l0,0l0,0l0.3-0.2c-0.1-0.3-0.3-0.6-0.6-0.8c-0.1-0.1-0.3-0.1-0.4,0
				c-0.1,0-0.2,0-0.2-0.1c0.4-0.2,0.8,0,1,0.3c0.1,0.2,0.2,0.4,0.4,0.5s0.1,0,0.1,0l0.4-0.1c0,0.1,0,0.2-0.1,0.2
				C27.1,43.6,26.9,43.7,26.7,43.8z"/>
			<path class="st18" d="M17.2,37l0-0.1c0.3-0.3,0.3-0.3,0.1-0.7c-0.1-0.1-0.2-0.2-0.3-0.3c-0.1-0.2-0.3-0.2-0.5-0.1
				c-0.1,0.1-0.2,0-0.2-0.1c0.3-0.2,0.7-0.1,0.9,0.2c0.2,0.2,0.3,0.4,0.5,0.6c0,0,0.1,0,0.2,0.1l0.4-0.1c0,0.1,0,0.2-0.1,0.2
				C17.7,36.8,17.4,36.9,17.2,37z"/>
			<path class="st9" d="M38.2,31.3l0.1,0.1c-0.2,0.2-0.4,0.4-0.6,0.5c0,0-0.1,0-0.2,0l0.2-0.3c0.1-0.1,0.1-0.1,0-0.2
				c-0.1-0.2-0.3-0.5-0.4-0.8c-0.1-0.3,0-0.6,0.3-0.8c0,0.1,0,0.2,0,0.2c-0.2,0.1-0.2,0.4-0.1,0.6c0.1,0.2,0.2,0.4,0.3,0.6
				c0.1,0.1,0.2,0.2,0.3,0.1C38,31.4,38.1,31.3,38.2,31.3z"/>
			<path class="st18" d="M20.1,8.4V8.2l0,0h0c0.4-0.2,0.4-0.2,0.3-0.6c0-0.2-0.1-0.3-0.2-0.5C20.2,7,20,6.9,19.8,6.9
				c-0.1,0-0.2-0.1-0.2-0.2c0.4,0,0.7,0.2,0.8,0.6c0.1,0.2,0.1,0.5,0.2,0.7c0,0.1,0,0.2,0.1,0.1l0.4,0.1c-0.1,0.1-0.1,0.2-0.2,0.2
				C20.6,8.4,20.3,8.4,20.1,8.4z"/>
			<path class="st12" d="M22.7,17.6h0.1c0,0.1,0.1,0.2,0.2,0.3c0.3,0,0.7-0.2,1-0.4c0.1-0.1,0.1-0.2,0.1-0.4c0-0.2,0-0.2,0.2-0.2
				c0.1,0.4-0.2,0.8-0.6,0.9c-0.2,0.1-0.4,0.1-0.6,0.2c0,0,0,0.1,0,0.1s0,0.3,0,0.4c-0.1,0-0.1-0.1-0.2-0.1s-0.1-0.3-0.1-0.5
				L22.7,17.6L22.7,17.6z"/>
			<path class="st12" d="M27.9,16.4l-0.1-0.1C28,16,28,16,27.8,15.7c-0.1-0.2-0.2-0.3-0.4-0.4c-0.1-0.1-0.3-0.2-0.5-0.1
				c-0.1,0.1-0.2,0-0.2-0.1c0.3-0.2,0.7-0.1,0.9,0.2c0.1,0.2,0.3,0.4,0.4,0.6c0,0,0,0.2,0.1,0l0.4-0.1c0,0.1,0,0.2-0.1,0.2
				C28.3,16.2,28.1,16.3,27.9,16.4z"/>
			<path class="st14" d="M20,27.7l0.1-0.1h0.4c0.1-0.3,0.2-0.6,0.2-0.9c0-0.2-0.1-0.4-0.2-0.4c-0.1,0-0.1-0.1,0-0.2
				c0.3,0.1,0.5,0.4,0.4,0.8c0,0.2-0.1,0.5-0.2,0.7c0,0.1,0,0.1,0,0.2L21,28c-0.1,0-0.1,0.1-0.2,0.1C20.5,28,20.3,27.8,20,27.7z"/>
			<path class="st18" d="M3.7,18.2v0.1l-0.3,0.3c0.2,0.2,0.4,0.5,0.7,0.7c0.1,0.1,0.3,0.1,0.5,0c0.1-0.1,0.2-0.1,0.2,0.1
				c-0.2,0.2-0.6,0.2-0.8,0c-0.2-0.2-0.4-0.4-0.6-0.6c-0.1-0.1-0.1-0.1-0.2,0l-0.4,0.1c0-0.1,0-0.2,0-0.2
				C3.2,18.5,3.4,18.4,3.7,18.2z"/>
			<path class="st18" d="M42.7,35.4L42.7,35.4c0-0.1,0-0.2,0.1-0.2c0.3-0.1,0.2-0.3,0.1-0.5c-0.1-0.2-0.2-0.3-0.3-0.5
				C42.5,34,42.3,34,42.1,34c0,0-0.1,0-0.2-0.1c0.2-0.1,0.4-0.1,0.6,0c0.1,0.1,0.3,0.2,0.3,0.4c0.1,0.2,0.2,0.4,0.3,0.6s0.1,0,0.1,0
				h0.4c0,0.1,0,0.2-0.1,0.2s-0.4,0.2-0.7,0.2L42.7,35.4L42.7,35.4z"/>
			<path class="st9" d="M3.7,44v-0.1c0.3-0.3,0.3-0.3,0-0.7c-0.1-0.2-0.2-0.3-0.4-0.4c-0.1-0.1-0.3-0.1-0.4,0c-0.2,0-0.2,0-0.2-0.1
				c0.4-0.1,0.8,0,1,0.4c0.1,0.2,0.2,0.3,0.3,0.5c0.1,0.2,0.1,0,0.1,0l0.4-0.1c0,0.1,0,0.2-0.1,0.2C4.2,43.8,4,43.9,3.7,44z"/>
			<path class="st18" d="M10.8,4h0.1c0.3,0.2,0.3,0.2,0.6,0c0.1-0.1,0.2-0.2,0.3-0.3C12,3.5,12,3.3,11.9,3.1c0,0,0.1-0.1,0.1-0.2
				c0.2,0.2,0.2,0.4,0.1,0.6c-0.1,0.2-0.3,0.4-0.5,0.6c-0.1,0.1-0.2,0.2-0.3,0.2c0,0,0,0.1,0,0.1s0.1,0.3,0.1,0.4
				c-0.1,0-0.2,0-0.2-0.1C11.1,4.5,10.9,4.3,10.8,4z"/>
			<path class="st14" d="M15.6,42.5L15.6,42.5c-0.1,0.3-0.3,0.5-0.5,0.7c0,0-0.1,0-0.2,0l0.2-0.3c0-0.1,0-0.1,0-0.2
				c-0.2-0.2-0.3-0.5-0.4-0.7c-0.1-0.3-0.1-0.6,0.2-0.8c0,0.1,0.1,0.2,0,0.2c-0.2,0.1-0.2,0.4-0.1,0.6c0.1,0.2,0.3,0.5,0.5,0.7
				L15.6,42.5z"/>
			<path class="st12" d="M7.8,17.1V17C8,16.7,8,16.7,7.8,16.4c-0.1-0.2-0.2-0.3-0.4-0.4c-0.1-0.1-0.3-0.1-0.4-0.1
				c-0.1,0-0.2,0-0.2-0.1c0.2,0,0.3,0,0.5,0c0.2,0,0.3,0.1,0.4,0.3c0.2,0.2,0.3,0.4,0.4,0.6c0.1,0.1,0.1,0.1,0.1,0l0.4-0.1
				c0,0.1-0.1,0.2-0.1,0.2C8.3,16.9,8,17,7.8,17.1z"/>
			<path class="st18" d="M13.1,25.5v0.1c-0.2,0.2-0.4,0.4-0.6,0.6c0,0-0.1,0-0.2,0l0.2-0.3c0,0,0-0.1,0-0.2
				c-0.2-0.2-0.3-0.5-0.4-0.8c-0.1-0.3-0.1-0.6,0.2-0.8c0,0.1,0,0.2,0,0.2c-0.2,0.1-0.2,0.4-0.1,0.6c0.1,0.2,0.3,0.5,0.5,0.7
				L13.1,25.5z"/>
			<path class="st18" d="M20.8,45.3v-0.1c0.4-0.2,0.4-0.2,0.3-0.6c0-0.2-0.1-0.3-0.2-0.5c-0.1-0.2-0.2-0.3-0.4-0.2
				c-0.1,0-0.1,0-0.1-0.2c0.3-0.1,0.7,0.1,0.8,0.5c0.1,0.2,0.1,0.5,0.2,0.8c0,0,0.1,0.1,0.1,0.1l0.4,0.1c0,0.1-0.1,0.2-0.1,0.2
				C21.3,45.3,21,45.3,20.8,45.3z"/>
			<path class="st18" d="M35.6,6.6h0.1L36,6.8c0.2-0.2,0.4-0.4,0.6-0.6c0.2-0.1,0.2-0.4,0.1-0.6c0,0,0-0.1,0.1-0.2
				c0.2,0.2,0.2,0.6,0,0.8c-0.2,0.2-0.4,0.4-0.6,0.6L36,7l0,0h0.1l0.1,0.4c-0.1,0-0.2,0-0.2,0C35.9,7.1,35.7,6.8,35.6,6.6z"/>
			<path class="st18" d="M4.4,5.2v0.1L3.6,5.7c-0.1,0-0.1,0-0.2-0.1l0.3-0.2c0-0.1,0-0.1,0-0.2C3.6,4.9,3.6,4.6,3.5,4.4
				c0-0.3,0.2-0.6,0.5-0.6c0,0.1,0,0.2,0,0.2C3.7,4,3.6,4.2,3.7,4.4c0,0.2,0.1,0.5,0.2,0.7c0,0.1,0.1,0.1,0.2,0.1c0,0,0,0,0,0
				C4.2,5.2,4.3,5.2,4.4,5.2z"/>
			<path class="st12" d="M40.4,3.3L40.4,3.3c0.1-0.3,0.2-0.6,0.4-0.8c0,0,0.1,0,0.2,0l-0.1,0.3c0,0,0,0.1,0,0.2
				c0.2,0.2,0.4,0.4,0.6,0.6c0.2,0.2,0.2,0.6,0,0.9c-0.1,0-0.2-0.1-0.1-0.2c0.1-0.1,0.1-0.4,0-0.5c-0.2-0.2-0.4-0.4-0.6-0.6
				c0,0-0.1,0-0.2,0C40.5,3.2,40.4,3.2,40.4,3.3z"/>
			<path class="st18" d="M38.7,19.2l0.1-0.1l0.4,0.1c0.1-0.3,0.2-0.6,0.3-0.9c0.1-0.2,0-0.4-0.2-0.4c-0.1-0.1-0.1-0.1,0-0.2
				c0.3,0.2,0.4,0.5,0.3,0.9c-0.1,0.2-0.2,0.5-0.3,0.7c0,0,0,0.1,0,0.2l0.3,0.2c-0.1,0-0.2,0.1-0.2,0C39.2,19.5,39,19.3,38.7,19.2z"
				/>
			<path class="st12" d="M33.4,41v0.1c-0.4,0.2-0.4,0.2-0.3,0.6c0,0.1,0.1,0.3,0.1,0.4c0.1,0.2,0.2,0.3,0.4,0.3c0,0,0.1,0.1,0.1,0.1
				c-0.3,0.1-0.6-0.1-0.7-0.5c0,0,0,0,0,0c-0.1-0.3-0.1-0.5-0.2-0.8c0,0-0.1-0.1-0.1-0.1l-0.4-0.1c0.1-0.1,0.1-0.2,0.2-0.2
				C32.8,41,33.1,41,33.4,41z"/>
			<path class="st14" d="M33.9,25.6c0,0,0.1-0.1,0.1-0.1l0.3,0.3c0.2-0.2,0.5-0.4,0.7-0.6c0.2-0.1,0.2-0.4,0.1-0.6
				c0,0,0.1-0.1,0.1-0.2c0.2,0.3,0.1,0.8-0.2,1c-0.2,0.1-0.3,0.3-0.5,0.4c0,0,0,0.1,0,0.1l0.1,0.4c-0.1,0-0.2,0-0.2-0.1
				S34,25.9,33.9,25.6z"/>
			<path class="st11" d="M43.2,34.9c0,0-0.1,0-0.1,0s-0.2-0.4-0.3-0.6c-0.1-0.1-0.2-0.3-0.3-0.4c-0.2-0.1-0.4-0.1-0.6,0
				c0,0,0.1-0.1,0.1-0.2c0.2-0.1,0.5,0,0.7,0.2C42.9,34.3,43.1,34.6,43.2,34.9z"/>
			<path class="st11" d="M39.4,19.4c0-0.1-0.1-0.1,0-0.2c0.1-0.2,0.2-0.5,0.3-0.7c0.1-0.3,0-0.7-0.3-0.9c0.2,0,0.4,0.1,0.5,0.3
				c0,0,0,0.1,0,0.1c0,0.3-0.1,0.5-0.2,0.8C39.6,19,39.5,19.2,39.4,19.4z"/>
			<path class="st10" d="M14.8,41.2c-0.2,0.2-0.3,0.5-0.2,0.8c0.1,0.3,0.3,0.5,0.4,0.7c0,0,0,0.1,0,0.2c-0.2-0.3-0.4-0.6-0.6-0.9
				c-0.1-0.2-0.1-0.6,0.1-0.7C14.5,41.2,14.7,41.2,14.8,41.2z"/>
			<path class="st10" d="M21.4,45c0,0-0.1-0.1-0.1-0.1c-0.1-0.2-0.1-0.5-0.2-0.8c-0.1-0.3-0.4-0.5-0.8-0.5c0.1-0.1,0.4-0.2,0.5,0
				c0,0,0,0,0,0c0.1,0.1,0.2,0.3,0.3,0.5C21.2,44.4,21.3,44.7,21.4,45z"/>
			<path class="st11" d="M43.6,7.3c-0.3,0-0.6,0.2-0.7,0.5c-0.1,0.2-0.1,0.5-0.2,0.7c0,0-0.1,0.1-0.1,0.1c0.1-0.4,0.1-0.7,0.2-1.1
				c0.1-0.3,0.3-0.5,0.6-0.4C43.5,7.2,43.6,7.3,43.6,7.3z"/>
			<path class="st11" d="M3.2,18.8c0.1,0,0.1,0,0.2,0c0.2,0.2,0.4,0.4,0.6,0.6c0.2,0.2,0.6,0.2,0.8,0c0,0.2-0.1,0.2-0.3,0.3
				c-0.2,0.1-0.5,0-0.6-0.2C3.7,19.3,3.5,19,3.2,18.8z"/>
			<path class="st11" d="M36.1,7L36.1,7L36.1,7l0.1-0.1c0.2-0.2,0.4-0.4,0.6-0.6c0.2-0.2,0.2-0.6,0-0.8c0.2,0,0.3,0.2,0.3,0.3
				c0,0.2,0,0.4-0.2,0.6C36.7,6.6,36.4,6.8,36.1,7z"/>
			<path class="st11" d="M11.3,4.5C11.3,4.5,11.3,4.4,11.3,4.5c0.1-0.2,0.2-0.2,0.3-0.3c0.2-0.2,0.3-0.4,0.5-0.6
				c0.1-0.2,0.1-0.5-0.1-0.6c0.1,0,0.2,0,0.2,0c0.2,0.2,0.2,0.5,0,0.7C11.9,4,11.6,4.2,11.3,4.5z"/>
			<path class="st10" d="M4.1,3.7C3.8,3.8,3.6,4.1,3.6,4.4c0,0.3,0.1,0.6,0.2,0.8c0,0.1,0,0.1,0,0.2c-0.1-0.3-0.2-0.7-0.2-1
				C3.5,4.1,3.6,3.8,3.9,3.7C3.9,3.7,4,3.7,4.1,3.7z"/>
			<path class="st10" d="M32.8,41.2c0,0,0.1,0.1,0.1,0.1c0,0.3,0.1,0.5,0.2,0.8c0.1,0.3,0.4,0.5,0.7,0.5c0,0,0,0,0,0
				c-0.1,0-0.2,0.1-0.2,0.1c-0.2,0-0.4-0.2-0.5-0.4C32.9,42,32.8,41.6,32.8,41.2z"/>
			<path class="st10" d="M23.1,18.2c0,0,0-0.1,0-0.1c0.2-0.1,0.4-0.1,0.6-0.2c0.4-0.1,0.6-0.5,0.6-0.9c0.2,0.2,0.2,0.4,0,0.6
				c0,0,0,0,0,0c-0.2,0.2-0.4,0.3-0.6,0.4C23.5,18.1,23.3,18.2,23.1,18.2z"/>
			<path class="st11" d="M41.4,4.4c0.2-0.2,0.2-0.6,0-0.9c-0.2-0.2-0.4-0.4-0.6-0.6c0,0,0-0.1,0-0.2c0.3,0.2,0.5,0.5,0.8,0.8
				c0.2,0.2,0.2,0.5,0,0.7C41.7,4.3,41.5,4.4,41.4,4.4z"/>
			<path class="st10" d="M28.3,15.9c-0.1,0.1-0.1,0-0.1,0c-0.1-0.2-0.3-0.4-0.4-0.6c-0.2-0.3-0.6-0.4-0.9-0.2
				c0.1-0.2,0.3-0.3,0.5-0.2c0,0,0,0,0,0c0.2,0.1,0.3,0.2,0.5,0.3C28,15.4,28.1,15.7,28.3,15.9z"/>
			<path class="st19" d="M20.7,8.1c-0.1,0.1-0.1,0-0.1-0.1c0-0.2-0.1-0.5-0.2-0.7c-0.1-0.4-0.4-0.6-0.8-0.6c0.2-0.2,0.4-0.2,0.6,0
				c0,0,0,0,0,0c0.1,0.2,0.3,0.4,0.3,0.6C20.6,7.6,20.6,7.8,20.7,8.1z"/>
			<path class="st11" d="M14.1,7.2c-0.2,0.2-0.3,0.5-0.2,0.8c0.1,0.3,0.3,0.5,0.5,0.8c0.1,0.1,0.1,0.1,0,0.1
				c-0.2-0.3-0.4-0.6-0.6-0.9c-0.2-0.2-0.1-0.6,0.1-0.7C13.9,7.2,14,7.2,14.1,7.2z"/>
			<path class="st11" d="M37.5,30c-0.3,0.1-0.4,0.5-0.3,0.8c0.1,0.3,0.2,0.5,0.4,0.8c0.1,0.1,0.1,0.1,0,0.2c-0.2-0.3-0.4-0.6-0.5-1
				c-0.1-0.2-0.1-0.6,0.2-0.7C37.3,30,37.4,30,37.5,30z"/>
			<path class="st10" d="M27.4,21.8c-0.3,0-0.5,0.3-0.5,0.6c0,0,0,0,0,0c0,0.3,0.1,0.6,0.1,0.9c0,0.1,0,0.1,0,0.2
				c-0.1-0.3-0.2-0.6-0.2-0.9c-0.1-0.3,0-0.7,0.4-0.8C27.3,21.7,27.4,21.8,27.4,21.8z"/>
			<path class="st11" d="M27,43.3c0,0-0.1,0-0.1,0s-0.2-0.4-0.4-0.5c-0.2-0.4-0.6-0.5-1-0.3c0.1-0.2,0.4-0.3,0.6-0.2c0,0,0,0,0.1,0
				c0.2,0.2,0.4,0.4,0.6,0.6C26.8,43,26.9,43.2,27,43.3z"/>
			<path class="st19" d="M11.3,38.7c0,0,0.1,0,0.1,0s0.2,0.3,0.3,0.5c0.2,0.4,0.7,0.6,1.1,0.4c-0.1,0.2-0.4,0.3-0.7,0.1
				c0,0-0.1,0-0.1-0.1c-0.2-0.2-0.4-0.4-0.6-0.7C11.4,38.8,11.4,38.8,11.3,38.7z"/>
			<path class="st11" d="M20.7,27.8c0-0.1,0-0.1,0-0.2c0-0.2,0.1-0.5,0.2-0.7c0.1-0.3-0.1-0.7-0.4-0.8c0.2-0.1,0.4,0,0.5,0.2
				c0,0,0,0,0,0.1c0,0.2,0,0.5,0,0.7C20.8,27.3,20.8,27.5,20.7,27.8z"/>
			<path class="st11" d="M29.9,2.1c-0.3,0-0.5,0.3-0.5,0.5c0,0.3,0.1,0.6,0.1,0.9c0,0.1,0,0.1,0,0.2c-0.1-0.2-0.2-0.5-0.2-0.8
				c0-0.2,0-0.5,0.1-0.7C29.5,2.1,29.6,2,29.9,2.1C29.8,2.1,29.9,2.1,29.9,2.1z"/>
			<path class="st11" d="M4.2,43.5c0,0-0.1,0-0.1,0s-0.2-0.3-0.3-0.5c-0.2-0.3-0.6-0.5-1-0.4c0.1-0.2,0.4-0.3,0.6-0.2c0,0,0,0,0.1,0
				c0.2,0.2,0.4,0.3,0.5,0.5C4.1,43.2,4.1,43.4,4.2,43.5z"/>
			<path class="st11" d="M8.2,16.6c-0.1,0.1-0.1,0.1-0.1,0C8,16.4,7.8,16.2,7.7,16c-0.1-0.1-0.2-0.2-0.4-0.3c-0.2,0-0.3,0-0.5,0
				c0.1-0.2,0.3-0.3,0.5-0.2c0,0,0,0,0,0c0.2,0.1,0.3,0.2,0.4,0.3C7.9,16.1,8.1,16.4,8.2,16.6z"/>
			<path class="st11" d="M34.4,26c0,0,0-0.1,0-0.1c0.2-0.1,0.3-0.3,0.5-0.4c0.3-0.2,0.4-0.7,0.2-1c0.2,0.1,0.3,0.3,0.3,0.5
				c0,0,0,0,0,0c-0.1,0.2-0.2,0.4-0.4,0.6C34.8,25.7,34.6,25.9,34.4,26z"/>
			<path class="st19" d="M17.7,36.5c-0.1,0-0.1,0-0.2-0.1c-0.2-0.2-0.3-0.4-0.5-0.6c-0.2-0.3-0.6-0.4-0.9-0.2
				c0.1-0.2,0.3-0.3,0.5-0.2c0,0,0,0,0.1,0c0.2,0.1,0.4,0.3,0.5,0.4C17.4,36.1,17.5,36.3,17.7,36.5z"/>
			<path class="st19" d="M8.4,23.5c-0.1,0-0.1-0.1,0-0.1c0.2-0.2,0.4-0.3,0.6-0.5c0.2-0.2,0.3-0.4,0.2-0.7c0-0.1-0.1-0.2-0.1-0.2
				c0.2,0.1,0.3,0.4,0.2,0.6c0,0,0,0.1,0,0.1c-0.2,0.2-0.4,0.5-0.6,0.7C8.5,23.4,8.5,23.5,8.4,23.5z"/>
			<path class="st11" d="M12.3,24.2c-0.2,0.2-0.3,0.5-0.2,0.8c0.1,0.3,0.3,0.5,0.4,0.8c0,0,0,0.1,0,0.2c-0.2-0.3-0.4-0.6-0.6-0.9
				c-0.1-0.2-0.1-0.5,0.1-0.7C12.2,24.2,12.2,24.2,12.3,24.2z"/>
			<path class="st9" d="M27.8,23.2L27.8,23.2z"/>
			<path class="st7" d="M18.8,24.9L18.8,24.9z"/>
			<path class="st7" d="M20,8.2L20,8.2L20,8.2z"/>
			<path class="st7" d="M27.5,4L27.5,4L27.5,4z"/>
			<path class="st7" d="M26.5,43.6L26.5,43.6z"/>
			<path class="st16" d="M23.5,2.4c0.8,0.6,1.8,1.1,2.8,1.4C25.2,3.6,24.3,3.1,23.5,2.4z"/>
			<path class="st20" d="M27.6,43.8L27.2,44v-0.1C27.3,43.7,27.4,43.7,27.6,43.8L27.6,43.8z"/>
			<path class="st20" d="M43.3,35.5l0.4-0.1v0.1c-0.1,0.1-0.2,0.2-0.3,0.2c0,0,0,0,0,0L43.3,35.5z"/>
			<path class="st7" d="M42.8,35.4L42.8,35.4z"/>
			<path class="st15" d="M2.6,18.5c0.1-0.2,0.2-0.3,0.4-0.2C3,18.4,2.8,18.5,2.6,18.5z"/>
			<path class="st13" d="M4.8,44l-0.4,0.2C4.4,43.9,4.5,43.9,4.8,44L4.8,44z"/>
			<path class="st20" d="M15.6,43.3l-0.3,0.3l-0.1-0.1l0.3-0.3L15.6,43.3z"/>
			<path class="st20" d="M40.3,2.5c0-0.2,0.1-0.3,0.2-0.3c0,0,0,0,0,0C40.5,2.4,40.5,2.5,40.3,2.5z"/>
			<path class="st13" d="M45.7,27.5c-0.3,0.9-0.9,1.6-1.6,2.2c0.6-0.7,1.1-1.5,1.5-2.3L45.7,27.5z"/>
			<path class="st13" d="M44.1,29.8l-0.1,0.1l0,0L44.1,29.8L44.1,29.8z"/>
			<path class="st13" d="M44,29.8L44,29.8L44,29.8L44,29.8z"/>
			<path class="st13" d="M44.7,0.9c-0.2,0.9-0.2,1.9,0,2.8C44.3,2.8,44.3,1.8,44.7,0.9z"/>
			<path class="st20" d="M39,42.6c-0.2,0.9-0.2,1.8-0.1,2.7C38.6,44.4,38.7,43.4,39,42.6z"/>
			<path class="st20" d="M15.3,3.7c0.5-0.9,0.8-2,0.9-3C16.2,1.8,15.9,2.9,15.3,3.7z"/>
			<path class="st21" d="M42.9,16.7c0.9-0.3,1.9-0.3,2.8-0.1v0.1c-0.5,0-1-0.1-1.4-0.1S43.3,16.7,42.9,16.7z"/>
			<path class="st22" d="M0.2,37.8c1,0.5,2.2,0.7,3.3,0.7C2.7,38.7,0.5,38.3,0.2,37.8z"/>
			<path class="st13" d="M21.3,45.6h0.4c-0.1,0.2-0.2,0.2-0.4,0.1L21.3,45.6z"/>
			<path class="st21" d="M23.6,39.4c-0.9,0.1-1.9,0-2.7-0.3V39c0.5,0.1,0.9,0.2,1.4,0.3S23.2,39.4,23.6,39.4z"/>
			<path class="st21" d="M17.8,37.1l0.4-0.2C18.1,37.1,18.1,37.2,17.8,37.1L17.8,37.1z"/>
			<path class="st20" d="M9.1,10.7C8.9,9.8,8.9,8.9,9.2,8L9.1,10.7L9.1,10.7z"/>
			<path class="st20" d="M10.8,4.7L11,5h-0.1c-0.2,0-0.2-0.2-0.2-0.3L10.8,4.7z"/>
			<path class="st21" d="M13,32.7c0.4-0.9,0.6-1.9,0.7-2.8C13.8,30.8,13.6,31.8,13,32.7z"/>
			<path class="st23" d="M13.1,26.4l-0.3,0.3C12.8,26.4,12.8,26.3,13.1,26.4L13.1,26.4z"/>
			<path class="st13" d="M25.4,12.9c-0.9-0.2-1.8-0.6-2.5-1.3v-0.1c0.4,0.3,0.8,0.5,1.2,0.8S24.9,12.7,25.4,12.9z"/>
			<path class="st23" d="M20.6,8.7c0.1-0.2,0.3-0.2,0.4-0.1C20.9,8.8,20.8,8.8,20.6,8.7C20.6,8.7,20.6,8.7,20.6,8.7z"/>
			<path class="st15" d="M32.3,32.3c-0.3-0.9-0.3-1.9,0-2.8C32.1,30.5,32.1,31.4,32.3,32.3z"/>
			<path class="st21" d="M33.8,26.2c0.2,0.1,0.2,0.2,0.2,0.3H34L33.8,26.2L33.8,26.2z"/>
			<path class="st16" d="M25.2,29.8c0.3-0.4,0.6-0.7,0.9-1.1s0.5-0.8,0.7-1.2C26.5,28.4,25.9,29.2,25.2,29.8z"/>
			<path class="st13" d="M27,24.1c0.1-0.1,0.2-0.2,0.4-0.1c0,0,0,0,0,0V24L27,24.2L27,24.1z"/>
			<path class="st15" d="M30.8,37.6c-0.7-0.6-1.5-1.1-2.4-1.4C29.4,36.4,30.2,36.9,30.8,37.6z"/>
			<path class="st13" d="M32.5,40.6h0.4C32.8,40.7,32.6,40.8,32.5,40.6C32.5,40.7,32.5,40.7,32.5,40.6L32.5,40.6z"/>
			<path class="st20" d="M20.9,31.9c0.4,1,1,1.8,1.7,2.6C21.8,33.8,21.2,32.9,20.9,31.9L20.9,31.9z"/>
			<path class="st13" d="M20.4,28.2l0.4,0.1v0.1c-0.1,0.1-0.3,0-0.3-0.1C20.4,28.3,20.4,28.3,20.4,28.2L20.4,28.2z"/>
			<path class="st21" d="M6.3,29.9C6,29,6,28,6.3,27.1C6.1,28,6.1,29,6.3,29.9z"/>
			<path class="st20" d="M8,24.1l-0.2-0.3h0.1C8,23.8,8.1,24,8,24.1C8.1,24.1,8.1,24.1,8,24.1L8,24.1z"/>
			<path class="st16" d="M38.4,35.7c0,1-0.3,1.9-0.9,2.7c0.2-0.4,0.4-0.9,0.6-1.3S38.3,36.2,38.4,35.7z"/>
			<path class="st16" d="M37.7,32.3L38,32C38.1,32.2,38,32.3,37.7,32.3z"/>
			<path class="st15" d="M1.7,11.8c0.7-0.7,1.3-1.5,1.7-2.3C3.1,10.4,2.5,11.2,1.7,11.8z"/>
			<path class="st23" d="M3.7,6L4,5.8v0.1C3.9,6.1,3.8,6.1,3.7,6C3.6,6.1,3.6,6.1,3.7,6L3.7,6z"/>
			<path class="st20" d="M27.5,10.3c0.7-0.7,1.3-1.5,1.7-2.4l0.1,0.1C28.9,8.8,28.3,9.7,27.5,10.3z"/>
			<path class="st20" d="M29.9,4.4l-0.4,0.1V4.4c0.1-0.1,0.2-0.2,0.4-0.2V4.4z"/>
			<path class="st20" d="M27.4,10.4l0.1-0.1l0,0l0,0L27.4,10.4z"/>
			<path class="st20" d="M34.1,10.6c-0.2,1-0.2,1.9,0,2.9c-0.3-0.9-0.3-1.9-0.1-2.9L34.1,10.6z"/>
			<path class="st16" d="M35.6,7.2c0.2,0.1,0.2,0.1,0.2,0.4L35.6,7.2L35.6,7.2z"/>
			<path class="st15" d="M34.3,18.8c-1,0.1-1.9,0-2.8-0.3v-0.1l0.9,0.2c0.3,0.1,0.7,0.1,1,0.1C33.7,18.7,34.1,18.7,34.3,18.8
				L34.3,18.8z"/>
			<path class="st20" d="M28.4,16.4l0.4-0.2l0.1,0.1l-0.3,0.2L28.4,16.4z"/>
			<path class="st16" d="M40.7,12.4c-0.7,0.8-1.6,1.3-2.6,1.6C39,13.5,39.9,13,40.7,12.4z"/>
			<path class="st13" d="M42.7,9.4h-0.4C42.5,9.2,42.6,9.2,42.7,9.4z"/>
			<path class="st20" d="M40.4,26.1c-0.7-0.7-1.2-1.7-1.4-2.7h0.1c0.1,0.3,0.2,0.6,0.3,0.9s0.3,0.6,0.5,0.9S40.2,25.8,40.4,26.1z"/>
			<path class="st23" d="M38.9,19.8c0.2-0.1,0.3,0,0.4,0.2C39.2,20.1,39,20,38.9,19.8z"/>
			<path class="st20" d="M18.8,23.6c0-1,0.4-2,1.1-2.9c-0.2,0.5-0.5,0.9-0.6,1.4S19,23.2,18.8,23.6z"/>
			<path class="st13" d="M22.5,18.7l-0.1-0.4h0.1c0.1,0.1,0.2,0.2,0.1,0.4c0,0,0,0,0,0H22.5z"/>
			<path class="st7" d="M22.7,17.7L22.7,17.7z"/>
			<path class="st21" d="M5,35.8c1-0.2,2.1-0.1,3.1,0.3C7.1,35.9,6,35.8,5,35.8z"/>
			<path class="st13" d="M10.8,38.2l0.4-0.2v0.1C11.1,38.2,10.9,38.3,10.8,38.2C10.8,38.3,10.8,38.3,10.8,38.2L10.8,38.2z"/>
			<path class="st20" d="M14.6,15.8c0.4-0.9,0.7-1.9,0.8-2.9C15.5,13.9,15.3,14.9,14.6,15.8z"/>
			<path class="st16" d="M14.9,9.4l-0.3,0.3l-0.1-0.1C14.5,9.4,14.6,9.3,14.9,9.4L14.9,9.4z"/>
			<path class="st16" d="M14.3,19.5c-0.9,0.1-1.9,0-2.8-0.3v-0.1c0.3,0.1,0.6,0.2,0.9,0.2s0.6,0.1,1,0.1h0.3L14.3,19.5z"/>
			<path class="st24" d="M14.3,19.5h-0.6h-0.3h1.4H14.3z"/>
			<path class="st15" d="M8.4,17.1L8.8,17C8.7,17.2,8.6,17.3,8.4,17.1z"/>
		</g>
	</g>
</g>
</svg>
