<svg xmlns="http://www.w3.org/2000/svg" viewBox="0 0 429.49 292.34">
  <defs>
    <style>
      .cls-1 {
        fill: #0d0b03;
      }

      .cls-2 {
        fill: #f8d116;
      }

      .cls-3 {
        fill: #e4141d;
      }

      .cls-4 {
        fill: #49ad33;
      }

      .cls-5 {
        fill: #805f15;
      }

      .cls-6 {
        fill: #231a03;
      }

      .cls-7 {
        fill: #261c04;
      }

      .cls-8 {
        fill: #2e2307;
      }

      .cls-9 {
        fill: #322607;
      }

      .cls-10 {
        fill: #362907;
      }

      .cls-11 {
        fill: #291f06;
      }

      .cls-12 {
        fill: #392b08;
      }

      .cls-13 {
        fill: #3d2e0a;
      }

      .cls-14 {
        fill: #fff;
      }

      .cls-15 {
        fill: #cb1718;
      }

      .cls-16 {
        fill: #4bad33;
      }

      .cls-17 {
        fill: #1e1e1e;
      }

      .cls-18 {
        fill: #1d1d1b;
      }
    </style>
  </defs>
  <g id="Capa_2" data-name="Capa 2">
    <g id="Capa_1-2" data-name="Capa 1">
      <g id="Capa_1-2-2" data-name="Capa 1-2">
        <g>
          <g>
            <path class="cls-1" d="M174.89,42.17a83,83,0,0,0-3.69-9.67q-2.8-6.27-6-12.35A14.46,14.46,0,0,0,157,13.24a31.15,31.15,0,0,0-17.29-1.18c-6.5,1.39-12,4.78-17.24,8.69a103,103,0,0,0-13.9,12.91c-2.28,2.46-4.5,5-6.79,7.54-1.19-1.62-2.33-3.14-3.43-4.68A153.9,153.9,0,0,0,80.07,15.2a70.53,70.53,0,0,0-15.75-12A27.85,27.85,0,0,0,56.41.3C50-.94,44.72,1.69,42.12,7.68a31.64,31.64,0,0,0-2,6.67,59.37,59.37,0,0,0,0,18.72c2.2,16.56,7.52,32.2,14,47.47,1,2.35,2,4.68,3.17,7.28-1.62-.28-3-.44-4.24-.76q-7.47-1.89-15-3.88a57.7,57.7,0,0,0-13.3-2.34A18.43,18.43,0,0,0,13.19,84.5,37.52,37.52,0,0,0,2,98.29,18.9,18.9,0,0,0,.34,110.24,31.29,31.29,0,0,0,4.44,121a24.41,24.41,0,0,0,15.15,11.37,32.53,32.53,0,0,0,12.07.89,42.67,42.67,0,0,0,5.5-.93c1.21-.29,2.4-.6,3.58-1a77.24,77.24,0,0,0,10.89-4.2,115.24,115.24,0,0,0,10.6-5.74q1.89-1.14,3.74-2.33c.21-.13.42-.26.62-.4,2.65-1.69,5.25-3.48,7.84-5.26a91.3,91.3,0,0,0,9.33-8.35,9.37,9.37,0,0,1,4.5,3.91c.14.23.28.47.4.7,2.15-.3,4.3-.63,6.43-1,7.41-1.2,14.74-2.67,22-4.57a154.27,154.27,0,0,0,20.44-6.86,81.16,81.16,0,0,0,22.11-13.15c7-6,12.19-13.26,14.75-22.22C176.24,55.43,176.92,48.8,174.89,42.17ZM154,71.79c-.35.37-.7.73-1.07,1.09h0a49.47,49.47,0,0,1-4.51,3.92,65.23,65.23,0,0,1-5.85,3.89l-1.65,1-.55.35a38.49,38.49,0,0,1-4.51,2.56c-3.92,1.75-7.94,3.36-12.06,5-2.62,1-5.3,2-8,2.8l1.44-.79a84.45,84.45,0,0,0,16.48-11.45,20.29,20.29,0,0,0,5.15-6.42l.11-.23a18.59,18.59,0,0,0,.75-1.78,8.53,8.53,0,0,0-5.08-10.94l-.17-.06a14.47,14.47,0,0,0-5.21-.94,20.74,20.74,0,0,0-3.43.32,54.87,54.87,0,0,1,8.27-8.35,45.45,45.45,0,0,1,12.57-7.34,26,26,0,0,1,9.05-1.84,18,18,0,0,1,2.55.18,14.52,14.52,0,0,1,3.43.81c.05.14.09.29.14.43a27,27,0,0,1,1.37,5.54,23.41,23.41,0,0,1-1.82,10.74A35.22,35.22,0,0,1,154,71.79ZM54.13,113.65l.68-2.53,2,1.1Zm-23.56,8.52H29.08L30.73,120l.25.27L32.64,122C32,122.08,31.29,122.13,30.57,122.17ZM21,95c3.26-2.56,6.23-3.76,9.34-3.76h.8a41.78,41.78,0,0,1,5.23.67c2.36.45,4.77,1,7.1,1.45l2.66.56-.4.26A60.87,60.87,0,0,1,37,99.06,22,22,0,0,1,28,101.37a14.66,14.66,0,0,1-2.64-.25c-3.19-.62-5.4-1.84-6.9-3.85A22.75,22.75,0,0,1,21,95ZM56.18,59.32h0C55.79,58.19,55.4,57,55,55.83l-.42-1.29c-.37-1.15-.75-2.33-1.1-3.52,0-.13-.09-.27-.13-.41s-.15-.51-.23-.76h0c-.27-.93-.54-1.84-.79-2.75L52,45.74c-.26-1-.5-1.91-.73-2.85-.11-.44-.21-.88-.31-1.32-.23-1-.45-2-.65-2.92h0c-.07-.38-.15-.75-.22-1.12-.25-1.25-.46-2.48-.65-3.69-.07-.44-.13-.87-.19-1.29h0c-.15-1-.27-2-.38-3-.06-.55-.11-1.1-.15-1.64h0c-.08-.92-.15-1.84-.19-2.74v-4a12.62,12.62,0,0,1,.1-1.38,29,29,0,0,1,.4-2.88l.09-.47a.58.58,0,0,1,.07-.34A9.21,9.21,0,0,1,51,11.9a3.05,3.05,0,0,1,2.77-1.06h.33a14,14,0,0,1,5.82,2c4.8,2.54,8.87,6.28,12.22,9.6A121.19,121.19,0,0,1,85.25,37.78C87,40.18,89,43,91,45.78A98.21,98.21,0,0,0,79.4,49.84a74.23,74.23,0,0,0-12.55,6.8,68.74,68.74,0,0,0-9.12,7c-.17-.44-.33-.89-.49-1.33s-.38-1.08-.57-1.64ZM115.71,42.2v.21h-.21ZM74.09,95.29l3.66,1.07-3,3C74.54,98,74.31,96.63,74.09,95.29Zm-11.56,6c-.28-.16-.57-.31-.86-.46l.68-.61Zm19-16.76-3-.87,2.35-2.45Zm14-9.09Q94.27,77.06,93,78.59c-.25-1.18-.49-2.37-.73-3.58Zm15-21.22.81.11-.62.83Zm22.88-27c.63-.36,1.25-.69,1.87-1,0,.52.07,1,.1,1.57Zm-35.91,36,1.75-2,.45,2.26Z"/>
            <path class="cls-1" d="M118,108a19.26,19.26,0,0,0-1-3.81c-7.23,1.9-14.56,3.37-22,4.57-.42.87-.81,1.76-1.16,2.68s-.67,1.82-1,2.74c1.56-.24,3.15-.5,4.78-.77,2.77-.47,5.64-1,8.58-1.59,3.86-.78,7.84-1.69,11.87-2.76A3.86,3.86,0,0,0,118,108Z"/>
            <path class="cls-1" d="M174.89,42.17a83,83,0,0,0-3.69-9.67q-2.8-6.27-6-12.35A14.46,14.46,0,0,0,157,13.24a31.15,31.15,0,0,0-17.29-1.18c-6.5,1.39-12,4.78-17.24,8.69a103,103,0,0,0-13.9,12.91c-2.28,2.46-4.5,5-6.79,7.54-1.19-1.62-2.33-3.14-3.43-4.68A153.9,153.9,0,0,0,80.07,15.2a70.53,70.53,0,0,0-15.75-12A27.85,27.85,0,0,0,56.41.3C50-.94,44.72,1.69,42.12,7.68a31.64,31.64,0,0,0-2,6.67,59.37,59.37,0,0,0,0,18.72c2.2,16.56,7.52,32.2,14,47.47,1,2.35,2,4.68,3.17,7.28-1.62-.28-3-.44-4.24-.76q-7.47-1.89-15-3.88a57.7,57.7,0,0,0-13.3-2.34A18.43,18.43,0,0,0,13.19,84.5,37.52,37.52,0,0,0,2,98.29,18.9,18.9,0,0,0,.34,110.24,31.29,31.29,0,0,0,4.44,121a24.41,24.41,0,0,0,15.15,11.37,32.53,32.53,0,0,0,12.07.89,42.67,42.67,0,0,0,5.5-.93c1.21-.29,2.4-.6,3.58-1a77.24,77.24,0,0,0,10.89-4.2,115.24,115.24,0,0,0,10.6-5.74q1.89-1.14,3.74-2.33c.21-.13.42-.26.62-.4,2.65-1.69,5.25-3.48,7.84-5.26a91.3,91.3,0,0,0,9.33-8.35,9.37,9.37,0,0,1,4.5,3.91c.14.23.28.47.4.7,2.15-.3,4.3-.63,6.43-1,7.41-1.2,14.74-2.67,22-4.57a154.27,154.27,0,0,0,20.44-6.86,81.16,81.16,0,0,0,22.11-13.15c7-6,12.19-13.26,14.75-22.22C176.24,55.43,176.92,48.8,174.89,42.17ZM149.62,18.3c2.82.08,5.44.81,7.36,3a12.89,12.89,0,0,1,2.78,4.61,66.61,66.61,0,0,0,3,6.94l-.26.21-17-14.5A10.24,10.24,0,0,1,149.62,18.3Zm-7.13.84L157.9,32.28c-2.74.14-5.09.11-7.4.4s-4.63.91-7,1.4C143,33.13,142.22,22.2,142.49,19.14Zm-2.72.2c.09.82.22,1.62.27,2.43.26,4.18.5,8.36.75,12.65a4.74,4.74,0,0,1-.84-.05l-16-4.73c-.51-.15-1-.39-1.56-.61C127.84,24.19,134.09,20.56,139.77,19.34Zm-1.46,17c-2.52,1.72-4.9,3.25-7.16,4.93s-4.36,3.46-6.71,5.34a7.74,7.74,0,0,1-.67-1.6c-.88-4.44-1.71-8.89-2.62-13.71Zm-19.57-4.21c1.21,5.66,2.25,10.79,3.2,16.16l-16.32-2.14a139.39,139.39,0,0,1,13.12-14Zm1.8,18.38L108.4,66.56l-.5-.06-3.66-18.14ZM80.09,101.12,79,102.21h0c-.24.24-.49.47-.74.7l-.76.72A18.48,18.48,0,0,1,76,105l-.78.68h0l-1.13,1-.6.49-.55.45-.29.22h0l-1.13.86c-1.35-7-2.43-13.65-3.56-20.48C74.3,90.09,80.47,91.89,87,93.79l-1.82,2L84,97l-1.39,1.5L81.19,100C80.82,100.38,80.46,100.76,80.09,101.12ZM65.64,89.76c1.19,6.94,2.32,13.55,3.53,20.59-3.41-1.74-6.68-3.41-9.94-5.13l-1.58-.84-2.17-1.17c-.53-.28-1-.57-1.57-.86l-1.12-.62A93.33,93.33,0,0,0,65.64,89.76ZM61.4,84.92c-1.28-2.75-2.38-5-3.38-7.29a1.55,1.55,0,0,1,.09-1.33c1-1.1,1.71-2.58,3.21-3.2v0c.07,2.91.14,5.82.18,8.73C61.53,82.71,61.45,83.59,61.4,84.92ZM72,76c-2.52,3.26-5.3,6.18-8.33,9.42V71.59Zm-7.26-6.4a57.32,57.32,0,0,1,10.85-7.72c-.12,1.63-.22,3-.33,4.39-.16,2-.29,4-.51,6.07-.17,1.5-1,2-2.3,1.32-2.57-1.3-5.08-2.66-7.71-4.08Zm4.42,16.59L83.92,70.85c1.42,7.09,2.76,13.76,4.18,20.82-6.46-1.89-12.56-3.67-18.92-5.5ZM82.31,64,77.6,69.61l-.41-.19c.21-2.43.42-4.86.66-7.62Zm-3.43-3.86c3-1.45,5.58-3.1,8.94-3.84-.67,2.73-2.59,4.22-4.29,6Zm7.27,9,18.69,2.46c-4.67,6.27-9.34,12.14-14.44,17.87-1.65-6.71-3-13.41-4.25-20.32ZM98.8,87.7a.86.86,0,0,1,.52-.33c2.07-.34,3.69-1.74,5.6-2.39a74.42,74.42,0,0,0,12.3-6,44.19,44.19,0,0,0,8.8-6,20.49,20.49,0,0,0,2-2.17c.63-.77,1.29-1,2.38-.24a12.59,12.59,0,0,1-1.4,2,38.24,38.24,0,0,1-3.59,3.14c-2.21,1.69-4.5,3.28-6.75,4.9A5.07,5.07,0,0,1,118,81c-3.43,1.93-6.81,4-10.3,5.77-2.92,1.52-6,2.83-9,4.18q-1.64.6-3.33,1C96.6,90.49,97.69,89.09,98.8,87.7Zm3.38-37.4c1.32,6.58,2.55,12.7,3.81,19L87.54,67ZM56.74,72a7.24,7.24,0,0,1-.84.72c-1.2-3.06-2.38-5.84-3.38-8.68-1.4-4-2.76-8-4-12A111.44,111.44,0,0,1,43.46,24.6a38.67,38.67,0,0,1,.79-9.66A14.38,14.38,0,0,1,47.18,8.7a8.25,8.25,0,0,1,7.13-2.86,18.4,18.4,0,0,1,8,2.54,57.89,57.89,0,0,1,13.4,10.47,126.67,126.67,0,0,1,13.62,16c2.21,3.08,4.42,6.17,6.58,9.28a19.53,19.53,0,0,1,1.24,2.35c-.93,1.09-1.84,2.23-2.85,3.3a2.75,2.75,0,0,1-1.29.66,95.69,95.69,0,0,0-11.73,4.07A66.67,66.67,0,0,0,69.6,60.86,57.27,57.27,0,0,0,56.74,72ZM17.85,91c4-3.12,8.38-5.14,13.57-4.8a47.73,47.73,0,0,1,5.85.75c4.7.91,9.37,2,14.06,2.87,2.14.42,4.31.65,7.06,1-3.55,2.68-6.62,5.25-9.94,7.45a67.21,67.21,0,0,1-9.37,5.25c-4.64,2.1-9.55,3.42-14.73,2.42-5.42-1-9.64-3.75-11.85-9.17a20.68,20.68,0,0,1,5.35-5.72ZM9.2,105.2c2.33,6.15,4.55,12,6.8,18C10.47,119.59,7.68,111.45,9.2,105.2Zm9.51,18.3c-2.19-5.65-4.27-11-6.35-16.42A27.34,27.34,0,0,0,27,112.15Zm21.39,2a4.56,4.56,0,0,1-.52.18l-.61.21-.63.18-.62.17-.61.15c-.42.1-.83.18-1.25.26l-.51.09H35l-.37.06h0l-.62.09-.91.1c-1.17.13-2.34.19-3.51.23-4,.11-7.38-.55-8.95-1.67a3.65,3.65,0,0,1,.25-.53l9.36-13L42,124.7c-.66.3-1.29.54-1.92.76ZM44,122.71l-6.12-6.59-.92-1-3.48-3.76c1.7-.53,3.39-1.06,5-1.67l.84-.31c.57-.22,1.13-.44,1.7-.68l.51-.22c1.15-.5,2.28-1,3.37-1.66l.41-.24c.27-.15.55-.31.82-.48a3,3,0,0,0,.38-.24c.83-.52,1.65-1.09,2.45-1.71l-.42,1.58c-.15.53-.29,1-.43,1.57L45,118.82C44.69,120.1,44.34,121.4,44,122.71Zm18.64-7.87c-5,2.65-10,5.22-15,7.82-.29.15-.61.25-1.26.51,1.79-6.63,3.49-13,5.24-19.46L67,112c-1.65,1-3,2.07-4.39,2.84ZM166.16,62.1c-3,7.66-8.18,13.69-14.61,18.66-2.49,1.93-5.24,3.53-7.91,5.21A50.54,50.54,0,0,1,138,89.21c-4,1.8-8.15,3.44-12.26,5.08-.7.28-1.41.55-2.12.8l-1.45.54-.2.07-1.12.39-1.62.54-1.76.56-.21.06c-.56.18-1.12.35-1.69.51l-.65.2-.66.19h-.09c-.54.16-1.07.31-1.61.45l-1.34.36L111,99l-1,.26-.47.12-1.52.39c-2.54.63-5.1,1.22-7.66,1.78l-.36.08c-1.28.28-2.57.55-3.86.81-2,.4-4,.77-5.94,1.15l-1.81.34c-1.29.24-2.59.48-3.88.74a1.24,1.24,0,0,0-.1-.2l-.09-.16c1.65-1.79,3.27-3.6,5-5.36h0a3.44,3.44,0,0,1,1.24-.75c2.63-1,5.36-1.68,7.9-2.85,5.56-2.57,11.16-5.13,16.51-8.09a81.1,81.1,0,0,0,15.53-10.77,16,16,0,0,0,4-4.84,14,14,0,0,0,.67-1.54,3.56,3.56,0,0,0-2.05-4.61l-.26-.09a12.08,12.08,0,0,0-7.07-.16,54.25,54.25,0,0,0-10.41,3.28c-.62.28-1.31.42-2.35.75C114.64,67,116,65,117.4,63c4.12-5.5,8.33-10.92,13.79-15.22a51,51,0,0,1,14-8.11,28.75,28.75,0,0,1,14-1.91,16.58,16.58,0,0,1,6,1.81,2.11,2.11,0,0,1,1,1c.85,2.81,1.92,5.55,2.19,8.52A28.27,28.27,0,0,1,166.16,62.1Z"/>
            <path class="cls-2" d="M84.27,104.35c1.65-1.8,3.29-3.62,5-5.4a3.44,3.44,0,0,1,1.24-.75c2.63-1,5.36-1.68,7.9-2.85,5.57-2.56,11.15-5.13,16.51-8.09a80.35,80.35,0,0,0,15.53-10.77,16,16,0,0,0,4-4.84,14,14,0,0,0,.67-1.54,3.56,3.56,0,0,0-2.05-4.61l-.26-.09a12,12,0,0,0-7.06-.16,54.35,54.35,0,0,0-10.42,3.28c-.62.28-1.31.42-2.35.75,1.6-2.3,2.92-4.32,4.36-6.24,4.12-5.5,8.33-10.92,13.79-15.21a50.68,50.68,0,0,1,14-8.12,28.75,28.75,0,0,1,14-1.91,16.64,16.64,0,0,1,6,1.81,2.11,2.11,0,0,1,1,1c.85,2.81,1.92,5.55,2.19,8.52a28.23,28.23,0,0,1-2.14,13c-3,7.66-8.18,13.69-14.61,18.66q-3.82,2.79-7.91,5.2A47.61,47.61,0,0,1,138,89.24c-4,1.8-8.14,3.44-12.25,5.08a164.82,164.82,0,0,1-25.4,7.3c-5.26,1.17-10.56,2.09-15.85,3.11ZM149,79.15l.35.42a15.15,15.15,0,0,0,4.41-3.67,6.93,6.93,0,0,0,.88-1.89,2,2,0,0,0-.83-2.44ZM146.8,71l-3,6.39c2.11-1.12,3.61-2.62,3.86-3.81A2.23,2.23,0,0,0,146.8,71Zm-4.7.36a10.47,10.47,0,0,0-2.47,4.48c2.64-1.15,3.23-2.12,2.47-4.45Z"/>
            <path class="cls-2" d="M55.9,72.72c-1.2-3.06-2.38-5.84-3.38-8.68-1.4-4-2.76-8-4-12C45.84,43,43.8,34,43.43,24.59a38.2,38.2,0,0,1,.79-9.66,14.23,14.23,0,0,1,3-6.23,8.23,8.23,0,0,1,7.13-2.87,18.55,18.55,0,0,1,8,2.55A57.62,57.62,0,0,1,75.7,18.85a125.85,125.85,0,0,1,13.62,16c2.21,3.08,4.42,6.17,6.58,9.28a19.53,19.53,0,0,1,1.24,2.35c-.93,1.09-1.84,2.23-2.85,3.3a2.75,2.75,0,0,1-1.29.66,95.69,95.69,0,0,0-11.73,4.07,66.67,66.67,0,0,0-11.68,6.35A57.44,57.44,0,0,0,56.74,72,7.24,7.24,0,0,1,55.9,72.72ZM53.69,56.51c2.84-1.39,5.17-3.11,5.83-4.32-2.74-.39-4.93,1.25-5.79,4.34l-.07.18Zm9.86,4.58a4.78,4.78,0,0,0-4,1,6.76,6.76,0,0,0-2.27,4.58ZM55.18,62c2.12-1.83,4.36-3.26,6.34-5.33C58.26,56.37,56,58.37,55.18,62ZM57,44.21q-4.2-1.5-6.24,3.86Zm1.08,4.15a4.12,4.12,0,0,0-5.39,2.21,4.42,4.42,0,0,0-.29,1.08Zm-2.43-8.23c-2.75-.89-4.88.47-5.54,3.48ZM48,34.72l5.34-3.35C51.13,30.46,49.37,31.46,48,34.72Zm1,4.74L54.52,36C52.46,34.85,50.55,36,49,39.46Zm3.2-11.91c-2.49-1-4.22.11-5.06,2.92Zm-1.25-4a3.22,3.22,0,0,0-4.22,1.74,3.3,3.3,0,0,0-.25,1.15Zm-5-.91L50.35,20c-2.15-.85-3.61.05-4.41,2.62Zm3.69-6.13c-2.15-.66-3.21,0-3.77,2Z"/>
            <path class="cls-2" d="M58.39,90.92c-3.55,2.68-6.62,5.25-9.94,7.45a67.21,67.21,0,0,1-9.37,5.25c-4.64,2.1-9.55,3.42-14.73,2.42-5.42-1.05-9.64-3.75-11.85-9.17a20.63,20.63,0,0,1,5.35-5.82c4-3.12,8.38-5.14,13.57-4.8a47.73,47.73,0,0,1,5.85.75c4.7.91,9.37,2,14.06,2.88C53.47,90.29,55.64,90.52,58.39,90.92Z"/>
            <path class="cls-3" d="M86.91,93.8c-4.87,5.47-9.59,10.51-15.5,14.94C70,101.74,69,95.1,67.84,88.26Z"/>
            <path class="cls-3" d="M90.4,89.48c-1.65-6.72-3-13.42-4.25-20.33l18.69,2.46C100.16,77.88,95.49,83.75,90.4,89.48Z"/>
            <path class="cls-4" d="M84.72,70.85c1.43,7.1,2.76,13.76,4.18,20.82L70,86.16Z"/>
            <path class="cls-3" d="M46.37,123.17c1.79-6.63,3.5-13,5.24-19.46L67,112c-1.62,1.07-2.93,2.09-4.36,2.86-5,2.65-10,5.22-15,7.82C47.34,122.81,47,122.91,46.37,123.17Z"/>
            <path class="cls-3" d="M30.24,112.07,42,124.7a31.29,31.29,0,0,1-12.4,2.53c-4,.11-7.38-.55-8.95-1.67a3.65,3.65,0,0,1,.25-.53Z"/>
            <path class="cls-4" d="M103,50.3l3.82,19L88.34,67Z"/>
            <path class="cls-4" d="M123.21,29c5.43-4.84,11.68-8.48,17.36-9.69.09.82.22,1.62.27,2.44.26,4.17.5,8.35.75,12.64a4.63,4.63,0,0,1-.83,0l-16-4.73A10.74,10.74,0,0,1,123.21,29Z"/>
            <path class="cls-4" d="M70,110.35c-5.66-2.88-10.92-5.58-16.39-8.61a93.06,93.06,0,0,0,12.86-12C67.63,96.71,68.76,103.31,70,110.35Z"/>
            <path class="cls-3" d="M107.9,66.51c-1.2-6-2.41-12-3.66-18.15l16.3,2.12L108.4,66.56Z"/>
            <path class="cls-4" d="M119.54,32.11c1.21,5.66,2.26,10.8,3.2,16.16l-16.32-2.13A140.36,140.36,0,0,1,119.54,32.11Z"/>
            <path class="cls-3" d="M121.15,31.28l17.16,5c-2.52,1.73-4.9,3.26-7.16,4.94s-4.36,3.46-6.71,5.34a8.36,8.36,0,0,1-.68-1.6C122.89,40.55,122,36.11,121.15,31.28Z"/>
            <path class="cls-4" d="M44.79,122.71,34.27,111.38c5.44-1.7,10.7-3.49,15.52-7.22C48.08,110.52,46.49,116.4,44.79,122.71Z"/>
            <path class="cls-3" d="M142.49,19.14,157.9,32.28c-2.74.14-5.09.11-7.4.4s-4.63.91-7,1.4C143,33.13,142.22,22.2,142.49,19.14Z"/>
            <path class="cls-4" d="M13.16,107.08a27.51,27.51,0,0,0,14.6,5.07L19.51,123.5C17.32,117.85,15.24,112.47,13.16,107.08Z"/>
            <path class="cls-5" d="M95.39,92c1.21-1.55,2.3-3,3.41-4.34a.86.86,0,0,1,.52-.33c2.07-.34,3.69-1.73,5.6-2.39a74.81,74.81,0,0,0,12.3-6A44,44,0,0,0,126,73a20.49,20.49,0,0,0,2-2.17c.63-.77,1.29-1,2.38-.24a12.59,12.59,0,0,1-1.4,2,38.34,38.34,0,0,1-3.59,3.15c-2.21,1.68-4.49,3.27-6.75,4.89A5.07,5.07,0,0,1,118,81c-3.43,1.93-6.81,4-10.3,5.77-2.92,1.52-6,2.83-9,4.18A29.56,29.56,0,0,1,95.39,92Z"/>
            <path class="cls-4" d="M162.48,33.09l-17-14.5a10.17,10.17,0,0,1,4.14-.29c2.83.08,5.45.81,7.37,3a12.89,12.89,0,0,1,2.78,4.61,66.61,66.61,0,0,0,3,6.94Z"/>
            <path class="cls-4" d="M64.75,69.58a58.3,58.3,0,0,1,10.86-7.72c-.12,1.63-.22,3-.33,4.39-.16,2-.29,4-.51,6.07-.17,1.5-1,2-2.3,1.32C69.9,72.36,67.39,71,64.75,69.58Z"/>
            <path class="cls-3" d="M63.69,85.4V71.57L72,76C69.5,79.24,66.72,82.16,63.69,85.4Z"/>
            <path class="cls-3" d="M9.2,105.2c2.33,6.15,4.55,12,6.8,18C10.47,119.59,7.68,111.45,9.2,105.2Z"/>
            <path class="cls-4" d="M61.34,73.11c.07,2.91.14,5.82.18,8.73,0,.87-.06,1.75-.12,3.08-1.29-2.75-2.37-5-3.38-7.29a1.52,1.52,0,0,1,.09-1.33c1-1.1,1.7-2.58,3.21-3.2Z"/>
            <path class="cls-4" d="M83.53,62.35l-4.65-2.19c3-1.45,5.58-3.1,8.94-3.84C87.16,59.05,85.23,60.53,83.53,62.35Z"/>
            <path class="cls-3" d="M77.19,69.44l.66-7.62L82.31,64,77.6,69.61Z"/>
            <path class="cls-6" d="M149,79.15l4.81-7.58a2,2,0,0,1,.83,2.44,6.93,6.93,0,0,1-.88,1.89,15.15,15.15,0,0,1-4.41,3.67Z"/>
            <path class="cls-7" d="M146.8,71a2.23,2.23,0,0,1,.91,2.58c-.25,1.19-1.75,2.69-3.86,3.81Z"/>
            <path class="cls-8" d="M142.1,71.39c.76,2.33.17,3.3-2.47,4.48A10.47,10.47,0,0,1,142.1,71.39Z"/>
            <path class="cls-9" d="M63.55,61.09l-6.24,5.63a6.76,6.76,0,0,1,2.27-4.58A4.77,4.77,0,0,1,63.55,61.09Z"/>
            <path class="cls-10" d="M55.18,62c.77-3.59,3.08-5.59,6.34-5.33C59.54,58.7,57.3,60.13,55.18,62Z"/>
            <path class="cls-11" d="M53.73,56.53c.86-3.09,3-4.73,5.79-4.34-.66,1.21-3,2.93-5.83,4.32Z"/>
            <path class="cls-12" d="M57,44.21l-6.24,3.86C52.11,44.5,54.19,43.2,57,44.21Z"/>
            <path class="cls-8" d="M58.07,48.36l-5.68,3.29A4.12,4.12,0,0,1,57,48.07,4.42,4.42,0,0,1,58.07,48.36Z"/>
            <path class="cls-9" d="M55.64,40.13,50.1,43.61C50.76,40.6,52.89,39.24,55.64,40.13Z"/>
            <path class="cls-10" d="M48,34.72c1.36-3.26,3.12-4.26,5.34-3.35Z"/>
            <path class="cls-10" d="M49,39.46c1.53-3.46,3.44-4.61,5.5-3.46Z"/>
            <path class="cls-13" d="M52.22,27.55l-5.06,2.92C48,27.66,49.73,26.56,52.22,27.55Z"/>
            <path class="cls-13" d="M51,23.53l-4.47,2.89A3.22,3.22,0,0,1,51,23.53Z"/>
            <path class="cls-9" d="M45.94,22.62c.8-2.57,2.26-3.47,4.41-2.66Z"/>
            <path class="cls-13" d="M49.63,16.49l-3.77,2C46.42,16.54,47.48,15.83,49.63,16.49Z"/>
            <path class="cls-11" d="M53.69,56.51v.2l.07-.18Z"/>
          </g>
          <g>
            <path class="cls-14" d="M120.43,184.38a17.93,17.93,0,0,1-7.62-1.68l-.21-.09-.19-.11c-4.72-2.66-7.65-7.58-8.73-14.61v-.1a95.6,95.6,0,0,1-.79-15.68c.12-4.53.39-9.18.78-13.8.28-3.73.49-7.53.62-11.24.07-1.59.1-3.11.11-4.54-.25.79-.48,1.58-.69,2.39h0A159.17,159.17,0,0,0,98,166.27a11.82,11.82,0,0,1-.27,2.91,7.54,7.54,0,0,1-2.9,4.57,7.68,7.68,0,0,1-3.62,1.56l-.37.05h-.34a14.67,14.67,0,0,1-1.62.1,13.68,13.68,0,0,1-3.92-.58c-5-1.43-8.19-5.29-9-10.86a26.06,26.06,0,0,1-.23-5.92l.78-27.55c-.89,2.67-1.66,5.4-2.29,8.17v.05a171.89,171.89,0,0,0-4.62,35.49c.07,5.78-3.34,8-4.82,8.66l-.43.2-1.21.32-.31.05a10.7,10.7,0,0,1-1.5.11h-.72c-3.86-.13-7-1.2-9.17-3.17l-.1-.09-.09-.09a11.63,11.63,0,0,1-3.34-6.81,19.52,19.52,0,0,1-.09-5.29c.68-10.92,1.17-22,1.47-32.93l.09-3.5,3.21-1.4a96.07,96.07,0,0,0,10-5.12l.54-.31.92-.54c1.63-1,3.34-2,5.38-3.33l6.23-4v-.16l3.25-2.21.93-.64L80,114a6.3,6.3,0,0,1,1.84-.81l1.72-1.1-.34.9c2.27-.22,4.56-.52,6.51-.79l2.29-.32h.25c.39-1,.81-2,1.26-2.88a36,36,0,0,1,5.74-8.39l.26-.28a17.63,17.63,0,0,1,10.1-5.65,14,14,0,0,1,2.14-.16,12.58,12.58,0,0,1,2.13.18l.53.09.25.07a16.52,16.52,0,0,1,4,1.67,16,16,0,0,1,6.88,8.36,24.82,24.82,0,0,1,1.27,5c.06.39.12.8.17,1.2h0a38.35,38.35,0,0,1,.27,4.79c0,7.26-.23,14.66-.83,22-.42,5.41-.71,10.93-.84,16.4a96.6,96.6,0,0,0,.89,15.67,6.89,6.89,0,0,1,4.45,5.41,7.27,7.27,0,0,1-.56,4.09h0a8.19,8.19,0,0,1-6.65,4.76h-.12l-1.19.13c-.62.06-1.26.09-1.88.09Z"/>
            <path class="cls-1" d="M74.32,111.7a83.61,83.61,0,0,0,8.76-7.85l2.62-2.68,3.45,1.45a14.52,14.52,0,0,1,1.81.9l.14.08a15.29,15.29,0,0,1,5.13,5.14c.2.33.39.66.56,1l3.67,6.9-7.73,1.14-2.29.32c-2.13.3-4.64.63-7.18.86h-.07l-.07.05-2.3,1.58Z"/>
            <path class="cls-14" d="M141.13,166.8h-.92a18.35,18.35,0,0,1-10.39-4.12,23.31,23.31,0,0,1-8.49-15.25,35.17,35.17,0,0,1,.31-12.15,34.67,34.67,0,0,1,4.71-13.1v-.07a21.88,21.88,0,0,1,12.31-9.52h.14a19,19,0,0,1,2.09-.45,15.37,15.37,0,0,1,2.34-.18,12,12,0,0,1,5.29,1,12.25,12.25,0,0,1,5.22,4.71,15.82,15.82,0,0,1,2.13,5.94,17.85,17.85,0,0,1,0,5.46,7.31,7.31,0,0,1,3.72-1.73h.24a5.64,5.64,0,0,1,.82,0,7.14,7.14,0,0,1,6.12,3.42A7.51,7.51,0,0,1,168,133.9c.34,2.2-.15,5-3.64,12.88a65.82,65.82,0,0,1-3.25,6.51,28.09,28.09,0,0,1-10.22,10.81,19.83,19.83,0,0,1-7,2.49A18.49,18.49,0,0,1,141.13,166.8Zm2.09-20.14a11.53,11.53,0,0,0,.82,2.68,4.49,4.49,0,0,0,1.21-1l.1-.11a25,25,0,0,0,4.4-6.29c.34-.7.66-1.4,1-2.11a29.7,29.7,0,0,1-2.76,2.85C146.45,144.1,144.86,145.42,143.22,146.66Z"/>
            <path class="cls-14" d="M170.51,162.64a7.14,7.14,0,0,1-4.86-2,8,8,0,0,1-2.42-4.63v-.44a11.49,11.49,0,0,1,.55-4.36l2-6.69c1.05-3.3,1.55-5.1,1.78-6.05a7.41,7.41,0,0,1-5.28,3.63,7.3,7.3,0,0,1-1.14.09,7.64,7.64,0,0,1-7.46-6.42,11,11,0,0,1,.68-5.23l.2-.67c.76-3.21,1.45-6.51,2.06-9.81v-.19a8.57,8.57,0,0,0,.28-2.42l-.18-.9v-.13c-.49-3.24,1-7.29,6.42-9a18.6,18.6,0,0,1,3.74-1,12.3,12.3,0,0,1,1.71-.13,11.46,11.46,0,0,1,2.55.29h.17a11.25,11.25,0,0,1,6.43,4.47l.14.19a12.21,12.21,0,0,1,1.5-2.6,7.88,7.88,0,0,1,4.3-2.81l.28-.08h.29a7.55,7.55,0,0,1,1.16-.09,7.84,7.84,0,0,1,5.8,2.64,9.89,9.89,0,0,1,2.53,5.24,11.65,11.65,0,0,1-.44,5.34,24,24,0,0,1-1.41,3.45l-4.32,9.25c.83,1.79,1.72,3.55,2.66,5.26l.3.54a71.4,71.4,0,0,0,2.48-8.47,12.49,12.49,0,0,1,1.26-3.72,7.7,7.7,0,0,1,5.67-4,8.29,8.29,0,0,1,1.11-.08,7.09,7.09,0,0,1,4.79,1.86,7.76,7.76,0,0,1,2.44,4.64V128a11,11,0,0,1-.63,4.61l-3.15,10.92a34.55,34.55,0,0,1-3.82,9.26,14.54,14.54,0,0,1-9.74,6.82h-.3a13.36,13.36,0,0,1-2,.15,13.71,13.71,0,0,1-5.14-1,17.09,17.09,0,0,1-5.11-3.23,14.2,14.2,0,0,1-1,2.81,7.6,7.6,0,0,1-6.8,4.27Z"/>
            <path class="cls-14" d="M206.7,156.81a14.28,14.28,0,0,1-6.53-1.59l-.15-.08-.14-.08a14.8,14.8,0,0,1-6.43-7.74,25.2,25.2,0,0,1-1.22-4.76c-.16-1-.29-2.09-.37-3.13v-.15a95.42,95.42,0,0,1,0-11.47c.24-3.64.56-7.33,1-11v-.21a21,21,0,0,0,.22-2.24,7.7,7.7,0,0,0-.07-1.59l-.23-1.51a8.12,8.12,0,0,1,1-5.58,6.9,6.9,0,0,1,.63-.87c-.12-.25-.23-.51-.33-.77a9.35,9.35,0,0,1-.52-2,8.21,8.21,0,0,1,1.34-5.9A9.52,9.52,0,0,1,199,92.81a11.77,11.77,0,0,1,3-1h.17a9.15,9.15,0,0,1,1.38-.1,8.87,8.87,0,0,1,5.24,1.71,10.51,10.51,0,0,1,3.51,4.25,8.52,8.52,0,0,1,.84,2.6,8.61,8.61,0,0,1-.61,4.65l-.06.12-.06.13a7.76,7.76,0,0,1-.83,1.35l.26.3.19.27a11.66,11.66,0,0,1,1.9,4.85,17.1,17.1,0,0,1,0,5l-.39,4.46-.12,1.16a9.37,9.37,0,0,1,1.78-2.46l.24-.24.26-.2a7.39,7.39,0,0,1,3.38-1.44,6.92,6.92,0,0,1,1.11-.09,7.6,7.6,0,0,1,3.56.89,7.14,7.14,0,0,1,3.61,4.37l.21.73,0,.34a8.67,8.67,0,0,1-.44,4.37A133.55,133.55,0,0,1,221.53,146a20,20,0,0,1-4.73,7.21l-.23.22-.25.19a14.84,14.84,0,0,1-6.89,3l-.88.13h-.09A17.15,17.15,0,0,1,206.7,156.81Z"/>
            <path class="cls-14" d="M230.41,153.53a19.56,19.56,0,0,1-2.16-.13H228a17.85,17.85,0,0,1-9.87-4.86,23.26,23.26,0,0,1-7-13.76,33.5,33.5,0,0,1-.31-6.86,43.41,43.41,0,0,1,.85-6.42,36.22,36.22,0,0,1,4-11.78,22.73,22.73,0,0,1,10-9.53h.17a16.8,16.8,0,0,1,4.32-1.29,16.16,16.16,0,0,1,2.4-.18A13,13,0,0,1,240,100.9l.13.08.12.09a14.69,14.69,0,0,1,5.62,9.77,16.48,16.48,0,0,1-.16,5.9,7.82,7.82,0,0,1,.55-.6l.15-.16.17-.15a8.1,8.1,0,0,1,4.12-2,6.74,6.74,0,0,1,1-.08,6.6,6.6,0,0,1,3.52,1l.45.27.38.36a8.22,8.22,0,0,1,2.53,4.92,11,11,0,0,1-.26,4.61v.14l0,.14A68.21,68.21,0,0,1,251.7,139,36.22,36.22,0,0,1,243,149l-.15.12a21.25,21.25,0,0,1-9.73,4.18A17.75,17.75,0,0,1,230.41,153.53Zm2.46-27.16a35.61,35.61,0,0,0,0,4.62v.18a15.76,15.76,0,0,0,.19,2.17,13.8,13.8,0,0,0,.69,2.69,16.66,16.66,0,0,0,4.55-4.8,43.07,43.07,0,0,0,4.14-7.68,9.76,9.76,0,0,1-4.91,3.14l-.31.08h-.3a7.68,7.68,0,0,1-1.17.09,7.79,7.79,0,0,1-2.78-.52Z"/>
            <path class="cls-14" d="M257.78,149.33a13.35,13.35,0,0,1-10.22-4.69l-.1-.12-.1-.11a20.84,20.84,0,0,1-4.07-8.71c-.27-1.09-.49-2.21-.66-3.35a45.89,45.89,0,0,1-.51-7.22c0-2.3.14-4.62.36-6.91a53.3,53.3,0,0,1,1.26-7.53,28.49,28.49,0,0,1,3.09-7.71A17.58,17.58,0,0,1,254,96l.13-.07.14-.07a16.44,16.44,0,0,1,4.32-1.3,19.32,19.32,0,0,1,2.74-.2,20.19,20.19,0,0,1,2.58.16l.13-.17.28-.36.34-.31a7.8,7.8,0,0,1,4.07-1.93,10,10,0,0,1,1.55-.12,10.66,10.66,0,0,1,1.38.09,27,27,0,0,1,3.91.62h.22a10.59,10.59,0,0,1,7.82,9c.19,1.26.27,3.43-.43,10.61a8.73,8.73,0,0,1,2.16-2.6,7.23,7.23,0,0,1,4.79-1.81,7,7,0,0,1,6.45,4.39l.06.14a8.63,8.63,0,0,1,.57,2,9.34,9.34,0,0,1,0,2.89v.3a105.69,105.69,0,0,1-5.8,17.85,21.7,21.7,0,0,1-4.47,7.12l-.19.19-.2.18a14.39,14.39,0,0,1-7.34,3.43,13.5,13.5,0,0,1-2.2.17,15.06,15.06,0,0,1-6.68-1.59l-.11-.05-.1-.05a17.3,17.3,0,0,1-1.94-1.25,17.12,17.12,0,0,1-2.48,2.83,12.3,12.3,0,0,1-6.58,3.15l-.52.07h-.74Z"/>
            <path class="cls-14" d="M291.46,144.05h-.64a9,9,0,0,1-6.45-3.23l-.14-.17-.13-.18a9.77,9.77,0,0,1-1.7-4.21,14.88,14.88,0,0,1-.15-2.83c.11-7.62.18-15.2.21-22.52l.11-15.17a6.92,6.92,0,0,1,2.19-5.49,7.73,7.73,0,0,1,4.14-1.89h.23a19.74,19.74,0,0,1,2.17-.13,15.27,15.27,0,0,1,6.39,1.31,10.55,10.55,0,0,1,3.1,2.1,18.89,18.89,0,0,1,1.9-2,11.87,11.87,0,0,1,6.28-3,12.26,12.26,0,0,1,10,3l.19.16.18.18a15.41,15.41,0,0,1,4.19,8.93v.38q.27,3.13.31,6.14a7.71,7.71,0,0,1,5.55-3.93l.3,0h.65a7.42,7.42,0,0,1,7.35,6v.4a11,11,0,0,1-.3,4.63c-.62,2.9-1.35,5.8-2.18,8.62a45.38,45.38,0,0,1-3.76,9.12c-3,5.59-7.06,8.82-12,9.57a13.36,13.36,0,0,1-2,.15,13.84,13.84,0,0,1-4.93-.94,13.4,13.4,0,0,1-5.62-4,16.1,16.1,0,0,1-1.89-2.86,20.93,20.93,0,0,1-.69,4c-1.1,4.17-4.36,7-9,7.67h-.11A29.27,29.27,0,0,1,291.46,144.05Z"/>
            <path class="cls-14" d="M339.67,137.24a15.73,15.73,0,0,1-7.42-1.86,18.39,18.39,0,0,1-6.05-5.18l-.07-.1L326,130a29.82,29.82,0,0,1-4.87-12.36l-.34-1.88v-.07a43.13,43.13,0,0,1,.57-16.86c1.83-7.8,5.77-13.13,11.7-15.83h.21a17.19,17.19,0,0,1,3.91-1.08,16.06,16.06,0,0,1,2.49-.19,16.88,16.88,0,0,1,7.78,2l.27.14L348,84c4.54,3,7.65,7.86,9.25,14.39A7.93,7.93,0,0,1,361,96.62l.49-.07h2l.89.35a7.88,7.88,0,0,1,5,6.38l.08.48v.49a12.11,12.11,0,0,1-1.05,4.62C366,115,363,119.2,359,121.87a15,15,0,0,1-2.74,1.46,28.34,28.34,0,0,1-3.75,7.09l-.06.08-.07.09a18.51,18.51,0,0,1-4.46,4.1,15.22,15.22,0,0,1-6.13,2.36l-.9.14h-.27Z"/>
            <path class="cls-14" d="M385.31,134.13c-1.5,0-3-.06-4.54-.17a48.41,48.41,0,0,1-13.13-2.86h-.14a15.45,15.45,0,0,1-6.53-4.9,15.78,15.78,0,0,1-3.22-7.48c-.2-1.28-.74-4.84,1.19-7.6a7.29,7.29,0,0,1-1.73-1,7.37,7.37,0,0,1-2.76-4.72,7.62,7.62,0,0,1,.26-3.45c1.08-4.08,2.37-8.17,3.82-12.15a34.24,34.24,0,0,1,3.16-6.5,16,16,0,0,1,6.44-5.8,17.84,17.84,0,0,1,5.59-1.84,17.28,17.28,0,0,1,2.59-.2A17.76,17.76,0,0,1,383.49,77h.16a8,8,0,0,1,3.9,3.87,17.67,17.67,0,0,1,3.24-4.3,22.18,22.18,0,0,1,7.56-4.67h.07a28.34,28.34,0,0,1,5.65-1.49,23.27,23.27,0,0,1,3.63-.28A19.82,19.82,0,0,1,416.14,72a21.24,21.24,0,0,1,8.75,7.62,27.7,27.7,0,0,1,4.22,11.3,36,36,0,0,1,0,10.47A39.21,39.21,0,0,1,426,112l0,.1v.09a33.64,33.64,0,0,1-11.12,13.23,44.23,44.23,0,0,1-12.55,6.14,56,56,0,0,1-17,2.57Zm-4.47-42.56a9.8,9.8,0,0,0,.93,2.68,32.61,32.61,0,0,0,2.2,3.38l.07.09a63.65,63.65,0,0,1,4.11,6.43,23.17,23.17,0,0,1,2.63,7.65,17.63,17.63,0,0,1-.13,6.19c5.53-.86,9.87-2.8,13.25-5.94,3.11-2.92,5.27-7.47,6.38-13.5a20.7,20.7,0,0,0,.19-6.89c-.49-3.26-1.7-3.94-2.1-4.16l-.09-.06a.88.88,0,0,0-.24-.11l-.14.1a1.88,1.88,0,0,0-.56.69,4.93,4.93,0,0,0-.35,1.42,8.13,8.13,0,0,0,0,1.56,2,2,0,0,0,.08.43,6,6,0,0,1,1.1,2.68,6.24,6.24,0,0,1-4.49,7,14.28,14.28,0,0,1-2.24.52,15.4,15.4,0,0,1-2.35.18,12.74,12.74,0,0,1-5.4-1.16,13.4,13.4,0,0,1-5.36-4.48,14.27,14.27,0,0,1-2.43-6q-.06-.36-.09-.72a7.32,7.32,0,0,1-4,1.94A6.24,6.24,0,0,1,380.84,91.57Z"/>
            <path class="cls-3" d="M122.14,173.53c-.1-.65-.64-1.08-1.61-1.31a3.31,3.31,0,0,1-2.28-1.95,10.81,10.81,0,0,1-.56-2.17,101.69,101.69,0,0,1-1-16.63q.21-8.34.86-16.71.9-10.8.81-21.54a33.85,33.85,0,0,0-.23-4.15A7.9,7.9,0,0,0,118,108a19.26,19.26,0,0,0-1-3.81,10.53,10.53,0,0,0-4.53-5.58,11.2,11.2,0,0,0-2.68-1.1l-.29-.06a8,8,0,0,0-2.49,0,12.34,12.34,0,0,0-7,4l-.17.19a30.31,30.31,0,0,0-4.86,7.1c-.42.87-.81,1.76-1.16,2.68s-.67,1.82-1,2.74q-1.44,4.24-2.54,8.6c.07-1.39.13-2.79.16-4.21a26.07,26.07,0,0,0-.31-3.85v-.13L87,115c-2.25.31-4.67.62-7.15.85a.69.69,0,0,0-.36.13l-.84.58a4.27,4.27,0,0,1,.15.71,11.26,11.26,0,0,1,.07,2.9l-1,35.62a20.93,20.93,0,0,0,.17,4.81q.78,5.15,5.15,6.41a8.14,8.14,0,0,0,3.57.25h.32a2.39,2.39,0,0,0,1.11-.5,2.09,2.09,0,0,0,.85-1.33,6.78,6.78,0,0,0,.14-1.68A164,164,0,0,1,95.1,121,56.78,56.78,0,0,1,97,115.17a18.06,18.06,0,0,1,.75-1.75,25.14,25.14,0,0,1,2.11-3.62,4.28,4.28,0,0,1,2.53-2h.09a2.62,2.62,0,0,1,1.79.39,4.79,4.79,0,0,1,2.06,3.63h0a93.7,93.7,0,0,1,.22,12.87c-.13,3.85-.35,7.68-.64,11.52q-.57,6.75-.76,13.5a91.29,91.29,0,0,0,.75,14.78q1.2,7.94,6,10.64a12.5,12.5,0,0,0,6.65,1.1l1-.11a2.89,2.89,0,0,0,2.44-1.54A1.88,1.88,0,0,0,122.14,173.53Zm-58.55-47c-.6,2.13-1.16,4.28-1.66,6.44l.15-5.55a106.21,106.21,0,0,1-10.58,5.39Q51,149.45,50,166.06a14.88,14.88,0,0,0,0,4,6.27,6.27,0,0,0,1.73,3.68q1.91,1.68,5.82,1.8h.19a4.82,4.82,0,0,0,.93,0l.45-.13c1.12-.51,1.65-1.73,1.61-3.67A176.5,176.5,0,0,1,65.53,135a90.3,90.3,0,0,1,3.57-11.85c-1.73,1.08-3.58,2.24-5.51,3.38Z"/>
            <path class="cls-14" d="M88.66,109.75l-2.25.32c-2.3.32-4.6.62-6.91.83a5.57,5.57,0,0,0-2.74,1l-2.33,1.6a91.3,91.3,0,0,0,9.33-8.35,9.37,9.37,0,0,1,4.5,3.91C88.4,109.28,88.54,109.52,88.66,109.75Z"/>
            <path class="cls-3" d="M139.78,158.58A12,12,0,0,1,130,155.8a17.87,17.87,0,0,1-6.51-11.8,29.21,29.21,0,0,1,.3-10.38,29,29,0,0,1,4-11.18,16.44,16.44,0,0,1,9.29-7.19,11.29,11.29,0,0,1,1.4-.31,7.46,7.46,0,0,1,4.4.48,6.64,6.64,0,0,1,2.89,2.61,10.43,10.43,0,0,1,1.39,3.9,14,14,0,0,1-1.45,8.35,24.31,24.31,0,0,1-4.71,5.79,64.17,64.17,0,0,1-5.9,4.75,2,2,0,0,0-.74.72,8.68,8.68,0,0,0,.1,3.09,17.55,17.55,0,0,0,2.71,7,5.33,5.33,0,0,0,3.84.87,9.65,9.65,0,0,0,5-3,30.05,30.05,0,0,0,5.38-7.7,62.68,62.68,0,0,0,3.51-8.87c.53-1.65,1.27-2.54,2.22-2.69a1.7,1.7,0,0,1,1.73.91,2.28,2.28,0,0,1,.39,1Q159.59,134,156,142a61,61,0,0,1-3,6,22.64,22.64,0,0,1-8.2,8.76A14.2,14.2,0,0,1,139.78,158.58Zm-5.54-22.17a23.09,23.09,0,0,0,7.18-7.11,10.5,10.5,0,0,0,1.75-4.26,5.3,5.3,0,0,0-.06-1.59,6.22,6.22,0,0,0-.71-2.1,1.44,1.44,0,0,0-1.52-.85,2.61,2.61,0,0,0-1.82,1.31,22,22,0,0,0-4.1,9.79C134.64,133.21,134.4,134.82,134.24,136.41Z"/>
            <path class="cls-3" d="M186.54,151.65a8.07,8.07,0,0,1-4.26-.53,11.43,11.43,0,0,1-3.73-2.44,19.06,19.06,0,0,1-2.86-3.53c-.83-1.3-1.59-2.62-2.3-4a50.11,50.11,0,0,0-3.51,9.93,9.06,9.06,0,0,1-.77,2.21,2.12,2.12,0,0,1-1.62,1.21,1.56,1.56,0,0,1-1.34-.46,2.45,2.45,0,0,1-.74-1.43,6,6,0,0,1,.31-2.31l2-6.69q2.39-7.5,2.22-8.51-.09-.45-7.21-15.58l-2.54,11.66c-.36,1.78-1,2.75-2,2.9a2,2,0,0,1-1.52-.4,2,2,0,0,1-.81-1.31,6.29,6.29,0,0,1,.48-2.71l.28-.93q1.2-5.07,2.15-10.24A12.57,12.57,0,0,0,159,114l-.19-1c-.21-1.38.71-2.38,2.78-3a13.18,13.18,0,0,1,2.75-.75,6.14,6.14,0,0,1,2.22.08,5.68,5.68,0,0,1,3.31,2.32,18.24,18.24,0,0,1,2.08,3.77l2.9,6.7L179.6,111a6.88,6.88,0,0,1,.85-1.52,2.38,2.38,0,0,1,1.32-.83,2.28,2.28,0,0,1,2.08.83,4.33,4.33,0,0,1,1.13,2.34,6,6,0,0,1-.23,2.81,18.71,18.71,0,0,1-1.13,2.75l-4.74,10.17a3.15,3.15,0,0,0-.43,1.8,2.76,2.76,0,0,0,.39,1.07c1,2.23,2.08,4.4,3.25,6.53a32.9,32.9,0,0,0,4.14,5.87,3.67,3.67,0,0,0,1,.84,2.1,2.1,0,0,0,1.12.26c.86-.14,1.56-.88,2.1-2.25a77.36,77.36,0,0,0,4.69-14.24,7.11,7.11,0,0,1,.72-2.2,2.12,2.12,0,0,1,1.63-1.17,1.58,1.58,0,0,1,1.36.41,2.27,2.27,0,0,1,.7,1.39,5.27,5.27,0,0,1-.38,2.45L196,139.52a29.13,29.13,0,0,1-3.22,7.86A9,9,0,0,1,186.54,151.65Z"/>
            <path class="cls-3" d="M205.33,148.55l-.78.12a8.82,8.82,0,0,1-5.12-.91,9.41,9.41,0,0,1-4.09-4.93,19.26,19.26,0,0,1-.93-3.66c-.14-.92-.25-1.84-.33-2.77a90.17,90.17,0,0,1,0-10.78c.24-3.59.55-7.17,1-10.74.14-.93.23-1.85.28-2.77a12.84,12.84,0,0,0-.13-2.7l-.23-1.52c-.24-1.59.31-2.49,1.66-2.69a6.78,6.78,0,0,1,2.5.08l.39.09a6.63,6.63,0,0,1,4.67,2.29,6,6,0,0,1,1,2.57,11.31,11.31,0,0,1,0,3.58l-.39,4.52q-.87,8.16-1,16.31a18.57,18.57,0,0,0,.2,3.16,6.58,6.58,0,0,0,1,2.88,1.64,1.64,0,0,0,1.64.76,3.27,3.27,0,0,0,2.17-1.83,30.41,30.41,0,0,0,2.68-5.61q1-3,1.9-6c.42-1.53.88-3.06,1.37-4.58a4,4,0,0,1,1-1.84,1.87,1.87,0,0,1,.84-.37,2.14,2.14,0,0,1,1.31.25,1.61,1.61,0,0,1,.86,1l.1.36a3.33,3.33,0,0,1-.24,1.82,129.36,129.36,0,0,1-5.53,16.72,14.48,14.48,0,0,1-3.47,5.32A9.25,9.25,0,0,1,205.33,148.55Zm-4.7-46h-.28a2.74,2.74,0,0,1-1.33-.12,4.81,4.81,0,0,1-3-3,5.36,5.36,0,0,1-.22-.81,2.83,2.83,0,0,1,.47-2A3.88,3.88,0,0,1,198,95.21a7.28,7.28,0,0,1,1.63-.55h.18a3.39,3.39,0,0,1,2.56.64,5.2,5.2,0,0,1,1.77,2.17,3,3,0,0,1,.34,1,2.86,2.86,0,0,1-.22,1.63,5.06,5.06,0,0,1-3.62,2.47Z"/>
            <path class="cls-3" d="M229.07,145.31a13.36,13.36,0,0,1-3.46.06A12.56,12.56,0,0,1,218.7,142a17.71,17.71,0,0,1-5.37-10.6,27.36,27.36,0,0,1-.26-5.72,36.87,36.87,0,0,1,.77-5.73,30.66,30.66,0,0,1,3.46-10.13,17,17,0,0,1,7.56-7.24,11.65,11.65,0,0,1,2.88-.86,8,8,0,0,1,5.85,1.13,9,9,0,0,1,3.48,6.19,11.49,11.49,0,0,1-1.71,7.87,4.4,4.4,0,0,1-2.57,1.94,2.25,2.25,0,0,1-1.2-.15,1.55,1.55,0,0,1-1.09-1.33,2.37,2.37,0,0,1,.2-1.26,13.1,13.1,0,0,1,.72-1.33,7.15,7.15,0,0,0,1-4.8,6.84,6.84,0,0,0-.77-2.28c-.33-.57-.72-.83-1.14-.76a1.42,1.42,0,0,0-1,.61,17.08,17.08,0,0,0-4,7.8A40.6,40.6,0,0,0,224,128.74a25.07,25.07,0,0,0,.25,2.87,19.13,19.13,0,0,0,1.53,5.12,4.65,4.65,0,0,0,2.53,2.72,3.6,3.6,0,0,0,1.66.12,6.18,6.18,0,0,0,1.57-.47c2.88-1.29,5.54-3.73,8-7.35a50,50,0,0,0,5.81-11.66l.12-.4a5.29,5.29,0,0,1,1.33-2.36,3.06,3.06,0,0,1,1.34-.77,1.21,1.21,0,0,1,.83.16,2.85,2.85,0,0,1,.82,1.7,5.48,5.48,0,0,1-.12,2.28,62.64,62.64,0,0,1-6.05,12.76,30.44,30.44,0,0,1-7.36,8.73A15.72,15.72,0,0,1,229.07,145.31Z"/>
            <path class="cls-3" d="M255,141.23h-.19a7.84,7.84,0,0,1-6.35-2.83,15.3,15.3,0,0,1-3-6.5c-.24-1-.44-2-.59-3a39.65,39.65,0,0,1-.45-6.35,62.41,62.41,0,0,1,.34-6.41,47.12,47.12,0,0,1,1.13-6.77,23.41,23.41,0,0,1,2.52-6.28,12.17,12.17,0,0,1,5-4.9,10.39,10.39,0,0,1,2.83-.85,19.67,19.67,0,0,1,8.83,1.2,5.94,5.94,0,0,1-.41-1.44,2.44,2.44,0,0,1,.5-2,2.19,2.19,0,0,1,1.18-.55,4.78,4.78,0,0,1,1.51,0,20.54,20.54,0,0,1,3.22.5,5.09,5.09,0,0,1,3.88,4.48c.18,1.23,0,4.62-.56,10.19-.31,2.92-.54,5.86-.68,8.79a58.68,58.68,0,0,0,.2,9.65,4.22,4.22,0,0,0,.44,1.34,2.25,2.25,0,0,0,1.79,1.28h.18a2.68,2.68,0,0,0,1.84-1.22,16.56,16.56,0,0,0,2.35-4.31,97.55,97.55,0,0,0,3.69-11.55,9.24,9.24,0,0,1,.48-1.46,3.16,3.16,0,0,1,.92-1.22,2.42,2.42,0,0,1,1.06-.56c.74-.11,1.29.26,1.67,1.11a2.53,2.53,0,0,1,.21.76,3.57,3.57,0,0,1,0,1.13,98.73,98.73,0,0,1-5.54,17,15.75,15.75,0,0,1-3.36,5.39A8.75,8.75,0,0,1,275,138a9.31,9.31,0,0,1-5.63-.92,9.75,9.75,0,0,1-3.46-3.14,10.51,10.51,0,0,1-1.72-4.34,7.92,7.92,0,0,1-.09-1.54c-.38,1-.73,2.06-1,3.07a30,30,0,0,1-1.92,5,11.79,11.79,0,0,1-2.54,3.33A6.93,6.93,0,0,1,255,141.23Zm1.38-7.59a2.29,2.29,0,0,0,.73-.58,6.72,6.72,0,0,0,.52-.79l.33-.56a30.25,30.25,0,0,0,1.49-3.8,16.27,16.27,0,0,0,.65-2.49h.05v-.09q2.1-9.22,3.27-18.63l.27-1.88a.83.83,0,0,0,.09-.67,1.81,1.81,0,0,1,.87-1.4c-.56-.17-.94-.29-1.14-.37l-.37-.13H263a1.13,1.13,0,0,1-.26,0,7.68,7.68,0,0,0-1.35.11l-.53.23-.29.11a2.3,2.3,0,0,0-.44.33,7.08,7.08,0,0,0-.79.66.18.18,0,0,1-.13.09,10,10,0,0,0-1.43,2,.19.19,0,0,1-.09.18,10.07,10.07,0,0,0-.69,1.49q-.43,1.22-.75,2.46l-.34,1.18a48.13,48.13,0,0,0-1.34,11.53l.07,1.44c.1,1.83.25,3.66.46,5.47l.51,2.42A8.6,8.6,0,0,0,256.33,133.64Z"/>
            <path class="cls-3" d="M291.41,135.72a22,22,0,0,1-3.53.25,3.4,3.4,0,0,1-2.54-1.25,4.48,4.48,0,0,1-.76-1.86,9.22,9.22,0,0,1-.09-1.82q.17-11.58.21-22.67l.12-15.29a1.62,1.62,0,0,1,.38-1.33,2.43,2.43,0,0,1,1.26-.52,10.9,10.9,0,0,1,5.7.73A4.72,4.72,0,0,1,295,95.8a9.2,9.2,0,0,1,.11,1.66q0,.83-.12,13.66c.58-3,1.28-5.89,2.11-8.78a34.6,34.6,0,0,1,3.53-8.14,13.93,13.93,0,0,1,2.51-3.11,6.33,6.33,0,0,1,3.4-1.6,7,7,0,0,1,5.67,1.77,10.2,10.2,0,0,1,2.63,5.85,85.11,85.11,0,0,1,.16,12.47c-.14,3-.15,6,0,9.07a18,18,0,0,0,.22,2.64,13.41,13.41,0,0,0,.67,2.58,3,3,0,0,0,.6,1,1.36,1.36,0,0,0,1,.36,1.61,1.61,0,0,0,1.07-.68,13.73,13.73,0,0,0,2.7-4.45,51.29,51.29,0,0,0,3.59-12.25c.2-2.16.93-3.33,2.18-3.52a1.93,1.93,0,0,1,2.1,1.74,5.27,5.27,0,0,1-.19,2.43c-.6,2.85-1.31,5.66-2.12,8.45a39.92,39.92,0,0,1-3.31,8q-3.27,6-8,6.76a8.28,8.28,0,0,1-7.46-2.86,9.63,9.63,0,0,1-1.81-3.25,27.51,27.51,0,0,1-.82-3.68,43.34,43.34,0,0,1-.5-6.54c0-2.19,0-4.41.13-6.65.14-2.81.17-5.61.08-8.42v-.74a8.07,8.07,0,0,0-.1-.83,2.61,2.61,0,0,0-.16-.61,1.9,1.9,0,0,0-.23-.39.52.52,0,0,0-.24-.2.48.48,0,0,0-.17,0h-.1a3.42,3.42,0,0,0-1.91,2.55,121,121,0,0,0-5.76,28.55,14.92,14.92,0,0,1-.54,3.51C295.35,134.13,293.86,135.35,291.41,135.72Z"/>
            <path class="cls-3" d="M337.65,129.05l-.64.1a10,10,0,0,1-5.42-1.2,12.86,12.86,0,0,1-4.24-3.62,24.13,24.13,0,0,1-4-10.15L323,112.3a36.92,36.92,0,0,1,.49-14.73q2.12-9.15,8.62-12.12a11.8,11.8,0,0,1,2.66-.73,11.06,11.06,0,0,1,6.91,1.2q6,4,7.56,14.21a46.69,46.69,0,0,1,.16,11.87q4.62-2.67,6.67-9.28l.13-.4c.46-1.7,1.24-2.63,2.34-2.8h.52a2.39,2.39,0,0,1,1.54,2.06,6.73,6.73,0,0,1-.63,2.64q-2.94,7.53-7.37,10.51a9.94,9.94,0,0,1-4.09,1.57,23.18,23.18,0,0,1-3.8,8.33,13.18,13.18,0,0,1-3.15,2.9A9.6,9.6,0,0,1,337.65,129.05Zm1.45-5.29a2.8,2.8,0,0,0,1.19-1.12,18.35,18.35,0,0,0,2.59-6.74v-.33a.56.56,0,0,0-.39-.36q-4.55-2.7-6.1-9.5c-.23-.91-.41-1.8-.55-2.69a55.33,55.33,0,0,1-.31-11.93,30.22,30.22,0,0,0-2.64,12.28,60.58,60.58,0,0,0,.59,10.34,29.31,29.31,0,0,0,1.48,5.7,10,10,0,0,0,1.94,3.46,2.22,2.22,0,0,0,2,.92ZM343.49,111l.06-3.3c-.06-1-.11-1.82-.15-2.37s-.09-1.1-.15-1.62-.15-1.25-.26-2.17L342.31,98q-.81-2.55-1.2-3.57a15.58,15.58,0,0,0-1.52-2.92c-.13,1-.21,1.83-.25,2.41s0,1.1,0,1.54a12.1,12.1,0,0,0,.07,1.54c.07.54.09,1.35.14,2.28s.18,2.08.33,3.09c.12.77.27,1.59.47,2.47a15.9,15.9,0,0,0,1,3.23,17.85,17.85,0,0,0,1.41,2.13h0a2.33,2.33,0,0,0,.56.57h.05A.29.29,0,0,0,343.49,111Z"/>
            <path class="cls-3" d="M389.81,125.47a52,52,0,0,1-11.89.43,42.59,42.59,0,0,1-11.64-2.53,10,10,0,0,1-4.24-3.18,10.38,10.38,0,0,1-2.11-4.92c-.3-2-.15-3.26.45-3.82a2.13,2.13,0,0,1,1.18-.6,1.81,1.81,0,0,1,1.47.38,2,2,0,0,1,.76,1.34,2.8,2.8,0,0,1,0,1,5.27,5.27,0,0,0,.08,1.43,8.44,8.44,0,0,0,.63,2.15,2.23,2.23,0,0,0,1.36,1.39l-.22-.2a3.82,3.82,0,0,0,2.86.88,3.53,3.53,0,0,0,2.68-2.12,6.28,6.28,0,0,0,.64-3.88,13.16,13.16,0,0,0-1.7-4.53c-.91-1.55-1.95-3.17-3.11-4.84A45.24,45.24,0,0,1,362.3,96l-1.85,6.34a1.63,1.63,0,0,1-1.51,1.22,2,2,0,0,1-1.56-.37,2,2,0,0,1-.75-1.25,2.56,2.56,0,0,1,.11-1.1q1.59-6,3.7-11.79a28.9,28.9,0,0,1,2.65-5.45,10.46,10.46,0,0,1,4.3-3.83A11.88,11.88,0,0,1,378,79.4a2.28,2.28,0,0,1,1.44,1.76,2,2,0,0,1-.36,1.46,1.82,1.82,0,0,1-1.3.86,3.43,3.43,0,0,1-1.31-.13,4.38,4.38,0,0,0-1.73-.07l-.31.1A3.26,3.26,0,0,0,372.2,86a11.8,11.8,0,0,0-.09,3.75,15.26,15.26,0,0,0,1.57,4.55,35.19,35.19,0,0,0,2.61,4,57.06,57.06,0,0,1,3.75,5.86,17.43,17.43,0,0,1,2,5.85,12.07,12.07,0,0,1-4.21,11.21,44.22,44.22,0,0,0,10.28-.39q10-1.52,16.26-7.36,6-5.67,8.05-16.54a26.12,26.12,0,0,0,.22-8.73c-.6-3.94-2.22-6.66-4.86-8.13a5.57,5.57,0,0,0-6.69.5,7.39,7.39,0,0,0-2.15,2.86,10.16,10.16,0,0,0-.73,3.17,12.94,12.94,0,0,0,.08,2.71,5.59,5.59,0,0,0,.92,2.68.7.7,0,0,1,.26.43.77.77,0,0,1-.62.91h0a10.18,10.18,0,0,1-1.45.34,7.63,7.63,0,0,1-7.76-3.16,8.6,8.6,0,0,1-1.51-3.7,9.76,9.76,0,0,1,.44-4.55,11.06,11.06,0,0,1,2.85-4.4,16.49,16.49,0,0,1,5.68-3.45,22.38,22.38,0,0,1,4.56-1.21,15.19,15.19,0,0,1,8.9,1.08A15.75,15.75,0,0,1,417,80a22.11,22.11,0,0,1,3.36,9.08,30.72,30.72,0,0,1,0,8.88,34.29,34.29,0,0,1-2.69,9.19,28,28,0,0,1-9.28,11.11,38.63,38.63,0,0,1-11,5.42A50.56,50.56,0,0,1,389.81,125.47Z"/>
          </g>
          <g>
            <path class="cls-14" d="M137,115.66a15.37,15.37,0,0,1-3.24-.34h-.09a16,16,0,0,1-7.63-4.18,20,20,0,0,1-5.78-11.58A26.43,26.43,0,0,1,120,93.8a34.3,34.3,0,0,1,4.29-14.61A22.87,22.87,0,0,1,131,71.66a15.47,15.47,0,0,1,6.68-2.84,12.94,12.94,0,0,1,1.86-.14,11.83,11.83,0,0,1,3.5.53,10.15,10.15,0,0,1,4.72,3.1,8,8,0,0,1,1.69,4.11c.09.55.15,1.09.19,1.6v.34a34,34,0,0,1-.89,10.5,15.84,15.84,0,0,1-.69,2.35,6.82,6.82,0,0,1-5.49,4.41,8.54,8.54,0,0,1-1.34.1,8.75,8.75,0,0,1-2.16-.26,7.06,7.06,0,0,1-2.29-.9,4.84,4.84,0,0,1-2.31-3.42v-.29a5.73,5.73,0,0,1,1-3.47,19.91,19.91,0,0,0,2.51-6A14.82,14.82,0,0,0,136.24,84a24.38,24.38,0,0,0-2.94,14.1,6.86,6.86,0,0,0,.12,1.07,17,17,0,0,0,.44,2,5.9,5.9,0,0,0,3.28,4.14,4.64,4.64,0,0,0,1.43.22,4.17,4.17,0,0,0,.71,0,6,6,0,0,0,1.89-.62,11.35,11.35,0,0,0,3.94-3.73v-.06a20.17,20.17,0,0,0,3.21-8c.53-3.32,2.72-4.2,3.63-4.43l.31-.06c.21,0,.43,0,.64,0a4.45,4.45,0,0,1,3.17,1.36,4.74,4.74,0,0,1,1.31,2.64,6.07,6.07,0,0,1-.18,2.68,29.69,29.69,0,0,1-7.08,14.47,20.06,20.06,0,0,1-4.91,3.78,17.85,17.85,0,0,1-5.9,2A14.6,14.6,0,0,1,137,115.66Z"/>
            <path class="cls-14" d="M155.91,108.8a7.48,7.48,0,0,1-5.73-2.63L150,106a11,11,0,0,1-2.2-4.71c-.14-.57-.26-1.16-.35-1.75a23.86,23.86,0,0,1-.27-3.78,35.42,35.42,0,0,1,.19-3.57,27.53,27.53,0,0,1,.65-3.93,15.52,15.52,0,0,1,1.65-4.1,9.65,9.65,0,0,1,3.93-3.85l.17-.08a8.68,8.68,0,0,1,2.39-.72,10.81,10.81,0,0,1,1.5-.11h1l.21-.2A4.67,4.67,0,0,1,161.33,78,5.77,5.77,0,0,1,163,78a14.53,14.53,0,0,1,2.08.33h.14a6.06,6.06,0,0,1,4.48,5.12,14.22,14.22,0,0,1,0,3.45,4.35,4.35,0,0,1,2-.85,4.74,4.74,0,0,1,.65,0,4.24,4.24,0,0,1,3.93,2.65v.08a4.64,4.64,0,0,1,.34,1.21,4.85,4.85,0,0,1,0,1.7v.18a53,53,0,0,1-3,9.18,11.49,11.49,0,0,1-2.41,3.84l-.24.23a8,8,0,0,1-4.09,1.91,7.21,7.21,0,0,1-1.23.1,8.49,8.49,0,0,1-3.7-.88l-.13-.07-.5-.29a8.07,8.07,0,0,1-.94,1,6.87,6.87,0,0,1-3.71,1.78h-.09a3.09,3.09,0,0,1-.43,0Z"/>
            <path class="cls-14" d="M178,105.68a8.7,8.7,0,0,1-6.38-2.63l-.14-.15a9.12,9.12,0,0,1-2.2-4.68,6.64,6.64,0,0,1,.34-3.69,4.23,4.23,0,0,1-.71-.57l-.07-.07a5,5,0,0,1-1.14-2,2.42,2.42,0,0,0-.1-.45,4.64,4.64,0,0,1,.16-2.06,57.12,57.12,0,0,1,2-6.27,19.52,19.52,0,0,1,1.56-3.26,8.55,8.55,0,0,1,3.56-3.34l.26-.12a10,10,0,0,1,2.81-.93H178a9.15,9.15,0,0,1,1.38-.1,9.61,9.61,0,0,1,2.21.26,5.24,5.24,0,0,1,1.17.34l.27.11.36.16a4,4,0,0,1,1.08.68,4.45,4.45,0,0,1,1.7,2.88,1.71,1.71,0,0,1,0,.32v.26a2.94,2.94,0,0,1,0,.42,4.42,4.42,0,0,1-1.32,2.88,4.56,4.56,0,0,1-2.27,1.25c.07.15.14.3.22.44.4.67.82,1.33,1.27,2l.35.48.33-1a2.92,2.92,0,0,1,.23-.58,4.56,4.56,0,0,1,3.38-2.51q.36,0,.72,0a4.58,4.58,0,0,1,1.42.22,4.07,4.07,0,0,1,.5,0,4.48,4.48,0,0,1,2.6,3.41,4.61,4.61,0,0,1-.18,2.15,35.71,35.71,0,0,1-3.33,7.79,17.9,17.9,0,0,1-7,7.1,10.36,10.36,0,0,1-3.34,1.11,9.4,9.4,0,0,1-1.19.11H178Z"/>
            <path class="cls-14" d="M192.09,103.26a7.26,7.26,0,0,1-4.41-1.53l-.26-.21a12.31,12.31,0,0,1-3.52-7.47,27.23,27.23,0,0,1-.28-4.69,32.61,32.61,0,0,1,.43-4.52c.78-5.45,3.11-9,6.9-10.41l.15-.06a10,10,0,0,1,1.62-.37,9.86,9.86,0,0,1,1.53-.12h.91a4.54,4.54,0,0,1,2.61-1.36,2.81,2.81,0,0,1,.58,0,19,19,0,0,1,2,.16,6.81,6.81,0,0,1,3.74,1.6,6.19,6.19,0,0,1,2.08,3.81,7.63,7.63,0,0,1,.07,1.72,6.54,6.54,0,0,1,2.14-.73h.17c.25,0,.5,0,.74,0A5.8,5.8,0,0,1,213.71,81a7.3,7.3,0,0,1,1.81,3.89A10.52,10.52,0,0,1,215,90a19.43,19.43,0,0,1-1.85,3.91,21.31,21.31,0,0,1-3.07,3.88,14.61,14.61,0,0,1-4.47,3.11,9.38,9.38,0,0,1-2.5.75,9.8,9.8,0,0,1-1.33.1,7.62,7.62,0,0,1-3.92-1.06l-.22-.13a7,7,0,0,1-4.5,2.68A9.37,9.37,0,0,1,192.09,103.26Z"/>
            <path class="cls-14" d="M253.15,94a7.51,7.51,0,0,1-5.73-2.62l-.12-.14a11.21,11.21,0,0,1-2.2-4.71c-.14-.57-.26-1.16-.35-1.75a23.86,23.86,0,0,1-.27-3.78,35.62,35.62,0,0,1,.19-3.58,27.4,27.4,0,0,1,.65-3.92A15.52,15.52,0,0,1,247,69.4a9.65,9.65,0,0,1,3.93-3.85l.17-.08a8.35,8.35,0,0,1,2.39-.72,9.47,9.47,0,0,1,1.5-.11h1l.2-.2a4.67,4.67,0,0,1,2.44-1.16,5.34,5.34,0,0,1,.89-.07,6.81,6.81,0,0,1,.78,0,14.53,14.53,0,0,1,2.08.33h.13A6.07,6.07,0,0,1,267,68.77a15.22,15.22,0,0,1,0,3.44,4.49,4.49,0,0,1,2-.84,3.56,3.56,0,0,1,.65-.05A4.25,4.25,0,0,1,273.51,74v.08a5.17,5.17,0,0,1,.33,1.21,4.8,4.8,0,0,1,0,1.69v.19a53,53,0,0,1-3,9.18,11.45,11.45,0,0,1-2.41,3.83,1.36,1.36,0,0,1-.24.24,8,8,0,0,1-4.09,1.91,8.32,8.32,0,0,1-4.93-.78l-.13-.07c-.17-.09-.33-.19-.49-.29a9.85,9.85,0,0,1-.94,1A7,7,0,0,1,253.9,94h-.1a3.09,3.09,0,0,1-.43,0Z"/>
            <path class="cls-14" d="M270,91.3h-.09a5.25,5.25,0,0,1-3.78-1.89l-.17-.22a5.7,5.7,0,0,1-1-2.44,8.23,8.23,0,0,1-.09-1.57c0-3.86.09-7.7.11-11.42l.05-7.7a4.25,4.25,0,0,1,1.34-3.31,4.7,4.7,0,0,1,2.48-1.15H269a9.34,9.34,0,0,1,1.18-.07,8.55,8.55,0,0,1,3.53.72A6.52,6.52,0,0,1,275,63c.18-.19.37-.38.56-.55A6.68,6.68,0,0,1,279,60.71a6.94,6.94,0,0,1,5.64,1.66,1.7,1.7,0,0,1,.24.22,8.55,8.55,0,0,1,2.33,4.93v.24c0,.46.07.91.09,1.36a4.69,4.69,0,0,1,2.08-.88H290a4.46,4.46,0,0,1,4.42,3.61.48.48,0,0,0,.05.26,6,6,0,0,1-.17,2.63c-.31,1.47-.69,3-1.11,4.4a23.49,23.49,0,0,1-2,4.77c-2,3.8-4.72,4.94-6.61,5.23a8.32,8.32,0,0,1-1.12.08,7.75,7.75,0,0,1-5.91-2.78,1.51,1.51,0,0,1-.08.34,5.92,5.92,0,0,1-5.13,4.39h-.07a16.2,16.2,0,0,1-2.09.16Z"/>
            <path class="cls-14" d="M293.3,88a7.41,7.41,0,0,1-2.19-.33l-.19-.06c-2.23-.8-5-2.79-5.79-7.65-.09-.6-.15-1.21-.19-1.81-.19-2.74-.13-7.67.2-15V63a4.49,4.49,0,0,1-2-.87,4.64,4.64,0,0,1-1.71-2.76v-.18A4.61,4.61,0,0,1,285.19,54h.18v-.67a3.15,3.15,0,0,1-.09-.42,4.51,4.51,0,0,1,.89-3.4,4.58,4.58,0,0,1,2.95-1.76h1.38l1.48.16a2.25,2.25,0,0,1,.36.06,6.84,6.84,0,0,1,4.78,3.63l.07.14c.09.21.18.41.25.62a4.36,4.36,0,0,1,2.07.88A4.55,4.55,0,0,1,301.22,56a.61.61,0,0,1,0,.19,4.38,4.38,0,0,1-.93,3.47,4.51,4.51,0,0,1-2.89,1.68h0c0,.77-.1,1.55-.16,2.31-.15,2.27-.26,4.57-.33,6.84.09-.27.18-.53.26-.79a2.69,2.69,0,0,1,.17-.43,4.52,4.52,0,0,1,3.44-2.61,4.33,4.33,0,0,1,.72,0,4.7,4.7,0,0,1,1.4.21,3.49,3.49,0,0,1,.53.22,4.63,4.63,0,0,1,2.18,6c-.43,1.35-.89,2.59-1.35,3.68a27.12,27.12,0,0,1-1.74,3.65,23.19,23.19,0,0,1-1.5,2.42c-1.89,3-4.12,4.65-6.64,5A7.59,7.59,0,0,1,293.3,88Z"/>
            <path class="cls-14" d="M306.08,86.11a8.59,8.59,0,0,1-4.09-1,10,10,0,0,1-3.31-2.84l-.09-.12A15.93,15.93,0,0,1,296,75.56s-.17-1-.18-1a22.5,22.5,0,0,1,.3-8.84c1.23-5.21,4.12-7.51,6.34-8.52l.13-.06a9.39,9.39,0,0,1,2.15-.59,9,9,0,0,1,5.65,1l.33.2a12.07,12.07,0,0,1,4.74,6.79,4.71,4.71,0,0,1,1.36-.44h.89a3.35,3.35,0,0,1,1.17.24,4.73,4.73,0,0,1,3,3.79,3.21,3.21,0,0,1,0,.62,6.67,6.67,0,0,1-.59,2.6,14.13,14.13,0,0,1-5,6.9,9.18,9.18,0,0,1-1.23.68,15.12,15.12,0,0,1-1.89,3.49,1,1,0,0,0-.08.11,10.4,10.4,0,0,1-2.44,2.24A8.53,8.53,0,0,1,307.25,86h-.66Z"/>
            <path class="cls-14" d="M315.07,102.6a8.08,8.08,0,0,1-5.07-1.79,9.42,9.42,0,0,1-3.43-6A13.68,13.68,0,0,1,307.91,87a21.23,21.23,0,0,1,4.73-6.54c.25-6.84.26-13.79,0-20.65a6.61,6.61,0,0,1,.33-2.65,5.82,5.82,0,0,1-.6-1.82,4.92,4.92,0,0,1,.8-3.5,5.43,5.43,0,0,1,2.37-2,7.24,7.24,0,0,1,1.69-.54h.1a5.52,5.52,0,0,1,.81-.06,5.22,5.22,0,0,1,3.08,1,6.1,6.1,0,0,1,2.06,2.55,5.35,5.35,0,0,1,.41,1.4,5.15,5.15,0,0,1-.27,2.58,6.32,6.32,0,0,1,1.38,3.15,12,12,0,0,1,.12,2.07v1.86a4.53,4.53,0,0,1,2.56-1.32h.8a4.12,4.12,0,0,1,2.24.65l.2.14a4.52,4.52,0,0,1,1.78,2.95,5.75,5.75,0,0,1-.28,2.79,29.54,29.54,0,0,1-7.54,12.16c0,.76-.05,1.9-.05,3.38s0,3-.13,4.5a30.66,30.66,0,0,1-.61,4.77A13.51,13.51,0,0,1,321.75,99l-.07.09a8.51,8.51,0,0,1-5.62,3.52h-.14a1.82,1.82,0,0,1-.33,0Z"/>
            <path class="cls-14" d="M332.72,82.06a8.63,8.63,0,0,1-4.1-1,10.1,10.1,0,0,1-3.3-2.83l-.09-.13a15.8,15.8,0,0,1-2.6-6.56l-.17-1a22.5,22.5,0,0,1,.3-8.84c1.22-5.21,4.12-7.51,6.34-8.52l.13-.06a9.39,9.39,0,0,1,2.15-.59,9,9,0,0,1,1.37-.1,9.18,9.18,0,0,1,4.27,1,3.79,3.79,0,0,1,.34.2,12,12,0,0,1,4.73,6.79A3.21,3.21,0,0,1,344,60h.36a3.93,3.93,0,0,1,1.18.24,4.73,4.73,0,0,1,3,3.79,3.21,3.21,0,0,1,0,.62,6.67,6.67,0,0,1-.59,2.6,14.06,14.06,0,0,1-5,6.9,8.24,8.24,0,0,1-1.23.69,15.12,15.12,0,0,1-1.89,3.49l-.08.1a10,10,0,0,1-2.43,2.24A8.46,8.46,0,0,1,333.9,82l-.33,0h-.85Z"/>
            <path class="cls-14" d="M350,79.49a8.73,8.73,0,0,1-6.39-2.63l-.13-.15A9,9,0,0,1,341.3,72a6.59,6.59,0,0,1,.33-3.7,4.25,4.25,0,0,1-.7-.57l-.08-.07a4.8,4.8,0,0,1-1.13-2c0-.14-.07-.29-.1-.44a4.83,4.83,0,0,1,.15-2.07,59.35,59.35,0,0,1,2-6.27,20.7,20.7,0,0,1,1.55-3.26,8.52,8.52,0,0,1,3.57-3.34l.26-.12a10.25,10.25,0,0,1,2.8-.93H350a9,9,0,0,1,1.37-.1,9.76,9.76,0,0,1,2.22.26,5.24,5.24,0,0,1,1.17.34l.28.12.36.15a4.13,4.13,0,0,1,1.07.68,4.47,4.47,0,0,1,1.7,2.88v1a4.48,4.48,0,0,1-1.33,2.89,4.59,4.59,0,0,1-2.26,1.24c.07.15.14.3.22.44.39.67.82,1.33,1.27,2l.35.48.32-1A3.67,3.67,0,0,1,357,60a4.59,4.59,0,0,1,3.38-2.5h.72a4.47,4.47,0,0,1,1.41.22,2.61,2.61,0,0,1,.42.16,4.5,4.5,0,0,1,2.6,3.42,4.57,4.57,0,0,1-.18,2.14A36.44,36.44,0,0,1,362,71.16a17.78,17.78,0,0,1-7,7.1,10.36,10.36,0,0,1-3.34,1.11,8.11,8.11,0,0,1-1.2.11H350Z"/>
            <path class="cls-4" d="M137.91,110.62a12.06,12.06,0,0,1-4.36-.13,12.59,12.59,0,0,1-6-3.28,16.51,16.51,0,0,1-4.76-9.59,22.6,22.6,0,0,1-.2-5,30.58,30.58,0,0,1,3.84-13.12,19.47,19.47,0,0,1,5.73-6.41,12,12,0,0,1,5.18-2.22,8.68,8.68,0,0,1,3.79.27,6.67,6.67,0,0,1,3.1,2,4.66,4.66,0,0,1,.88,2.35c.07.46.13.91.16,1.33v.38a30.72,30.72,0,0,1-.82,9.46,11.53,11.53,0,0,1-.54,1.82,3.31,3.31,0,0,1-2.74,2.21,5.49,5.49,0,0,1-2.21-.12,3.64,3.64,0,0,1-1.22-.47,1.32,1.32,0,0,1-.67-1,2.37,2.37,0,0,1,.46-1.36A23.11,23.11,0,0,0,141.09,77a5.15,5.15,0,0,0,0-1.11,2.38,2.38,0,0,0-.63-1.29,1.89,1.89,0,0,0-1.35-.3,3.82,3.82,0,0,0-1.73.74,17.67,17.67,0,0,0-5.1,6A27.92,27.92,0,0,0,129,97a9.09,9.09,0,0,0,.14,1.29,19.7,19.7,0,0,0,.54,2.42,9.42,9.42,0,0,0,5.4,6.43,8.17,8.17,0,0,0,3.92.36,9.65,9.65,0,0,0,3-1,14.8,14.8,0,0,0,5.2-4.9,23.55,23.55,0,0,0,3.77-9.38c.15-.93.48-1.46,1-1.58a.88.88,0,0,1,.79.31,1.19,1.19,0,0,1,.34.71,2.57,2.57,0,0,1-.11,1.26,26.12,26.12,0,0,1-6.24,13,16.12,16.12,0,0,1-4,3.11A14.18,14.18,0,0,1,137.91,110.62Z"/>
            <path class="cls-4" d="M155.21,103.88h-.09a4,4,0,0,1-3.23-1.44,8,8,0,0,1-1.53-3.3c-.12-.49-.22-1-.3-1.51a21.7,21.7,0,0,1-.23-3.22,32.21,32.21,0,0,1,.18-3.26,24.93,24.93,0,0,1,.57-3.44,11.91,11.91,0,0,1,1.28-3.19A6,6,0,0,1,154.39,82a5.22,5.22,0,0,1,1.44-.44,9.84,9.84,0,0,1,4.5.58,3.58,3.58,0,0,1-.2-.73,1.21,1.21,0,0,1,.25-1,1.15,1.15,0,0,1,.6-.28,3.3,3.3,0,0,1,.77,0,9.89,9.89,0,0,1,1.63.26,2.56,2.56,0,0,1,2,2.27,31,31,0,0,1-.28,5.18c-.16,1.49-.27,3-.35,4.47a32.08,32.08,0,0,0,.1,4.9,2.28,2.28,0,0,0,.23.68,1.15,1.15,0,0,0,.91.65h.09A1.33,1.33,0,0,0,167,98a8.28,8.28,0,0,0,1.2-2.18A48.67,48.67,0,0,0,170,89.9a4,4,0,0,1,.25-.74,1.58,1.58,0,0,1,.46-.62,1.33,1.33,0,0,1,.55-.29c.37-.06.65.13.84.56a1.74,1.74,0,0,1,.11.39,1.42,1.42,0,0,1,0,.58,49.54,49.54,0,0,1-2.81,8.64,8.06,8.06,0,0,1-1.71,2.74,4.47,4.47,0,0,1-2.31,1.09,4.76,4.76,0,0,1-2.87-.47,5,5,0,0,1-1.75-1.59,5.46,5.46,0,0,1-.86-2.19,5.08,5.08,0,0,1,0-.78c-.2.52-.37,1-.53,1.56a15.3,15.3,0,0,1-1,2.53,6.11,6.11,0,0,1-1.3,1.69A3.42,3.42,0,0,1,155.21,103.88Zm.7-3.86a1.1,1.1,0,0,0,.38-.29,3.42,3.42,0,0,0,.26-.4l.17-.29a15.16,15.16,0,0,0,.76-1.93,9.11,9.11,0,0,0,.33-1.27h0a91.74,91.74,0,0,0,1.66-9.46l.15-1a.5.5,0,0,0,0-.34,1,1,0,0,1,.44-.72l-.58-.18-.19-.07h-.2a2.6,2.6,0,0,0-.68.05l-.27.12-.15.05a1.18,1.18,0,0,0-.22.17l-.41.33h-.06a5.13,5.13,0,0,0-.73,1v.09a4,4,0,0,0-.35.76c-.15.41-.28.83-.39,1.25l-.17.6a24.55,24.55,0,0,0-.68,5.85v.74c.05.93.12,1.85.23,2.78l.26,1.22a4.57,4.57,0,0,0,.44.92Z"/>
            <path class="cls-4" d="M178.28,100.7a2.82,2.82,0,0,1-.82,0h-.14a5.23,5.23,0,0,1-4.06-1.58,5.6,5.6,0,0,1-1.37-2.89c-.16-1-.08-1.66.23-1.94a1.25,1.25,0,0,1,.6-.29h.3a.79.79,0,0,1,.59.28,1.15,1.15,0,0,1,.28.61v.24a4.21,4.21,0,0,0,0,.71,3.16,3.16,0,0,0,.87,1.71,1.77,1.77,0,0,0,1.59.64,1.9,1.9,0,0,0,1.08-.69,2.74,2.74,0,0,0,.54-2.26,5.14,5.14,0,0,0-.6-1.74A15.75,15.75,0,0,0,176,91.13l-.56-.86c-.4-.56-.78-1.13-1.14-1.72a14.64,14.64,0,0,1-1.14-2.14c-.33,1.07-.64,2.15-.94,3.22a.93.93,0,0,1-.81.63,1,1,0,0,1-.85-.25,1.48,1.48,0,0,1-.3-.55,1.07,1.07,0,0,1,.06-.56,52.24,52.24,0,0,1,1.9-6,15.88,15.88,0,0,1,1.28-2.7,5.26,5.26,0,0,1,2.13-2h.11a6.76,6.76,0,0,1,2-.68,5.78,5.78,0,0,1,2.38.14,1.91,1.91,0,0,1,.47.12l.33.14.27.11a.83.83,0,0,1,.26.19,1,1,0,0,1,.46.69v.26a1,1,0,0,1-.29.61,1.07,1.07,0,0,1-.6.32,1.13,1.13,0,0,1-.26,0,3.6,3.6,0,0,0-.81-.12.24.24,0,0,0-.12,0h-.33l-.18.06a1.44,1.44,0,0,0-.89.73h0a1.83,1.83,0,0,0-.23.68,4.68,4.68,0,0,0,0,1.75,7,7,0,0,0,.87,2.46c.46.78.94,1.53,1.47,2.26a21,21,0,0,1,1.71,2.68,8.86,8.86,0,0,1,1,3,7.79,7.79,0,0,1,.08,1.28,14.7,14.7,0,0,0,.92-1.31,30.82,30.82,0,0,0,3.14-7.24,1.09,1.09,0,0,1,.79-.62,1.19,1.19,0,0,1,.53,0,1,1,0,0,1,.62.77,1,1,0,0,1-.06.55,32.14,32.14,0,0,1-3,7.1,14.32,14.32,0,0,1-5.64,5.75A6.79,6.79,0,0,1,178.28,100.7Z"/>
            <path class="cls-4" d="M191.74,98.31a3.61,3.61,0,0,1-2.86-.78,8.93,8.93,0,0,1-2.43-5.41,23.93,23.93,0,0,1-.23-4.06A27.88,27.88,0,0,1,186.6,84q.89-6.22,4.7-7.69a7,7,0,0,1,1-.25,8.68,8.68,0,0,1,4.39.62l-.06-.4V76a1.6,1.6,0,0,1,0-.21,1,1,0,0,1,.19-.76,1,1,0,0,1,.68-.4,12.51,12.51,0,0,1,1.72.15,3.26,3.26,0,0,1,1.81.76,2.69,2.69,0,0,1,.9,1.69,4.77,4.77,0,0,1,0,1.6l-.23,2.76c-.16,1.84-.31,3.77-.43,5.79a23.39,23.39,0,0,0,0,4.1,3.27,3.27,0,0,0,.38,1.1.81.81,0,0,0,.89.48l.45-.12a5.71,5.71,0,0,0,3.3-3.25,7.53,7.53,0,0,0,.94-4.53,2.59,2.59,0,0,0-.64-1.39,1.19,1.19,0,0,1-.26-1.66,1.12,1.12,0,0,1,.38-.34,3.2,3.2,0,0,1,1.43-.64,2.45,2.45,0,0,1,2.19.73,3.9,3.9,0,0,1,1,2.08,7.1,7.1,0,0,1-.35,3.45,15.45,15.45,0,0,1-1.52,3.21,18.53,18.53,0,0,1-2.59,3.27,10.74,10.74,0,0,1-3.4,2.37,5.58,5.58,0,0,1-1.6.48,4.36,4.36,0,0,1-2.94-.5,5.38,5.38,0,0,1-2.46-4.07l-.07-.51a16.93,16.93,0,0,1-1.72,4.55A3.9,3.9,0,0,1,191.74,98.31Zm.78-3.94a.53.53,0,0,0,.27-.24,1.82,1.82,0,0,0,.16-.31l.1-.22a10.66,10.66,0,0,0,1.08-2.93l.11-.4.33-1.89c.24-1.24.5-2.67.78-4.27s.51-3,.69-4.26a1.23,1.23,0,0,1,.48-1.07h-.12a2.33,2.33,0,0,0-1.25-.19,2.18,2.18,0,0,0-1.27.66,4.88,4.88,0,0,0-.93,1.28,7.89,7.89,0,0,0-.57,1.46,23.91,23.91,0,0,0-.73,10.3l.18,1a1.46,1.46,0,0,0,0,.2.64.64,0,0,0,.09.37,1.13,1.13,0,0,0,.17.39.27.27,0,0,0,.29.14Z"/>
            <path class="cls-2" d="M252.45,89.06h-.09a4,4,0,0,1-3.23-1.44,7.79,7.79,0,0,1-1.52-3.3c-.13-.5-.23-1-.31-1.51a20.42,20.42,0,0,1-.22-3.22,32.2,32.2,0,0,1,.17-3.26,24.93,24.93,0,0,1,.57-3.44,11.78,11.78,0,0,1,1.28-3.19,6.13,6.13,0,0,1,2.53-2.49,5.2,5.2,0,0,1,1.44-.43,9.84,9.84,0,0,1,4.5.58,4.64,4.64,0,0,1-.2-.73,1.28,1.28,0,0,1,.25-1,1.15,1.15,0,0,1,.6-.28,2.49,2.49,0,0,1,.77,0,11.4,11.4,0,0,1,1.64.25,2.58,2.58,0,0,1,2,2.28,32.08,32.08,0,0,1-.29,5.18c-.16,1.48-.27,3-.35,4.46a29.81,29.81,0,0,0,.11,4.91,2,2,0,0,0,.22.68,1.15,1.15,0,0,0,.91.65h.09a1.32,1.32,0,0,0,.93-.62A8,8,0,0,0,265.42,81a48.81,48.81,0,0,0,1.87-5.87,4.71,4.71,0,0,1,.25-.75,1.65,1.65,0,0,1,.46-.62,1.31,1.31,0,0,1,.55-.28c.37-.06.65.13.85.56a1.4,1.4,0,0,1,.1.39,1.42,1.42,0,0,1,0,.58,49.16,49.16,0,0,1-2.81,8.63,8.34,8.34,0,0,1-1.7,2.75,4.58,4.58,0,0,1-2.32,1.09,4.72,4.72,0,0,1-2.86-.47,4.92,4.92,0,0,1-1.76-1.6,5.21,5.21,0,0,1-.88-2.2,5.08,5.08,0,0,1,0-.78c-.19.52-.37,1-.53,1.56a15.3,15.3,0,0,1-1,2.53,6.26,6.26,0,0,1-1.3,1.69A3.38,3.38,0,0,1,252.45,89.06Zm.71-3.85a1.32,1.32,0,0,0,.37-.29c.08-.11.17-.25.26-.4l.17-.29a15.16,15.16,0,0,0,.76-1.93A9.78,9.78,0,0,0,255,81h0a94.31,94.31,0,0,0,1.66-9.46l.14-1a.5.5,0,0,0,0-.34,1,1,0,0,1,.44-.71l-.58-.18-.19-.07h-.2a3.91,3.91,0,0,0-.68.06l-.27.11-.15.06a.87.87,0,0,0-.22.17,4.23,4.23,0,0,0-.41.33h-.06a5.13,5.13,0,0,0-.73,1v.09a4.26,4.26,0,0,0-.35.75,13.15,13.15,0,0,0-.39,1.26l-.17.59a25.16,25.16,0,0,0-.68,5.86v.73c0,.94.12,1.86.23,2.78l.26,1.23A3.72,3.72,0,0,0,253.16,85.21Z"/>
            <path class="cls-2" d="M271,86.27a12,12,0,0,1-1.8.13,1.76,1.76,0,0,1-1.29-.64,2.15,2.15,0,0,1-.38-1,5.62,5.62,0,0,1-.05-.92c.06-3.92.09-7.76.11-11.52l.06-7.76a.8.8,0,0,1,.2-.68,1.17,1.17,0,0,1,.64-.26,5.39,5.39,0,0,1,2.89.37,2.38,2.38,0,0,1,1.4,2,4,4,0,0,1,.06.84c0,.28,0,2.59-.06,6.94.29-1.51.65-3,1.07-4.46a17.88,17.88,0,0,1,1.79-4.14,7.21,7.21,0,0,1,1.28-1.58,3.2,3.2,0,0,1,1.72-.81,3.59,3.59,0,0,1,2.89.9,5.18,5.18,0,0,1,1.33,3A43.29,43.29,0,0,1,283,73c-.07,1.5-.07,3,0,4.6a8.78,8.78,0,0,0,.11,1.35,7.2,7.2,0,0,0,.34,1.31,1.71,1.71,0,0,0,.3.5.72.72,0,0,0,.52.18.87.87,0,0,0,.55-.34,7.33,7.33,0,0,0,1.37-2.27A25.52,25.52,0,0,0,288,72.14c.1-1.09.47-1.69,1.11-1.79a1,1,0,0,1,1.07.89,2.7,2.7,0,0,1-.1,1.23c-.31,1.45-.66,2.88-1.08,4.29a19.91,19.91,0,0,1-1.68,4.08c-1.1,2-2.46,3.19-4.06,3.43a3.93,3.93,0,0,1-2.09-.24,4,4,0,0,1-1.7-1.21,4.87,4.87,0,0,1-.92-1.65,13.27,13.27,0,0,1-.41-1.87,21.74,21.74,0,0,1-.26-3.32c0-1.12,0-2.24.07-3.38a40.74,40.74,0,0,0,0-4.28v-.38a1.49,1.49,0,0,0-.05-.42,1.11,1.11,0,0,0-.09-.31.52.52,0,0,0-.11-.19.29.29,0,0,0-.12-.1h-.14c-.44.14-.76.57-1,1.29a61.89,61.89,0,0,0-2.92,14.5,8.44,8.44,0,0,1-.28,1.79A2.47,2.47,0,0,1,271,86.27Z"/>
            <path class="cls-2" d="M293,83a4,4,0,0,1-1.76-.13q-2.93-1.07-3.51-4.89c-.08-.5-.13-1-.16-1.5q-.27-3.87.2-14.66c.06-1.38.11-2.76.13-4.15l-2.75.42a.9.9,0,0,1-.74-.19,1.09,1.09,0,0,1-.42-.68,1,1,0,0,1,.2-.76,1,1,0,0,1,.65-.4l3.13-.48a25.86,25.86,0,0,0,0-3.25V52.2a8.39,8.39,0,0,0-.06-1l-.05-.2a1,1,0,0,1,.21-.75,1.12,1.12,0,0,1,.68-.42h.49l1.47.15a3.46,3.46,0,0,1,2.41,1.83,2.74,2.74,0,0,1,.24.8,5.31,5.31,0,0,1,0,1.38v.79l2.37-.36a1,1,0,0,1,.76.2,1,1,0,0,1,.43.67,1,1,0,0,1-.21.76,1,1,0,0,1-.67.4l-2.82.43c-.09,1.7-.2,3.4-.32,5.11q-.24,3.58-.34,7.16,0,2.1.06,4.17c0,.87.05,1.74.11,2.61a8.27,8.27,0,0,0,.12,1.22,3.33,3.33,0,0,0,.12.56,2.57,2.57,0,0,0,.23.6,1,1,0,0,0,.54.45,1.1,1.1,0,0,0,.51,0,1.72,1.72,0,0,0,.63-.24l.66-.53a7,7,0,0,0,1.22-1.69c.36-.66.69-1.33,1-2a45.19,45.19,0,0,0,1.92-5,1,1,0,0,1,.78-.62,1.23,1.23,0,0,1,.54,0,1.14,1.14,0,0,1,.57,1.42l-.06.1c-.44,1.39-.89,2.62-1.34,3.69a23.79,23.79,0,0,1-1.58,3.3,17.18,17.18,0,0,1-1.35,2.25C295.88,81.6,294.46,82.79,293,83Z"/>
            <path class="cls-2" d="M305.81,81.15h-.33a5.16,5.16,0,0,1-2.75-.6,6.52,6.52,0,0,1-2.16-1.85,12.37,12.37,0,0,1-2-5.16l-.16-1a18.85,18.85,0,0,1,.24-7.48Q299.7,60.52,303,59a6,6,0,0,1,1.36-.37,5.6,5.6,0,0,1,3.5.61c2,1.33,3.33,3.74,3.85,7.22a24.58,24.58,0,0,1,.08,6,7.81,7.81,0,0,0,3.39-4.71l.06-.2c.23-.87.63-1.34,1.19-1.42h.27a1.26,1.26,0,0,1,.78,1,3.48,3.48,0,0,1-.33,1.34,10.91,10.91,0,0,1-3.74,5.34,5,5,0,0,1-2.07.8,11.89,11.89,0,0,1-1.94,4.23,6.23,6.23,0,0,1-1.6,1.47A4.77,4.77,0,0,1,305.81,81.15Zm.73-2.69a1.35,1.35,0,0,0,.61-.57,9.14,9.14,0,0,0,1.31-3.42V74.3a.27.27,0,0,0-.19-.18,7.08,7.08,0,0,1-3.1-4.83c-.11-.45-.21-.9-.28-1.36a27.92,27.92,0,0,1-.16-6.06,15.25,15.25,0,0,0-1.34,6.24,28.81,28.81,0,0,0,.3,5.25,15.16,15.16,0,0,0,.75,2.89,5,5,0,0,0,1,1.76,1.13,1.13,0,0,0,1,.47ZM308.77,72V70.32c0-.52-.06-.92-.08-1.21a3.68,3.68,0,0,0-.08-.82,7.55,7.55,0,0,1-.13-1.1l-.34-1.79c-.28-.86-.48-1.47-.61-1.81a8.37,8.37,0,0,0-.78-1.48c-.06.52-.11.92-.12,1.22s0,.56,0,.78v.78a7.47,7.47,0,0,0,.07,1.16c0,.53.09,1,.17,1.57s.13.81.23,1.26a8,8,0,0,0,.52,1.64,8.75,8.75,0,0,0,.71,1.08h0a1.18,1.18,0,0,0,.29.3h0Z"/>
            <path class="cls-2" d="M314.6,97.66h-.14a4.6,4.6,0,0,1-3.19-1,5.8,5.8,0,0,1-2.15-3.78A10.4,10.4,0,0,1,310.18,87a17.59,17.59,0,0,1,4.09-5.58l.13-.14a2.38,2.38,0,0,0,.64-.77,2.85,2.85,0,0,0,.18-1q.42-10.64,0-21.29a2.87,2.87,0,0,1,.14-1.3.93.93,0,0,1,.73-.51,3.35,3.35,0,0,1,1,0,6.62,6.62,0,0,1,1.65.39,2.61,2.61,0,0,1,1.7,2.2,7.73,7.73,0,0,1,.08,1.44l-.21,14.81a21.32,21.32,0,0,0,5.51-9,3.53,3.53,0,0,1,.59-1.31,1.16,1.16,0,0,1,.67-.41h.15a.75.75,0,0,1,.49.1,1,1,0,0,1,.39.65,2.38,2.38,0,0,1-.14,1.15,25.84,25.84,0,0,1-6.85,10.94,2.69,2.69,0,0,0-.65.77,2.39,2.39,0,0,0-.19.91c-.06.82-.08,2.16-.08,4,0,1.45-.05,2.89-.12,4.33a26.7,26.7,0,0,1-.56,4.27,9.68,9.68,0,0,1-1.59,3.82A5,5,0,0,1,314.6,97.66Zm-1.76-3.55a.82.82,0,0,0,.44-.23q1.38-1.51,1.71-6.18l0-.7a18.6,18.6,0,0,0,.09-3.5,11.11,11.11,0,0,0-2.95,4.15,7.32,7.32,0,0,0-.66,4.3,4,4,0,0,0,.71,1.83.63.63,0,0,0,.63.33Zm4.57-38.78h-.14A1.7,1.7,0,0,1,316,55a2.4,2.4,0,0,1-1-1.6,1.37,1.37,0,0,1,.24-1,2,2,0,0,1,.87-.72,3.28,3.28,0,0,1,.8-.27h.12a1.76,1.76,0,0,1,1.3.32,2.63,2.63,0,0,1,.9,1.11,2.46,2.46,0,0,1,.15.53,1.63,1.63,0,0,1-.09.82,2.67,2.67,0,0,1-1.9,1.14Z"/>
            <path class="cls-2" d="M332.44,77.09h-.32a5,5,0,0,1-2.76-.6,6.48,6.48,0,0,1-2.15-1.85,12.28,12.28,0,0,1-2-5.15l-.17-1a18.85,18.85,0,0,1,.25-7.48q1.08-4.65,4.38-6.16a6.44,6.44,0,0,1,1.35-.37,5.62,5.62,0,0,1,3.51.61q3.06,2,3.84,7.22a24.09,24.09,0,0,1,.09,6,7.82,7.82,0,0,0,3.38-4.72l.07-.2c.23-.86.63-1.34,1.19-1.42h.26a1.21,1.21,0,0,1,.78,1,3.25,3.25,0,0,1-.32,1.33,11,11,0,0,1-3.8,5.53,5.22,5.22,0,0,1-2.08.79A11.67,11.67,0,0,1,336,74.85a6.62,6.62,0,0,1-1.6,1.48A4.84,4.84,0,0,1,332.44,77.09Zm.74-2.68a1.28,1.28,0,0,0,.6-.57,9,9,0,0,0,1.32-3.43v-.16a.29.29,0,0,0-.2-.19,7,7,0,0,1-3.09-4.83,12.61,12.61,0,0,1-.28-1.36,27.92,27.92,0,0,1-.16-6.06A15.1,15.1,0,0,0,330,64.05a28.81,28.81,0,0,0,.3,5.25,13.9,13.9,0,0,0,.75,2.9A5.11,5.11,0,0,0,332,74a1.12,1.12,0,0,0,1,.46Zm2.23-6.5V66.23c0-.52-.05-.92-.07-1.2s0-.56-.08-.83-.08-.63-.13-1.1l-.35-1.78c-.27-.87-.48-1.47-.61-1.82A7.43,7.43,0,0,0,333.4,58c-.07.52-.11.93-.13,1.22s0,.56,0,.78v.79a7.35,7.35,0,0,0,.07,1.15c.07.47.09,1.06.17,1.58s.14.8.24,1.25a8.65,8.65,0,0,0,.51,1.64,10.13,10.13,0,0,0,.72,1.08h0a1.54,1.54,0,0,0,.28.29h0A.15.15,0,0,0,335.41,67.91Z"/>
            <path class="cls-2" d="M350.21,74.51a2.89,2.89,0,0,1-.83,0h-.14A5.29,5.29,0,0,1,345.18,73a5.71,5.71,0,0,1-1.37-2.9c-.15-1-.07-1.66.23-1.94a1.15,1.15,0,0,1,.6-.28h.26a.81.81,0,0,1,.6.28,1.27,1.27,0,0,1,.28.61V69a4.21,4.21,0,0,0,0,.71,3.11,3.11,0,0,0,.86,1.71,1.8,1.8,0,0,0,1.59.64,1.84,1.84,0,0,0,1.09-.69,2.72,2.72,0,0,0,.54-2.25,5,5,0,0,0-.6-1.75A15.58,15.58,0,0,0,347.88,65l-.56-.87c-.41-.56-.79-1.13-1.15-1.71A15.73,15.73,0,0,1,345,60.28c-.33,1.07-.65,2.15-.94,3.23a.9.9,0,0,1-.82.62,1,1,0,0,1-.85-.25,1.33,1.33,0,0,1-.29-.55,1.18,1.18,0,0,1,.05-.56,54.29,54.29,0,0,1,1.9-6,16.72,16.72,0,0,1,1.29-2.7,5.14,5.14,0,0,1,2.13-2l.11,0a6.76,6.76,0,0,1,2-.68,5.84,5.84,0,0,1,2.39.14,1.91,1.91,0,0,1,.47.12l.33.14.27.11a.79.79,0,0,1,.25.19,1,1,0,0,1,.47.7V53a.88.88,0,0,1-.29.6,1.11,1.11,0,0,1-.59.32h-.27a3.6,3.6,0,0,0-.8-.12h-.64a1.47,1.47,0,0,0-.89.73h0a1.83,1.83,0,0,0-.23.68A4.69,4.69,0,0,0,350,57a7.23,7.23,0,0,0,.88,2.47q.68,1.16,1.47,2.25a22,22,0,0,1,1.7,2.68,8.86,8.86,0,0,1,1,3,6.08,6.08,0,0,1,.07,1.28,10.66,10.66,0,0,0,.92-1.31,31.39,31.39,0,0,0,3.15-7.23,1.06,1.06,0,0,1,.79-.63,1.19,1.19,0,0,1,.53,0,1,1,0,0,1,.62.77,1.07,1.07,0,0,1-.06.56,32.26,32.26,0,0,1-3,7.09,14.38,14.38,0,0,1-5.64,5.75A7,7,0,0,1,350.21,74.51Z"/>
          </g>
          <g>
            <path class="cls-14" d="M227.33,97.65a12,12,0,0,1-12.14-9.75,13.13,13.13,0,0,1,5.53-13.23,8.87,8.87,0,0,1,0-3.7,12.71,12.71,0,0,1,9.42-9.36,15.19,15.19,0,0,1,2-.34,9.77,9.77,0,0,1,1.08-.06,7.64,7.64,0,0,1,7.52,10.56,5.86,5.86,0,0,1,3.18,6.4,7,7,0,0,1-2.79,4.39,10.46,10.46,0,0,1,.06,5.66c-1.16,4.39-4.8,7.65-10,8.94A15.71,15.71,0,0,1,227.33,97.65Z"/>
            <path class="cls-3" d="M231.11,76.51H231a15.58,15.58,0,0,0-3.25.43c-9.79,2.44-7,14.7.5,12.83,5.74-1.43,5.48-7.35,3-8.15-2.23,1-4,2.14-3.61,3.88.08.28,0,.53-.23.59h-.15a2.62,2.62,0,0,1-1.81-4c2.34-3.44,13.17-4.77,12.32-8.18-.06-.25,0-.42.16-.46s.11,0,.19,0a2.35,2.35,0,0,1,1.41,2.74c-.28,1.63-2,2.7-4,3.67,3,2.87,2.29,10.4-6.06,12.49-12.2,3-17-12.69-4.85-17.73-3.33-2.52-.76-9.45,5.49-11a9.48,9.48,0,0,1,1.49-.26c5.89-.55,6.78,5.63,3.21,7.81a1.8,1.8,0,0,1-.62.27c-1.65.41-3.66-1.07-2.64-1.74,2.53-1.78,2.82-5.2-.5-4.75a4,4,0,0,0-.59.1c-4.48,1.12-5.81,8.31-.83,8.25.81-.09,1.59-.17,2.46-.19S232.15,76.25,231.11,76.51Z"/>
          </g>
          <path class="cls-1" d="M89.25,99h0a72.65,72.65,0,0,1-4.86,5.52q-.27.32-.6.63a91.3,91.3,0,0,1-9.33,8.35A70.53,70.53,0,0,1,66,119.15l16.62-14.42Z"/>
          <path class="cls-15" d="M83.76,105.14s8.63,3,6.64,17.65-11.65-6.19-11.65-6.19l-1-5.82"/>
          <path class="cls-14" d="M368.58,38a3.72,3.72,0,0,1,1.71,1,4,4,0,0,1-.06,5.61,4,4,0,0,1-3.86,1,3.8,3.8,0,0,1-1.72-1,4,4,0,0,1,.07-5.58,4.16,4.16,0,0,1,3.88-1Zm1.19,6.19a3.11,3.11,0,0,0,.86-1.46,3.21,3.21,0,0,0,0-1.74,3.31,3.31,0,0,0-.81-1.52,3.12,3.12,0,0,0-1.43-.87,3.18,3.18,0,0,0-1.73,0,3.36,3.36,0,0,0-1.54.83,3.21,3.21,0,0,0-.86,1.45,3.42,3.42,0,0,0,0,1.74,3.48,3.48,0,0,0,.83,1.53,3.12,3.12,0,0,0,1.43.87,3.18,3.18,0,0,0,1.73,0,3.21,3.21,0,0,0,1.52-.86Zm-.52-2.65a1.28,1.28,0,0,1-.51.66L370,43.39l-.93.24-1.17-1.09h-.12l-.84.21.32,1.3-.93.23L365.29,40l1.77-.44a2,2,0,0,1,1.42.07,1.42,1.42,0,0,1,.75,1,1.48,1.48,0,0,1,0,.86Zm-1.64.35a1.08,1.08,0,0,0,.65-.38.77.77,0,0,0-.19-1.06L368,40.4a1.2,1.2,0,0,0-.75,0l-.8.2.38,1.5Z"/>
          <g>
            <path class="cls-14" d="M152.08,178.31a3.4,3.4,0,0,1-1.56,1.44l1.84,2.34-2,.31-1.66-2.13-1.64.25-.11,2.4-1.94.29.4-8.56,3.38-.52a3.79,3.79,0,0,1,2.5.32,2.29,2.29,0,0,1,1.15,1.77A3.17,3.17,0,0,1,152.08,178.31Zm-1.93-.28a1.58,1.58,0,0,0,.34-1.34,1,1,0,0,0-.54-.83,1.9,1.9,0,0,0-1.2-.12l-1.52.23-.14,3,1.64-.25a2.27,2.27,0,0,0,1.42-.72Z"/>
            <path class="cls-14" d="M163.61,173.45l-.08,1.86,3.86-.59-.07,1.54-3.87.59-.09,2,4.54-.69-.09,1.6-6.43,1,.39-8.57,6.28-1-.08,1.59Z"/>
            <path class="cls-14" d="M178,178.06a4.44,4.44,0,0,1-1.55-.44L177,176a4.47,4.47,0,0,0,1.38.45,4.66,4.66,0,0,0,1.49,0,2.55,2.55,0,0,0,1.22-.45.78.78,0,0,0,.35-.78.6.6,0,0,0-.45-.51,6.47,6.47,0,0,0-1.24-.24c-.56-.08-1-.17-1.39-.26a2.4,2.4,0,0,1-1-.52,1.81,1.81,0,0,1-.55-1.11,2.45,2.45,0,0,1,.24-1.55,2.94,2.94,0,0,1,1.18-1.19,5.41,5.41,0,0,1,1.95-.65,6.29,6.29,0,0,1,1.62-.06,4.51,4.51,0,0,1,1.36.33l-.5,1.59a3.37,3.37,0,0,0-1.12-.33,5.06,5.06,0,0,0-1.23,0,2.5,2.5,0,0,0-1.25.48.88.88,0,0,0-.37.81.68.68,0,0,0,.27.43,1.41,1.41,0,0,0,.56.21c.22,0,.52.09.91.14a10.59,10.59,0,0,1,1.37.23,2.5,2.5,0,0,1,1,.51,1.67,1.67,0,0,1,.53,1.06,2.42,2.42,0,0,1-.25,1.56,3.09,3.09,0,0,1-1.19,1.19,5.23,5.23,0,0,1-2,.65A7,7,0,0,1,178,178.06Z"/>
            <path class="cls-14" d="M194.17,168.82l-2.66.41.08-1.62,7.24-1.1-.08,1.61-2.65.41-.33,6.95-1.92.29Z"/>
            <path class="cls-14" d="M212.36,171.13l-3.87.59-.81,1.94-2,.31,4.11-9.12,1.9-.29,3.3,8-1.92.29Zm-.54-1.41-1.19-3.1-1.47,3.5Z"/>
            <path class="cls-14" d="M224.66,170.42a2.72,2.72,0,0,1-1.21-2,4.61,4.61,0,0,1,0-.91l.22-4.79,1.93-.29-.22,4.75a4.21,4.21,0,0,0,0,.71A1.44,1.44,0,0,0,226,169a1.76,1.76,0,0,0,1.25.2,1.87,1.87,0,0,0,1.32-.74,3.24,3.24,0,0,0,.51-1.79l.22-4.76,1.89-.28-.22,4.88c-.13,2.55-1.35,4-3.68,4.36A3.66,3.66,0,0,1,224.66,170.42Z"/>
            <path class="cls-14" d="M247.42,163.78a3.4,3.4,0,0,1-1.56,1.44l1.83,2.35-2,.31L244,165.75l-1.63.25-.11,2.4-1.94.29.4-8.56,3.38-.52a3.85,3.85,0,0,1,2.5.31,2.36,2.36,0,0,1,1.15,1.77A3.23,3.23,0,0,1,247.42,163.78Zm-1.93-.28a1.54,1.54,0,0,0,.34-1.33,1,1,0,0,0-.54-.83,1.9,1.9,0,0,0-1.2-.12l-1.52.23-.14,3,1.64-.25A2.32,2.32,0,0,0,245.49,163.5Z"/>
            <path class="cls-14" d="M262.35,163.51l-3.87.59-.8,2-2.06.31,4.11-9.13,1.9-.29,3.31,8-1.92.29Zm-.54-1.41-1.19-3.1-1.47,3.51Z"/>
            <path class="cls-14" d="M281.49,153.92l-.4,8.56-1.57.24L275.63,158l-.26,5.36-1.9.29.4-8.56,1.59-.25,3.89,4.74.24-5.36Z"/>
            <path class="cls-14" d="M292.77,153.8l-2.66.41.08-1.62,7.24-1.1-.08,1.61-2.65.41-.32,7-1.93.29Z"/>
            <path class="cls-14" d="M308,151.46l-.08,1.86,3.86-.59-.07,1.54-3.87.59-.09,2,4.54-.69-.09,1.6-6.43,1,.39-8.57,6.28-.95-.08,1.59Z"/>
          </g>
        </g>
        <path class="cls-14" d="M56.5,250h248a21.18,21.18,0,0,1,21.18,21.18h0a21.17,21.17,0,0,1-21.18,21.17H56.5a21.17,21.17,0,0,1-21.18-21.17h0A21.18,21.18,0,0,1,56.5,250Z"/>
        <path class="cls-16" d="M238.58,250H382.7a21.18,21.18,0,0,1,21.18,21.18h0a21.17,21.17,0,0,1-21.18,21.17H238.58a21.17,21.17,0,0,1-21.18-21.17h0A21.18,21.18,0,0,1,238.58,250Z"/>
        <g>
          <path class="cls-3" d="M71.41,270.78v.32s0,.13-.06.13h-1.1v-.52a10.44,10.44,0,0,0-.19-1.35,1.22,1.22,0,0,0-.13-.46c-.07-.26-.2-.58-.26-.84v-.13a5.4,5.4,0,0,0-.45-.9c-.13-.19-.26-.39-.33-.52a.18.18,0,0,0-.06-.13,7.91,7.91,0,0,0-2-1.87,1.43,1.43,0,0,0-.45-.26,3.79,3.79,0,0,0-.9-.45h-.07a10.68,10.68,0,0,0-1.35-.45,7.89,7.89,0,0,0-1.75-.2h-.13v-1a.2.2,0,0,1,.2-.2h.32a3.35,3.35,0,0,1,.71.07.4.4,0,0,1,.26.06,14.11,14.11,0,0,1,1.81.46,9.13,9.13,0,0,1,4.26,3.16v.07a.86.86,0,0,1,.2.26,4,4,0,0,1,.45.77,3.86,3.86,0,0,1,.45.91c.13.32.26.64.39,1,0,.13.13.26.06.32a9.06,9.06,0,0,1,.26,1.36V271h0Z"/>
          <path class="cls-3" d="M52.54,265.74v-.2a1.07,1.07,0,0,1,.13-.38.7.7,0,0,1,.26-.33c.39-.39.78-.71,1.1-1.1a2.37,2.37,0,0,1,.39-.32.69.69,0,0,1,.51-.19.54.54,0,0,0,.33-.07h.51a3.47,3.47,0,0,1,.46.13,2.57,2.57,0,0,1,1.42,1.29,3.55,3.55,0,0,1,.26.71c.19.59.32,1.23.45,1.81a2.52,2.52,0,0,1-.26,1.68,2.91,2.91,0,0,1-.32.46,6,6,0,0,1-.65.58c-.13.13-.13.19-.06.32a4.21,4.21,0,0,1,.26.71,8,8,0,0,0,.38.84,12.5,12.5,0,0,0,1,1.49c.13.13.2.26.33.39a9.42,9.42,0,0,0,2.39,1.87c.26.13.58.26.9.39a4.2,4.2,0,0,0,.78.26h.19l.65-.65a2.25,2.25,0,0,1,1.74-.71,3.94,3.94,0,0,1,.84.19h.13c.52.13,1.1.33,1.62.46h.13a2.06,2.06,0,0,1,1.29,1.16c.06.13.13.32.19.45a1.06,1.06,0,0,0,.13.39V278s0,.26-.06.32a2.66,2.66,0,0,1-.65,1l-.9.9a1.34,1.34,0,0,1-.39.32,2,2,0,0,1-.65.2h-1a7.76,7.76,0,0,1-1.17-.13,8.55,8.55,0,0,1-1.22-.26,12.27,12.27,0,0,1-2.2-.71.5.5,0,0,1-.26-.13,3,3,0,0,0-.45-.19c-.32-.2-.71-.33-1-.52s-.91-.58-1.36-.84-.71-.58-1.1-.84a8.17,8.17,0,0,1-1.1-1.1c-.32-.32-.58-.71-.9-1a1.19,1.19,0,0,0-.26-.33c0-.06-.07-.12-.13-.19-.3-.44-.58-.89-.84-1.36a4.75,4.75,0,0,1-.52-1l-.19-.39c-.13-.32-.26-.71-.39-1.1a5.75,5.75,0,0,1-.39-1.42.86.86,0,0,0-.06-.39,2,2,0,0,0-.13-.58c0-.13-.07-.19,0-.32a8.06,8.06,0,0,0-.13-1.1v-1.16h0Z"/>
          <path class="cls-3" d="M62,266.51v-1.1a.13.13,0,0,1,.13-.13h0a3.37,3.37,0,0,1,.84.07.86.86,0,0,1,.39.06l1.16.39a5.92,5.92,0,0,1,3.23,4.07v.07c0,.06.06.19,0,.26a3.29,3.29,0,0,0,.06.77c0,.19,0,.19-.19.19h-1v-.84a2,2,0,0,0-.13-.58,4.81,4.81,0,0,0-3-3,1.33,1.33,0,0,0-.52-.13H62Z"/>
          <path class="cls-3" d="M62.17,270.07s-.19-.13-.19-.26v-1a2,2,0,0,1,.9.19.33.33,0,0,1,.26.13c.07,0,.13.07.2.13a2.66,2.66,0,0,1,.58.58,1.7,1.7,0,0,1,.26.45,4,4,0,0,1,.19.78v.19h-1a.19.19,0,0,1-.2-.18h0a1,1,0,0,0-.58-.84c-.13-.06-.19-.06-.32-.13h-.13Z"/>
        </g>
        <path class="cls-17" d="M249.8,263.51a5.78,5.78,0,0,0-3.16-1.49,2.42,2.42,0,0,1-1-.13h-1.72a4.3,4.3,0,0,0-1.55.2,7.34,7.34,0,0,0-4.84,6.91,9.54,9.54,0,0,0,1,4.2,21.3,21.3,0,0,0,5.1,6.66,1.88,1.88,0,0,0,1.1.58h.58s.65-.13.84-.39a23.94,23.94,0,0,0,1.75-1.74,25.94,25.94,0,0,0,3-4,11.2,11.2,0,0,0,1.55-4.91,7.35,7.35,0,0,0-2.59-6h0Zm-4.84,9.3a3.65,3.65,0,1,1,.06-7.3h0a3.65,3.65,0,1,1-.13,7.3Z"/>
        <path class="cls-3" d="M88.7,264.49a2.69,2.69,0,0,1,1.19,1.05,2.74,2.74,0,0,1,.43,1.57,2.87,2.87,0,0,1-.47,1.66,3,3,0,0,1-1.28,1.1,4,4,0,0,1-1.8.39A3.9,3.9,0,0,1,83.66,269a5.24,5.24,0,0,1-1.11-3.58,6,6,0,0,1,.6-2.8,4.16,4.16,0,0,1,1.68-1.77,5,5,0,0,1,2.49-.6,6,6,0,0,1,1.41.16,3.85,3.85,0,0,1,1.15.46l-.67,1.36a3.34,3.34,0,0,0-1.85-.47,2.85,2.85,0,0,0-2.19.86,3.57,3.57,0,0,0-.79,2.49h0a2.64,2.64,0,0,1,1.09-.75,4.27,4.27,0,0,1,1.5-.26A4,4,0,0,1,88.7,264.49Zm-.66,3.9a1.62,1.62,0,0,0,.07-2.3L88,266a2.1,2.1,0,0,0-1.41-.44,2.06,2.06,0,0,0-1.43.47,1.55,1.55,0,0,0-.55,1.2,1.48,1.48,0,0,0,.54,1.17,2.21,2.21,0,0,0,1.48.47,2,2,0,0,0,1.37-.48Z"/>
        <path class="cls-3" d="M93.24,269.67A4,4,0,0,1,91.8,268a7.06,7.06,0,0,1,0-5.38,3.89,3.89,0,0,1,1.44-1.72,4,4,0,0,1,4.18,0,3.91,3.91,0,0,1,1.45,1.72,7.06,7.06,0,0,1,0,5.38,3.91,3.91,0,0,1-1.45,1.72,4,4,0,0,1-4.18,0ZM97,267.83a5.8,5.8,0,0,0,0-5.14,1.91,1.91,0,0,0-1.65-.86,1.89,1.89,0,0,0-1.63.86,5.74,5.74,0,0,0,0,5.14,1.89,1.89,0,0,0,1.63.86A1.91,1.91,0,0,0,97,267.83Z"/>
        <path class="cls-3" d="M103.92,260.39v9.73h-1.81v-8.21H100v-1.52Z"/>
        <path class="cls-3" d="M114.52,267.91H112.8v2.21H111v-2.21h-5.34v-1.25l4.8-6.27h1.93l-4.52,6h3.18v-2h1.7v2h1.72Z"/>
        <path class="cls-3" d="M121.61,261.51a5.25,5.25,0,0,1,1.1,3.58,6,6,0,0,1-.6,2.8,4,4,0,0,1-1.67,1.77,5.07,5.07,0,0,1-2.5.6,6.1,6.1,0,0,1-1.41-.16,3.64,3.64,0,0,1-1.14-.46l.66-1.36a3.34,3.34,0,0,0,1.85.47,2.82,2.82,0,0,0,2.2-.86,3.57,3.57,0,0,0,.79-2.49h0a2.57,2.57,0,0,1-1.1.76,4.05,4.05,0,0,1-1.5.26,4,4,0,0,1-1.72-.37,2.78,2.78,0,0,1-1.2-1,2.9,2.9,0,0,1-.43-1.57,3,3,0,0,1,.47-1.66,3.2,3.2,0,0,1,1.28-1.11,4.2,4.2,0,0,1,1.81-.38A3.93,3.93,0,0,1,121.61,261.51Zm-1.55,3a1.56,1.56,0,0,0,.16-2.21l-.16-.16a2.19,2.19,0,0,0-1.48-.47,2,2,0,0,0-1.38.46,1.64,1.64,0,0,0-.11,2.3l.11.11a2.15,2.15,0,0,0,1.42.44,2.08,2.08,0,0,0,1.4-.47Z"/>
        <path class="cls-3" d="M127.23,260.39v9.73h-1.81v-8.21h-2v-1.52Z"/>
        <path class="cls-3" d="M136.21,268.59v1.53H129v-1.2l3.86-3.67a4.06,4.06,0,0,0,.88-1.1,2,2,0,0,0,.23-.92,1.24,1.24,0,0,0-.46-1,2.11,2.11,0,0,0-1.34-.36,2.68,2.68,0,0,0-2.28,1l-1.27-1a3.67,3.67,0,0,1,1.54-1.19,5.33,5.33,0,0,1,2.16-.42,4,4,0,0,1,2.53.75,2.46,2.46,0,0,1,.94,2,3.48,3.48,0,0,1-.33,1.49,5.74,5.74,0,0,1-1.28,1.58l-2.6,2.47Z"/>
        <path class="cls-3" d="M143.34,265a2.65,2.65,0,0,1,1,2.18,2.91,2.91,0,0,1-1.73,2.71,5,5,0,0,1-2.12.41,6.78,6.78,0,0,1-2-.3,5.05,5.05,0,0,1-1.64-.82l.76-1.41a4.33,4.33,0,0,0,1.3.71,5,5,0,0,0,1.57.25,2.59,2.59,0,0,0,1.51-.39,1.28,1.28,0,0,0,.54-1.09,1.26,1.26,0,0,0-.59-1.14,3.94,3.94,0,0,0-2-.38h-2.35l.5-5.3h5.72V262h-4.19l-.21,2.25h.93A4.83,4.83,0,0,1,143.34,265Z"/>
        <path class="cls-3" d="M151.39,265a2.68,2.68,0,0,1,1,2.18,2.94,2.94,0,0,1-.43,1.58,3,3,0,0,1-1.29,1.13,5,5,0,0,1-2.13.41,6.78,6.78,0,0,1-2-.3,5.05,5.05,0,0,1-1.64-.82l.76-1.41a4.33,4.33,0,0,0,1.3.71,5,5,0,0,0,1.57.25,2.54,2.54,0,0,0,1.5-.39,1.38,1.38,0,0,0,.3-1.93,1.22,1.22,0,0,0-.3-.3,3.94,3.94,0,0,0-2-.38h-2.35l.5-5.3h5.71V262h-4.27l-.21,2.25h.93A4.84,4.84,0,0,1,151.39,265Z"/>
        <path class="cls-3" d="M160.39,268.59v1.53h-7.17v-1.2l3.87-3.67a4.44,4.44,0,0,0,.88-1.1,2,2,0,0,0,.23-.92,1.24,1.24,0,0,0-.46-1,2.15,2.15,0,0,0-1.35-.36,2.7,2.7,0,0,0-2.28,1l-1.26-1a3.79,3.79,0,0,1,1.53-1.19,5.37,5.37,0,0,1,2.16-.42,4,4,0,0,1,2.53.75,2.44,2.44,0,0,1,1,2,3.48,3.48,0,0,1-.33,1.49,5.74,5.74,0,0,1-1.28,1.58l-2.6,2.47Z"/>
        <path class="cls-18" d="M86.67,278.7a1.82,1.82,0,0,1,.54,1.36,2,2,0,0,1-.3,1.09,2.08,2.08,0,0,1-.89.77,3.34,3.34,0,0,1-1.46.28,4.68,4.68,0,0,1-1.44-.2,3.07,3.07,0,0,1-1.13-.63l.46-.79a2.78,2.78,0,0,0,.92.55,3.24,3.24,0,0,0,1.19.2,2,2,0,0,0,1.22-.33,1.18,1.18,0,0,0,.17-1.65,1.29,1.29,0,0,0-.17-.16,2.19,2.19,0,0,0-1.3-.32h-.56v-.7L85.68,276H82.31v-.87h4.62v.68l-1.83,2.26A2.46,2.46,0,0,1,86.67,278.7Z"/>
        <path class="cls-18" d="M90.31,275.12v7h-1V276H87.74v-.87Z"/>
        <path class="cls-18" d="M96.76,281.25v.87h-5v-.68l2.85-2.75a3.39,3.39,0,0,0,.7-.86,1.59,1.59,0,0,0,.18-.74,1,1,0,0,0-.38-.85,1.8,1.8,0,0,0-1.11-.31,2.23,2.23,0,0,0-1.79.76l-.68-.59a2.81,2.81,0,0,1,1.08-.78A4.07,4.07,0,0,1,94,275a2.67,2.67,0,0,1,1.75.53,1.7,1.7,0,0,1,.65,1.42,2.42,2.42,0,0,1-.24,1.06,4,4,0,0,1-.91,1.14l-2.14,2.06Z"/>
        <path class="cls-18" d="M102.65,275.12v.68l-2.83,6.32H98.76l2.77-6.13h-3.2v1.25h-1v-2.12Z"/>
        <path class="cls-18" d="M108.63,275.12v.68l-2.83,6.32h-1.06l2.77-6.13h-3.2v1.25h-1v-2.12Z"/>
        <path class="cls-18" d="M110.7,281.78a2.89,2.89,0,0,1-1-1.24,5.2,5.2,0,0,1,0-3.84,2.86,2.86,0,0,1,1-1.23,2.74,2.74,0,0,1,2.94,0,2.68,2.68,0,0,1,1,1.23,5.2,5.2,0,0,1,0,3.84,2.75,2.75,0,0,1-1,1.24A2.78,2.78,0,0,1,110.7,281.78Zm2.82-1.16a4.23,4.23,0,0,0,0-4,1.67,1.67,0,0,0-2.33-.37,1.85,1.85,0,0,0-.37.37,4.18,4.18,0,0,0,0,4,1.67,1.67,0,0,0,2.33.37A1.62,1.62,0,0,0,113.52,280.62Z"/>
        <path class="cls-18" d="M122.07,280.4h-1.33v1.72h-1V280.4h-3.89v-.7l3.58-4.58h1.08l-3.43,4.42h2.69V278h.94v1.52H122Z"/>
        <path class="cls-18" d="M126.85,278.48a1.84,1.84,0,0,1,.7,1.54,2.11,2.11,0,0,1-.29,1.12,2,2,0,0,1-.89.78,3.35,3.35,0,0,1-1.47.28,4.64,4.64,0,0,1-1.43-.22,3.11,3.11,0,0,1-1.14-.63l.46-.79a2.78,2.78,0,0,0,.92.55,3.4,3.4,0,0,0,1.18.2,2,2,0,0,0,1.23-.33,1.19,1.19,0,0,0-.05-1.87,3,3,0,0,0-1.64-.33h-1.59l.37-3.66h4V276H124l-.19,1.92h.78A3.54,3.54,0,0,1,126.85,278.48Z"/>
        <path class="cls-18" d="M130.55,275.12v7h-1V276H128v-.87Z"/>
        <path class="cls-18" d="M136.34,278.13a2.13,2.13,0,0,1,.85.75,2,2,0,0,1,.31,1.11,2.08,2.08,0,0,1-.32,1.16,2.1,2.1,0,0,1-.89.78,2.93,2.93,0,0,1-1.27.27,2.68,2.68,0,0,1-2.17-.91,3.92,3.92,0,0,1-.77-2.58,4.31,4.31,0,0,1,.42-2,2.86,2.86,0,0,1,1.16-1.25,3.5,3.5,0,0,1,1.73-.43,4.2,4.2,0,0,1,1,.11,2.63,2.63,0,0,1,.78.3l-.38.78a2.41,2.41,0,0,0-1.34-.33,2.25,2.25,0,0,0-1.71.68,2.83,2.83,0,0,0-.62,2v.25a2,2,0,0,1,.83-.68,2.83,2.83,0,0,1,1.18-.24A2.93,2.93,0,0,1,136.34,278.13ZM136.1,281a1.34,1.34,0,0,0,.11-1.89.57.57,0,0,0-.11-.11,1.76,1.76,0,0,0-1.17-.37,1.83,1.83,0,0,0-.83.18,1.43,1.43,0,0,0-.57.49,1.2,1.2,0,0,0-.21.69,1.26,1.26,0,0,0,.2.68,1.43,1.43,0,0,0,.57.49,2,2,0,0,0,.89.18,1.61,1.61,0,0,0,1.12-.36Z"/>
        <path class="cls-18" d="M140.75,279h2.69v.83h-2.69Z"/>
        <path class="cls-18" d="M151.43,278.7a1.82,1.82,0,0,1,.54,1.36,2,2,0,0,1-.3,1.09,2.08,2.08,0,0,1-.89.77,3.34,3.34,0,0,1-1.46.28,4.7,4.7,0,0,1-1.44-.22,3.07,3.07,0,0,1-1.13-.63l.46-.79a2.78,2.78,0,0,0,.92.55,3.24,3.24,0,0,0,1.19.2,2,2,0,0,0,1.22-.33,1.18,1.18,0,0,0,.17-1.65,1.29,1.29,0,0,0-.17-.16,2.19,2.19,0,0,0-1.3-.32h-.56v-.7l1.76-2.16h-3.37v-.87h4.62v.68l-1.83,2.26A2.47,2.47,0,0,1,151.43,278.7Z"/>
        <path class="cls-18" d="M155.07,275.12v7h-1V276h-1.58v-.87Z"/>
        <path class="cls-18" d="M161.52,281.25v.87h-5v-.68l2.85-2.75a3.39,3.39,0,0,0,.7-.86,1.59,1.59,0,0,0,.18-.74,1,1,0,0,0-.38-.85,1.8,1.8,0,0,0-1.11-.31,2.23,2.23,0,0,0-1.79.76l-.68-.59a2.81,2.81,0,0,1,1.08-.78,3.93,3.93,0,0,1,1.48-.28,2.73,2.73,0,0,1,1.75.53,1.73,1.73,0,0,1,.65,1.42,2.42,2.42,0,0,1-.24,1.06,4,4,0,0,1-.91,1.14L158,281.25Z"/>
        <path class="cls-18" d="M167.41,275.12v.68l-2.83,6.32h-1.06l2.77-6.13h-3.2v1.25h-1v-2.12Z"/>
        <path class="cls-18" d="M172.35,278.13a2.13,2.13,0,0,1,.85.75,2,2,0,0,1,.31,1.11,2.08,2.08,0,0,1-.32,1.16,2.1,2.1,0,0,1-.89.78,2.93,2.93,0,0,1-1.27.27,2.68,2.68,0,0,1-2.17-.91,3.92,3.92,0,0,1-.77-2.58,4.31,4.31,0,0,1,.42-2,2.86,2.86,0,0,1,1.16-1.25,3.5,3.5,0,0,1,1.73-.43,4.2,4.2,0,0,1,1,.11,2.63,2.63,0,0,1,.78.3l-.38.78a2.41,2.41,0,0,0-1.34-.33,2.25,2.25,0,0,0-1.71.68,2.83,2.83,0,0,0-.62,2v.25a2,2,0,0,1,.83-.68,2.83,2.83,0,0,1,1.18-.24A2.93,2.93,0,0,1,172.35,278.13Zm-.24,2.89a1.34,1.34,0,0,0,.11-1.89l-.11-.11a1.76,1.76,0,0,0-1.17-.37,1.83,1.83,0,0,0-.83.18,1.43,1.43,0,0,0-.57.49,1.2,1.2,0,0,0-.21.69,1.26,1.26,0,0,0,.2.68,1.43,1.43,0,0,0,.57.49,2,2,0,0,0,.89.18,1.66,1.66,0,0,0,1.12-.36Z"/>
        <path class="cls-18" d="M178.47,278.48a1.84,1.84,0,0,1,.7,1.54,2.11,2.11,0,0,1-.29,1.12,2,2,0,0,1-.89.78,3.35,3.35,0,0,1-1.47.28,4.64,4.64,0,0,1-1.43-.22,3.11,3.11,0,0,1-1.14-.63l.46-.79a2.78,2.78,0,0,0,.92.55,3.19,3.19,0,0,0,1.18.2,2,2,0,0,0,1.23-.33,1.19,1.19,0,0,0-.05-1.87,3,3,0,0,0-1.64-.33h-1.59l.37-3.66h3.95V276h-3.11l-.19,1.92h.78A3.45,3.45,0,0,1,178.47,278.48Z"/>
        <path class="cls-18" d="M181.39,281.78a2.89,2.89,0,0,1-1-1.24,5.2,5.2,0,0,1,0-3.84,2.86,2.86,0,0,1,1-1.23,2.74,2.74,0,0,1,2.94,0,2.79,2.79,0,0,1,1,1.23,5.2,5.2,0,0,1,0,3.84,2.82,2.82,0,0,1-1,1.24A2.78,2.78,0,0,1,181.39,281.78Zm2.82-1.16a4.23,4.23,0,0,0,0-4,1.6,1.6,0,0,0-1.35-.69,1.55,1.55,0,0,0-1.35.69,4.18,4.18,0,0,0,0,4,1.55,1.55,0,0,0,1.35.69A1.6,1.6,0,0,0,184.21,280.62Z"/>
        <path class="cls-18" d="M190.82,278.7a1.82,1.82,0,0,1,.54,1.36,2,2,0,0,1-.3,1.09,2.08,2.08,0,0,1-.89.77,3.34,3.34,0,0,1-1.46.28,4.7,4.7,0,0,1-1.44-.22,3.07,3.07,0,0,1-1.13-.63l.46-.79a2.78,2.78,0,0,0,.92.55,3.24,3.24,0,0,0,1.19.2,2,2,0,0,0,1.22-.33,1.18,1.18,0,0,0,.17-1.65,1.29,1.29,0,0,0-.17-.16,2.19,2.19,0,0,0-1.3-.32h-.56v-.7l1.76-2.16h-3.37v-.87h4.62v.68l-1.83,2.26A2.47,2.47,0,0,1,190.82,278.7Z"/>
        <path class="cls-18" d="M196.55,278.13a2.13,2.13,0,0,1,.85.75,2,2,0,0,1,.31,1.11,2.08,2.08,0,0,1-.32,1.16,2.1,2.1,0,0,1-.89.78,2.93,2.93,0,0,1-1.27.27,2.68,2.68,0,0,1-2.17-.91,3.92,3.92,0,0,1-.77-2.58,4.31,4.31,0,0,1,.42-2,2.86,2.86,0,0,1,1.16-1.25,3.5,3.5,0,0,1,1.73-.43,4.2,4.2,0,0,1,1,.11,2.63,2.63,0,0,1,.78.3l-.38.78a2.41,2.41,0,0,0-1.34-.33,2.21,2.21,0,0,0-1.71.68,2.83,2.83,0,0,0-.62,2v.25a2,2,0,0,1,.83-.68,2.83,2.83,0,0,1,1.18-.24A2.93,2.93,0,0,1,196.55,278.13Zm-.24,2.89a1.34,1.34,0,0,0,.11-1.89l-.11-.11a1.76,1.76,0,0,0-1.17-.37,1.83,1.83,0,0,0-.83.18,1.43,1.43,0,0,0-.57.49,1.2,1.2,0,0,0-.21.69,1.26,1.26,0,0,0,.2.68,1.43,1.43,0,0,0,.57.49,2,2,0,0,0,.89.18,1.66,1.66,0,0,0,1.12-.36Z"/>
        <path class="cls-18" d="M202.72,278.13a2.13,2.13,0,0,1,.85.75,2,2,0,0,1,.31,1.11,2.08,2.08,0,0,1-.32,1.16,2.1,2.1,0,0,1-.89.78,2.93,2.93,0,0,1-1.27.27,2.68,2.68,0,0,1-2.17-.91,3.92,3.92,0,0,1-.77-2.58,4.31,4.31,0,0,1,.42-2,2.86,2.86,0,0,1,1.16-1.25,3.5,3.5,0,0,1,1.73-.43,4.2,4.2,0,0,1,1,.11,2.63,2.63,0,0,1,.78.3l-.38.78a2.41,2.41,0,0,0-1.34-.33,2.21,2.21,0,0,0-1.71.68,2.83,2.83,0,0,0-.62,2v.25a2,2,0,0,1,.83-.68,2.83,2.83,0,0,1,1.18-.24A2.93,2.93,0,0,1,202.72,278.13Zm-.24,2.89a1.34,1.34,0,0,0,.11-1.89.57.57,0,0,0-.11-.11,1.76,1.76,0,0,0-1.17-.37,1.83,1.83,0,0,0-.83.18,1.43,1.43,0,0,0-.57.49,1.2,1.2,0,0,0-.21.69,1.26,1.26,0,0,0,.2.68,1.43,1.43,0,0,0,.57.49,2,2,0,0,0,.89.18,1.66,1.66,0,0,0,1.12-.36Z"/>
        <g>
          <path class="cls-17" d="M266.65,276.11a4.79,4.79,0,0,1-1.89-1.79,5.21,5.21,0,0,1,0-5.18,4.81,4.81,0,0,1,1.89-1.8,5.52,5.52,0,0,1,2.7-.64,5.77,5.77,0,0,1,2.29.44,4.65,4.65,0,0,1,1.72,1.28l-1.45,1.33a3.11,3.11,0,0,0-2.44-1.13,3.29,3.29,0,0,0-1.62.39,2.86,2.86,0,0,0-1.1,1.11,3.46,3.46,0,0,0,0,3.22,2.86,2.86,0,0,0,1.1,1.11,3.29,3.29,0,0,0,1.62.39,3.07,3.07,0,0,0,2.44-1.15l1.45,1.33a4.53,4.53,0,0,1-1.73,1.3,5.77,5.77,0,0,1-2.29.44A5.6,5.6,0,0,1,266.65,276.11Z"/>
          <path class="cls-17" d="M277.84,269.28a4,4,0,0,1,1.52-.28v2h-.48a2,2,0,0,0-1.46.52,2.11,2.11,0,0,0-.53,1.56v3.53h-2.17v-7.47h2.07v1A2.45,2.45,0,0,1,277.84,269.28Z"/>
          <path class="cls-17" d="M286.3,269.83a3.19,3.19,0,0,1,.93,2.5v4.26h-2v-.93a2.39,2.39,0,0,1-2.28,1,3.33,3.33,0,0,1-1.49-.29,2.08,2.08,0,0,1-1.3-2,2,2,0,0,1,.78-1.64,4,4,0,0,1,2.43-.6H285a1.36,1.36,0,0,0-.43-1.09,1.93,1.93,0,0,0-1.29-.38,3.64,3.64,0,0,0-1.18.19,3.13,3.13,0,0,0-1,.5l-.78-1.51a4.77,4.77,0,0,1,1.47-.67,6.55,6.55,0,0,1,1.76-.24A3.88,3.88,0,0,1,286.3,269.83ZM284.45,275a1.35,1.35,0,0,0,.61-.76v-.76h-1.49c-.89,0-1.33.29-1.33.87a.78.78,0,0,0,.33.66,1.42,1.42,0,0,0,.89.25A2,2,0,0,0,284.45,275Z"/>
          <path class="cls-17" d="M289,276.32a1.37,1.37,0,0,1-.39-1,1.25,1.25,0,0,1,.39-1,1.44,1.44,0,0,1,1.92,0,1.22,1.22,0,0,1,.39,1,1.3,1.3,0,0,1-.39,1A1.4,1.4,0,0,1,289,276.32Z"/>
          <path class="cls-17" d="M304.07,272.42a2.38,2.38,0,0,1,.38,1.35,2.55,2.55,0,0,1-.51,1.58,3.27,3.27,0,0,1-1.45,1,6.47,6.47,0,0,1-4.3,0,3.19,3.19,0,0,1-1.43-1,2.55,2.55,0,0,1-.51-1.58,2.46,2.46,0,0,1,.38-1.35,2.83,2.83,0,0,1,1.09-.94,2.31,2.31,0,0,1-.83-.84,2.22,2.22,0,0,1-.29-1.16,2.46,2.46,0,0,1,.47-1.48,3.1,3.1,0,0,1,1.32-1,5.21,5.21,0,0,1,1.95-.34,5.27,5.27,0,0,1,2,.34,3,3,0,0,1,1.33,1,2.33,2.33,0,0,1,.47,1.48,2.22,2.22,0,0,1-.29,1.16,2.28,2.28,0,0,1-.85.84A2.7,2.7,0,0,1,304.07,272.42Zm-2.39,2.3a1.3,1.3,0,0,0,.17-1.83,1.37,1.37,0,0,0-.17-.17,2.19,2.19,0,0,0-1.34-.38,2.08,2.08,0,0,0-1.32.38,1.31,1.31,0,0,0-.15,1.85l.15.15a2.08,2.08,0,0,0,1.32.38,2.12,2.12,0,0,0,1.34-.38Zm-2.43-6a1.05,1.05,0,0,0-.41.89,1,1,0,0,0,.4.88,2.07,2.07,0,0,0,2.21,0,1,1,0,0,0,.42-.88,1,1,0,0,0-.42-.89,1.75,1.75,0,0,0-1.11-.33,1.7,1.7,0,0,0-1.09.29Z"/>
          <path class="cls-17" d="M312.73,269.84a3.29,3.29,0,0,1,.85,2.47v4.28h-2.16v-3.94a1.92,1.92,0,0,0-.39-1.33,1.45,1.45,0,0,0-1.13-.44,1.74,1.74,0,0,0-1.31.51,2.11,2.11,0,0,0-.48,1.51v3.69h-2.17V266.28h2.17v3.61a3.17,3.17,0,0,1,1-.66,4,4,0,0,1,1.33-.23A3.07,3.07,0,0,1,312.73,269.84Z"/>
          <path class="cls-17" d="M325.93,272.85h1.8v1.52h-2l-.28,2.22h-1.57l.28-2.22h-2.05l-.28,2.22h-1.55l.28-2.22h-1.83v-1.52h2l.29-2.25H319.2v-1.51h2l.28-2.23H323l-.27,2.23h2l.28-2.23h1.55l-.27,2.23h1.8v1.51h-2Zm-1.57,0,.29-2.25h-2l-.29,2.25Z"/>
          <path class="cls-17" d="M332.78,266.86v9.73h-2.25v-7.92h-1.95v-1.81Z"/>
          <path class="cls-17" d="M340.86,270.87a2.93,2.93,0,0,1,1.2,1.06,2.8,2.8,0,0,1,.45,1.59,3,3,0,0,1-1.82,2.84,4.27,4.27,0,0,1-1.86.4,4.13,4.13,0,0,1-3.2-1.25,5.1,5.1,0,0,1-1.16-3.57,6.08,6.08,0,0,1,.63-2.84,4.29,4.29,0,0,1,1.74-1.79,5.35,5.35,0,0,1,2.6-.61,6.25,6.25,0,0,1,1.49.17,4.16,4.16,0,0,1,1.22.49l-.84,1.66a3.09,3.09,0,0,0-1.82-.49,2.64,2.64,0,0,0-2,.72,3.13,3.13,0,0,0-.78,2.1,3.31,3.31,0,0,1,2.41-.86A3.87,3.87,0,0,1,340.86,270.87Zm-1,3.82a1.47,1.47,0,0,0,0-2.12,2,2,0,0,0-2.42,0,1.39,1.39,0,0,0-.47,1.05,1.35,1.35,0,0,0,.46,1.05,1.89,1.89,0,0,0,1.25.4,1.8,1.8,0,0,0,1.2-.38Z"/>
          <path class="cls-17" d="M352.24,274.55h-1.59v2h-2.19v-2h-5.24V273l4.58-6.18h2.37l-4.26,5.86h2.62v-1.83h2.12v1.83h1.59Z"/>
          <path class="cls-17" d="M355,276.21a3.68,3.68,0,0,1-1.48-1.37,3.93,3.93,0,0,1,0-4A3.61,3.61,0,0,1,355,269.5a4.62,4.62,0,0,1,2.15-.5,4.11,4.11,0,0,1,2.06.5,2.9,2.9,0,0,1,1.29,1.41l-1.68.9a1.84,1.84,0,0,0-1.68-1,1.9,1.9,0,0,0-1.41.56,2,2,0,0,0-.55,1.51,2.08,2.08,0,0,0,.55,1.52,1.9,1.9,0,0,0,1.41.56,1.82,1.82,0,0,0,1.68-1l1.68.91a3,3,0,0,1-1.29,1.39,4,4,0,0,1-2.06.5A4.61,4.61,0,0,1,355,276.21Z"/>
          <path class="cls-17" d="M361.25,271.81h3.93v1.74h-3.93Z"/>
          <path class="cls-17" d="M373.48,274.76v1.83h-7.36v-1.46l3.76-3.54a4,4,0,0,0,.8-1,1.66,1.66,0,0,0,.21-.81,1.08,1.08,0,0,0-.39-.9,1.84,1.84,0,0,0-1.16-.31,2.74,2.74,0,0,0-1.16.24,2.33,2.33,0,0,0-.86.73l-1.64-1.06a3.94,3.94,0,0,1,1.57-1.32,5.32,5.32,0,0,1,2.29-.48,4.93,4.93,0,0,1,1.9.35,3,3,0,0,1,1.27,1,2.58,2.58,0,0,1,.45,1.52,3.19,3.19,0,0,1-.34,1.49,5.82,5.82,0,0,1-1.29,1.59l-2.24,2.11Z"/>
          <path class="cls-17" d="M380.78,271.34a2.72,2.72,0,0,1,1,2.2,2.93,2.93,0,0,1-1.8,2.78,5.21,5.21,0,0,1-2.24.44,7.53,7.53,0,0,1-2-.27,5.23,5.23,0,0,1-1.68-.77L375,274a4,4,0,0,0,1.27.65,5,5,0,0,0,1.49.23,2.33,2.33,0,0,0,1.34-.33,1.09,1.09,0,0,0,.48-.93,1,1,0,0,0-.5-.95,3.66,3.66,0,0,0-1.76-.32h-2.49l.5-5.48h5.93v1.81h-4l-.16,1.85h.8A4.58,4.58,0,0,1,380.78,271.34Z"/>
        </g>
      </g>
    </g>
  </g>
</svg>
