<svg xmlns="http://www.w3.org/2000/svg" viewBox="0 0 429.47 292.34">
  <defs>
    <style>
      .cls-1 {
        fill: #0d0b03;
      }

      .cls-2 {
        fill: #f8d116;
      }

      .cls-3 {
        fill: #e4141d;
      }

      .cls-4 {
        fill: #49ad33;
      }

      .cls-5 {
        fill: #805f15;
      }

      .cls-6 {
        fill: #138f38;
      }

      .cls-7 {
        fill: #231a03;
      }

      .cls-8 {
        fill: #261c04;
      }

      .cls-9 {
        fill: #2e2307;
      }

      .cls-10 {
        fill: #322607;
      }

      .cls-11 {
        fill: #362907;
      }

      .cls-12 {
        fill: #291f06;
      }

      .cls-13 {
        fill: #392b08;
      }

      .cls-14 {
        fill: #3d2e0a;
      }

      .cls-15 {
        fill: #fff;
      }

      .cls-16 {
        fill: #cb1718;
      }

      .cls-17 {
        fill: #4bad33;
      }

      .cls-18 {
        fill: #1e1e1e;
      }

      .cls-19 {
        fill: #1d1d1b;
      }
    </style>
  </defs>
  <g id="Capa_2" data-name="Capa 2">
    <g id="Capa_1-2" data-name="Capa 1">
      <g>
        <g>
          <path class="cls-1" d="M174.87,42.17a84.37,84.37,0,0,0-3.69-9.67q-2.81-6.27-6-12.35a14.47,14.47,0,0,0-8.23-6.91,31.15,31.15,0,0,0-17.29-1.18c-6.5,1.39-12,4.78-17.24,8.69a102.35,102.35,0,0,0-13.9,12.91c-2.28,2.46-4.5,5-6.79,7.54-1.19-1.62-2.33-3.14-3.43-4.68A154.44,154.44,0,0,0,80.05,15.2a70.75,70.75,0,0,0-15.75-12A27.9,27.9,0,0,0,56.39.3C50-.94,44.7,1.69,42.1,7.68a31.06,31.06,0,0,0-2,6.67,59.37,59.37,0,0,0,0,18.72c2.2,16.56,7.52,32.2,14,47.47,1,2.35,2,4.68,3.17,7.28-1.62-.28-3-.44-4.24-.76q-7.48-1.89-15-3.88a57.79,57.79,0,0,0-13.3-2.34A18.38,18.38,0,0,0,13.17,84.5,37.49,37.49,0,0,0,1.94,98.29,18.86,18.86,0,0,0,.32,110.24,31.37,31.37,0,0,0,4.42,121a24.4,24.4,0,0,0,15.15,11.37,32.7,32.7,0,0,0,12.07.89,42.12,42.12,0,0,0,5.5-.93c1.21-.29,2.4-.6,3.58-1a77.33,77.33,0,0,0,10.89-4.2,115.44,115.44,0,0,0,10.6-5.74q1.89-1.14,3.74-2.33c.21-.13.42-.26.62-.4,2.65-1.69,5.25-3.48,7.84-5.26a91.23,91.23,0,0,0,9.33-8.35,9.43,9.43,0,0,1,4.5,3.91c.14.23.28.47.4.7,2.15-.3,4.3-.63,6.43-1,7.41-1.2,14.74-2.67,22-4.57a155.27,155.27,0,0,0,20.44-6.86,81.41,81.41,0,0,0,22.11-13.15c7-6,12.19-13.26,14.75-22.22C176.22,55.43,176.9,48.8,174.87,42.17ZM154,71.79c-.35.37-.7.73-1.07,1.09h0a50.14,50.14,0,0,1-4.51,3.92,66.73,66.73,0,0,1-5.85,3.89l-1.65,1-.55.35a38.52,38.52,0,0,1-4.51,2.56c-3.92,1.75-7.94,3.36-12.06,5-2.62,1-5.3,2-8,2.8l1.44-.79a84.68,84.68,0,0,0,16.48-11.45,20.41,20.41,0,0,0,5.15-6.42l.11-.23a18.09,18.09,0,0,0,.75-1.78,8.53,8.53,0,0,0-5.25-11,14.51,14.51,0,0,0-5.21-.94,20.56,20.56,0,0,0-3.43.32,54.91,54.91,0,0,1,8.27-8.35,45.45,45.45,0,0,1,12.57-7.34,26.06,26.06,0,0,1,9.05-1.84,17.9,17.9,0,0,1,2.55.18,14.82,14.82,0,0,1,3.43.81c.05.14.09.29.14.43a27.27,27.27,0,0,1,1.37,5.54,23.47,23.47,0,0,1-1.82,10.74A35.23,35.23,0,0,1,154,71.79ZM54.11,113.65l.68-2.53,2,1.1Zm-23.56,8.52-1.14,0h-.35L30.71,120l.25.27L32.62,122C32,122.08,31.27,122.13,30.55,122.17ZM20.93,95c3.26-2.56,6.23-3.76,9.34-3.76.27,0,.54,0,.8,0a41.31,41.31,0,0,1,5.23.67c2.36.45,4.77,1,7.1,1.45l2.66.56-.4.26A61.13,61.13,0,0,1,37,99.06a22.12,22.12,0,0,1-9.07,2.31,14.41,14.41,0,0,1-2.64-.25c-3.19-.62-5.4-1.84-6.9-3.85A23.19,23.19,0,0,1,20.93,95ZM56.16,59.32h0c-.39-1.13-.78-2.29-1.18-3.49l-.42-1.29c-.37-1.15-.75-2.33-1.1-3.52-.05-.13-.09-.27-.13-.41s-.15-.51-.23-.76h0c-.27-.93-.54-1.84-.79-2.75L52,45.74c-.26-1-.5-1.91-.73-2.85-.11-.44-.21-.88-.31-1.32-.23-1-.45-2-.65-2.92h0c-.07-.38-.15-.75-.22-1.12-.25-1.25-.46-2.48-.65-3.69-.07-.44-.13-.87-.19-1.29h0c-.15-1-.27-2-.38-3-.06-.55-.11-1.1-.15-1.64h0c-.08-.92-.15-1.84-.19-2.74l0-.72,0-.83c0-.84,0-1.67,0-2.49,0-.46.05-.93.1-1.38.09-1,.22-1.94.4-2.88l.09-.47c0-.12,0-.23.07-.34A9.15,9.15,0,0,1,51,11.9a3.06,3.06,0,0,1,2.77-1.06h.33a14.09,14.09,0,0,1,5.82,2c4.8,2.54,8.87,6.28,12.22,9.6A121.58,121.58,0,0,1,85.23,37.78c1.72,2.4,3.71,5.17,5.7,8a99,99,0,0,0-11.55,4.06,73.84,73.84,0,0,0-12.55,6.8,68.5,68.5,0,0,0-9.12,7c-.17-.44-.33-.89-.49-1.33s-.38-1.08-.57-1.64ZM115.69,42.2c0,.07,0,.14,0,.21l-.21,0ZM74.07,95.29l3.66,1.07c-1,1-2,2-3,3C74.52,98,74.29,96.63,74.07,95.29Zm-11.56,6c-.28-.16-.57-.31-.86-.46l.68-.61Zm19-16.76-3-.87,2.35-2.45Zm14-9.09q-1.27,1.62-2.52,3.15c-.25-1.18-.49-2.37-.73-3.58Zm15-21.22.81.11-.62.83Zm22.88-27c.63-.36,1.25-.69,1.87-1,0,.52.07,1,.1,1.57Zm-35.91,36,1.75-2,.45,2.26Z"/>
          <path class="cls-1" d="M118,108a19.27,19.27,0,0,0-1-3.81c-7.23,1.9-14.56,3.37-22,4.57-.42.87-.81,1.76-1.16,2.68s-.67,1.82-1,2.74c1.56-.24,3.15-.5,4.78-.77,2.77-.47,5.64-1,8.58-1.59,3.86-.78,7.84-1.69,11.87-2.76C118.11,108.72,118.06,108.37,118,108Z"/>
          <path class="cls-1" d="M174.87,42.17a84.37,84.37,0,0,0-3.69-9.67q-2.81-6.27-6-12.35a14.47,14.47,0,0,0-8.23-6.91,31.15,31.15,0,0,0-17.29-1.18c-6.5,1.39-12,4.78-17.24,8.69a102.35,102.35,0,0,0-13.9,12.91c-2.28,2.46-4.5,5-6.79,7.54-1.19-1.62-2.33-3.14-3.43-4.68A154.44,154.44,0,0,0,80.05,15.2a70.75,70.75,0,0,0-15.75-12A27.9,27.9,0,0,0,56.39.3C50-.94,44.7,1.69,42.1,7.68a31.06,31.06,0,0,0-2,6.67,59.37,59.37,0,0,0,0,18.72c2.2,16.56,7.52,32.2,14,47.47,1,2.35,2,4.68,3.17,7.28-1.62-.28-3-.44-4.24-.76q-7.48-1.89-15-3.88a57.79,57.79,0,0,0-13.3-2.34A18.38,18.38,0,0,0,13.17,84.5,37.49,37.49,0,0,0,1.94,98.29,18.86,18.86,0,0,0,.32,110.24,31.37,31.37,0,0,0,4.42,121a24.4,24.4,0,0,0,15.15,11.37,32.7,32.7,0,0,0,12.07.89,42.12,42.12,0,0,0,5.5-.93c1.21-.29,2.4-.6,3.58-1a77.33,77.33,0,0,0,10.89-4.2,115.44,115.44,0,0,0,10.6-5.74q1.89-1.14,3.74-2.33c.21-.13.42-.26.62-.4,2.65-1.69,5.25-3.48,7.84-5.26a91.23,91.23,0,0,0,9.33-8.35,9.43,9.43,0,0,1,4.5,3.91c.14.23.28.47.4.7,2.15-.3,4.3-.63,6.43-1,7.41-1.2,14.74-2.67,22-4.57a155.27,155.27,0,0,0,20.44-6.86,81.41,81.41,0,0,0,22.11-13.15c7-6,12.19-13.26,14.75-22.22C176.22,55.43,176.9,48.8,174.87,42.17ZM149.6,18.3c2.82.08,5.44.81,7.36,3a12.91,12.91,0,0,1,2.78,4.61,65.88,65.88,0,0,0,3,6.94l-.26.21-17-14.5A10.24,10.24,0,0,1,149.6,18.3Zm-7.13.84,15.41,13.14c-2.74.14-5.09.11-7.4.4s-4.63.91-7,1.4C143,33.13,142.2,22.2,142.47,19.14Zm-2.72.2c.09.82.22,1.62.27,2.43.26,4.18.5,8.36.75,12.65a4.41,4.41,0,0,1-.84-.05l-16-4.73c-.51-.15-1-.39-1.56-.61C127.82,24.19,134.07,20.56,139.75,19.34Zm-1.46,17c-2.52,1.72-4.9,3.25-7.16,4.93s-4.36,3.46-6.71,5.34a7.43,7.43,0,0,1-.67-1.6c-.88-4.44-1.71-8.89-2.62-13.71Zm-19.57-4.21c1.21,5.66,2.25,10.79,3.2,16.16L105.6,46.15A139.32,139.32,0,0,1,118.72,32.11Zm1.8,18.38L108.38,66.56l-.5-.06c-1.21-6-2.41-11.94-3.66-18.14ZM80.07,101.12,79,102.21s0,0,0,0c-.24.24-.49.47-.74.7l-.76.72c-.51.47-1,1-1.55,1.4l-.78.68a0,0,0,0,1,0,0h0l-1.13,1-.6.49-.55.45-.29.22,0,0h0l-1.13.86c-1.35-7-2.43-13.65-3.56-20.48,6.37,1.84,12.54,3.64,19.07,5.54l-1.82,2L84,97,82.61,98.5,81.17,100C80.8,100.38,80.44,100.76,80.07,101.12ZM65.62,89.76c1.19,6.94,2.32,13.55,3.53,20.59-3.41-1.74-6.68-3.41-9.94-5.13l-1.58-.84-2.17-1.17c-.53-.28-1.05-.57-1.57-.86l-1.12-.62A93.33,93.33,0,0,0,65.62,89.76Zm-4.24-4.84c-1.28-2.75-2.38-5-3.38-7.29a1.53,1.53,0,0,1,.09-1.33c1-1.1,1.71-2.58,3.21-3.2l0-.36v.37c.07,2.91.14,5.82.18,8.73C61.51,82.71,61.43,83.59,61.38,84.92ZM72,76c-2.52,3.26-5.3,6.18-8.33,9.42,0-4.83,0-9.16,0-13.83Zm-7.26-6.4a57.27,57.27,0,0,1,10.85-7.72c-.12,1.63-.22,3-.33,4.39-.16,2-.29,4-.51,6.07-.17,1.5-1,2-2.3,1.32C69.88,72.36,67.37,71,64.74,69.58Zm4.42,16.59L83.9,70.85c1.42,7.09,2.76,13.76,4.18,20.82C81.62,89.78,75.52,88,69.16,86.17ZM82.29,64l-4.71,5.61-.41-.19c.21-2.43.42-4.86.66-7.62Zm-3.43-3.86c3-1.45,5.58-3.1,8.94-3.84-.67,2.73-2.59,4.22-4.29,6Zm7.27,9,18.69,2.46c-4.67,6.27-9.34,12.14-14.44,17.87C88.73,82.76,87.35,76.06,86.13,69.15ZM98.78,87.7a.89.89,0,0,1,.52-.33c2.07-.34,3.69-1.74,5.6-2.39a74.27,74.27,0,0,0,12.3-6A44.28,44.28,0,0,0,126,73,21,21,0,0,0,128,70.83c.63-.77,1.29-1,2.38-.24a13.17,13.17,0,0,1-1.4,2,39.55,39.55,0,0,1-3.59,3.14c-2.21,1.69-4.5,3.28-6.75,4.9A6,6,0,0,1,118,81c-3.43,1.93-6.81,4-10.3,5.77-2.92,1.52-6,2.83-9,4.18A35.74,35.74,0,0,1,95.37,92C96.58,90.49,97.67,89.09,98.78,87.7Zm3.38-37.4c1.32,6.58,2.55,12.7,3.81,19L87.52,67ZM56.72,72a8.05,8.05,0,0,1-.84.72c-1.2-3.06-2.38-5.84-3.38-8.68-1.4-4-2.76-8-4-12A111.39,111.39,0,0,1,43.44,24.6a38.67,38.67,0,0,1,.79-9.66A14.3,14.3,0,0,1,47.16,8.7a8.22,8.22,0,0,1,7.13-2.86,18.44,18.44,0,0,1,8,2.54,57.89,57.89,0,0,1,13.4,10.47,126.88,126.88,0,0,1,13.62,16c2.21,3.08,4.42,6.17,6.58,9.28a20.41,20.41,0,0,1,1.24,2.35c-.93,1.09-1.84,2.23-2.85,3.3a2.79,2.79,0,0,1-1.29.66,93.49,93.49,0,0,0-11.73,4.07,66.86,66.86,0,0,0-11.68,6.35A57.33,57.33,0,0,0,56.72,72Zm-38.89,19c4-3.12,8.38-5.14,13.57-4.8a48,48,0,0,1,5.85.75c4.7.91,9.37,2,14.06,2.87,2.14.42,4.31.65,7.06,1-3.55,2.68-6.62,5.25-9.94,7.45a66.76,66.76,0,0,1-9.37,5.25c-4.64,2.1-9.55,3.42-14.73,2.42-5.42-1.05-9.64-3.75-11.85-9.17A20.64,20.64,0,0,1,17.83,91.05ZM9.18,105.2c2.33,6.15,4.55,12,6.8,18C10.45,119.59,7.66,111.45,9.18,105.2Zm9.51,18.3c-2.19-5.65-4.27-11-6.35-16.42a27.41,27.41,0,0,0,14.6,5.07Zm21.39,2a4.56,4.56,0,0,1-.52.18l-.61.21-.63.18-.62.17-.61.15c-.42.1-.83.18-1.25.26l-.51.09-.32,0-.37.06h0l-.62.09-.91.1c-1.17.13-2.34.19-3.51.23-4,.11-7.38-.55-8.95-1.67a3.22,3.22,0,0,1,.25-.53l9.36-13L42,124.7C41.34,125,40.71,125.24,40.08,125.46ZM44,122.71l-6.12-6.59-.92-1-3.48-3.76c1.7-.53,3.39-1.06,5-1.67l.84-.31c.57-.22,1.13-.44,1.7-.68l.51-.22a37.56,37.56,0,0,0,3.37-1.66l.41-.24c.27-.15.55-.31.82-.48a3,3,0,0,0,.38-.24c.83-.52,1.65-1.09,2.45-1.71l-.42,1.58c-.15.53-.29,1.05-.43,1.57L45,118.82C44.67,120.1,44.32,121.4,44,122.71Zm18.64-7.87c-5,2.65-10,5.22-15,7.82-.29.15-.61.25-1.26.51,1.79-6.63,3.49-13,5.24-19.46L67,112C65.35,113.05,64,114.07,62.61,114.84ZM166.14,62.1c-3,7.66-8.18,13.69-14.61,18.66-2.49,1.93-5.24,3.53-7.91,5.21A49.88,49.88,0,0,1,138,89.21c-4,1.8-8.15,3.44-12.26,5.08-.7.28-1.41.55-2.12.8l-1.45.54-.2.07-1.12.39-1.62.54-1.76.56-.21.06c-.56.18-1.12.35-1.69.51l-.65.2-.66.19-.09,0c-.54.16-1.07.31-1.61.45l-1.34.36L111,99l-1,.26-.47.12-1.52.39c-2.54.63-5.1,1.22-7.66,1.78l-.36.08c-1.28.28-2.57.55-3.86.81-2,.4-4,.77-5.94,1.15l-1.81.34c-1.29.24-2.59.48-3.88.74a1.24,1.24,0,0,0-.1-.2l-.09-.16c1.65-1.79,3.27-3.6,5-5.36l0,0a3.33,3.33,0,0,1,1.24-.75c2.63-1,5.36-1.68,7.9-2.85,5.56-2.57,11.16-5.13,16.51-8.09a81.28,81.28,0,0,0,15.53-10.77,15.94,15.94,0,0,0,4-4.84,14.94,14.94,0,0,0,.67-1.54,3.57,3.57,0,0,0-2.31-4.7,12.09,12.09,0,0,0-7.07-.16,53.78,53.78,0,0,0-10.41,3.28c-.62.28-1.31.42-2.35.75,1.6-2.3,2.92-4.32,4.36-6.24,4.12-5.5,8.33-10.92,13.79-15.22a51,51,0,0,1,14-8.11,28.71,28.71,0,0,1,14-1.91,16.59,16.59,0,0,1,6,1.81,2.1,2.1,0,0,1,1,1c.85,2.81,1.92,5.55,2.19,8.52A28.34,28.34,0,0,1,166.14,62.1Z"/>
          <path class="cls-2" d="M84.25,104.35c1.65-1.8,3.29-3.62,5-5.4a3.33,3.33,0,0,1,1.24-.75c2.63-1,5.36-1.68,7.9-2.85,5.57-2.56,11.15-5.13,16.51-8.09a80.52,80.52,0,0,0,15.53-10.77,15.94,15.94,0,0,0,4-4.84,14.94,14.94,0,0,0,.67-1.54,3.57,3.57,0,0,0-2.31-4.7,12.06,12.06,0,0,0-7.06-.16,53.66,53.66,0,0,0-10.42,3.28c-.62.28-1.31.42-2.35.75,1.6-2.3,2.92-4.32,4.36-6.24,4.12-5.5,8.33-10.92,13.79-15.21a50.82,50.82,0,0,1,14-8.12,28.71,28.71,0,0,1,14-1.91,16.73,16.73,0,0,1,6,1.81,2.1,2.1,0,0,1,1,1c.85,2.81,1.92,5.55,2.19,8.52a28.34,28.34,0,0,1-2.14,13c-3,7.66-8.18,13.69-14.61,18.66a94.54,94.54,0,0,1-7.91,5.2,47.81,47.81,0,0,1-5.68,3.25c-4,1.8-8.14,3.44-12.25,5.08a165.14,165.14,0,0,1-25.4,7.3c-5.26,1.17-10.56,2.09-15.85,3.11ZM149,79.15l.35.42a15.28,15.28,0,0,0,4.41-3.67,7.09,7.09,0,0,0,.88-1.89,2,2,0,0,0-.83-2.44ZM146.78,71l-2.95,6.39c2.11-1.12,3.61-2.62,3.86-3.81A2.24,2.24,0,0,0,146.78,71Zm-4.7.36a10.43,10.43,0,0,0-2.47,4.48C142.25,74.69,142.84,73.72,142.08,71.39Z"/>
          <path class="cls-2" d="M55.88,72.72c-1.2-3.06-2.38-5.84-3.38-8.68-1.4-4-2.76-8-4-12-2.68-9-4.72-18.06-5.09-27.45a38.2,38.2,0,0,1,.79-9.66A14.14,14.14,0,0,1,47.16,8.7a8.23,8.23,0,0,1,7.13-2.87,18.51,18.51,0,0,1,8,2.55A57.73,57.73,0,0,1,75.68,18.85a126.06,126.06,0,0,1,13.62,16c2.21,3.08,4.42,6.17,6.58,9.28a20.41,20.41,0,0,1,1.24,2.35c-.93,1.09-1.84,2.23-2.85,3.3a2.79,2.79,0,0,1-1.29.66,93.49,93.49,0,0,0-11.73,4.07,66.86,66.86,0,0,0-11.68,6.35A57.11,57.11,0,0,0,56.72,72,8.05,8.05,0,0,1,55.88,72.72ZM53.67,56.51c2.84-1.39,5.17-3.11,5.83-4.32-2.74-.39-4.93,1.25-5.79,4.34l-.07.18Zm9.86,4.58a4.75,4.75,0,0,0-4,1,6.76,6.76,0,0,0-2.27,4.58ZM55.16,62c2.12-1.83,4.36-3.26,6.34-5.33C58.24,56.37,55.93,58.37,55.16,62ZM57,44.21c-2.8-1-4.88.29-6.24,3.86Zm1.08,4.15a4.12,4.12,0,0,0-5.68,3.29Zm-2.43-8.23c-2.75-.89-4.88.47-5.54,3.48ZM48,34.72l5.34-3.35C51.11,30.46,49.35,31.46,48,34.72Zm1,4.74L54.5,36C52.44,34.85,50.53,36,49,39.46ZM52.2,27.55c-2.49-1-4.22.11-5.06,2.92Zm-1.25-4a3.23,3.23,0,0,0-4.47,2.89Zm-5-.91L50.33,20C48.18,19.15,46.72,20.05,45.92,22.62Zm3.69-6.13c-2.15-.66-3.21.05-3.77,2Z"/>
          <path class="cls-2" d="M58.37,90.92c-3.55,2.68-6.62,5.25-9.94,7.45a67.21,67.21,0,0,1-9.37,5.25c-4.64,2.1-9.55,3.42-14.73,2.42-5.42-1.05-9.64-3.75-11.85-9.17a20.64,20.64,0,0,1,5.35-5.82c4-3.12,8.38-5.14,13.57-4.8a48,48,0,0,1,5.85.75c4.7.91,9.37,2,14.06,2.88C53.45,90.29,55.62,90.52,58.37,90.92Z"/>
          <path class="cls-3" d="M86.89,93.8c-4.87,5.47-9.59,10.51-15.5,14.94C70,101.74,69,95.1,67.82,88.26Z"/>
          <path class="cls-3" d="M90.38,89.48c-1.65-6.72-3-13.42-4.25-20.33l18.69,2.46C100.14,77.88,95.47,83.75,90.38,89.48Z"/>
          <path class="cls-4" d="M84.7,70.85c1.43,7.1,2.76,13.76,4.18,20.82L70,86.16Z"/>
          <path class="cls-3" d="M46.35,123.17c1.79-6.63,3.5-13,5.24-19.46L67,112c-1.62,1.07-2.93,2.09-4.36,2.86-5,2.65-10,5.22-15,7.82C47.32,122.81,47,122.91,46.35,123.17Z"/>
          <path class="cls-3" d="M30.22,112.07,42,124.7a31.41,31.41,0,0,1-12.4,2.53c-4,.11-7.38-.55-8.95-1.67a3.65,3.65,0,0,1,.25-.53Z"/>
          <path class="cls-4" d="M103,50.3l3.82,19L88.32,67Z"/>
          <path class="cls-4" d="M123.19,29c5.43-4.84,11.68-8.48,17.36-9.69.09.82.22,1.62.27,2.44.26,4.17.5,8.35.75,12.64a4.25,4.25,0,0,1-.83-.05l-16-4.73C124.24,29.48,123.76,29.25,123.19,29Z"/>
          <path class="cls-4" d="M70,110.35c-5.66-2.88-10.92-5.58-16.39-8.61a93.52,93.52,0,0,0,12.86-12C67.61,96.71,68.74,103.31,70,110.35Z"/>
          <path class="cls-3" d="M107.88,66.51c-1.2-6-2.41-12-3.66-18.15l16.3,2.12L108.38,66.56Z"/>
          <path class="cls-4" d="M119.52,32.11c1.21,5.66,2.26,10.8,3.2,16.16L106.4,46.14A140.31,140.31,0,0,1,119.52,32.11Z"/>
          <path class="cls-3" d="M121.13,31.28l17.16,5c-2.52,1.73-4.9,3.26-7.16,4.94s-4.36,3.46-6.71,5.34a8,8,0,0,1-.68-1.6C122.87,40.55,122,36.11,121.13,31.28Z"/>
          <path class="cls-4" d="M44.77,122.71,34.25,111.38c5.44-1.7,10.7-3.49,15.52-7.22C48.06,110.52,46.47,116.4,44.77,122.71Z"/>
          <path class="cls-3" d="M142.47,19.14l15.41,13.14c-2.74.14-5.09.11-7.4.4s-4.63.91-7,1.4C143,33.13,142.2,22.2,142.47,19.14Z"/>
          <path class="cls-4" d="M13.14,107.08a27.44,27.44,0,0,0,14.6,5.07L19.49,123.5C17.3,117.85,15.22,112.47,13.14,107.08Z"/>
          <path class="cls-5" d="M95.37,92c1.21-1.55,2.3-3,3.41-4.34a.89.89,0,0,1,.52-.33c2.07-.34,3.69-1.73,5.6-2.39a75.06,75.06,0,0,0,12.3-6A44.28,44.28,0,0,0,126,73,21,21,0,0,0,128,70.83c.63-.77,1.29-1,2.38-.24a13.17,13.17,0,0,1-1.4,2,38.34,38.34,0,0,1-3.59,3.15c-2.21,1.68-4.49,3.27-6.75,4.89A6,6,0,0,1,118,81c-3.43,1.93-6.81,4-10.3,5.77-2.92,1.52-6,2.83-9,4.18C97.76,91.36,96.67,91.62,95.37,92Z"/>
          <path class="cls-4" d="M162.46,33.09l-17-14.5a10.2,10.2,0,0,1,4.14-.29c2.83.08,5.45.81,7.37,3a12.91,12.91,0,0,1,2.78,4.61,65,65,0,0,0,3,6.94Z"/>
          <path class="cls-4" d="M64.73,69.58a57.66,57.66,0,0,1,10.86-7.72c-.12,1.63-.22,3-.33,4.39-.16,2-.29,4-.51,6.07-.17,1.5-1,2-2.3,1.32C69.88,72.36,67.37,71,64.73,69.58Z"/>
          <path class="cls-3" d="M63.67,85.4c0-4.83,0-9.16,0-13.83L72,76C69.48,79.24,66.7,82.16,63.67,85.4Z"/>
          <path class="cls-3" d="M9.18,105.2c2.33,6.15,4.55,12,6.8,18C10.45,119.59,7.66,111.45,9.18,105.2Z"/>
          <path class="cls-4" d="M61.32,73.11c.07,2.91.14,5.82.18,8.73,0,.87-.06,1.75-.12,3.08-1.29-2.75-2.37-5-3.38-7.29a1.5,1.5,0,0,1,.09-1.33c1-1.1,1.7-2.58,3.21-3.2Z"/>
          <path class="cls-4" d="M83.51,62.35l-4.65-2.19c3-1.45,5.58-3.1,8.94-3.84C87.14,59.05,85.21,60.53,83.51,62.35Z"/>
          <path class="cls-3" d="M77.17,69.44l.66-7.62L82.29,64l-4.71,5.61Z"/>
          <path class="cls-6" d="M61.3,73.1l0-.36v.37Z"/>
          <path class="cls-7" d="M149,79.15l4.81-7.58a2,2,0,0,1,.83,2.44,7.09,7.09,0,0,1-.88,1.89,15.28,15.28,0,0,1-4.41,3.67Z"/>
          <path class="cls-8" d="M146.78,71a2.24,2.24,0,0,1,.91,2.58c-.25,1.19-1.75,2.69-3.86,3.81Z"/>
          <path class="cls-9" d="M142.08,71.39c.76,2.33.17,3.3-2.47,4.48A10.43,10.43,0,0,1,142.08,71.39Z"/>
          <path class="cls-10" d="M63.53,61.09l-6.24,5.63a6.76,6.76,0,0,1,2.27-4.58A4.75,4.75,0,0,1,63.53,61.09Z"/>
          <path class="cls-11" d="M55.16,62c.77-3.59,3.08-5.59,6.34-5.33C59.52,58.7,57.28,60.13,55.16,62Z"/>
          <path class="cls-12" d="M53.71,56.53c.86-3.09,3-4.73,5.79-4.34-.66,1.21-3,2.93-5.83,4.32Z"/>
          <path class="cls-13" d="M57,44.21l-6.24,3.86C52.09,44.5,54.17,43.2,57,44.21Z"/>
          <path class="cls-9" d="M58.05,48.36l-5.68,3.29A4.12,4.12,0,0,1,58.05,48.36Z"/>
          <path class="cls-10" d="M55.62,40.13l-5.54,3.48C50.74,40.6,52.87,39.24,55.62,40.13Z"/>
          <path class="cls-11" d="M48,34.72c1.36-3.26,3.12-4.26,5.34-3.35Z"/>
          <path class="cls-11" d="M49,39.46C50.53,36,52.44,34.85,54.5,36Z"/>
          <path class="cls-14" d="M52.2,27.55l-5.06,2.92C48,27.66,49.71,26.56,52.2,27.55Z"/>
          <path class="cls-14" d="M51,23.53l-4.47,2.89A3.23,3.23,0,0,1,51,23.53Z"/>
          <path class="cls-10" d="M45.92,22.62c.8-2.57,2.26-3.47,4.41-2.66Z"/>
          <path class="cls-14" d="M49.61,16.49l-3.77,2C46.4,16.54,47.46,15.83,49.61,16.49Z"/>
          <path class="cls-12" d="M53.67,56.51l0,.2.07-.18Z"/>
        </g>
        <g>
          <path class="cls-15" d="M120.41,184.38a17.9,17.9,0,0,1-7.62-1.68l-.21-.09-.19-.11c-4.72-2.66-7.65-7.58-8.73-14.61v-.1a95.43,95.43,0,0,1-.79-15.68c.12-4.53.39-9.18.78-13.8.28-3.73.49-7.53.62-11.24.07-1.59.1-3.11.11-4.54-.25.79-.48,1.58-.69,2.39l0,0A159,159,0,0,0,98,166.27a11.82,11.82,0,0,1-.27,2.91,7.55,7.55,0,0,1-2.9,4.57,7.71,7.71,0,0,1-3.62,1.56l-.37.05H90.5a14.67,14.67,0,0,1-1.62.1,13.89,13.89,0,0,1-3.92-.58c-5-1.43-8.19-5.29-9-10.86a25.86,25.86,0,0,1-.23-5.92l.78-27.55c-.89,2.67-1.66,5.4-2.29,8.17l0,.05a171.3,171.3,0,0,0-4.62,35.49c.07,5.78-3.34,8-4.82,8.66l-.43.2-1.21.32-.31.05a10.7,10.7,0,0,1-1.5.11h-.5l-.22,0c-3.86-.13-7-1.2-9.17-3.17l-.1-.09-.09-.09a11.61,11.61,0,0,1-3.34-6.81,19.47,19.47,0,0,1-.09-5.29c.68-10.92,1.17-22,1.47-32.93l.09-3.5,3.21-1.4a98.46,98.46,0,0,0,10-5.12l.54-.31.92-.54c1.63-1,3.34-2,5.38-3.33l6.23-4,0-.16,3.25-2.21.93-.64.09-.06a6.23,6.23,0,0,1,1.84-.81l1.72-1.1-.34.9c2.27-.22,4.56-.52,6.51-.79l2.29-.32.25,0c.39-1,.81-2,1.26-2.88a35.77,35.77,0,0,1,5.74-8.39l.26-.28a17.64,17.64,0,0,1,10.1-5.65,14.4,14.4,0,0,1,2.14-.16,12.41,12.41,0,0,1,2.13.18l.53.09.25.07a16.44,16.44,0,0,1,4,1.67,16,16,0,0,1,6.88,8.36,24.73,24.73,0,0,1,1.27,4.95c.06.39.12.8.17,1.2v0a38.14,38.14,0,0,1,.27,4.79c0,7.26-.23,14.66-.83,22-.42,5.41-.71,10.93-.84,16.4a96.34,96.34,0,0,0,.89,15.67,6.92,6.92,0,0,1,4.45,5.41,7.34,7.34,0,0,1-.56,4.09l0,0a8.19,8.19,0,0,1-6.65,4.76l-.12,0-1.19.13c-.62.06-1.26.09-1.88.09Z"/>
          <path class="cls-1" d="M74.3,111.7a84,84,0,0,0,8.76-7.85l2.62-2.68,3.45,1.45a14.51,14.51,0,0,1,1.81.9l.14.08a15.38,15.38,0,0,1,5.13,5.14c.2.33.39.66.56,1l3.67,6.9-7.73,1.14-2.29.32c-2.13.3-4.64.63-7.18.86h-.07s0,0-.07.05l-2.3,1.58Z"/>
          <path class="cls-15" d="M141.11,166.8l-.73,0h-.19a18.35,18.35,0,0,1-10.39-4.12,23.27,23.27,0,0,1-8.49-15.25,35,35,0,0,1,.31-12.15,34.59,34.59,0,0,1,4.71-13.1l0-.07a21.85,21.85,0,0,1,12.31-9.52l.14,0a17.75,17.75,0,0,1,2.09-.45,15.67,15.67,0,0,1,2.34-.18A12,12,0,0,1,148.5,113a12.25,12.25,0,0,1,5.22,4.71,15.78,15.78,0,0,1,2.13,5.94,18.17,18.17,0,0,1,0,5.46,7.3,7.3,0,0,1,3.72-1.73l.12,0h.12a5.64,5.64,0,0,1,.82-.05,7.14,7.14,0,0,1,6.12,3.42A7.59,7.59,0,0,1,168,133.9c.34,2.2-.15,5-3.64,12.88a66.93,66.93,0,0,1-3.25,6.51,28.14,28.14,0,0,1-10.22,10.81,19.89,19.89,0,0,1-7,2.49A17.86,17.86,0,0,1,141.11,166.8Zm2.09-20.14a11.38,11.38,0,0,0,.82,2.68,4.3,4.3,0,0,0,1.21-1l.1-.11a24.89,24.89,0,0,0,4.4-6.29c.34-.7.66-1.4,1-2.11a29.66,29.66,0,0,1-2.76,2.85C146.43,144.1,144.84,145.42,143.2,146.66Z"/>
          <path class="cls-15" d="M170.49,162.64a7.12,7.12,0,0,1-4.86-2,8,8,0,0,1-2.42-4.63l0-.22,0-.22a11.39,11.39,0,0,1,.55-4.36l2-6.69c1.05-3.3,1.55-5.1,1.78-6.05a7.42,7.42,0,0,1-5.28,3.63,7.2,7.2,0,0,1-1.14.09,7.64,7.64,0,0,1-7.46-6.42,10.93,10.93,0,0,1,.68-5.23l.2-.67c.76-3.21,1.45-6.51,2.06-9.81l0-.09,0-.1a8.66,8.66,0,0,0,.28-2.42l-.18-.9,0-.13c-.49-3.24,1-7.29,6.42-9a18.8,18.8,0,0,1,3.74-1,12.19,12.19,0,0,1,1.71-.13,11.6,11.6,0,0,1,2.55.29l.17,0a11.26,11.26,0,0,1,6.43,4.47l.14.19a12.05,12.05,0,0,1,1.5-2.6,7.88,7.88,0,0,1,4.3-2.81l.28-.08.29,0a7.65,7.65,0,0,1,1.16-.09,7.84,7.84,0,0,1,5.8,2.64,9.88,9.88,0,0,1,2.53,5.24,11.66,11.66,0,0,1-.44,5.34,24.54,24.54,0,0,1-1.41,3.45l-4.32,9.25c.83,1.79,1.72,3.55,2.66,5.26l.3.54a71.4,71.4,0,0,0,2.48-8.47,12.3,12.3,0,0,1,1.26-3.72,7.69,7.69,0,0,1,5.67-4,8.29,8.29,0,0,1,1.11-.08,7.11,7.11,0,0,1,4.79,1.86,7.8,7.8,0,0,1,2.44,4.64l0,.2V128a11,11,0,0,1-.63,4.61l-3.15,10.92a34.76,34.76,0,0,1-3.82,9.26,14.55,14.55,0,0,1-9.74,6.82l-.15,0-.15,0a14,14,0,0,1-2,.15,13.58,13.58,0,0,1-5.14-1,17.09,17.09,0,0,1-5.11-3.23,14.36,14.36,0,0,1-1.05,2.81,7.6,7.6,0,0,1-6.8,4.27Z"/>
          <path class="cls-15" d="M206.68,156.81a14.21,14.21,0,0,1-6.53-1.59l-.15-.08-.14-.08a14.78,14.78,0,0,1-6.43-7.74,24.3,24.3,0,0,1-1.22-4.76c-.16-1-.29-2.09-.37-3.13v-.15a93.39,93.39,0,0,1,0-11.47c.24-3.64.56-7.33,1-11v-.11l0-.1a21.49,21.49,0,0,0,.22-2.24,7.64,7.64,0,0,0-.07-1.59l-.23-1.51a8.1,8.1,0,0,1,1-5.58,6.9,6.9,0,0,1,.63-.87c-.12-.25-.23-.51-.33-.77a9.28,9.28,0,0,1-.52-2,8.22,8.22,0,0,1,1.34-5.9A9.48,9.48,0,0,1,199,92.81a11.76,11.76,0,0,1,3-1l.17,0a9.34,9.34,0,0,1,1.38-.1,8.94,8.94,0,0,1,5.24,1.71,10.56,10.56,0,0,1,3.51,4.25,8.52,8.52,0,0,1,.84,2.6,8.64,8.64,0,0,1-.61,4.65l-.06.12-.06.13a8.09,8.09,0,0,1-.83,1.35l.26.3.19.27a11.69,11.69,0,0,1,1.9,4.85,17.44,17.44,0,0,1,0,5.05l-.39,4.46-.12,1.16a9.21,9.21,0,0,1,1.78-2.46l.24-.24.26-.2a7.33,7.33,0,0,1,3.38-1.44,6.92,6.92,0,0,1,1.11-.09,7.63,7.63,0,0,1,3.56.89,7.16,7.16,0,0,1,3.61,4.37l.21.73.05.34a8.69,8.69,0,0,1-.44,4.37A134.14,134.14,0,0,1,221.51,146a20,20,0,0,1-4.73,7.21l-.23.22-.25.19a14.9,14.9,0,0,1-6.89,3l-.88.13h-.09A15,15,0,0,1,206.68,156.81Z"/>
          <path class="cls-15" d="M230.39,153.53a19.71,19.71,0,0,1-2.16-.13h-.1l-.11,0a17.88,17.88,0,0,1-9.87-4.86,23.22,23.22,0,0,1-7-13.76,33.34,33.34,0,0,1-.31-6.86,43.06,43.06,0,0,1,.85-6.42,36.39,36.39,0,0,1,4.05-11.78,22.63,22.63,0,0,1,9.95-9.53l.09,0,.08,0a16.76,16.76,0,0,1,4.32-1.29,16.57,16.57,0,0,1,2.4-.18,12.93,12.93,0,0,1,7.35,2.18l.13.08.12.09a14.67,14.67,0,0,1,5.62,9.77,16.45,16.45,0,0,1-.16,5.9,6.2,6.2,0,0,1,.55-.6l.15-.16.17-.15a8.11,8.11,0,0,1,4.12-2,7.4,7.4,0,0,1,1-.08,6.61,6.61,0,0,1,3.52,1l.45.27.38.36a8.26,8.26,0,0,1,2.53,4.92,11,11,0,0,1-.26,4.61l0,.14-.05.14a68.27,68.27,0,0,1-6.52,13.79A36.33,36.33,0,0,1,243,149l-.15.12a21.3,21.3,0,0,1-9.73,4.18A18.22,18.22,0,0,1,230.39,153.53Zm2.46-27.16a35.58,35.58,0,0,0,0,4.62v.18a15.62,15.62,0,0,0,.19,2.17,13.12,13.12,0,0,0,.69,2.69,16.66,16.66,0,0,0,4.55-4.8,43.37,43.37,0,0,0,4.14-7.68,9.75,9.75,0,0,1-4.91,3.14l-.31.08-.3,0a7.68,7.68,0,0,1-1.17.09,7.87,7.87,0,0,1-2.78-.52Z"/>
          <path class="cls-15" d="M257.76,149.33a13.36,13.36,0,0,1-10.22-4.69l-.1-.12-.1-.11a20.8,20.8,0,0,1-4.07-8.71c-.27-1.09-.49-2.21-.66-3.35a45.55,45.55,0,0,1-.51-7.22c0-2.3.14-4.62.36-6.91a53.55,53.55,0,0,1,1.26-7.53,28.36,28.36,0,0,1,3.09-7.71A17.49,17.49,0,0,1,254,96l.13-.07.14-.07a16.44,16.44,0,0,1,4.32-1.3,18.79,18.79,0,0,1,2.74-.2,21,21,0,0,1,2.58.16l.13-.17.28-.36.34-.31a7.73,7.73,0,0,1,4.07-1.93,10,10,0,0,1,1.55-.12,10.66,10.66,0,0,1,1.38.09,26.55,26.55,0,0,1,3.91.62l.11,0,.11,0a10.6,10.6,0,0,1,7.82,9c.19,1.26.27,3.43-.43,10.61a8.7,8.7,0,0,1,2.16-2.6,7.22,7.22,0,0,1,4.79-1.81,7,7,0,0,1,6.45,4.39l.06.14a8.68,8.68,0,0,1,.57,2,9.34,9.34,0,0,1,0,2.89l0,.15,0,.15a106,106,0,0,1-5.8,17.85,21.63,21.63,0,0,1-4.47,7.12l-.19.19-.2.18a14.36,14.36,0,0,1-7.34,3.43,13.59,13.59,0,0,1-2.2.17,15.07,15.07,0,0,1-6.68-1.59l-.11-.05-.1-.05a15.65,15.65,0,0,1-1.94-1.25,17.53,17.53,0,0,1-2.48,2.83,12.37,12.37,0,0,1-6.58,3.15l-.52.07h-.74Z"/>
          <path class="cls-15" d="M291.44,144.05h-.64a9,9,0,0,1-6.45-3.23l-.14-.17-.13-.18a9.7,9.7,0,0,1-1.7-4.21,14.93,14.93,0,0,1-.15-2.83c.11-7.62.18-15.2.21-22.52l.11-15.17a6.91,6.91,0,0,1,2.19-5.49,7.74,7.74,0,0,1,4.14-1.89l.11,0h.12a20.34,20.34,0,0,1,2.17-.13,15.37,15.37,0,0,1,6.39,1.31,10.41,10.41,0,0,1,3.1,2.1,18.27,18.27,0,0,1,1.9-2,11.84,11.84,0,0,1,6.28-3,12.29,12.29,0,0,1,10,3l.19.16.18.18a15.46,15.46,0,0,1,4.19,8.93l0,.19,0,.19q.26,3.14.31,6.14a7.7,7.7,0,0,1,5.55-3.93l.3-.05h.65a7.42,7.42,0,0,1,7.35,6l0,.2,0,.2a10.94,10.94,0,0,1-.3,4.63c-.62,2.9-1.35,5.8-2.18,8.62a45.52,45.52,0,0,1-3.76,9.12c-3,5.59-7.06,8.82-12,9.57a13.46,13.46,0,0,1-2,.15,13.69,13.69,0,0,1-4.93-.94,13.34,13.34,0,0,1-5.62-4,15.89,15.89,0,0,1-1.89-2.86,21.44,21.44,0,0,1-.69,4c-1.1,4.17-4.36,7-9,7.67h-.11A30.34,30.34,0,0,1,291.44,144.05Z"/>
          <path class="cls-15" d="M339.65,137.24a15.67,15.67,0,0,1-7.42-1.86,18.42,18.42,0,0,1-6.05-5.18l-.07-.1L326,130a29.79,29.79,0,0,1-4.87-12.36l-.34-1.88v-.07a43,43,0,0,1,.57-16.86c1.83-7.8,5.77-13.13,11.7-15.83l.11,0,.1,0a17.05,17.05,0,0,1,3.91-1.08,16.16,16.16,0,0,1,2.49-.19,16.86,16.86,0,0,1,7.78,2l.27.14.25.17c4.54,3,7.65,7.86,9.25,14.39A7.92,7.92,0,0,1,361,96.62l.49-.07,2,0,.89.35a7.9,7.9,0,0,1,5,6.38l.08.48,0,.49a12.22,12.22,0,0,1-1.05,4.62c-2.4,6.09-5.47,10.33-9.39,13a15.34,15.34,0,0,1-2.74,1.46,28.51,28.51,0,0,1-3.75,7.09l-.06.08-.07.09a18.53,18.53,0,0,1-4.46,4.1,15.19,15.19,0,0,1-6.13,2.36l-.9.14h-.27Z"/>
          <path class="cls-15" d="M385.29,134.13c-1.5,0-3-.06-4.54-.17a48.42,48.42,0,0,1-13.13-2.86l-.14,0a15.39,15.39,0,0,1-6.53-4.9,15.8,15.8,0,0,1-3.22-7.48c-.2-1.28-.74-4.84,1.19-7.6a7.11,7.11,0,0,1-1.73-1,7.34,7.34,0,0,1-2.76-4.72,7.68,7.68,0,0,1,.26-3.45c1.08-4.08,2.37-8.17,3.82-12.15a34.38,34.38,0,0,1,3.16-6.5,15.86,15.86,0,0,1,6.44-5.8,17.59,17.59,0,0,1,5.59-1.84,17.38,17.38,0,0,1,2.59-.2,17.69,17.69,0,0,1,7.18,1.55l.08,0,.08,0a8,8,0,0,1,3.9,3.87,17.61,17.61,0,0,1,3.24-4.3,22,22,0,0,1,7.56-4.67l.07,0a28.84,28.84,0,0,1,5.65-1.49,23.84,23.84,0,0,1,3.63-.28,19.85,19.85,0,0,1,8.44,1.82,21.25,21.25,0,0,1,8.75,7.62,27.62,27.62,0,0,1,4.22,11.3,36,36,0,0,1,0,10.47A39.68,39.68,0,0,1,426,112l-.05.1,0,.09a33.63,33.63,0,0,1-11.12,13.23,44.42,44.42,0,0,1-12.55,6.14,56.05,56.05,0,0,1-8.33,1.93A57.2,57.2,0,0,1,385.29,134.13Zm-4.47-42.56a9.77,9.77,0,0,0,.93,2.68,31.1,31.1,0,0,0,2.2,3.38l.07.09a63.89,63.89,0,0,1,4.11,6.43,23.19,23.19,0,0,1,2.63,7.65,17.84,17.84,0,0,1-.13,6.19c5.53-.86,9.87-2.8,13.25-5.94,3.11-2.92,5.27-7.47,6.38-13.5a20.65,20.65,0,0,0,.19-6.89c-.49-3.26-1.7-3.94-2.1-4.16l-.09-.06a1,1,0,0,0-.24-.11l-.14.1a1.93,1.93,0,0,0-.56.69,4.82,4.82,0,0,0-.35,1.42,7.94,7.94,0,0,0,0,1.56c0,.18.06.32.08.43a6,6,0,0,1,1.1,2.68,6.24,6.24,0,0,1-4.49,7,14.72,14.72,0,0,1-2.24.52,15.8,15.8,0,0,1-2.35.18,12.68,12.68,0,0,1-5.4-1.16,13.29,13.29,0,0,1-5.36-4.48,14.17,14.17,0,0,1-2.43-6q-.06-.36-.09-.72a7.31,7.31,0,0,1-4,1.94A6.93,6.93,0,0,1,380.82,91.57Z"/>
          <path class="cls-3" d="M122.12,173.53c-.1-.65-.64-1.08-1.61-1.31a3.32,3.32,0,0,1-2.28-1.95,11,11,0,0,1-.56-2.17,101.66,101.66,0,0,1-1-16.63q.21-8.34.86-16.71.89-10.8.81-21.54a33.63,33.63,0,0,0-.23-4.15c0-.35-.09-.7-.14-1.06a19.27,19.27,0,0,0-1-3.81,10.57,10.57,0,0,0-4.53-5.58,10.85,10.85,0,0,0-2.68-1.1l-.29-.06a7.71,7.71,0,0,0-2.49,0,12.36,12.36,0,0,0-7,4l-.17.19a30.23,30.23,0,0,0-4.86,7.1c-.42.87-.81,1.76-1.16,2.68s-.67,1.82-1,2.74q-1.45,4.25-2.54,8.6c.07-1.39.13-2.79.16-4.21a26.4,26.4,0,0,0-.31-3.85l0-.13-3.13.44c-2.25.31-4.67.62-7.15.85a.66.66,0,0,0-.36.13l-.84.58a4.06,4.06,0,0,1,.15.71,11.24,11.24,0,0,1,.07,2.9l-1,35.62a20.77,20.77,0,0,0,.17,4.81q.78,5.15,5.15,6.41a8.16,8.16,0,0,0,3.57.25h.32a2.33,2.33,0,0,0,1.11-.5,2.09,2.09,0,0,0,.85-1.33,6.82,6.82,0,0,0,.14-1.68A163.94,163.94,0,0,1,95.08,121,55.62,55.62,0,0,1,97,115.17a18.06,18.06,0,0,1,.75-1.75,24.76,24.76,0,0,1,2.11-3.62,4.29,4.29,0,0,1,2.53-2l.09,0a2.64,2.64,0,0,1,1.79.39,4.81,4.81,0,0,1,2.06,3.63h0a94,94,0,0,1,.22,12.87c-.13,3.85-.35,7.68-.64,11.52q-.57,6.75-.76,13.5a90.23,90.23,0,0,0,.75,14.78q1.2,7.94,6,10.64a12.56,12.56,0,0,0,6.65,1.1l1-.11a2.89,2.89,0,0,0,2.44-1.54A1.93,1.93,0,0,0,122.12,173.53Zm-58.55-47c-.6,2.13-1.16,4.28-1.66,6.44l.15-5.55a106.74,106.74,0,0,1-10.58,5.39Q51,149.44,50,166.06a14.69,14.69,0,0,0,0,4,6.27,6.27,0,0,0,1.73,3.68q1.9,1.68,5.82,1.8h.19a4.76,4.76,0,0,0,.93,0l.45-.13c1.12-.51,1.65-1.73,1.61-3.67a176,176,0,0,1,4.78-36.76,89.84,89.84,0,0,1,3.57-11.85C67.35,124.21,65.5,125.37,63.57,126.51Z"/>
          <path class="cls-15" d="M88.64,109.75l-2.25.32c-2.3.32-4.6.62-6.91.83a5.58,5.58,0,0,0-2.74,1l-2.33,1.6a91.23,91.23,0,0,0,9.33-8.35,9.43,9.43,0,0,1,4.5,3.91C88.38,109.28,88.52,109.52,88.64,109.75Z"/>
          <path class="cls-3" d="M139.76,158.58A12,12,0,0,1,130,155.8,17.87,17.87,0,0,1,123.49,144a29.31,29.31,0,0,1,.3-10.38,29.1,29.1,0,0,1,4-11.18,16.42,16.42,0,0,1,9.29-7.19,10.71,10.71,0,0,1,1.4-.31,7.48,7.48,0,0,1,4.4.48,6.69,6.69,0,0,1,2.89,2.61,10.39,10.39,0,0,1,1.39,3.9,14,14,0,0,1-1.45,8.35,24.31,24.31,0,0,1-4.71,5.79,64.17,64.17,0,0,1-5.9,4.75,1.9,1.9,0,0,0-.74.72,8.48,8.48,0,0,0,.1,3.09,17.42,17.42,0,0,0,2.71,7,5.33,5.33,0,0,0,3.84.87,9.69,9.69,0,0,0,5-3,30,30,0,0,0,5.38-7.7,62.93,62.93,0,0,0,3.51-8.87c.53-1.65,1.27-2.54,2.22-2.69a1.7,1.7,0,0,1,1.73.91,2.35,2.35,0,0,1,.39,1Q159.56,134,156,142a62,62,0,0,1-3,6,22.66,22.66,0,0,1-8.2,8.76A14.35,14.35,0,0,1,139.76,158.58Zm-5.54-22.17a23.09,23.09,0,0,0,7.18-7.11,10.62,10.62,0,0,0,1.75-4.26,5.48,5.48,0,0,0-.06-1.59,6.45,6.45,0,0,0-.71-2.1,1.43,1.43,0,0,0-1.52-.85,2.64,2.64,0,0,0-1.82,1.31,21.92,21.92,0,0,0-4.1,9.79C134.62,133.21,134.38,134.82,134.22,136.41Z"/>
          <path class="cls-3" d="M186.52,151.65a8,8,0,0,1-4.26-.53,11.43,11.43,0,0,1-3.73-2.44,18.81,18.81,0,0,1-2.86-3.53c-.83-1.3-1.59-2.62-2.3-4a49.66,49.66,0,0,0-3.51,9.93,8.91,8.91,0,0,1-.77,2.21,2.1,2.1,0,0,1-1.62,1.21,1.55,1.55,0,0,1-1.34-.46,2.39,2.39,0,0,1-.74-1.43,5.9,5.9,0,0,1,.31-2.31l2-6.69q2.38-7.5,2.22-8.51-.1-.45-7.21-15.58l-2.54,11.66c-.36,1.78-1,2.75-2,2.9a2,2,0,0,1-1.52-.4,2,2,0,0,1-.81-1.31,6.32,6.32,0,0,1,.48-2.71l.28-.93q1.2-5.07,2.15-10.24A12.71,12.71,0,0,0,159,114l-.19-1c-.21-1.38.71-2.38,2.78-3a12.8,12.8,0,0,1,2.75-.75,6.15,6.15,0,0,1,2.22.08,5.69,5.69,0,0,1,3.31,2.32,18.77,18.77,0,0,1,2.08,3.77l2.9,6.7L179.58,111a6.58,6.58,0,0,1,.85-1.52,2.38,2.38,0,0,1,1.32-.83,2.26,2.26,0,0,1,2.08.83,4.36,4.36,0,0,1,1.13,2.34,6,6,0,0,1-.23,2.81,19.44,19.44,0,0,1-1.13,2.75l-4.74,10.17a3.17,3.17,0,0,0-.43,1.8,2.72,2.72,0,0,0,.39,1.07c1,2.23,2.08,4.4,3.25,6.53a32.34,32.34,0,0,0,4.14,5.87,3.73,3.73,0,0,0,1,.84,2.18,2.18,0,0,0,1.12.26c.86-.14,1.56-.88,2.1-2.25a77.1,77.1,0,0,0,4.69-14.24,7,7,0,0,1,.72-2.2,2.11,2.11,0,0,1,1.63-1.17,1.58,1.58,0,0,1,1.36.41,2.27,2.27,0,0,1,.7,1.39,5.31,5.31,0,0,1-.38,2.45l-3.22,11.21a29.23,29.23,0,0,1-3.22,7.86A9,9,0,0,1,186.52,151.65Z"/>
          <path class="cls-3" d="M205.31,148.55l-.78.12a8.76,8.76,0,0,1-5.12-.91,9.39,9.39,0,0,1-4.09-4.93,18.89,18.89,0,0,1-.93-3.66c-.14-.92-.25-1.84-.33-2.77a88.11,88.11,0,0,1,.05-10.78c.24-3.59.55-7.17.95-10.74.14-.93.23-1.85.28-2.77a12.77,12.77,0,0,0-.13-2.7l-.23-1.52c-.24-1.59.31-2.49,1.66-2.69a6.84,6.84,0,0,1,2.5.08l.39.09a6.63,6.63,0,0,1,4.67,2.29,6.12,6.12,0,0,1,1,2.57,11.62,11.62,0,0,1,0,3.58l-.39,4.52q-.87,8.16-1,16.31a18.44,18.44,0,0,0,.2,3.16,6.53,6.53,0,0,0,1,2.88,1.64,1.64,0,0,0,1.64.76,3.28,3.28,0,0,0,2.17-1.83A30.87,30.87,0,0,0,211.5,134q1-3,1.9-6c.42-1.53.88-3.06,1.37-4.58a3.92,3.92,0,0,1,1-1.84,1.81,1.81,0,0,1,.84-.37,2.16,2.16,0,0,1,1.31.25,1.64,1.64,0,0,1,.86,1l.1.36a3.38,3.38,0,0,1-.24,1.82,130,130,0,0,1-5.53,16.72,14.53,14.53,0,0,1-3.47,5.32A9.3,9.3,0,0,1,205.31,148.55Zm-4.7-46-.28,0a2.79,2.79,0,0,1-1.33-.12,4.8,4.8,0,0,1-3-3,4.88,4.88,0,0,1-.22-.81,2.78,2.78,0,0,1,.47-2,3.9,3.9,0,0,1,1.72-1.41,7,7,0,0,1,1.63-.55l.18,0a3.36,3.36,0,0,1,2.56.64,5.26,5.26,0,0,1,1.77,2.17,3,3,0,0,1,.34,1,2.88,2.88,0,0,1-.22,1.63C203.64,101.31,202.45,102.1,200.61,102.57Z"/>
          <path class="cls-3" d="M229.05,145.31a13.32,13.32,0,0,1-3.46.06,12.53,12.53,0,0,1-6.91-3.41,17.69,17.69,0,0,1-5.37-10.6,27.18,27.18,0,0,1-.26-5.72,36.55,36.55,0,0,1,.77-5.73,30.44,30.44,0,0,1,3.46-10.13,17,17,0,0,1,7.56-7.24,11.2,11.2,0,0,1,2.88-.86,8,8,0,0,1,5.85,1.13,9.06,9.06,0,0,1,3.48,6.19,11.47,11.47,0,0,1-1.71,7.87,4.38,4.38,0,0,1-2.57,1.94,2.27,2.27,0,0,1-1.2-.15,1.54,1.54,0,0,1-1.09-1.33,2.3,2.3,0,0,1,.2-1.26,12.54,12.54,0,0,1,.72-1.33,7.15,7.15,0,0,0,1-4.8,6.84,6.84,0,0,0-.77-2.28c-.33-.57-.72-.83-1.14-.76a1.42,1.42,0,0,0-1,.61,17,17,0,0,0-4,7.8A40.56,40.56,0,0,0,224,128.74a23,23,0,0,0,.25,2.87,19.13,19.13,0,0,0,1.53,5.12,4.62,4.62,0,0,0,2.53,2.72,3.56,3.56,0,0,0,1.66.12,6.25,6.25,0,0,0,1.57-.47c2.88-1.29,5.54-3.73,8-7.35a49.82,49.82,0,0,0,5.81-11.66l.12-.4a5.19,5.19,0,0,1,1.33-2.36,3,3,0,0,1,1.34-.77,1.19,1.19,0,0,1,.83.16,2.82,2.82,0,0,1,.82,1.7,5.43,5.43,0,0,1-.12,2.28,62.92,62.92,0,0,1-6.05,12.76,30.68,30.68,0,0,1-7.36,8.73A15.74,15.74,0,0,1,229.05,145.31Z"/>
          <path class="cls-3" d="M254.93,141.23l-.19,0a7.86,7.86,0,0,1-6.35-2.83,15.23,15.23,0,0,1-3-6.5c-.24-1-.44-1.95-.59-3a39.32,39.32,0,0,1-.45-6.35q0-3.21.34-6.41a46.66,46.66,0,0,1,1.13-6.77,23.34,23.34,0,0,1,2.52-6.28,12.12,12.12,0,0,1,5-4.9,10.49,10.49,0,0,1,2.83-.85A19.68,19.68,0,0,1,265,98.54a5.75,5.75,0,0,1-.41-1.44,2.44,2.44,0,0,1,.5-2,2.23,2.23,0,0,1,1.18-.55,4.78,4.78,0,0,1,1.51,0,19.84,19.84,0,0,1,3.22.5,5.08,5.08,0,0,1,3.88,4.48c.18,1.23,0,4.62-.56,10.19-.31,2.92-.54,5.86-.68,8.79a57.6,57.6,0,0,0,.2,9.65,4,4,0,0,0,.44,1.34,2.25,2.25,0,0,0,1.79,1.28l.18,0a2.69,2.69,0,0,0,1.84-1.22,16.67,16.67,0,0,0,2.35-4.31,99.5,99.5,0,0,0,3.69-11.55,8.3,8.3,0,0,1,.48-1.46,3.16,3.16,0,0,1,.92-1.22,2.38,2.38,0,0,1,1.06-.56c.74-.11,1.29.26,1.67,1.11a3,3,0,0,1,.21.76,3.57,3.57,0,0,1,0,1.13,99.42,99.42,0,0,1-5.54,17,15.84,15.84,0,0,1-3.36,5.39A8.77,8.77,0,0,1,275,138a9.34,9.34,0,0,1-5.63-.92,9.65,9.65,0,0,1-3.46-3.14,10.4,10.4,0,0,1-1.72-4.34,7.74,7.74,0,0,1-.09-1.54c-.38,1-.73,2.06-1,3.07a30.57,30.57,0,0,1-1.92,5,12,12,0,0,1-2.54,3.33A6.93,6.93,0,0,1,254.93,141.23Zm1.38-7.59a2.34,2.34,0,0,0,.73-.58,7.23,7.23,0,0,0,.52-.79l.33-.56a31.46,31.46,0,0,0,1.49-3.8,16.45,16.45,0,0,0,.65-2.49h.05v-.09a189.09,189.09,0,0,0,3.27-18.63l.27-1.88a.85.85,0,0,0,.09-.67,1.82,1.82,0,0,1,.87-1.4c-.56-.17-.94-.29-1.14-.37l-.37-.13h-.14a1.25,1.25,0,0,1-.26,0,7.42,7.42,0,0,0-1.35.11l-.53.23-.29.11a2.43,2.43,0,0,0-.44.33,6.18,6.18,0,0,0-.79.66.18.18,0,0,1-.13.09,10,10,0,0,0-1.43,2,.2.2,0,0,1-.09.18,9.28,9.28,0,0,0-.69,1.49,23.46,23.46,0,0,0-.75,2.46l-.34,1.18a47.71,47.71,0,0,0-1.34,11.53l.07,1.44c.1,1.83.25,3.66.46,5.47l.51,2.42A8.5,8.5,0,0,0,256.31,133.64Z"/>
          <path class="cls-3" d="M291.39,135.72a22.41,22.41,0,0,1-3.53.25,3.4,3.4,0,0,1-2.54-1.25,4.45,4.45,0,0,1-.76-1.86,9.3,9.3,0,0,1-.09-1.82q.16-11.58.21-22.67l.12-15.29a1.63,1.63,0,0,1,.38-1.33,2.44,2.44,0,0,1,1.26-.52,10.89,10.89,0,0,1,5.7.73A4.72,4.72,0,0,1,295,95.8a9.33,9.33,0,0,1,.11,1.66q0,.83-.12,13.66c.58-3,1.28-5.89,2.11-8.78a34.47,34.47,0,0,1,3.53-8.14,13.68,13.68,0,0,1,2.51-3.11,6.31,6.31,0,0,1,3.4-1.6,7,7,0,0,1,5.67,1.77,10.22,10.22,0,0,1,2.63,5.85,86,86,0,0,1,.16,12.47c-.14,3-.15,6,0,9.07a18.31,18.31,0,0,0,.22,2.64,12.91,12.91,0,0,0,.67,2.58,3,3,0,0,0,.6,1,1.38,1.38,0,0,0,1,.36,1.64,1.64,0,0,0,1.07-.68,13.8,13.8,0,0,0,2.7-4.45,51.59,51.59,0,0,0,3.59-12.25c.2-2.16.93-3.33,2.18-3.52a1.93,1.93,0,0,1,2.1,1.74,5.26,5.26,0,0,1-.19,2.43c-.6,2.85-1.31,5.66-2.12,8.45a40.58,40.58,0,0,1-3.31,8q-3.27,6-8,6.76a8.28,8.28,0,0,1-7.46-2.86,9.54,9.54,0,0,1-1.81-3.25,26.13,26.13,0,0,1-.82-3.68,43.44,43.44,0,0,1-.5-6.54c0-2.19,0-4.41.13-6.65.14-2.81.17-5.61.08-8.42,0-.31,0-.56,0-.74s-.05-.47-.1-.83a2.54,2.54,0,0,0-.16-.61,2.23,2.23,0,0,0-.23-.39.61.61,0,0,0-.24-.2.35.35,0,0,0-.17,0l-.1,0a3.41,3.41,0,0,0-1.91,2.55,120.59,120.59,0,0,0-5.76,28.55,15.41,15.41,0,0,1-.54,3.51C295.33,134.13,293.84,135.35,291.39,135.72Z"/>
          <path class="cls-3" d="M337.63,129.05l-.64.1a10.07,10.07,0,0,1-5.42-1.2,12.77,12.77,0,0,1-4.24-3.62,24.14,24.14,0,0,1-4-10.15L323,112.3a36.94,36.94,0,0,1,.49-14.73q2.11-9.15,8.62-12.12a11.8,11.8,0,0,1,2.66-.73,11.09,11.09,0,0,1,6.91,1.2q6,4,7.56,14.21A47,47,0,0,1,349.4,112q4.62-2.67,6.67-9.28l.13-.4c.46-1.7,1.24-2.63,2.34-2.8l.52,0a2.4,2.4,0,0,1,1.54,2.06,6.71,6.71,0,0,1-.63,2.64q-2.94,7.53-7.37,10.51a10,10,0,0,1-4.09,1.57,23.13,23.13,0,0,1-3.8,8.33,13.18,13.18,0,0,1-3.15,2.9A9.75,9.75,0,0,1,337.63,129.05Zm1.45-5.29a2.78,2.78,0,0,0,1.19-1.12,18.49,18.49,0,0,0,2.59-6.74v-.33a.55.55,0,0,0-.39-.36q-4.55-2.7-6.1-9.5c-.23-.91-.41-1.8-.55-2.69a55.24,55.24,0,0,1-.31-11.93,30,30,0,0,0-2.64,12.28,59.7,59.7,0,0,0,.59,10.34,28.81,28.81,0,0,0,1.48,5.7,9.87,9.87,0,0,0,1.94,3.46,2.2,2.2,0,0,0,2,.92ZM343.47,111l.06-3.3c-.06-1-.11-1.82-.15-2.37s-.09-1.1-.15-1.62-.15-1.25-.26-2.17L342.29,98q-.81-2.55-1.2-3.57a16.2,16.2,0,0,0-1.52-2.92c-.13,1-.21,1.83-.25,2.41s-.05,1.1-.05,1.54,0,1,.07,1.54.09,1.35.14,2.28.18,2.08.33,3.09c.12.77.27,1.59.47,2.47a15.35,15.35,0,0,0,1,3.23,17.43,17.43,0,0,0,1.41,2.13v0a2.34,2.34,0,0,0,.56.57l.05,0A.28.28,0,0,0,343.47,111Z"/>
          <path class="cls-3" d="M389.79,125.47a51.75,51.75,0,0,1-11.89.43,42.68,42.68,0,0,1-11.64-2.53,10,10,0,0,1-4.24-3.18,10.35,10.35,0,0,1-2.11-4.92c-.3-2-.15-3.26.45-3.82a2.13,2.13,0,0,1,1.18-.6,1.81,1.81,0,0,1,1.47.38,2.06,2.06,0,0,1,.76,1.34,2.82,2.82,0,0,1,0,1,5.08,5.08,0,0,0,.08,1.43,8.29,8.29,0,0,0,.63,2.15,2.25,2.25,0,0,0,1.36,1.39l-.22-.2a3.81,3.81,0,0,0,2.86.88,3.55,3.55,0,0,0,2.68-2.12,6.32,6.32,0,0,0,.64-3.88,13.11,13.11,0,0,0-1.7-4.53c-.91-1.55-1.95-3.17-3.11-4.84A45.38,45.38,0,0,1,362.28,96l-1.85,6.34a1.64,1.64,0,0,1-1.51,1.22,2,2,0,0,1-1.56-.37,1.91,1.91,0,0,1-.75-1.25,2.52,2.52,0,0,1,.11-1.1q1.59-6,3.7-11.79a28.41,28.41,0,0,1,2.65-5.45,10.39,10.39,0,0,1,4.3-3.83A11.89,11.89,0,0,1,378,79.4a2.3,2.3,0,0,1,1.44,1.76,2,2,0,0,1-.36,1.46,1.84,1.84,0,0,1-1.3.86,3.38,3.38,0,0,1-1.31-.13,4.34,4.34,0,0,0-1.73-.07l-.31.1A3.24,3.24,0,0,0,372.18,86a11.91,11.91,0,0,0-.09,3.75,15.14,15.14,0,0,0,1.57,4.55,34.05,34.05,0,0,0,2.61,4,59.12,59.12,0,0,1,3.75,5.86,17.49,17.49,0,0,1,2,5.85,12.08,12.08,0,0,1-4.21,11.21,44.54,44.54,0,0,0,10.28-.39q10-1.52,16.26-7.36,6-5.67,8.05-16.54a26.31,26.31,0,0,0,.22-8.73c-.6-3.94-2.22-6.66-4.86-8.13a5.79,5.79,0,0,0-3.93-.81,5.66,5.66,0,0,0-2.76,1.31,7.39,7.39,0,0,0-2.15,2.86,10,10,0,0,0-.73,3.17,13,13,0,0,0,.08,2.71,5.52,5.52,0,0,0,.92,2.68.71.71,0,0,1,.26.43.78.78,0,0,1-.66.92,9.7,9.7,0,0,1-1.45.34,7.63,7.63,0,0,1-7.76-3.16,8.58,8.58,0,0,1-1.51-3.7,9.71,9.71,0,0,1,.44-4.55,11,11,0,0,1,2.85-4.4,16.44,16.44,0,0,1,5.68-3.45,22.39,22.39,0,0,1,4.56-1.21,15.22,15.22,0,0,1,8.9,1.08A15.76,15.76,0,0,1,417,80a22.24,22.24,0,0,1,3.36,9.08,31.08,31.08,0,0,1,0,8.88,34.39,34.39,0,0,1-2.69,9.19,28,28,0,0,1-9.28,11.11,38.61,38.61,0,0,1-11,5.42A49.77,49.77,0,0,1,389.79,125.47Z"/>
        </g>
        <g>
          <path class="cls-15" d="M137,115.66a15.58,15.58,0,0,1-3.24-.34l-.09,0a16,16,0,0,1-7.63-4.18,20,20,0,0,1-5.78-11.58A26.22,26.22,0,0,1,120,93.8a34.23,34.23,0,0,1,4.29-14.61A22.89,22.89,0,0,1,131,71.66a15.44,15.44,0,0,1,6.68-2.84,13.16,13.16,0,0,1,1.86-.14,11.83,11.83,0,0,1,3.5.53,10.18,10.18,0,0,1,4.72,3.1,8,8,0,0,1,1.69,4.11c.09.55.15,1.09.19,1.6l0,.34a34.25,34.25,0,0,1-.89,10.5,15.84,15.84,0,0,1-.69,2.35,6.83,6.83,0,0,1-5.49,4.41,8.64,8.64,0,0,1-1.34.1,8.86,8.86,0,0,1-2.16-.26,7,7,0,0,1-2.29-.9,4.83,4.83,0,0,1-2.31-3.42l0-.29a5.71,5.71,0,0,1,1-3.47,20.06,20.06,0,0,0,2.51-6A15,15,0,0,0,136.22,84a24.31,24.31,0,0,0-2.94,14.1c0,.39.07.74.12,1.07a16.07,16.07,0,0,0,.44,2,5.89,5.89,0,0,0,3.28,4.14,4.73,4.73,0,0,0,1.43.22,4.31,4.31,0,0,0,.71-.05,5.91,5.91,0,0,0,1.89-.62,11.34,11.34,0,0,0,3.94-3.73l0-.06a20.2,20.2,0,0,0,3.21-8c.53-3.32,2.72-4.2,3.63-4.43l.31-.06a4.58,4.58,0,0,1,.64,0,4.42,4.42,0,0,1,3.17,1.36,4.77,4.77,0,0,1,1.31,2.64,6.08,6.08,0,0,1-.18,2.68,29.7,29.7,0,0,1-7.08,14.47,20,20,0,0,1-4.91,3.78,17.87,17.87,0,0,1-5.9,2A15.53,15.53,0,0,1,137,115.66Z"/>
          <path class="cls-15" d="M155.89,108.8a7.47,7.47,0,0,1-5.73-2.63L150,106a11,11,0,0,1-2.2-4.71c-.14-.57-.26-1.16-.35-1.75a23.78,23.78,0,0,1-.27-3.78c0-1.19.07-2.39.19-3.57a27.77,27.77,0,0,1,.65-3.93,15.52,15.52,0,0,1,1.65-4.1,9.65,9.65,0,0,1,3.93-3.85l.17-.08a8.68,8.68,0,0,1,2.39-.72,10.38,10.38,0,0,1,1.5-.11c.33,0,.66,0,1,0l.21-.2a4.64,4.64,0,0,1,2.44-1.16,5.81,5.81,0,0,1,1.66,0,13.89,13.89,0,0,1,2.08.33l.14,0a6.05,6.05,0,0,1,4.48,5.12,14.91,14.91,0,0,1,0,3.45,4.38,4.38,0,0,1,2-.85,4.87,4.87,0,0,1,.65-.05,4.25,4.25,0,0,1,3.93,2.65l0,.08a4.94,4.94,0,0,1,.34,1.21,5.11,5.11,0,0,1,0,1.7l0,.18a53.51,53.51,0,0,1-3,9.18,11.67,11.67,0,0,1-2.41,3.84l-.24.23a8,8,0,0,1-4.09,1.91,7.29,7.29,0,0,1-1.23.1,8.45,8.45,0,0,1-3.7-.88l-.13-.07-.5-.29a8.76,8.76,0,0,1-.94,1,6.91,6.91,0,0,1-3.71,1.78h-.09a2.09,2.09,0,0,1-.43,0Z"/>
          <path class="cls-15" d="M178,105.68a8.73,8.73,0,0,1-6.38-2.63l-.14-.15a9.11,9.11,0,0,1-2.2-4.68,6.55,6.55,0,0,1,.34-3.69,4.23,4.23,0,0,1-.71-.57l-.07-.07a4.85,4.85,0,0,1-1.14-2c0-.15-.07-.3-.1-.45a4.63,4.63,0,0,1,.16-2.06,57,57,0,0,1,2-6.27,18.73,18.73,0,0,1,1.56-3.26,8.55,8.55,0,0,1,3.56-3.34l.26-.12a9.88,9.88,0,0,1,2.81-.93H178a9.06,9.06,0,0,1,1.38-.1,9.33,9.33,0,0,1,2.21.26,5.09,5.09,0,0,1,1.17.34l.27.11.36.16a4,4,0,0,1,1.08.68,4.47,4.47,0,0,1,1.7,2.88,1.73,1.73,0,0,1,0,.32l0,.26a2.94,2.94,0,0,1,0,.42,4.44,4.44,0,0,1-1.32,2.88,4.53,4.53,0,0,1-2.27,1.25c.07.15.14.3.22.44.4.67.82,1.33,1.27,2l.35.48.33-1a2.92,2.92,0,0,1,.23-.58,4.57,4.57,0,0,1,3.38-2.51,6.09,6.09,0,0,1,.72,0,4.53,4.53,0,0,1,1.42.22A2.9,2.9,0,0,1,191,84a4.5,4.5,0,0,1,2.6,3.41,4.62,4.62,0,0,1-.18,2.15,35.85,35.85,0,0,1-3.33,7.79,17.93,17.93,0,0,1-7,7.1,10.52,10.52,0,0,1-3.34,1.11,8.45,8.45,0,0,1-1.19.11H178Z"/>
          <path class="cls-15" d="M192.07,103.26a7.25,7.25,0,0,1-4.41-1.53l-.26-.21a12.31,12.31,0,0,1-3.52-7.47,26.58,26.58,0,0,1-.28-4.69,32.68,32.68,0,0,1,.43-4.52c.78-5.45,3.11-9,6.9-10.41l.15-.06A9.54,9.54,0,0,1,192.7,74a9.67,9.67,0,0,1,1.53-.12c.3,0,.6,0,.91,0a4.54,4.54,0,0,1,2.61-1.36,3.69,3.69,0,0,1,.58,0,20.29,20.29,0,0,1,2,.16,6.82,6.82,0,0,1,3.74,1.6,6.16,6.16,0,0,1,2.08,3.81,8.23,8.23,0,0,1,.07,1.72,6.47,6.47,0,0,1,2.14-.73l.17,0a6.23,6.23,0,0,1,.74,0,5.8,5.8,0,0,1,4.42,1.92,7.38,7.38,0,0,1,1.81,3.89,10.55,10.55,0,0,1-.51,5.13,19.57,19.57,0,0,1-1.85,3.91,21.61,21.61,0,0,1-3.07,3.88,14.6,14.6,0,0,1-4.47,3.11,9.6,9.6,0,0,1-2.5.75,10,10,0,0,1-1.33.1,7.63,7.63,0,0,1-3.92-1.06l-.22-.13a7,7,0,0,1-4.5,2.68A8,8,0,0,1,192.07,103.26Z"/>
          <path class="cls-15" d="M253.13,94a7.48,7.48,0,0,1-5.73-2.62l-.12-.14a11.17,11.17,0,0,1-2.2-4.71c-.14-.57-.26-1.16-.35-1.75a23.78,23.78,0,0,1-.27-3.78c0-1.19.07-2.4.19-3.58a27.87,27.87,0,0,1,.65-3.92,15.26,15.26,0,0,1,1.65-4.1,9.65,9.65,0,0,1,3.93-3.85l.17-.08a8.35,8.35,0,0,1,2.39-.72,9.13,9.13,0,0,1,1.5-.11c.33,0,.66,0,1,0l.2-.2a4.64,4.64,0,0,1,2.44-1.16,5.34,5.34,0,0,1,.89-.07,6.81,6.81,0,0,1,.78.05,14.31,14.31,0,0,1,2.08.33l.13,0A6.06,6.06,0,0,1,267,68.77a15.86,15.86,0,0,1,0,3.44,4.46,4.46,0,0,1,2-.84,3.49,3.49,0,0,1,.65-.05A4.25,4.25,0,0,1,273.49,74a.59.59,0,0,0,0,.08,5.4,5.4,0,0,1,.33,1.21,5,5,0,0,1,0,1.69l0,.19a53.51,53.51,0,0,1-3,9.18,11.53,11.53,0,0,1-2.41,3.83,1.81,1.81,0,0,1-.24.24,8,8,0,0,1-4.09,1.91,8.34,8.34,0,0,1-4.93-.78l-.13-.07c-.17-.09-.33-.19-.49-.29a11,11,0,0,1-.94,1,7,7,0,0,1-3.71,1.78h-.1a3.13,3.13,0,0,1-.43,0Z"/>
          <path class="cls-15" d="M270,91.3h-.09a5.25,5.25,0,0,1-3.78-1.89l-.17-.22a5.59,5.59,0,0,1-1-2.44,8.28,8.28,0,0,1-.09-1.57c0-3.86.09-7.7.11-11.42l.05-7.7a4.23,4.23,0,0,1,1.34-3.31,4.64,4.64,0,0,1,2.48-1.15H269a9.45,9.45,0,0,1,1.18-.07,8.57,8.57,0,0,1,3.53.72,6.42,6.42,0,0,1,1.22.72,7.27,7.27,0,0,1,.56-.55A6.65,6.65,0,0,1,279,60.71a6.93,6.93,0,0,1,5.64,1.66,1.7,1.7,0,0,1,.24.22,8.56,8.56,0,0,1,2.33,4.93l0,.24c0,.46.07.91.09,1.36a4.66,4.66,0,0,1,2.08-.88l.38,0H290a4.46,4.46,0,0,1,4.42,3.61c0,.09,0,.17.05.26a6.15,6.15,0,0,1-.17,2.63c-.31,1.47-.69,3-1.11,4.4a23.62,23.62,0,0,1-2,4.77c-2.05,3.8-4.72,4.94-6.61,5.23a8.44,8.44,0,0,1-1.12.08,7.73,7.73,0,0,1-5.91-2.78c0,.11-.05.22-.08.34a5.93,5.93,0,0,1-5.13,4.39h-.07a16.17,16.17,0,0,1-2.09.16Z"/>
          <path class="cls-15" d="M293.28,88a7.61,7.61,0,0,1-2.19-.33l-.19-.06c-2.23-.8-5-2.79-5.79-7.65-.09-.6-.15-1.21-.19-1.81-.19-2.74-.13-7.67.2-15V63a4.46,4.46,0,0,1-2-.87,4.6,4.6,0,0,1-1.71-2.76l0-.18a4.43,4.43,0,0,1,.88-3.42A4.47,4.47,0,0,1,285.17,54l.18,0a2.53,2.53,0,0,1,0-.28v-.1c0-.09,0-.19,0-.29a3.15,3.15,0,0,1-.09-.42,4.49,4.49,0,0,1,.89-3.4,4.56,4.56,0,0,1,2.95-1.76,5,5,0,0,1,.67,0c.2,0,.4,0,.6,0h.11l1.48.16a2.25,2.25,0,0,1,.36.06,6.86,6.86,0,0,1,4.78,3.63l.07.14c.09.21.18.41.25.62a4.44,4.44,0,0,1,2.07.88A4.58,4.58,0,0,1,301.2,56a1.29,1.29,0,0,1,0,.19,4.43,4.43,0,0,1-.93,3.47,4.54,4.54,0,0,1-2.89,1.68h0c-.05.77-.1,1.55-.16,2.31-.15,2.27-.26,4.57-.33,6.84.09-.27.18-.53.26-.79s.11-.29.17-.43a4.5,4.5,0,0,1,3.44-2.61,4.36,4.36,0,0,1,.72,0,4.7,4.7,0,0,1,1.4.21,3.49,3.49,0,0,1,.53.22,4.64,4.64,0,0,1,2.18,6c-.43,1.35-.89,2.59-1.35,3.68a27.77,27.77,0,0,1-1.74,3.65A24.34,24.34,0,0,1,301,82.84c-1.89,3-4.12,4.65-6.64,5A8,8,0,0,1,293.28,88Z"/>
          <path class="cls-15" d="M306.06,86.11a8.61,8.61,0,0,1-4.09-1,10.06,10.06,0,0,1-3.31-2.84l-.09-.12A15.91,15.91,0,0,1,296,75.56s-.17-1-.18-1a22.41,22.41,0,0,1,.3-8.84c1.23-5.21,4.12-7.51,6.34-8.52l.13-.06a9.53,9.53,0,0,1,2.15-.59,9,9,0,0,1,5.65,1l.33.2a12.06,12.06,0,0,1,4.74,6.79,4.64,4.64,0,0,1,1.36-.44,4.55,4.55,0,0,1,.52,0h.37a3.35,3.35,0,0,1,1.17.24,4.72,4.72,0,0,1,3,3.79,3.18,3.18,0,0,1,0,.62,6.79,6.79,0,0,1-.59,2.6,14.15,14.15,0,0,1-5,6.9,9.29,9.29,0,0,1-1.23.68,15.29,15.29,0,0,1-1.89,3.49.76.76,0,0,0-.08.11,10.4,10.4,0,0,1-2.44,2.24A8.53,8.53,0,0,1,307.23,86l-.33,0-.33,0Z"/>
          <path class="cls-15" d="M315.05,102.6a8.11,8.11,0,0,1-5.07-1.79,9.37,9.37,0,0,1-3.43-6A13.68,13.68,0,0,1,307.89,87a21.14,21.14,0,0,1,4.73-6.54c.25-6.84.26-13.79,0-20.65a6.48,6.48,0,0,1,.33-2.65,5.65,5.65,0,0,1-.6-1.82,4.9,4.9,0,0,1,.8-3.5,5.43,5.43,0,0,1,2.37-2,6.87,6.87,0,0,1,1.69-.54h.1a5.73,5.73,0,0,1,.81-.06,5.24,5.24,0,0,1,3.08,1,6.1,6.1,0,0,1,2.06,2.55,5.4,5.4,0,0,1,.41,1.4,5.15,5.15,0,0,1-.27,2.58,6.36,6.36,0,0,1,1.38,3.15,11.93,11.93,0,0,1,.12,2.07l0,1.86a4.54,4.54,0,0,1,2.56-1.32,3.15,3.15,0,0,1,.53,0h.27a4.12,4.12,0,0,1,2.24.65l.2.14a4.53,4.53,0,0,1,1.78,2.95,5.83,5.83,0,0,1-.28,2.79,29.53,29.53,0,0,1-7.54,12.16c0,.76-.05,1.9-.05,3.38s0,3-.13,4.5a31.75,31.75,0,0,1-.61,4.77,13.6,13.6,0,0,1-2.14,5.13l-.07.09a8.51,8.51,0,0,1-5.62,3.52l-.14,0a1.84,1.84,0,0,1-.33,0Z"/>
          <path class="cls-15" d="M332.7,82.06a8.66,8.66,0,0,1-4.1-1,10,10,0,0,1-3.3-2.83l-.09-.13a15.83,15.83,0,0,1-2.6-6.56s-.17-1-.17-1a22.41,22.41,0,0,1,.3-8.84c1.22-5.21,4.12-7.51,6.34-8.52l.13-.06a9.39,9.39,0,0,1,2.15-.59,8.93,8.93,0,0,1,1.37-.1A9.18,9.18,0,0,1,337,53.46a3.79,3.79,0,0,1,.34.2,12,12,0,0,1,4.73,6.79,4.66,4.66,0,0,1,1.36-.43,3.15,3.15,0,0,1,.53,0h.36a3.93,3.93,0,0,1,1.18.24,4.72,4.72,0,0,1,3,3.79,3.23,3.23,0,0,1,0,.62,6.83,6.83,0,0,1-.59,2.6,14.05,14.05,0,0,1-5,6.9,8.24,8.24,0,0,1-1.23.69,15.12,15.12,0,0,1-1.89,3.49l-.08.1a10,10,0,0,1-2.43,2.24,8.58,8.58,0,0,1-3.4,1.31l-.33.05c-.11,0-.22,0-.33,0Z"/>
          <path class="cls-15" d="M350,79.49a8.75,8.75,0,0,1-6.39-2.63l-.13-.15a9,9,0,0,1-2.2-4.67,6.56,6.56,0,0,1,.33-3.7,4.16,4.16,0,0,1-.7-.57l-.08-.07a4.77,4.77,0,0,1-1.13-2,3.48,3.48,0,0,1-.1-.44,4.83,4.83,0,0,1,.15-2.07,57.07,57.07,0,0,1,2-6.27,19.43,19.43,0,0,1,1.55-3.26,8.52,8.52,0,0,1,3.57-3.34l.26-.12a10.14,10.14,0,0,1,2.8-.93H350a8.93,8.93,0,0,1,1.37-.1,10,10,0,0,1,2.22.26,5.09,5.09,0,0,1,1.17.34l.28.12.36.15a4.13,4.13,0,0,1,1.07.68,4.49,4.49,0,0,1,1.7,2.88l0,.31,0,.26v.43a4.47,4.47,0,0,1-1.33,2.89,4.52,4.52,0,0,1-2.26,1.24,3.61,3.61,0,0,0,.22.44c.39.67.82,1.33,1.27,2l.35.48c.11-.34.22-.68.32-1A3.32,3.32,0,0,1,357,60a4.57,4.57,0,0,1,3.38-2.5,5.81,5.81,0,0,1,.72,0,4.52,4.52,0,0,1,1.41.22,3.61,3.61,0,0,1,.42.16,4.5,4.5,0,0,1,2.6,3.42,4.71,4.71,0,0,1-.18,2.14A36.42,36.42,0,0,1,362,71.16a17.8,17.8,0,0,1-7,7.1,10.36,10.36,0,0,1-3.34,1.11,8.44,8.44,0,0,1-1.2.11H350Z"/>
          <path class="cls-4" d="M137.89,110.62a12.08,12.08,0,0,1-4.36-.13,12.56,12.56,0,0,1-6-3.28,16.47,16.47,0,0,1-4.76-9.59,22.42,22.42,0,0,1-.2-5,30.51,30.51,0,0,1,3.84-13.12,19.48,19.48,0,0,1,5.73-6.41,12.07,12.07,0,0,1,5.18-2.22,8.62,8.62,0,0,1,3.79.27,6.67,6.67,0,0,1,3.1,2,4.72,4.72,0,0,1,.88,2.35c.07.46.13.91.16,1.33l0,.38a30.68,30.68,0,0,1-.82,9.46,11.53,11.53,0,0,1-.54,1.82,3.32,3.32,0,0,1-2.74,2.21,5.52,5.52,0,0,1-2.21-.12,3.51,3.51,0,0,1-1.22-.47,1.29,1.29,0,0,1-.67-1,2.36,2.36,0,0,1,.46-1.36A23.1,23.1,0,0,0,141.07,77a5.75,5.75,0,0,0,0-1.11,2.38,2.38,0,0,0-.63-1.29,1.91,1.91,0,0,0-1.35-.3,3.83,3.83,0,0,0-1.73.74,17.64,17.64,0,0,0-5.1,6,27.83,27.83,0,0,0-3.33,16c0,.44.08.87.14,1.29a19.7,19.7,0,0,0,.54,2.42,9.4,9.4,0,0,0,5.4,6.43,8.18,8.18,0,0,0,3.92.36,9.64,9.64,0,0,0,3-1,14.79,14.79,0,0,0,5.2-4.9,23.64,23.64,0,0,0,3.77-9.38c.15-.93.48-1.46,1-1.58a.88.88,0,0,1,.79.31,1.22,1.22,0,0,1,.34.71,2.59,2.59,0,0,1-.11,1.26,26.2,26.2,0,0,1-6.24,13,16.32,16.32,0,0,1-4,3.11A14.19,14.19,0,0,1,137.89,110.62Z"/>
          <path class="cls-4" d="M155.19,103.88h-.09a4,4,0,0,1-3.23-1.44,7.94,7.94,0,0,1-1.53-3.3c-.12-.49-.22-1-.3-1.51a21.41,21.41,0,0,1-.23-3.22c0-1.09.07-2.18.18-3.26a24.93,24.93,0,0,1,.57-3.44,11.78,11.78,0,0,1,1.28-3.19,6,6,0,0,1,2.53-2.48,5.22,5.22,0,0,1,1.44-.44,9.86,9.86,0,0,1,4.5.58,3.17,3.17,0,0,1-.2-.73,1.22,1.22,0,0,1,.25-1,1.19,1.19,0,0,1,.6-.28,2.84,2.84,0,0,1,.77,0,10.66,10.66,0,0,1,1.63.26,2.57,2.57,0,0,1,2,2.27,30.93,30.93,0,0,1-.28,5.18c-.16,1.49-.27,3-.35,4.47a30.85,30.85,0,0,0,.1,4.9,2.19,2.19,0,0,0,.23.68,1.14,1.14,0,0,0,.91.65l.09,0A1.32,1.32,0,0,0,167,98a8.41,8.41,0,0,0,1.2-2.18A49.47,49.47,0,0,0,170,89.9a4,4,0,0,1,.25-.74,1.51,1.51,0,0,1,.46-.62,1.28,1.28,0,0,1,.55-.29c.37-.06.65.13.84.56a1.6,1.6,0,0,1,.11.39,1.62,1.62,0,0,1,0,.58,49.82,49.82,0,0,1-2.81,8.64,8.24,8.24,0,0,1-1.71,2.74,4.46,4.46,0,0,1-2.31,1.09,4.77,4.77,0,0,1-2.87-.47,4.94,4.94,0,0,1-1.75-1.59A5.36,5.36,0,0,1,159.9,98a5,5,0,0,1,0-.78c-.2.52-.37,1-.53,1.56a15.52,15.52,0,0,1-1,2.53,6.15,6.15,0,0,1-1.3,1.69A3.46,3.46,0,0,1,155.19,103.88Zm.7-3.86a1.19,1.19,0,0,0,.38-.29,4,4,0,0,0,.26-.4l.17-.29a16.37,16.37,0,0,0,.76-1.93,9.25,9.25,0,0,0,.33-1.27h0v0a91.55,91.55,0,0,0,1.66-9.46l.15-1a.51.51,0,0,0,0-.34,1,1,0,0,1,.44-.72l-.58-.18-.19-.07h-.2a2.66,2.66,0,0,0-.68.05l-.27.12-.15.05a1.16,1.16,0,0,0-.22.17l-.41.33a.06.06,0,0,1-.06,0,4.87,4.87,0,0,0-.73,1s0,.06,0,.09a3.7,3.7,0,0,0-.35.76,12.14,12.14,0,0,0-.39,1.25l-.17.6a24.28,24.28,0,0,0-.68,5.85l0,.74c.05.93.12,1.85.23,2.78l.26,1.22A4.23,4.23,0,0,0,155.89,100Z"/>
          <path class="cls-4" d="M178.26,100.7a2.93,2.93,0,0,1-.82,0l-.14,0a5.22,5.22,0,0,1-4.06-1.58,5.55,5.55,0,0,1-1.37-2.89c-.16-1-.08-1.66.23-1.94a1.2,1.2,0,0,1,.6-.29H173a.79.79,0,0,1,.59.28,1.15,1.15,0,0,1,.28.61l0,.24a4.19,4.19,0,0,0,0,.71,3.12,3.12,0,0,0,.87,1.71,1.76,1.76,0,0,0,1.59.64,1.88,1.88,0,0,0,1.08-.69,2.75,2.75,0,0,0,.54-2.26,5.15,5.15,0,0,0-.6-1.74,15.93,15.93,0,0,0-1.41-2.37l-.56-.86c-.4-.56-.78-1.13-1.14-1.72a14.14,14.14,0,0,1-1.14-2.14c-.33,1.07-.64,2.15-.94,3.22a.92.92,0,0,1-.81.63,1,1,0,0,1-.85-.25,1.33,1.33,0,0,1-.3-.55,1.07,1.07,0,0,1,.06-.56,51.94,51.94,0,0,1,1.9-6,15.11,15.11,0,0,1,1.28-2.7,5.2,5.2,0,0,1,2.13-2l.11,0a6.55,6.55,0,0,1,2-.68,5.85,5.85,0,0,1,2.38.14,1.62,1.62,0,0,1,.47.12l.33.14.27.11a.91.91,0,0,1,.26.19,1,1,0,0,1,.46.69l0,.26a1,1,0,0,1-.29.61,1.11,1.11,0,0,1-.6.32.77.77,0,0,1-.26,0,3.44,3.44,0,0,0-.81-.12.24.24,0,0,0-.12,0l-.33,0-.18.06a1.42,1.42,0,0,0-.89.73l0,0a1.85,1.85,0,0,0-.23.68,4.66,4.66,0,0,0,0,1.75,6.84,6.84,0,0,0,.87,2.46c.46.78.94,1.53,1.47,2.26a21.87,21.87,0,0,1,1.71,2.68,9,9,0,0,1,1,3,7.79,7.79,0,0,1,.08,1.28,14.7,14.7,0,0,0,.92-1.31,31.18,31.18,0,0,0,3.14-7.24,1.08,1.08,0,0,1,.79-.62,1.16,1.16,0,0,1,.53,0,1,1,0,0,1,.62.77,1,1,0,0,1-.06.55,32.2,32.2,0,0,1-3,7.1,14.27,14.27,0,0,1-5.64,5.75A6.92,6.92,0,0,1,178.26,100.7Z"/>
          <path class="cls-4" d="M191.72,98.31a3.63,3.63,0,0,1-2.86-.78,8.91,8.91,0,0,1-2.43-5.41,23.24,23.24,0,0,1-.23-4.06,27.57,27.57,0,0,1,.38-4.07q.88-6.22,4.7-7.69a6.7,6.7,0,0,1,1-.25,8.68,8.68,0,0,1,4.39.62l-.06-.4,0-.2,0-.09a.81.81,0,0,1-.05-.21,1,1,0,0,1,.19-.76,1,1,0,0,1,.68-.4c.09,0,.66,0,1.72.15a3.25,3.25,0,0,1,1.81.76,2.73,2.73,0,0,1,.9,1.69,4.8,4.8,0,0,1,0,1.6l-.23,2.76c-.16,1.84-.31,3.77-.43,5.79a23.25,23.25,0,0,0,0,4.1,3.28,3.28,0,0,0,.38,1.1.81.81,0,0,0,.89.48l.45-.12a5.72,5.72,0,0,0,3.3-3.25,7.56,7.56,0,0,0,.94-4.53,2.67,2.67,0,0,0-.64-1.39,1.19,1.19,0,0,1,.12-2,3.21,3.21,0,0,1,1.43-.64,2.45,2.45,0,0,1,2.19.73,3.93,3.93,0,0,1,1,2.08,7.25,7.25,0,0,1-.35,3.45,16.11,16.11,0,0,1-1.52,3.21,18.59,18.59,0,0,1-2.59,3.27,10.89,10.89,0,0,1-3.4,2.37,5.78,5.78,0,0,1-1.6.48,4.36,4.36,0,0,1-2.94-.5,5.38,5.38,0,0,1-2.46-4.07l-.07-.51a17,17,0,0,1-1.72,4.55A3.9,3.9,0,0,1,191.72,98.31Zm.78-3.94a.52.52,0,0,0,.27-.24,2.31,2.31,0,0,0,.16-.31l.1-.22a10.74,10.74,0,0,0,1.08-2.93l.11-.4.33-1.89c.24-1.24.5-2.67.78-4.27s.51-3,.69-4.26a1.21,1.21,0,0,1,.48-1.07l-.12,0a2.31,2.31,0,0,0-1.25-.19,2.18,2.18,0,0,0-1.27.66,4.84,4.84,0,0,0-.93,1.28,7.59,7.59,0,0,0-.57,1.46,23.8,23.8,0,0,0-.73,10.3l.18,1a1.88,1.88,0,0,0,.05.2c0,.1,0,.22.09.37a1,1,0,0,0,.17.39.27.27,0,0,0,.29.14Z"/>
          <path class="cls-2" d="M252.43,89.06l-.09,0a4,4,0,0,1-3.23-1.44,7.8,7.8,0,0,1-1.52-3.3,14.41,14.41,0,0,1-.31-1.51,20.26,20.26,0,0,1-.22-3.22,32.2,32.2,0,0,1,.17-3.26,24.93,24.93,0,0,1,.57-3.44,11.65,11.65,0,0,1,1.28-3.19,6.13,6.13,0,0,1,2.53-2.49,5.2,5.2,0,0,1,1.44-.43,9.85,9.85,0,0,1,4.5.58,4,4,0,0,1-.2-.73,1.26,1.26,0,0,1,.25-1,1.19,1.19,0,0,1,.6-.28,2.49,2.49,0,0,1,.77,0,11,11,0,0,1,1.64.25,2.59,2.59,0,0,1,2,2.28,32.76,32.76,0,0,1-.29,5.18c-.16,1.48-.27,3-.35,4.46a29.81,29.81,0,0,0,.11,4.91,2,2,0,0,0,.22.68,1.14,1.14,0,0,0,.91.65l.09,0a1.33,1.33,0,0,0,.93-.62A8.13,8.13,0,0,0,265.4,81a49.47,49.47,0,0,0,1.87-5.87,4.4,4.4,0,0,1,.25-.75,1.65,1.65,0,0,1,.46-.62,1.24,1.24,0,0,1,.55-.28c.37-.06.65.13.85.56a1.59,1.59,0,0,1,.1.39,1.62,1.62,0,0,1,0,.58,49.44,49.44,0,0,1-2.81,8.63,8.26,8.26,0,0,1-1.7,2.75,4.61,4.61,0,0,1-2.32,1.09,4.73,4.73,0,0,1-2.86-.47,4.92,4.92,0,0,1-1.76-1.6,5.26,5.26,0,0,1-.88-2.2,5,5,0,0,1,0-.78c-.19.52-.37,1-.53,1.56a15.88,15.88,0,0,1-1,2.53,6.31,6.31,0,0,1-1.3,1.69A3.38,3.38,0,0,1,252.43,89.06Zm.71-3.85a1.44,1.44,0,0,0,.37-.29c.08-.11.17-.25.26-.4l.17-.29a16.37,16.37,0,0,0,.76-1.93A9.25,9.25,0,0,0,255,81h0v0q1.08-4.77,1.66-9.46l.14-1a.49.49,0,0,0,0-.34.94.94,0,0,1,.44-.71l-.58-.18a.94.94,0,0,0-.19-.07.08.08,0,0,0-.07,0h-.13a3.45,3.45,0,0,0-.68.06l-.27.11-.15.06a.83.83,0,0,0-.22.17,4.23,4.23,0,0,0-.41.33s0,0-.06,0a4.87,4.87,0,0,0-.73,1s0,.06,0,.09a3.77,3.77,0,0,0-.35.75,12.32,12.32,0,0,0-.39,1.26l-.17.59a24.87,24.87,0,0,0-.68,5.86l0,.73c.05.94.12,1.86.23,2.78l.26,1.23A3.64,3.64,0,0,0,253.14,85.21Z"/>
          <path class="cls-2" d="M271,86.27a12.49,12.49,0,0,1-1.8.13,1.76,1.76,0,0,1-1.29-.64,2.19,2.19,0,0,1-.38-1,4.73,4.73,0,0,1-.05-.92c.06-3.92.09-7.76.11-11.52l.06-7.76a.8.8,0,0,1,.2-.68,1.18,1.18,0,0,1,.64-.26,5.39,5.39,0,0,1,2.89.37A2.39,2.39,0,0,1,272.78,66a4,4,0,0,1,.06.84c0,.28,0,2.59-.06,6.94.29-1.51.65-3,1.07-4.46a17.7,17.7,0,0,1,1.79-4.14,7.19,7.19,0,0,1,1.28-1.58,3.21,3.21,0,0,1,1.72-.81,3.6,3.6,0,0,1,2.89.9,5.2,5.2,0,0,1,1.33,3,43.72,43.72,0,0,1,.08,6.34c-.07,1.5-.07,3,0,4.6a8.78,8.78,0,0,0,.11,1.35,7.23,7.23,0,0,0,.34,1.31,1.51,1.51,0,0,0,.3.5.73.73,0,0,0,.52.18.84.84,0,0,0,.55-.34,7.29,7.29,0,0,0,1.37-2.27,25.76,25.76,0,0,0,1.82-6.22c.1-1.09.47-1.69,1.11-1.79a1,1,0,0,1,1.07.89,2.69,2.69,0,0,1-.1,1.23c-.31,1.45-.66,2.88-1.08,4.29a20.15,20.15,0,0,1-1.68,4.08c-1.1,2-2.46,3.19-4.06,3.43a4,4,0,0,1-2.09-.24,4,4,0,0,1-1.7-1.21,4.86,4.86,0,0,1-.92-1.65,12.69,12.69,0,0,1-.41-1.87,21.74,21.74,0,0,1-.26-3.32c0-1.12,0-2.24.07-3.38.07-1.42.08-2.85,0-4.28,0-.15,0-.28,0-.38s0-.23-.05-.42a1.26,1.26,0,0,0-.09-.31.68.68,0,0,0-.11-.19.27.27,0,0,0-.12-.1l-.09,0h-.05c-.44.14-.76.57-1,1.29a61.18,61.18,0,0,0-2.92,14.5,8.65,8.65,0,0,1-.28,1.79A2.48,2.48,0,0,1,271,86.27Z"/>
          <path class="cls-2" d="M292.94,83a4.08,4.08,0,0,1-1.76-.13q-2.93-1.06-3.51-4.89a15,15,0,0,1-.16-1.5q-.28-3.87.2-14.66c.06-1.38.11-2.76.13-4.15l-2.75.42a.92.92,0,0,1-.74-.19,1.08,1.08,0,0,1-.42-.68,1,1,0,0,1,.2-.76,1,1,0,0,1,.65-.4l3.13-.48c.06-1.55.07-2.63,0-3.25V52.2a8.22,8.22,0,0,0-.06-1L287.8,51a1,1,0,0,1,.21-.75,1.07,1.07,0,0,1,.68-.42h.25l.24,0,1.47.15a3.44,3.44,0,0,1,2.41,1.83,2.84,2.84,0,0,1,.24.8,5.3,5.3,0,0,1,0,1.38l0,.79,2.37-.36a1,1,0,0,1,.76.2,1.08,1.08,0,0,1,.43.67,1,1,0,0,1-.21.76,1,1,0,0,1-.67.4l-2.82.43c-.09,1.7-.2,3.4-.32,5.11q-.24,3.59-.34,7.16,0,2.1.06,4.17c0,.87.05,1.74.11,2.61,0,.41.06.82.12,1.22,0,.17.08.36.12.56a2.12,2.12,0,0,0,.23.6,1,1,0,0,0,.54.45,1.1,1.1,0,0,0,.51,0,1.64,1.64,0,0,0,.63-.24l.66-.53a7,7,0,0,0,1.22-1.69c.36-.66.69-1.33,1-2a45.74,45.74,0,0,0,1.92-5,1,1,0,0,1,.78-.62,1.22,1.22,0,0,1,.54,0,1.06,1.06,0,0,1,.62.81,1.08,1.08,0,0,1-.05.61l-.06.1c-.44,1.39-.89,2.62-1.34,3.69a23.83,23.83,0,0,1-1.58,3.3,18.11,18.11,0,0,1-1.35,2.25Q295.19,82.68,292.94,83Z"/>
          <path class="cls-2" d="M305.79,81.15l-.33,0a5.12,5.12,0,0,1-2.75-.6,6.53,6.53,0,0,1-2.16-1.85,12.34,12.34,0,0,1-2-5.16l-.16-1a18.77,18.77,0,0,1,.24-7.48Q299.68,60.51,303,59a5.83,5.83,0,0,1,1.36-.37,5.63,5.63,0,0,1,3.5.61q3.06,2,3.85,7.22a24.46,24.46,0,0,1,.08,6,7.82,7.82,0,0,0,3.39-4.71l.06-.2c.23-.87.63-1.34,1.19-1.42h.27a1.26,1.26,0,0,1,.78,1,3.43,3.43,0,0,1-.33,1.34,10.91,10.91,0,0,1-3.74,5.34,5,5,0,0,1-2.07.8,11.82,11.82,0,0,1-1.94,4.23,6.4,6.4,0,0,1-1.6,1.47A4.86,4.86,0,0,1,305.79,81.15Zm.73-2.69a1.39,1.39,0,0,0,.61-.57,9.32,9.32,0,0,0,1.31-3.42V74.3a.27.27,0,0,0-.19-.18,7.09,7.09,0,0,1-3.1-4.83,13.69,13.69,0,0,1-.28-1.36,27.53,27.53,0,0,1-.16-6.06,15.25,15.25,0,0,0-1.34,6.24,29.35,29.35,0,0,0,.3,5.25,14.81,14.81,0,0,0,.75,2.89,5.08,5.08,0,0,0,1,1.76,1.13,1.13,0,0,0,1,.47ZM308.75,72l0-1.68c0-.52-.06-.92-.08-1.21s0-.55-.08-.82-.08-.63-.13-1.1l-.34-1.79c-.28-.86-.48-1.47-.61-1.81a8.61,8.61,0,0,0-.78-1.48c-.06.52-.11.92-.12,1.22s0,.56,0,.78,0,.48,0,.78,0,.69.07,1.16a15.71,15.71,0,0,0,.17,1.57c.05.39.13.81.23,1.26a7.72,7.72,0,0,0,.52,1.64,8.43,8.43,0,0,0,.71,1.08v0a1.18,1.18,0,0,0,.29.3l0,0Z"/>
          <path class="cls-2" d="M314.58,97.66l-.14,0a4.57,4.57,0,0,1-3.19-1,5.81,5.81,0,0,1-2.15-3.78A10.31,10.31,0,0,1,310.16,87a17.66,17.66,0,0,1,4.09-5.58l.13-.14a2.49,2.49,0,0,0,.64-.77,2.86,2.86,0,0,0,.18-1q.41-10.64,0-21.29a2.8,2.8,0,0,1,.14-1.3.92.92,0,0,1,.73-.51,3.38,3.38,0,0,1,1,0,6.83,6.83,0,0,1,1.65.39,2.61,2.61,0,0,1,1.7,2.2,7.73,7.73,0,0,1,.08,1.44l-.21,14.81a21.38,21.38,0,0,0,5.51-9,3.47,3.47,0,0,1,.59-1.31,1.15,1.15,0,0,1,.67-.41h.15a.74.74,0,0,1,.49.1,1,1,0,0,1,.39.65,2.48,2.48,0,0,1-.14,1.15,25.83,25.83,0,0,1-6.85,10.94,2.64,2.64,0,0,0-.65.77,2.32,2.32,0,0,0-.19.91c-.06.82-.08,2.16-.08,4,0,1.45-.05,2.89-.12,4.33a27.89,27.89,0,0,1-.56,4.27,9.71,9.71,0,0,1-1.59,3.82A5,5,0,0,1,314.58,97.66Zm-1.76-3.55a.79.79,0,0,0,.44-.23q1.37-1.51,1.71-6.18L315,87a18.68,18.68,0,0,0,.09-3.5,11,11,0,0,0-2.95,4.15,7.38,7.38,0,0,0-.66,4.3,4,4,0,0,0,.71,1.83A.63.63,0,0,0,312.82,94.11Zm4.57-38.78-.14,0A1.66,1.66,0,0,1,316,55a2.41,2.41,0,0,1-1-1.6,1.35,1.35,0,0,1,.24-1,1.93,1.93,0,0,1,.87-.72,3.19,3.19,0,0,1,.8-.27l.12,0a1.75,1.75,0,0,1,1.3.32,2.71,2.71,0,0,1,.9,1.11,2.18,2.18,0,0,1,.15.53,1.66,1.66,0,0,1-.09.82A2.66,2.66,0,0,1,317.39,55.33Z"/>
          <path class="cls-2" d="M332.42,77.09l-.32,0a5.08,5.08,0,0,1-2.76-.6,6.48,6.48,0,0,1-2.15-1.85,12.22,12.22,0,0,1-2-5.15l-.17-1a18.77,18.77,0,0,1,.25-7.48q1.08-4.65,4.38-6.16a6.44,6.44,0,0,1,1.35-.37,5.65,5.65,0,0,1,3.51.61q3.06,2,3.84,7.22a24,24,0,0,1,.09,6,7.82,7.82,0,0,0,3.38-4.72l.07-.2c.23-.86.63-1.34,1.19-1.42h.26a1.22,1.22,0,0,1,.78,1,3.41,3.41,0,0,1-.32,1.33A11,11,0,0,1,340,69.83a5.2,5.2,0,0,1-2.08.79A11.8,11.8,0,0,1,336,74.85a6.83,6.83,0,0,1-1.6,1.48A4.89,4.89,0,0,1,332.42,77.09Zm.74-2.68a1.37,1.37,0,0,0,.6-.57,9.27,9.27,0,0,0,1.32-3.43v-.16a.29.29,0,0,0-.2-.19,7.05,7.05,0,0,1-3.09-4.83,11,11,0,0,1-.28-1.36,27.51,27.51,0,0,1-.16-6.06A15.09,15.09,0,0,0,330,64.05a29.29,29.29,0,0,0,.3,5.25,13.6,13.6,0,0,0,.75,2.9A5.1,5.1,0,0,0,332,74a1.11,1.11,0,0,0,1,.46Zm2.23-6.5,0-1.68c0-.52-.05-.92-.07-1.2s-.05-.56-.08-.83-.08-.63-.13-1.1l-.35-1.78c-.27-.87-.48-1.47-.61-1.82a7.84,7.84,0,0,0-.77-1.48c-.07.52-.11.93-.13,1.22s0,.56,0,.78,0,.49,0,.79,0,.68.07,1.15.09,1.06.17,1.58.14.8.24,1.25a8.29,8.29,0,0,0,.51,1.64,9.1,9.1,0,0,0,.72,1.08v0a1.54,1.54,0,0,0,.28.29l0,0A.16.16,0,0,0,335.39,67.91Z"/>
          <path class="cls-2" d="M350.19,74.51a3,3,0,0,1-.83,0l-.14,0A5.28,5.28,0,0,1,345.16,73a5.66,5.66,0,0,1-1.37-2.9c-.15-1-.07-1.66.23-1.94a1.18,1.18,0,0,1,.6-.28l.26,0a.81.81,0,0,1,.6.28,1.27,1.27,0,0,1,.28.61V69a4.18,4.18,0,0,0,0,.71,3.14,3.14,0,0,0,.86,1.71,1.77,1.77,0,0,0,1.59.64,1.87,1.87,0,0,0,1.09-.69,2.74,2.74,0,0,0,.54-2.25,5.13,5.13,0,0,0-.6-1.75A15.34,15.34,0,0,0,347.86,65l-.56-.87c-.41-.56-.79-1.13-1.15-1.71A15.72,15.72,0,0,1,345,60.28c-.33,1.07-.65,2.15-.94,3.23a.91.91,0,0,1-.82.62,1,1,0,0,1-.85-.25,1.26,1.26,0,0,1-.29-.55,1.18,1.18,0,0,1,.05-.56,54,54,0,0,1,1.9-6,16.65,16.65,0,0,1,1.29-2.7,5.11,5.11,0,0,1,2.13-2l.11-.05a6.49,6.49,0,0,1,2-.68,5.9,5.9,0,0,1,2.39.14,1.71,1.71,0,0,1,.47.12l.33.14.27.11a.92.92,0,0,1,.25.19,1,1,0,0,1,.47.7V53a.9.9,0,0,1-.29.6,1.12,1.12,0,0,1-.59.32.83.83,0,0,1-.27,0,3.43,3.43,0,0,0-.8-.12h-.12l-.33,0-.19,0a1.45,1.45,0,0,0-.89.73v0a1.68,1.68,0,0,0-.23.68,4.66,4.66,0,0,0-.05,1.75,7,7,0,0,0,.88,2.47q.67,1.16,1.47,2.25a23.08,23.08,0,0,1,1.7,2.68,9.12,9.12,0,0,1,1,3,6.83,6.83,0,0,1,.07,1.28,11.86,11.86,0,0,0,.92-1.31,31.13,31.13,0,0,0,3.15-7.23,1.06,1.06,0,0,1,.79-.63,1.33,1.33,0,0,1,.53,0,1,1,0,0,1,.62.77,1.09,1.09,0,0,1-.06.56,32.33,32.33,0,0,1-3,7.09,14.39,14.39,0,0,1-5.64,5.75A6.92,6.92,0,0,1,350.19,74.51Z"/>
        </g>
        <g>
          <path class="cls-15" d="M227.31,97.65a12,12,0,0,1-12.14-9.75,13.12,13.12,0,0,1,5.53-13.23,8.86,8.86,0,0,1,0-3.7,12.71,12.71,0,0,1,9.42-9.36,14.25,14.25,0,0,1,2-.34,10.34,10.34,0,0,1,1.08-.06,7.64,7.64,0,0,1,7.52,10.56,5.88,5.88,0,0,1,3.18,6.4,7,7,0,0,1-2.79,4.39,10.45,10.45,0,0,1,.06,5.66c-1.16,4.39-4.8,7.65-10,8.94A15.83,15.83,0,0,1,227.31,97.65Z"/>
          <path class="cls-3" d="M231.09,76.51l-.14,0a15.6,15.6,0,0,0-3.25.43c-9.79,2.44-7,14.7.5,12.83,5.74-1.43,5.48-7.35,3-8.15-2.23,1-4,2.14-3.61,3.88.08.28,0,.53-.23.59a.26.26,0,0,1-.15,0,2.61,2.61,0,0,1-1.81-4.05c2.34-3.44,13.17-4.77,12.32-8.18-.06-.25,0-.42.16-.46s.11,0,.19,0a2.36,2.36,0,0,1,1.41,2.74c-.28,1.63-2,2.7-4,3.67,3,2.87,2.29,10.4-6.06,12.49-12.2,3-17-12.69-4.85-17.73-3.33-2.52-.76-9.45,5.49-11a9.63,9.63,0,0,1,1.49-.26c5.89-.55,6.78,5.63,3.21,7.81a1.89,1.89,0,0,1-.62.27c-1.65.41-3.66-1.07-2.64-1.74,2.53-1.78,2.82-5.2-.5-4.75a3.83,3.83,0,0,0-.59.1c-4.48,1.12-5.81,8.31-.83,8.25.81-.09,1.59-.17,2.46-.19S232.13,76.25,231.09,76.51Z"/>
        </g>
        <path class="cls-1" d="M89.23,99l0,0a71.94,71.94,0,0,1-4.86,5.52q-.28.31-.6.63a91.23,91.23,0,0,1-9.33,8.35A70.36,70.36,0,0,1,66,119.15l16.62-14.42Z"/>
        <path class="cls-16" d="M83.74,105.14s8.63,3,6.64,17.65-11.65-6.19-11.65-6.19l-1-5.82"/>
        <path class="cls-15" d="M368.56,38a3.67,3.67,0,0,1,1.71,1,4,4,0,0,1,1,1.8,3.92,3.92,0,0,1-1.06,3.81,4,4,0,0,1-3.86,1,3.77,3.77,0,0,1-1.72-1,4,4,0,0,1,.07-5.58,4.15,4.15,0,0,1,3.88-1Zm1.19,6.19a3.14,3.14,0,0,0,.86-1.46,3.31,3.31,0,0,0,0-1.74,3.39,3.39,0,0,0-.81-1.52,3.12,3.12,0,0,0-1.43-.87,3.27,3.27,0,0,0-1.73,0,3.35,3.35,0,0,0-1.54.83,3.21,3.21,0,0,0-.86,1.45,3.42,3.42,0,0,0,0,1.74,3.36,3.36,0,0,0,.83,1.53,3.12,3.12,0,0,0,1.43.87,3.27,3.27,0,0,0,1.73,0A3.21,3.21,0,0,0,369.75,44.16Zm-.52-2.65a1.35,1.35,0,0,1-.51.66L370,43.39l-.93.24-1.17-1.09-.12,0-.84.21.32,1.3-.93.23-1.06-4.26,1.77-.44a2,2,0,0,1,1.42.07,1.42,1.42,0,0,1,.75,1A1.5,1.5,0,0,1,369.23,41.51Zm-1.64.35a1.12,1.12,0,0,0,.65-.38.76.76,0,0,0-.28-1.11,1.18,1.18,0,0,0-.75,0l-.8.2.38,1.5Z"/>
        <g>
          <path class="cls-15" d="M152.06,178.31a3.43,3.43,0,0,1-1.56,1.44l1.84,2.34-2,.31-1.66-2.13-1.64.25-.11,2.4-1.94.29.4-8.56,3.38-.52a3.81,3.81,0,0,1,2.5.32,2.31,2.31,0,0,1,1.15,1.77A3.21,3.21,0,0,1,152.06,178.31Zm-1.93-.28a1.58,1.58,0,0,0,.34-1.34,1,1,0,0,0-.54-.83,1.9,1.9,0,0,0-1.2-.12l-1.52.23-.14,3,1.64-.25A2.28,2.28,0,0,0,150.13,178Z"/>
          <path class="cls-15" d="M163.59,173.45l-.08,1.86,3.86-.59-.07,1.54-3.87.59-.09,2,4.54-.69-.09,1.6-6.43,1,.39-8.57,6.28-1-.08,1.59Z"/>
          <path class="cls-15" d="M178,178.06a4.61,4.61,0,0,1-1.55-.44L177,176a4.48,4.48,0,0,0,1.38.45,4.66,4.66,0,0,0,1.49,0,2.6,2.6,0,0,0,1.22-.45.79.79,0,0,0,.35-.78.59.59,0,0,0-.45-.51,6.93,6.93,0,0,0-1.24-.24c-.56-.08-1-.17-1.39-.26a2.39,2.39,0,0,1-1-.52,1.78,1.78,0,0,1-.55-1.11,2.41,2.41,0,0,1,.24-1.55,2.93,2.93,0,0,1,1.18-1.19,5.28,5.28,0,0,1,1.95-.65,6.35,6.35,0,0,1,1.62-.06,4.52,4.52,0,0,1,1.36.33l-.5,1.59a3.39,3.39,0,0,0-1.12-.33,4.62,4.62,0,0,0-1.23,0,2.45,2.45,0,0,0-1.25.48.87.87,0,0,0-.37.81.64.64,0,0,0,.27.43,1.56,1.56,0,0,0,.56.21c.22.05.52.09.91.14a10.45,10.45,0,0,1,1.37.23,2.59,2.59,0,0,1,1,.51,1.71,1.71,0,0,1,.53,1.06,2.43,2.43,0,0,1-.25,1.56,3.09,3.09,0,0,1-1.19,1.19,5.33,5.33,0,0,1-2,.65A7,7,0,0,1,178,178.06Z"/>
          <path class="cls-15" d="M194.15,168.82l-2.66.41.08-1.62,7.24-1.1-.08,1.61-2.65.41-.33,6.95-1.92.29Z"/>
          <path class="cls-15" d="M212.34,171.13l-3.87.59-.81,1.94-2,.31,4.11-9.12,1.9-.29,3.3,8-1.92.29Zm-.54-1.41-1.19-3.1-1.47,3.5Z"/>
          <path class="cls-15" d="M224.64,170.42a2.7,2.7,0,0,1-1.21-2,5.11,5.11,0,0,1,0-.91l.22-4.79,1.93-.29-.22,4.75a3.91,3.91,0,0,0,0,.71,1.46,1.46,0,0,0,.58,1.06,1.72,1.72,0,0,0,1.25.2,1.9,1.9,0,0,0,1.32-.74,3.26,3.26,0,0,0,.51-1.79l.22-4.76,1.89-.28-.22,4.88c-.13,2.55-1.35,4-3.68,4.36A3.65,3.65,0,0,1,224.64,170.42Z"/>
          <path class="cls-15" d="M247.4,163.78a3.42,3.42,0,0,1-1.56,1.44l1.83,2.35-2,.31L244,165.75l-1.63.25-.11,2.4-1.94.29.4-8.56,3.38-.52a3.82,3.82,0,0,1,2.5.31,2.35,2.35,0,0,1,1.15,1.77A3.26,3.26,0,0,1,247.4,163.78Zm-1.93-.28a1.55,1.55,0,0,0,.34-1.33,1,1,0,0,0-.54-.83,1.9,1.9,0,0,0-1.2-.12l-1.52.23-.14,3,1.64-.25A2.29,2.29,0,0,0,245.47,163.5Z"/>
          <path class="cls-15" d="M262.33,163.51l-3.87.59-.8,2-2.06.31,4.11-9.13,1.9-.29,3.31,8-1.92.29Zm-.54-1.41L260.6,159l-1.47,3.51Z"/>
          <path class="cls-15" d="M281.47,153.92l-.4,8.56-1.57.24L275.61,158l-.26,5.36-1.9.29.4-8.56,1.59-.25,3.89,4.74.24-5.36Z"/>
          <path class="cls-15" d="M292.75,153.8l-2.66.41.08-1.62,7.24-1.1-.08,1.61-2.65.41-.32,7-1.93.29Z"/>
          <path class="cls-15" d="M308,151.46l-.08,1.86,3.86-.59-.07,1.54-3.87.59-.09,2,4.54-.69-.09,1.6-6.43,1,.39-8.57,6.28-.95-.08,1.59Z"/>
        </g>
      </g>
      <rect class="cls-15" x="35.3" y="249.99" width="290.35" height="42.35" rx="21.18"/>
      <rect class="cls-17" x="217.38" y="249.99" width="186.48" height="42.35" rx="21.18"/>
      <g>
        <path class="cls-3" d="M71.39,270.78v.32s0,.13-.06.13h-1.1v-.52a10.44,10.44,0,0,0-.19-1.35,1.33,1.33,0,0,0-.13-.46c-.07-.26-.2-.58-.26-.84v-.13a6.3,6.3,0,0,0-.45-.9c-.13-.19-.26-.39-.33-.52a.22.22,0,0,0-.06-.13,7.93,7.93,0,0,0-2-1.87,1.59,1.59,0,0,0-.45-.26,4.21,4.21,0,0,0-.9-.45h-.07a10.18,10.18,0,0,0-1.35-.45,8.1,8.1,0,0,0-1.75-.2h-.13v-1a.2.2,0,0,1,.2-.2h.32a3.55,3.55,0,0,1,.71.07.43.43,0,0,1,.26.06,14.08,14.08,0,0,1,1.81.46,9.08,9.08,0,0,1,4.26,3.16v.07a.84.84,0,0,1,.2.26,4.67,4.67,0,0,1,.45.77,4.06,4.06,0,0,1,.45.91c.13.32.26.64.39,1,0,.13.13.26.06.32a9.31,9.31,0,0,1,.26,1.36V271h0Z"/>
        <path class="cls-3" d="M52.52,265.74v-.2a.91.91,0,0,1,.13-.38.71.71,0,0,1,.26-.33c.39-.39.78-.71,1.1-1.1a1.83,1.83,0,0,1,.39-.32.72.72,0,0,1,.51-.19.57.57,0,0,0,.33-.07h.51a3.24,3.24,0,0,1,.46.13,2.58,2.58,0,0,1,1.42,1.29,3.61,3.61,0,0,1,.26.71c.19.59.32,1.23.45,1.81a2.5,2.5,0,0,1-.26,1.68,2.61,2.61,0,0,1-.32.46,7.78,7.78,0,0,1-.65.58c-.13.13-.13.19-.06.32s.19.45.26.71a7.45,7.45,0,0,0,.38.84,11.92,11.92,0,0,0,1,1.49c.13.13.2.26.33.39a9.65,9.65,0,0,0,2.39,1.87c.26.13.58.26.9.39a4,4,0,0,0,.78.26h.19l.65-.65a2.23,2.23,0,0,1,1.74-.71,4.24,4.24,0,0,1,.84.19h.13c.52.13,1.1.33,1.62.46h.13a2.09,2.09,0,0,1,1.29,1.16c.06.13.13.32.19.45a1,1,0,0,0,.13.39V278s0,.26-.06.32a2.63,2.63,0,0,1-.65,1l-.9.9a1.57,1.57,0,0,1-.39.32,2.32,2.32,0,0,1-.65.2h-1a7.76,7.76,0,0,1-1.17-.13,8.85,8.85,0,0,1-1.22-.26,12.29,12.29,0,0,1-2.2-.71.49.49,0,0,1-.26-.13,3.39,3.39,0,0,0-.45-.19c-.32-.2-.71-.33-1-.52s-.91-.58-1.36-.84-.71-.58-1.1-.84a8.17,8.17,0,0,1-1.1-1.1c-.32-.32-.58-.71-.9-1a1.25,1.25,0,0,0-.26-.33c0-.06-.07-.12-.13-.19a15.14,15.14,0,0,1-.84-1.36,4.73,4.73,0,0,1-.52-1l-.19-.39c-.13-.32-.26-.71-.39-1.1a5.41,5.41,0,0,1-.39-1.42.89.89,0,0,0-.06-.39,2.1,2.1,0,0,0-.13-.58c0-.13-.07-.19,0-.32a8,8,0,0,0-.13-1.1v-1.16h0Z"/>
        <path class="cls-3" d="M62,266.51v-1.1a.13.13,0,0,1,.13-.13,3.41,3.41,0,0,1,.84.07.89.89,0,0,1,.39.06l1.16.39a5.91,5.91,0,0,1,3.23,4.07v.07c0,.06.06.19,0,.26a3.38,3.38,0,0,0,.06.77c0,.19,0,.19-.19.19h-1v-.84a2.1,2.1,0,0,0-.13-.58,4.8,4.8,0,0,0-3-3,1.37,1.37,0,0,0-.52-.13H62Z"/>
        <path class="cls-3" d="M62.15,270.07s-.19-.13-.19-.26v-1a2,2,0,0,1,.9.19.34.34,0,0,1,.26.13c.07,0,.13.07.2.13a2.64,2.64,0,0,1,.58.58,1.92,1.92,0,0,1,.26.45,4.43,4.43,0,0,1,.19.78v.19h-1a.19.19,0,0,1-.2-.19,1,1,0,0,0-.58-.84c-.13-.06-.19-.06-.32-.13h-.13Z"/>
      </g>
      <path class="cls-18" d="M249.78,263.51a5.72,5.72,0,0,0-3.16-1.49,2.5,2.5,0,0,1-1-.13H243.9a4.17,4.17,0,0,0-1.55.2,7.34,7.34,0,0,0-4.84,6.91,9.47,9.47,0,0,0,1,4.2,21.19,21.19,0,0,0,5.1,6.66,1.88,1.88,0,0,0,1.1.58h.58s.65-.13.84-.39a23.94,23.94,0,0,0,1.75-1.74,26.49,26.49,0,0,0,3-4,11.18,11.18,0,0,0,1.55-4.91,7.35,7.35,0,0,0-2.59-6h0Zm-4.84,9.3a3.65,3.65,0,1,1,.06-7.3,3.65,3.65,0,0,1-.13,7.3Z"/>
      <g>
        <path class="cls-3" d="M88.68,264.49a2.71,2.71,0,0,1,1.19,1.05,2.82,2.82,0,0,1,.43,1.57,2.91,2.91,0,0,1-.47,1.66,3.06,3.06,0,0,1-1.28,1.1,4.06,4.06,0,0,1-1.8.39A3.91,3.91,0,0,1,83.64,269a5.22,5.22,0,0,1-1.11-3.58,6,6,0,0,1,.6-2.8,4.11,4.11,0,0,1,1.68-1.77,5,5,0,0,1,2.49-.6,5.8,5.8,0,0,1,1.41.16,3.84,3.84,0,0,1,1.15.46l-.67,1.36a3.36,3.36,0,0,0-1.85-.47,2.85,2.85,0,0,0-2.19.86,3.56,3.56,0,0,0-.79,2.49h0a2.66,2.66,0,0,1,1.09-.75,4.22,4.22,0,0,1,1.5-.26A3.89,3.89,0,0,1,88.68,264.49Zm-.66,3.9A1.63,1.63,0,0,0,88,266a2.14,2.14,0,0,0-1.41-.44,2.09,2.09,0,0,0-1.43.47,1.53,1.53,0,0,0-.55,1.2,1.48,1.48,0,0,0,.54,1.17,2.17,2.17,0,0,0,1.48.47A2,2,0,0,0,88,268.39Z"/>
        <path class="cls-3" d="M93.22,269.67A4,4,0,0,1,91.78,268a7.09,7.09,0,0,1,0-5.38,3.92,3.92,0,0,1,1.44-1.72,4,4,0,0,1,4.18,0,3.87,3.87,0,0,1,1.45,1.72,7.09,7.09,0,0,1,0,5.38,3.93,3.93,0,0,1-1.45,1.72,4,4,0,0,1-4.18,0ZM97,267.83a5.8,5.8,0,0,0,0-5.14,1.91,1.91,0,0,0-1.65-.86,1.87,1.87,0,0,0-1.63.86,5.72,5.72,0,0,0,0,5.14,1.87,1.87,0,0,0,1.63.86A1.91,1.91,0,0,0,97,267.83Z"/>
        <path class="cls-3" d="M103.9,260.39v9.73h-1.81v-8.21H100v-1.52Z"/>
        <path class="cls-3" d="M114.5,267.91h-1.72v2.21H111v-2.21h-5.34v-1.25l4.8-6.27h1.93l-4.52,6h3.18v-2h1.7v2h1.72Z"/>
        <path class="cls-3" d="M121.59,261.51a5.27,5.27,0,0,1,1.1,3.58,6,6,0,0,1-.6,2.8,4,4,0,0,1-1.67,1.77,5.05,5.05,0,0,1-2.5.6,5.8,5.8,0,0,1-1.41-.16,3.68,3.68,0,0,1-1.14-.46l.66-1.36a3.36,3.36,0,0,0,1.85.47,2.85,2.85,0,0,0,2.2-.86,3.56,3.56,0,0,0,.79-2.49v0a2.62,2.62,0,0,1-1.1.76,4.14,4.14,0,0,1-1.5.26,3.84,3.84,0,0,1-1.72-.37,2.79,2.79,0,0,1-1.2-1,2.85,2.85,0,0,1-.43-1.57,3,3,0,0,1,.47-1.66,3.21,3.21,0,0,1,1.28-1.11,4.1,4.1,0,0,1,1.81-.38A3.93,3.93,0,0,1,121.59,261.51Zm-1.55,3a1.57,1.57,0,0,0,0-2.37,2.19,2.19,0,0,0-1.48-.47,2,2,0,0,0-1.38.46,1.63,1.63,0,0,0,0,2.41,2.17,2.17,0,0,0,1.42.44A2.11,2.11,0,0,0,120,264.51Z"/>
        <path class="cls-3" d="M127.21,260.39v9.73H125.4v-8.21h-2.05v-1.52Z"/>
        <path class="cls-3" d="M136.19,268.59v1.53H129v-1.2l3.86-3.67a4.14,4.14,0,0,0,.88-1.1,2,2,0,0,0,.23-.92,1.24,1.24,0,0,0-.46-1,2.12,2.12,0,0,0-1.34-.36,2.69,2.69,0,0,0-2.28,1l-1.27-1a3.7,3.7,0,0,1,1.54-1.19,5.34,5.34,0,0,1,2.16-.42,4,4,0,0,1,2.53.75,2.46,2.46,0,0,1,.94,2,3.45,3.45,0,0,1-.33,1.49,5.77,5.77,0,0,1-1.28,1.58l-2.6,2.47Z"/>
        <path class="cls-3" d="M143.32,265a2.65,2.65,0,0,1,1,2.18,2.93,2.93,0,0,1-1.73,2.71,5,5,0,0,1-2.12.41,6.81,6.81,0,0,1-2-.3,4.94,4.94,0,0,1-1.64-.82l.76-1.41a4.39,4.39,0,0,0,1.3.71,4.91,4.91,0,0,0,1.57.25,2.58,2.58,0,0,0,1.51-.39,1.29,1.29,0,0,0,.54-1.09,1.27,1.27,0,0,0-.59-1.14,3.94,3.94,0,0,0-2-.38h-2.35l.5-5.3h5.72v1.52h-4.19l-.21,2.25h.93A4.82,4.82,0,0,1,143.32,265Z"/>
        <path class="cls-3" d="M151.37,265a2.67,2.67,0,0,1,1,2.18,3,3,0,0,1-.43,1.58,3,3,0,0,1-1.29,1.13,5,5,0,0,1-2.13.41,6.8,6.8,0,0,1-2-.3,4.94,4.94,0,0,1-1.64-.82l.76-1.41a4.27,4.27,0,0,0,1.3.71,4.91,4.91,0,0,0,1.57.25,2.52,2.52,0,0,0,1.5-.39,1.38,1.38,0,0,0,0-2.23,4,4,0,0,0-2-.38h-2.35l.5-5.3h5.71v1.52H147.6l-.21,2.25h.93A4.84,4.84,0,0,1,151.37,265Z"/>
        <path class="cls-3" d="M160.37,268.59v1.53H153.2v-1.2l3.87-3.67a4.36,4.36,0,0,0,.88-1.1,2.09,2.09,0,0,0,.23-.92,1.24,1.24,0,0,0-.46-1,2.17,2.17,0,0,0-1.35-.36,2.71,2.71,0,0,0-2.28,1l-1.26-1a3.73,3.73,0,0,1,1.53-1.19,5.4,5.4,0,0,1,2.16-.42,4,4,0,0,1,2.53.75,2.47,2.47,0,0,1,.95,2,3.45,3.45,0,0,1-.33,1.49,6,6,0,0,1-1.28,1.58l-2.6,2.47Z"/>
        <path class="cls-19" d="M86.65,278.7a1.84,1.84,0,0,1,.54,1.36,2,2,0,0,1-.3,1.09,2.11,2.11,0,0,1-.89.77,3.37,3.37,0,0,1-1.46.28A4.61,4.61,0,0,1,83.1,282a3.08,3.08,0,0,1-1.13-.63l.46-.79a2.68,2.68,0,0,0,.92.55,3.38,3.38,0,0,0,1.19.2,2,2,0,0,0,1.22-.33,1.17,1.17,0,0,0,0-1.81,2.18,2.18,0,0,0-1.3-.32H83.9v-.7L85.66,276H82.29v-.87h4.62v.68l-1.83,2.26A2.49,2.49,0,0,1,86.65,278.7Z"/>
        <path class="cls-19" d="M90.29,275.12v7h-1V276H87.72v-.87Z"/>
        <path class="cls-19" d="M96.74,281.25v.87h-5v-.68l2.85-2.75a3.32,3.32,0,0,0,.7-.86,1.65,1.65,0,0,0,.18-.74,1,1,0,0,0-.38-.85,1.79,1.79,0,0,0-1.11-.31,2.22,2.22,0,0,0-1.79.76l-.68-.59a2.81,2.81,0,0,1,1.08-.78A3.9,3.9,0,0,1,94,275a2.69,2.69,0,0,1,1.75.53,1.71,1.71,0,0,1,.65,1.42,2.39,2.39,0,0,1-.24,1.06,4,4,0,0,1-.91,1.14l-2.14,2.06Z"/>
        <path class="cls-19" d="M102.63,275.12v.68l-2.83,6.32H98.74l2.77-6.13h-3.2v1.25h-1v-2.12Z"/>
        <path class="cls-19" d="M108.61,275.12v.68l-2.83,6.32h-1.06l2.77-6.13h-3.2v1.25h-1v-2.12Z"/>
        <path class="cls-19" d="M110.68,281.78a2.88,2.88,0,0,1-1-1.24,5.17,5.17,0,0,1,0-3.84,2.85,2.85,0,0,1,1-1.23,2.73,2.73,0,0,1,2.94,0,2.76,2.76,0,0,1,1,1.23,5.17,5.17,0,0,1,0,3.84,2.79,2.79,0,0,1-1,1.24,2.78,2.78,0,0,1-2.94,0Zm2.82-1.16a4.25,4.25,0,0,0,0-4,1.67,1.67,0,0,0-2.7,0,4.18,4.18,0,0,0,0,4,1.67,1.67,0,0,0,2.7,0Z"/>
        <path class="cls-19" d="M122.05,280.4h-1.33v1.72h-1V280.4h-3.89v-.7l3.58-4.58h1.08l-3.43,4.42h2.69V278h.94v1.52h1.33Z"/>
        <path class="cls-19" d="M126.83,278.48a1.87,1.87,0,0,1,.7,1.54,2.2,2.2,0,0,1-.29,1.12,2.07,2.07,0,0,1-.89.78,3.41,3.41,0,0,1-1.47.28,4.59,4.59,0,0,1-1.43-.22,3.13,3.13,0,0,1-1.14-.63l.46-.79a2.68,2.68,0,0,0,.92.55,3.36,3.36,0,0,0,1.18.2,2,2,0,0,0,1.23-.33,1.09,1.09,0,0,0,.43-.92,1.07,1.07,0,0,0-.48-.95,3,3,0,0,0-1.64-.33h-1.59l.37-3.66h4V276H124l-.19,1.92h.78A3.5,3.5,0,0,1,126.83,278.48Z"/>
        <path class="cls-19" d="M130.53,275.12v7h-1V276H128v-.87Z"/>
        <path class="cls-19" d="M136.32,278.13a2.07,2.07,0,0,1,.85.75,2,2,0,0,1,.31,1.11,2.12,2.12,0,0,1-.32,1.16,2.17,2.17,0,0,1-.89.78,2.92,2.92,0,0,1-1.27.27,2.66,2.66,0,0,1-2.17-.91,3.88,3.88,0,0,1-.77-2.58,4.33,4.33,0,0,1,.42-2,2.82,2.82,0,0,1,1.16-1.25,3.44,3.44,0,0,1,1.73-.43,4.21,4.21,0,0,1,1,.11,2.76,2.76,0,0,1,.78.3l-.38.78a2.39,2.39,0,0,0-1.34-.33,2.23,2.23,0,0,0-1.71.68,2.81,2.81,0,0,0-.62,2c0,.11,0,.19,0,.25a1.92,1.92,0,0,1,.83-.68,2.8,2.8,0,0,1,1.18-.24A2.93,2.93,0,0,1,136.32,278.13Zm-.24,2.89a1.34,1.34,0,0,0,0-2,1.78,1.78,0,0,0-1.17-.37,1.84,1.84,0,0,0-.83.18,1.38,1.38,0,0,0-.57.49,1.22,1.22,0,0,0-.21.69,1.23,1.23,0,0,0,.2.68,1.38,1.38,0,0,0,.57.49,2,2,0,0,0,.89.18A1.63,1.63,0,0,0,136.08,281Z"/>
        <path class="cls-19" d="M142.48,278.7a1.84,1.84,0,0,1,.54,1.36,2,2,0,0,1-.3,1.09,2.11,2.11,0,0,1-.89.77,3.37,3.37,0,0,1-1.46.28,4.61,4.61,0,0,1-1.44-.22,3.08,3.08,0,0,1-1.13-.63l.46-.79a2.68,2.68,0,0,0,.92.55,3.34,3.34,0,0,0,1.19.2,2,2,0,0,0,1.22-.33,1.17,1.17,0,0,0,0-1.81,2.2,2.2,0,0,0-1.3-.32h-.56v-.7l1.76-2.16h-3.37v-.87h4.62v.68l-1.83,2.26A2.49,2.49,0,0,1,142.48,278.7Z"/>
        <path class="cls-19" d="M146.73,279h2.69v.83h-2.69Z"/>
        <path class="cls-19" d="M157.41,278.7a1.84,1.84,0,0,1,.54,1.36,2,2,0,0,1-.3,1.09,2.11,2.11,0,0,1-.89.77,3.4,3.4,0,0,1-1.46.28,4.61,4.61,0,0,1-1.44-.22,3,3,0,0,1-1.13-.63l.46-.79a2.68,2.68,0,0,0,.92.55,3.34,3.34,0,0,0,1.19.2,2,2,0,0,0,1.22-.33,1.17,1.17,0,0,0,0-1.81,2.2,2.2,0,0,0-1.3-.32h-.56v-.7l1.76-2.16h-3.37v-.87h4.62v.68l-1.83,2.26A2.49,2.49,0,0,1,157.41,278.7Z"/>
        <path class="cls-19" d="M161.05,275.12v7h-1V276h-1.58v-.87Z"/>
        <path class="cls-19" d="M167.5,281.25v.87h-5v-.68l2.85-2.75a3.32,3.32,0,0,0,.7-.86,1.65,1.65,0,0,0,.18-.74,1,1,0,0,0-.38-.85,1.79,1.79,0,0,0-1.11-.31,2.22,2.22,0,0,0-1.79.76l-.68-.59a2.74,2.74,0,0,1,1.08-.78,3.86,3.86,0,0,1,1.48-.28,2.71,2.71,0,0,1,1.75.53,1.73,1.73,0,0,1,.65,1.42,2.39,2.39,0,0,1-.24,1.06,4,4,0,0,1-.91,1.14l-2.14,2.06Z"/>
        <path class="cls-19" d="M173.39,275.12v.68l-2.83,6.32H169.5l2.77-6.13h-3.2v1.25h-1v-2.12Z"/>
        <path class="cls-19" d="M178.33,278.13a2.14,2.14,0,0,1,.85.75,2,2,0,0,1,.31,1.11,2.12,2.12,0,0,1-.32,1.16,2.17,2.17,0,0,1-.89.78,2.92,2.92,0,0,1-1.27.27,2.66,2.66,0,0,1-2.17-.91,3.88,3.88,0,0,1-.77-2.58,4.33,4.33,0,0,1,.42-2,2.82,2.82,0,0,1,1.16-1.25,3.44,3.44,0,0,1,1.73-.43,4.21,4.21,0,0,1,1,.11,2.76,2.76,0,0,1,.78.3l-.38.78a2.39,2.39,0,0,0-1.34-.33,2.21,2.21,0,0,0-1.71.68,2.81,2.81,0,0,0-.62,2c0,.11,0,.19,0,.25a1.92,1.92,0,0,1,.83-.68,2.8,2.8,0,0,1,1.18-.24A2.93,2.93,0,0,1,178.33,278.13Zm-.24,2.89a1.34,1.34,0,0,0,0-2,1.78,1.78,0,0,0-1.17-.37,1.84,1.84,0,0,0-.83.18,1.38,1.38,0,0,0-.57.49,1.22,1.22,0,0,0-.21.69,1.23,1.23,0,0,0,.2.68,1.38,1.38,0,0,0,.57.49,2,2,0,0,0,.89.18A1.65,1.65,0,0,0,178.09,281Z"/>
        <path class="cls-19" d="M184.45,278.48a1.87,1.87,0,0,1,.7,1.54,2.2,2.2,0,0,1-.29,1.12,2.07,2.07,0,0,1-.89.78,3.41,3.41,0,0,1-1.47.28,4.59,4.59,0,0,1-1.43-.22,3.13,3.13,0,0,1-1.14-.63l.46-.79a2.68,2.68,0,0,0,.92.55,3.33,3.33,0,0,0,1.18.2,2,2,0,0,0,1.23-.33,1.09,1.09,0,0,0,.43-.92,1.07,1.07,0,0,0-.48-.95,3,3,0,0,0-1.64-.33h-1.59l.37-3.66h3.95V276h-3.11l-.19,1.92h.78A3.5,3.5,0,0,1,184.45,278.48Z"/>
        <path class="cls-19" d="M187.37,281.78a2.88,2.88,0,0,1-1-1.24,5.17,5.17,0,0,1,0-3.84,2.85,2.85,0,0,1,1-1.23,2.73,2.73,0,0,1,2.94,0,2.83,2.83,0,0,1,1,1.23,5.17,5.17,0,0,1,0,3.84,2.86,2.86,0,0,1-1,1.24,2.78,2.78,0,0,1-2.94,0Zm2.82-1.16a4.25,4.25,0,0,0,0-4,1.6,1.6,0,0,0-1.35-.69,1.57,1.57,0,0,0-1.35.69,4.18,4.18,0,0,0,0,4,1.57,1.57,0,0,0,1.35.69A1.6,1.6,0,0,0,190.19,280.62Z"/>
        <path class="cls-19" d="M196.8,278.7a1.84,1.84,0,0,1,.54,1.36,2,2,0,0,1-.3,1.09,2.11,2.11,0,0,1-.89.77,3.4,3.4,0,0,1-1.46.28,4.61,4.61,0,0,1-1.44-.22,3,3,0,0,1-1.13-.63l.46-.79a2.68,2.68,0,0,0,.92.55,3.34,3.34,0,0,0,1.19.2,2,2,0,0,0,1.22-.33,1.17,1.17,0,0,0,0-1.81,2.2,2.2,0,0,0-1.3-.32h-.56v-.7l1.76-2.16h-3.37v-.87h4.62v.68l-1.83,2.26A2.49,2.49,0,0,1,196.8,278.7Z"/>
        <path class="cls-19" d="M202.53,278.13a2.14,2.14,0,0,1,.85.75,2,2,0,0,1,.31,1.11,2.12,2.12,0,0,1-.32,1.16,2.17,2.17,0,0,1-.89.78,2.92,2.92,0,0,1-1.27.27,2.66,2.66,0,0,1-2.17-.91,3.88,3.88,0,0,1-.77-2.58,4.33,4.33,0,0,1,.42-2,2.82,2.82,0,0,1,1.16-1.25,3.44,3.44,0,0,1,1.73-.43,4.21,4.21,0,0,1,1,.11,2.76,2.76,0,0,1,.78.3l-.38.78a2.39,2.39,0,0,0-1.34-.33,2.2,2.2,0,0,0-1.71.68,2.81,2.81,0,0,0-.62,2,1.7,1.7,0,0,0,0,.25,1.92,1.92,0,0,1,.83-.68,2.8,2.8,0,0,1,1.18-.24A2.93,2.93,0,0,1,202.53,278.13Zm-.24,2.89a1.34,1.34,0,0,0,0-2,1.78,1.78,0,0,0-1.17-.37,1.84,1.84,0,0,0-.83.18,1.38,1.38,0,0,0-.57.49,1.22,1.22,0,0,0-.21.69,1.23,1.23,0,0,0,.2.68,1.38,1.38,0,0,0,.57.49,2,2,0,0,0,.89.18A1.65,1.65,0,0,0,202.29,281Z"/>
        <path class="cls-19" d="M208.7,278.13a2.14,2.14,0,0,1,.85.75,2,2,0,0,1,.31,1.11,2.12,2.12,0,0,1-.32,1.16,2.17,2.17,0,0,1-.89.78,2.92,2.92,0,0,1-1.27.27,2.66,2.66,0,0,1-2.17-.91,3.88,3.88,0,0,1-.77-2.58,4.33,4.33,0,0,1,.42-2,2.82,2.82,0,0,1,1.16-1.25,3.44,3.44,0,0,1,1.73-.43,4.21,4.21,0,0,1,1,.11,2.76,2.76,0,0,1,.78.3l-.38.78a2.39,2.39,0,0,0-1.34-.33,2.2,2.2,0,0,0-1.71.68,2.81,2.81,0,0,0-.62,2,1.7,1.7,0,0,0,0,.25,1.92,1.92,0,0,1,.83-.68,2.8,2.8,0,0,1,1.18-.24A2.93,2.93,0,0,1,208.7,278.13Zm-.24,2.89a1.34,1.34,0,0,0,0-2,1.78,1.78,0,0,0-1.17-.37,1.84,1.84,0,0,0-.83.18,1.38,1.38,0,0,0-.57.49,1.22,1.22,0,0,0-.21.69,1.23,1.23,0,0,0,.2.68,1.38,1.38,0,0,0,.57.49,2,2,0,0,0,.89.18A1.65,1.65,0,0,0,208.46,281Z"/>
      </g>
      <g>
        <path class="cls-18" d="M266.63,276.11a4.79,4.79,0,0,1-1.89-1.79,5.21,5.21,0,0,1,0-5.18,4.81,4.81,0,0,1,1.89-1.8,5.61,5.61,0,0,1,2.7-.64,5.77,5.77,0,0,1,2.29.44,4.65,4.65,0,0,1,1.72,1.28l-1.45,1.33a3.12,3.12,0,0,0-2.44-1.13,3.32,3.32,0,0,0-1.62.39,2.8,2.8,0,0,0-1.1,1.11,3.44,3.44,0,0,0,0,3.22,2.86,2.86,0,0,0,1.1,1.11,3.32,3.32,0,0,0,1.62.39,3.08,3.08,0,0,0,2.44-1.15l1.45,1.33a4.55,4.55,0,0,1-1.73,1.3,5.81,5.81,0,0,1-2.29.44A5.6,5.6,0,0,1,266.63,276.11Z"/>
        <path class="cls-18" d="M277.82,269.28a4,4,0,0,1,1.52-.28v2l-.48,0a2,2,0,0,0-1.46.52,2.08,2.08,0,0,0-.53,1.56v3.53H274.7v-7.47h2.07v1A2.46,2.46,0,0,1,277.82,269.28Z"/>
        <path class="cls-18" d="M286.28,269.83a3.17,3.17,0,0,1,.93,2.5v4.26h-2v-.93a2.41,2.41,0,0,1-2.28,1,3.45,3.45,0,0,1-1.49-.29,2.07,2.07,0,0,1-1.3-2,2,2,0,0,1,.78-1.64,4,4,0,0,1,2.43-.6H285a1.38,1.38,0,0,0-.43-1.09,1.93,1.93,0,0,0-1.29-.38,3.69,3.69,0,0,0-1.18.19,3.12,3.12,0,0,0-1,.5l-.78-1.51a4.74,4.74,0,0,1,1.47-.67,6.5,6.5,0,0,1,1.76-.24A3.9,3.9,0,0,1,286.28,269.83ZM284.43,275a1.4,1.4,0,0,0,.61-.76v-.76h-1.49c-.89,0-1.33.29-1.33.87a.77.77,0,0,0,.33.66,1.45,1.45,0,0,0,.89.25A1.92,1.92,0,0,0,284.43,275Z"/>
        <path class="cls-18" d="M289,276.32a1.33,1.33,0,0,1-.39-1,1.24,1.24,0,0,1,.39-1,1.43,1.43,0,0,1,1.92,0,1.24,1.24,0,0,1,.39,1,1.33,1.33,0,0,1-.39,1,1.4,1.4,0,0,1-1.92,0Z"/>
        <path class="cls-18" d="M304.05,272.42a2.45,2.45,0,0,1,.38,1.35,2.55,2.55,0,0,1-.51,1.58,3.29,3.29,0,0,1-1.45,1,6.43,6.43,0,0,1-4.3,0,3.17,3.17,0,0,1-1.43-1,2.55,2.55,0,0,1-.51-1.58,2.45,2.45,0,0,1,.38-1.35,2.8,2.8,0,0,1,1.09-.94,2.3,2.3,0,0,1-.83-.84,2.25,2.25,0,0,1-.29-1.16,2.42,2.42,0,0,1,.47-1.48,3.06,3.06,0,0,1,1.32-1,5.14,5.14,0,0,1,1.95-.34,5.2,5.2,0,0,1,2,.34,3,3,0,0,1,1.33,1,2.36,2.36,0,0,1,.47,1.48,2.25,2.25,0,0,1-.29,1.16,2.28,2.28,0,0,1-.85.84A2.73,2.73,0,0,1,304.05,272.42Zm-2.39,2.3a1.3,1.3,0,0,0,0-2,2.18,2.18,0,0,0-1.34-.38,2.09,2.09,0,0,0-1.32.38,1.31,1.31,0,0,0,0,2,2.09,2.09,0,0,0,1.32.38A2.11,2.11,0,0,0,301.66,274.72Zm-2.43-6a1.06,1.06,0,0,0-.41.89,1,1,0,0,0,.4.88,1.73,1.73,0,0,0,1.1.32,1.81,1.81,0,0,0,1.11-.32,1,1,0,0,0,.42-.88,1.06,1.06,0,0,0-.42-.89,1.75,1.75,0,0,0-1.11-.33A1.67,1.67,0,0,0,299.23,268.68Z"/>
        <path class="cls-18" d="M312.71,269.84a3.29,3.29,0,0,1,.85,2.47v4.28H311.4v-3.94a1.94,1.94,0,0,0-.39-1.33,1.45,1.45,0,0,0-1.13-.44,1.73,1.73,0,0,0-1.31.51,2.12,2.12,0,0,0-.48,1.51v3.69h-2.17V266.28h2.17v3.61a3,3,0,0,1,1-.66,3.83,3.83,0,0,1,1.33-.23A3.07,3.07,0,0,1,312.71,269.84Z"/>
        <path class="cls-18" d="M325.91,272.85h1.8v1.52h-2l-.28,2.22h-1.57l.28-2.22h-2.05l-.28,2.22h-1.55l.28-2.22h-1.83v-1.52h2l.29-2.25h-1.82v-1.51h2l.28-2.23H323l-.27,2.23h2l.28-2.23h1.55l-.27,2.23h1.8l0,1.51h-2Zm-1.57,0,.29-2.25h-2.05l-.29,2.25Z"/>
        <path class="cls-18" d="M332.76,266.86v9.73h-2.25v-7.92h-1.95v-1.81Z"/>
        <path class="cls-18" d="M340.84,270.87a2.94,2.94,0,0,1,1.2,1.06,2.85,2.85,0,0,1,.45,1.59,3,3,0,0,1-.49,1.71,3.07,3.07,0,0,1-1.33,1.13,4.22,4.22,0,0,1-1.86.4,4.14,4.14,0,0,1-3.2-1.25,5.06,5.06,0,0,1-1.16-3.57,6,6,0,0,1,.63-2.84,4.29,4.29,0,0,1,1.74-1.79,5.31,5.31,0,0,1,2.6-.61,6.08,6.08,0,0,1,1.49.17,4.26,4.26,0,0,1,1.22.49l-.84,1.66a3.15,3.15,0,0,0-1.82-.49,2.66,2.66,0,0,0-2,.72,3.08,3.08,0,0,0-.78,2.1,3.29,3.29,0,0,1,2.41-.86A3.82,3.82,0,0,1,340.84,270.87Zm-1,3.82a1.33,1.33,0,0,0,.45-1.06,1.34,1.34,0,0,0-.45-1.06,2,2,0,0,0-2.42,0,1.36,1.36,0,0,0-.47,1.05,1.32,1.32,0,0,0,.46,1.05,1.86,1.86,0,0,0,1.25.4A1.77,1.77,0,0,0,339.86,274.69Z"/>
        <path class="cls-18" d="M352.22,274.55h-1.59v2h-2.19v-2H343.2V273l4.58-6.18h2.37l-4.26,5.86h2.62v-1.83h2.12v1.83h1.59Z"/>
        <path class="cls-18" d="M355,276.21a3.63,3.63,0,0,1-1.48-1.37,3.92,3.92,0,0,1,0-4A3.63,3.63,0,0,1,355,269.5a4.6,4.6,0,0,1,2.15-.5,4.11,4.11,0,0,1,2.06.5,2.94,2.94,0,0,1,1.29,1.41l-1.68.9a1.85,1.85,0,0,0-1.68-1,1.91,1.91,0,0,0-1.41.56,2,2,0,0,0-.55,1.51,2.06,2.06,0,0,0,.55,1.52,1.91,1.91,0,0,0,1.41.56,1.83,1.83,0,0,0,1.68-1l1.68.91a2.94,2.94,0,0,1-1.29,1.39,4,4,0,0,1-2.06.5A4.6,4.6,0,0,1,355,276.21Z"/>
        <path class="cls-18" d="M361.23,271.81h3.93v1.74h-3.93Z"/>
        <path class="cls-18" d="M373.46,274.76v1.83H366.1v-1.46l3.76-3.54a4,4,0,0,0,.8-1,1.75,1.75,0,0,0,.21-.81,1.09,1.09,0,0,0-.39-.9,1.84,1.84,0,0,0-1.16-.31,2.7,2.7,0,0,0-1.16.24,2.23,2.23,0,0,0-.86.73l-1.64-1.06a3.85,3.85,0,0,1,1.57-1.32,5.24,5.24,0,0,1,2.29-.48,4.81,4.81,0,0,1,1.9.35,3,3,0,0,1,1.27,1,2.6,2.6,0,0,1,.45,1.52,3.29,3.29,0,0,1-.34,1.49,5.67,5.67,0,0,1-1.29,1.59l-2.24,2.11Z"/>
        <path class="cls-18" d="M380.76,271.34a2.71,2.71,0,0,1,1,2.2,2.94,2.94,0,0,1-1.8,2.78,5.14,5.14,0,0,1-2.24.44,7.75,7.75,0,0,1-2-.27,5.21,5.21,0,0,1-1.68-.77l.89-1.73a4.12,4.12,0,0,0,1.27.65,5,5,0,0,0,1.49.23,2.37,2.37,0,0,0,1.34-.33,1.09,1.09,0,0,0,.48-.93,1.06,1.06,0,0,0-.5-.95,3.56,3.56,0,0,0-1.76-.32h-2.49l.5-5.48h5.93v1.81h-4.05l-.16,1.85h.8A4.63,4.63,0,0,1,380.76,271.34Z"/>
      </g>
    </g>
  </g>
</svg>
